<svg width="30" height="30" viewBox="0 0 30 30" fill="none" xmlns="http://www.w3.org/2000/svg">
<path d="M29.998 3.90167C29.998 3.14531 29.7535 2.55167 29.1677 2.18092C28.582 1.81017 27.9741 1.45003 27.3296 1.25616C23.6085 0.141777 19.8574 0.157343 16.103 1.06583C15.2347 1.27809 14.3977 1.60003 13.6677 2.17031C13.1166 2.59979 12.8341 3.14814 12.8415 3.90379C12.8642 6.29883 12.8495 8.69458 12.8495 11.0896V11.5085C12.7059 11.4483 12.597 11.4038 12.4895 11.3578C11.0775 10.7435 9.54008 10.5242 8.02499 10.721C2.44375 11.4491 -1.19782 17.2601 0.363137 22.9863C0.582887 23.7943 0.974295 24.5528 1.31962 25.3176C1.46189 25.6325 1.78717 25.6969 2.04366 25.5391C2.30014 25.3813 2.37762 25.0714 2.23468 24.7573C2.17323 24.6228 2.09776 24.4955 2.0343 24.3639C1.20206 22.7061 0.882789 20.9436 1.15397 19.087C1.86131 14.2439 6.03723 11.0917 10.5825 11.9408C15.6107 12.8804 18.5469 18.7665 16.4637 23.7306C14.4739 28.4712 9.13777 30.2683 4.93447 27.6115C4.86205 27.5612 4.78613 27.5167 4.70737 27.4785C4.4402 27.3603 4.20843 27.4389 4.05747 27.6907C3.90652 27.9426 3.93591 28.2037 4.14965 28.4082C4.2661 28.5117 4.39366 28.6003 4.5297 28.6721C7.60575 30.4509 10.6727 30.433 13.7305 28.6183C13.9095 28.5115 14.0351 28.4981 14.2274 28.5985C14.6308 28.822 15.0521 29.0069 15.4865 29.1511C19.0552 30.2287 22.6567 30.2231 26.2716 29.4568C27.2528 29.2488 28.2032 28.9282 29.0482 28.3318C29.676 27.8882 30.0027 27.3101 30 26.461C29.9813 18.9412 29.9806 11.4215 29.998 3.90167ZM14.3944 3.03564C15.0397 2.66323 15.723 2.36983 16.4309 2.16111C18.6645 1.53281 20.9495 1.47479 23.2438 1.63116C24.6104 1.72385 25.959 1.93965 27.2561 2.4229C27.6549 2.56944 28.0389 2.75788 28.4023 2.9854C29.0903 3.42479 29.1043 3.8295 28.4023 4.22926C27.812 4.5649 27.1895 4.83269 26.5454 5.02808C24.8756 5.53256 23.157 5.65992 21.2147 5.66487C19.4159 5.64223 17.4215 5.48162 15.5052 4.76205C15.1175 4.61547 14.7456 4.42573 14.3957 4.19601C13.7746 3.79483 13.7592 3.39648 14.3944 3.03564ZM17.1403 15.7714C17.1323 15.7545 17.1403 15.7304 17.1403 15.7509C18.2711 15.8535 19.4006 15.9872 20.5334 16.0516C22.2901 16.1419 24.0507 16.0142 25.7793 15.671C26.1687 15.5967 26.3731 15.3328 26.3203 14.9924C26.2676 14.6521 25.9864 14.483 25.5696 14.5573C22.5438 15.0993 19.5275 15.1056 16.5278 14.3634C16.3454 14.3181 16.1698 14.1781 16.0228 14.0436C15.3914 13.4672 14.768 12.8816 14.1526 12.2868C14.0538 12.1913 13.9382 12.0406 13.9375 11.9146C13.9242 9.76156 13.9282 7.60921 13.9295 5.45615C13.9334 5.40108 13.9401 5.34628 13.9496 5.292C16.3114 6.5486 18.8495 6.7927 21.4144 6.7927C23.9792 6.7927 26.5261 6.55638 28.9213 5.27502C28.9213 6.26558 28.948 7.2243 28.9012 8.17595C28.8905 8.39812 28.6741 8.69883 28.4771 8.80425C27.8619 9.13255 27.2301 9.45731 26.5701 9.6533C24.4167 10.2901 22.2065 10.3892 19.989 10.2512C19.0612 10.1932 18.1388 10.0269 17.2151 9.89741C16.8544 9.84788 16.5872 10.0113 16.5278 10.3509C16.4723 10.6693 16.6473 10.9524 16.9993 11.0097C17.8236 11.1441 18.6491 11.2884 19.48 11.3542C21.9481 11.5495 24.4027 11.4434 26.8073 10.7641C27.522 10.5625 28.2066 10.2427 28.9219 9.97099V10.3078C28.9219 12.5988 28.9092 14.8906 28.9326 17.1809C28.9373 17.6443 28.7703 17.9592 28.4183 18.1269C27.7604 18.4431 27.0985 18.7835 26.4032 18.971C23.7982 19.6743 21.1479 19.6905 18.4875 19.3884C18.217 19.3573 18.1395 19.2469 18.1074 18.9674C17.9824 17.9391 17.6928 16.9408 17.2511 16.0155C17.2157 15.9363 17.1757 15.8542 17.1403 15.7707V15.7714ZM28.9213 26.732C28.9213 27.0858 28.6675 27.2832 28.421 27.4007C27.7724 27.712 27.1205 28.0452 26.4372 28.237C24.1696 28.8738 21.8532 28.9403 19.5261 28.7683C18.1822 28.6693 16.8544 28.4507 15.5753 27.9844C15.3829 27.9136 15.1939 27.8294 14.9835 27.7438C15.0054 27.6977 15.0323 27.6545 15.0637 27.615C15.838 26.9061 16.4916 26.0615 16.996 25.1181C17.0875 24.9462 17.1857 24.9568 17.3393 24.9837C20.4552 25.525 23.5618 25.5136 26.6396 24.7219C27.4097 24.5238 28.1471 24.1806 28.9239 23.8948C28.9213 24.8217 28.928 25.7768 28.9213 26.732ZM28.0316 23.0118C26.8781 23.5863 25.6497 23.8608 24.4 24.0193C22.1908 24.3142 19.9532 24.2756 17.7541 23.9047C17.712 23.8976 17.6699 23.8877 17.6586 23.8856C17.8697 22.7733 18.0794 21.6695 18.2958 20.5276C21.8773 20.8679 25.4741 20.8813 28.9239 19.2158C28.9239 19.975 28.8632 20.7476 28.94 21.504C29.0235 22.3169 28.6427 22.7075 28.0323 23.0118H28.0316Z" fill="#53A490"/>
<path d="M7.37301 20.316C7.8335 20.6662 8.3833 20.8603 8.95 20.8729C9.40019 20.8863 9.83434 20.9599 10.2131 21.2486C10.8603 21.7439 10.865 22.5356 10.2217 23.0337C9.59188 23.5219 8.61871 23.529 7.98951 23.0422C7.717 22.8299 7.52931 22.5667 7.49591 22.1932C7.45917 21.7743 7.21538 21.5429 6.89477 21.5875C6.57416 21.6321 6.38647 21.92 6.4339 22.3304C6.54277 23.2672 7.04372 23.9429 7.84858 24.2302C8.44972 24.4424 8.6501 24.7446 8.57395 25.3849C8.53054 25.7542 8.78502 25.992 9.09628 25.9955C9.40753 25.999 9.62061 25.7726 9.63998 25.3962C9.651 25.1775 9.651 24.9583 9.63998 24.7396C9.63196 24.562 9.69475 24.5012 9.85906 24.4347C10.2298 24.284 10.6192 24.1304 10.9277 23.8785C12.0933 22.9276 12.0519 21.2762 10.8663 20.3514C10.3736 19.966 9.77754 19.7575 9.16508 19.7564C8.70821 19.7493 8.28207 19.6425 7.92072 19.3318C7.3483 18.8366 7.35698 18.105 7.94276 17.6337C8.35153 17.3047 8.81909 17.1979 9.32471 17.2545C10.1302 17.3444 10.543 17.737 10.7133 18.5741C10.7755 18.8833 11.0259 19.0906 11.2964 19.0587C11.5863 19.0248 11.7921 18.7665 11.7754 18.4262C11.74 17.6995 11.4307 17.1123 10.871 16.7139C10.509 16.4564 10.0902 16.2894 9.64131 16.0503C9.64131 15.8557 9.64665 15.5811 9.64131 15.3073C9.63196 14.8828 9.42023 14.6352 9.09027 14.6422C8.77233 14.6493 8.57195 14.8927 8.5626 15.296C8.55592 15.5712 8.5626 15.8458 8.5626 16.058C8.1251 16.2809 7.72768 16.4238 7.39372 16.6651C6.10728 17.5899 6.10594 19.3594 7.37301 20.316Z" fill="#53A490"/>
<path d="M5.74418 8.59133C5.76884 8.70579 5.83016 8.80766 5.91771 8.87964C6.00526 8.95161 6.11364 8.98925 6.22443 8.98614C6.46755 8.99605 6.64856 8.87859 6.73072 8.63661C6.76979 8.50584 6.78763 8.36899 6.78349 8.2319C6.78616 5.74464 6.78616 3.25809 6.78349 0.772252C6.79022 0.655799 6.7819 0.538917 6.75877 0.424848C6.6853 0.152443 6.50696 -0.0081699 6.23511 0.00032064C5.96326 0.00881118 5.78827 0.167301 5.73016 0.448197C5.71008 0.572952 5.70202 0.699545 5.70611 0.826026C5.70611 2.04583 5.70611 3.26611 5.70611 4.48686C5.70611 5.71846 5.70611 6.9503 5.70611 8.18237C5.70159 8.31988 5.71439 8.45741 5.74418 8.59133Z" fill="#53A490"/>
<path d="M10.7042 8.98607C11.0381 8.98607 11.2385 8.75046 11.2385 8.31744C11.2439 7.69692 11.2385 7.0764 11.2385 6.4566C11.2385 5.8474 11.2419 5.23891 11.2385 4.62971C11.2385 4.17193 11.0381 3.92641 10.6955 3.93491C10.3655 3.94269 10.1765 4.1875 10.1758 4.62193C10.1732 5.85117 10.1732 7.08018 10.1758 8.30895C10.1772 8.73913 10.3702 8.98112 10.7042 8.98607Z" fill="#53A490"/>
<path d="M1.25548 3.60455C1.26683 3.93285 1.4759 4.14511 1.76578 4.15219C1.83634 4.15772 1.90721 4.14741 1.97375 4.12195C2.04029 4.09648 2.10102 4.05643 2.15195 4.00441C2.20289 3.95239 2.24289 3.88958 2.26934 3.82006C2.29579 3.75055 2.30811 3.67591 2.30547 3.60101C2.3166 2.9246 2.3166 2.24819 2.30547 1.57177C2.30079 1.22649 2.07837 1.00574 1.77847 1.00574C1.47857 1.00574 1.2635 1.23215 1.25348 1.57743C1.24346 1.90927 1.25348 2.24253 1.25348 2.57507C1.25281 2.91682 1.24346 3.26068 1.25548 3.60455Z" fill="#53A490"/>
</svg>
