<svg width="30" height="30" viewBox="0 0 30 30" fill="none" xmlns="http://www.w3.org/2000/svg">
<path d="M28.0104 4.4718C27.4947 3.7842 26.8303 3.1938 26.2176 2.5734C25.9955 2.3484 25.7237 2.3586 25.5309 2.544C25.3286 2.7378 25.3509 2.985 25.5947 3.213C25.6752 3.2886 25.7626 3.3582 25.8436 3.4338C28.528 5.9088 29.6244 8.8764 28.7947 12.36C27.5911 17.4168 22.248 21.18 16.0057 19.3956C15.788 19.3356 15.7185 19.2432 15.7216 19.032C15.735 18.252 15.6923 17.4678 15.7376 16.689C15.7804 15.9438 15.4185 15.489 14.7401 15.1962C14.5711 15.1226 14.3978 15.0579 14.2212 15.0024C13.029 14.6304 11.8043 14.565 10.5675 14.7024C10.2382 14.7384 10.0767 14.6652 9.9382 14.373C8.62412 11.5998 8.57945 8.8194 10.1054 6.1374C12.0526 2.7174 15.1236 0.9 19.2956 0.8916C20.6907 0.8886 22.0176 1.2408 23.2812 1.797C23.6565 1.962 23.9246 1.8954 24.0471 1.6218C24.1601 1.3686 24.0388 1.1418 23.6642 1.0008C23.0355 0.7674 22.4114 0.5232 21.7629 0.36C21.1145 0.1968 20.4457 0.12 19.7845 0H18.233C18.1649 0.0213161 18.0951 0.0377628 18.0243 0.0492C15.7268 0.2604 13.6787 1.0692 11.9709 2.52C8.58136 5.3952 7.33047 8.9328 8.47797 13.143C8.64135 13.743 8.91387 14.316 9.14171 14.9166C8.94323 14.9862 8.72943 15.054 8.52201 15.135C7.7619 15.432 7.27112 15.8964 7.40004 16.746C7.4093 16.8727 7.4093 16.9997 7.40004 17.1264V19.2264C7.28899 19.1922 7.21176 19.173 7.13773 19.1448C6.19063 18.7788 5.19566 18.6816 4.18474 18.6846C3.89499 18.6846 3.72778 18.843 3.71629 19.0908C3.7048 19.3386 3.8567 19.5108 4.13815 19.5468C4.2709 19.5642 4.40939 19.5468 4.54086 19.566C5.27225 19.683 6.00874 19.788 6.73056 19.941C6.97499 19.9932 7.18751 20.1756 7.50343 20.346C7.22389 20.5134 7.05157 20.6592 6.84862 20.7306C5.06164 21.3624 3.26508 21.363 1.47682 20.7306C1.2745 20.6592 1.10219 20.5128 0.91583 20.4012C0.91583 20.361 0.911363 20.3208 0.909448 20.2812C1.19664 20.145 1.47682 19.9944 1.77231 19.8762C2.12332 19.7358 2.26181 19.5534 2.17183 19.2858C2.08184 19.0182 1.81507 18.921 1.45384 19.0518C1.17305 19.1494 0.901852 19.2699 0.643315 19.4118C0.205503 19.6596 0 20.0256 0 20.5296C0.0136151 23.068 0.0136151 25.6066 0 28.1454C0 28.5876 0.162743 28.9476 0.553966 29.1594C0.962838 29.3856 1.39796 29.567 1.85081 29.7C2.36137 29.8446 2.90002 29.9052 3.42591 30H4.91932C5.4235 29.9064 5.93726 29.844 6.42932 29.7102C6.92138 29.5764 7.38663 29.3718 7.93103 29.175C8.70773 29.661 9.67908 29.8584 10.683 29.955C10.733 29.9648 10.7817 29.9795 10.8285 29.9988H12.3238C12.7482 29.9244 13.1822 29.8824 13.5939 29.7678C14.1625 29.6094 14.7146 29.3964 15.3451 29.1828C16.0912 29.6538 17.0427 29.8482 18.0256 29.9496C18.0961 29.9613 18.1656 29.9778 18.2336 29.9988H19.727C19.8253 29.979 19.9236 29.9532 20.0232 29.9388C20.8477 29.832 21.6589 29.679 22.3897 29.2788C22.8364 29.034 23.1223 28.6932 23.1185 28.1706C23.1096 26.9208 23.1121 25.671 23.1185 24.4212C23.1185 24.0048 22.9462 23.6772 22.5888 23.4492C22.3596 23.2993 22.113 23.1747 21.8536 23.0778C20.4546 22.575 19.0065 22.4886 17.5412 22.7124C16.9355 22.8048 16.3458 22.9878 15.7542 23.1282V20.2482C15.9246 20.2878 16.0644 20.3208 16.2041 20.352C20.5657 21.3228 24.2973 20.3142 27.2656 17.1192C30.6194 13.5096 30.9123 8.34 28.0104 4.4718ZM0.957314 21.4998C3.09468 22.2546 5.23332 22.2846 7.40323 21.48C7.40323 21.7668 7.44599 22.026 7.38727 22.2636C7.35907 22.3436 7.31266 22.4169 7.25127 22.4784C7.18988 22.5398 7.11498 22.5879 7.03179 22.6194C6.39358 22.812 5.75537 23.0256 5.09674 23.115C4.01496 23.2613 2.91185 23.1712 1.87314 22.8516C0.961143 22.5756 0.877538 22.4544 0.957314 21.4998ZM7.38855 24.1998C7.35409 24.3444 7.21368 24.528 7.07327 24.579C6.57547 24.759 6.06746 24.9432 5.5454 25.0338C4.26895 25.2673 2.94959 25.1808 1.71997 24.783C1.65169 24.7608 1.58404 24.7374 1.51702 24.7116C0.993054 24.507 0.938806 24.4296 0.938806 23.889V23.4732C3.10106 24.2442 5.23012 24.2436 7.40259 23.4732C7.40323 23.7372 7.44088 23.979 7.38791 24.201L7.38855 24.1998ZM7.38855 28.1742C7.35472 28.3176 7.20538 28.5 7.06306 28.5474C6.4925 28.7394 5.91429 28.9422 5.32011 29.0352C4.14077 29.2221 2.93058 29.132 1.7972 28.773C0.957314 28.5108 0.890302 28.413 0.954761 27.4278C3.1068 28.2258 5.24353 28.2168 7.40067 27.4278C7.40323 27.6954 7.44152 27.945 7.38727 28.1754L7.38855 28.1742ZM7.38855 26.1768C7.34898 26.3298 7.19709 26.5212 7.0503 26.574C6.52122 26.7606 5.98066 26.9496 5.42669 27.0384C4.18538 27.237 2.94342 27.1824 1.75252 26.7696C0.781168 26.4336 0.91583 26.4396 0.967525 25.4718C3.93265 26.2326 4.65893 26.2326 7.40323 25.4598C7.40323 25.7148 7.44471 25.9578 7.38727 26.178L7.38855 26.1768ZM8.33565 19.4448C10.5056 20.2104 12.6263 20.2332 14.7918 19.434C14.7918 19.7394 14.8352 20.025 14.7733 20.289C14.742 20.4246 14.5403 20.5548 14.3846 20.6298C13.7202 20.9508 12.9946 21.0762 12.2594 21.132C11.2076 21.2124 10.1699 21.132 9.16341 20.8038C9.10533 20.7846 9.04662 20.7648 8.98918 20.7438C8.3765 20.5152 8.33501 20.4594 8.33565 19.8528V19.4448ZM8.36501 21.4698C10.4941 22.2324 12.6231 22.233 14.7969 21.4548C14.7969 21.7284 14.8352 21.9792 14.7828 22.212C14.7509 22.3566 14.6086 22.5498 14.4714 22.5924C13.8179 22.7958 13.1586 23.0196 12.4827 23.1138C11.402 23.2611 10.2996 23.1707 9.26233 22.8498C9.25276 22.8468 9.24191 22.8456 9.23234 22.842C8.16908 22.4574 8.31012 22.4784 8.36373 21.471L8.36501 21.4698ZM14.7816 18.213C14.7565 18.2934 14.7133 18.3678 14.6549 18.4312C14.5965 18.4945 14.5244 18.5453 14.4433 18.5802C13.8504 18.7716 13.2518 18.975 12.6372 19.0698C11.4883 19.2565 10.3076 19.1632 9.20808 18.7986C8.16716 18.45 8.31459 18.4512 8.36501 17.4738C10.4928 18.2352 12.62 18.237 14.7962 17.4612C14.795 17.7336 14.8365 17.985 14.7803 18.2142L14.7816 18.213ZM8.36565 23.487C10.4934 24.2454 12.6225 24.2442 14.7943 23.4738C14.7943 23.7522 14.8326 24.009 14.779 24.2472C14.7533 24.3233 14.7106 24.3934 14.6537 24.4527C14.5968 24.512 14.527 24.5592 14.4491 24.591C13.9487 24.7668 13.4407 24.951 12.9174 25.0398C11.6358 25.2564 10.3556 25.2096 9.12384 24.7812C8.18503 24.4548 8.30566 24.4458 8.36565 23.487ZM14.7752 28.242C14.7465 28.3722 14.5671 28.524 14.421 28.5714C13.8657 28.7514 13.3067 28.9446 12.7316 29.0346C11.5305 29.2224 10.3288 29.1588 9.17809 28.7634C8.16653 28.4166 8.31778 28.4436 8.35735 27.435C10.4864 28.221 12.6155 28.2216 14.7918 27.4254C14.7918 27.7134 14.8313 27.987 14.7752 28.242ZM14.7809 26.1858C14.7394 26.3388 14.585 26.526 14.4337 26.58C13.9232 26.76 13.4024 26.94 12.8689 27.0294C11.616 27.2406 10.3645 27.1872 9.16086 26.7756C8.16525 26.4348 8.32097 26.4474 8.35607 25.4646C10.4871 26.2278 12.618 26.2278 14.7956 25.4556C14.7956 25.7226 14.8396 25.9662 14.7809 26.1858ZM14.2704 16.6896C12.4757 17.334 10.6734 17.3388 8.87621 16.698C8.6739 16.626 8.50031 16.4832 8.2329 16.326C8.50159 16.167 8.67518 16.023 8.87749 15.951C10.6313 15.327 12.3966 15.3252 14.1587 15.918C14.3903 15.9954 14.5933 16.1496 14.8964 16.3152C14.6265 16.479 14.4631 16.62 14.2697 16.6896H14.2704ZM22.165 28.2366C22.1363 28.368 21.9614 28.5222 21.8172 28.569C21.2619 28.749 20.7022 28.944 20.1266 29.0346C18.9248 29.223 17.7224 29.1546 16.5705 28.764C15.5787 28.4256 15.6948 28.428 15.7612 27.4392C17.889 28.2192 20.0187 28.2192 22.181 27.4278C22.181 27.72 22.2205 27.9876 22.165 28.2366ZM22.165 26.2566C22.1357 26.3874 21.9601 26.5392 21.8146 26.5872C21.2817 26.7642 20.7431 26.9568 20.1891 27.0432C18.9586 27.2352 17.7288 27.1788 16.5469 26.7732C15.5946 26.4462 15.6897 26.4318 15.7631 25.4532C16.7803 25.8464 17.8717 26.0419 18.9714 26.028C20.0653 26.025 21.1266 25.8582 22.1816 25.4364C22.181 25.74 22.2205 26.0088 22.1644 26.2572L22.165 26.2566ZM16.3114 23.928C18.0664 23.319 19.8324 23.3178 21.5881 23.928C21.8019 24.0024 21.971 24.1944 22.1593 24.3318C21.9723 24.4602 21.8012 24.6216 21.5957 24.7122C20.9499 24.996 19.9306 25.1526 18.9574 25.1532C18.0486 25.1604 17.1602 25.0428 16.319 24.7116C16.1058 24.6276 15.9361 24.4458 15.7446 24.309C15.9329 24.18 16.1014 24 16.3107 23.9286L16.3114 23.928Z" fill="#53A490"/>
<path d="M15.9928 14.598C16.2295 14.7588 16.5161 14.6826 16.7254 14.3922C18.5401 11.8774 20.353 9.36 22.1643 6.84C22.2383 6.7374 22.2919 6.6204 22.3889 6.4446C22.2613 6.3204 22.1566 6.1548 22.0028 6.0846C21.7418 5.9646 21.556 6.1242 21.4124 6.3246C19.5935 8.8502 17.7744 11.3756 15.9551 13.9008C15.7439 14.1936 15.7637 14.4408 15.9928 14.598Z" fill="#53A490"/>
<path d="M17.2213 9.49554C17.8939 8.69394 17.8844 7.43334 17.1996 6.63894C16.5052 5.83374 15.3258 5.85894 14.6691 6.69414C14.3544 7.09314 14.2344 7.55034 14.2134 8.08374C14.2217 8.53494 14.3257 9.00594 14.6346 9.42174C15.2932 10.3085 16.5109 10.3427 17.2213 9.49554ZM15.4936 9.02095C15.0226 8.54875 15.0233 7.60734 15.4936 7.13694C15.7815 6.84894 16.1886 6.83214 16.4299 7.15614C16.6213 7.41654 16.7235 7.73934 16.883 8.07054C16.726 8.40354 16.6277 8.73595 16.4273 9.00415C16.188 9.32995 15.7821 9.31075 15.4936 9.02095Z" fill="#53A490"/>
<path d="M23.2945 14.1305C23.6498 13.7437 23.8449 13.2495 23.844 12.7385C23.8395 12.1985 23.7279 11.7455 23.4445 11.3435C22.7929 10.4201 21.5011 10.3865 20.7953 11.2709C20.1705 12.0539 20.1941 13.3241 20.8489 14.0861C21.5184 14.8655 22.5989 14.8883 23.2945 14.1305ZM21.6179 11.7179C21.9083 11.4227 22.2747 11.4179 22.5631 11.7137C22.8184 11.9789 22.9135 12.3029 22.9116 12.6563L22.992 12.6893C22.8541 12.9845 22.761 13.3091 22.5682 13.5683C22.3187 13.9055 21.9051 13.8851 21.6109 13.5803C21.1584 13.1063 21.1616 12.1835 21.6179 11.7179Z" fill="#53A490"/>
</svg>
