<svg width="50" height="50" viewBox="0 0 50 50" fill="none" xmlns="http://www.w3.org/2000/svg">
<path d="M42.9433 45.4836H21.2095C21.0725 45.4836 20.9398 45.4307 20.8392 45.3356L11.6853 36.7492H8.63982C8.33512 36.7492 8.08875 36.494 8.08875 36.1784V27.444C8.08875 27.1284 8.33658 26.8732 8.63982 26.8732H17.8375C17.9395 26.8732 18.0401 26.9019 18.1276 26.9592L29.859 34.4886C30.4815 34.8888 30.9072 35.5185 31.0559 36.2629C31.2046 37.0059 31.0559 37.7579 30.6375 38.3816L30.2366 38.9781C29.4377 40.1696 27.8763 40.5078 26.6794 39.7467L21.8524 36.6661C21.5944 36.5015 21.5127 36.1497 21.6717 35.8809C21.8335 35.6121 22.1746 35.5321 22.4312 35.6951L27.2582 38.7757C27.955 39.2197 28.8662 39.0219 29.3327 38.3272L29.7336 37.7308C29.9771 37.3683 30.0631 36.9289 29.9771 36.4955C29.8911 36.0621 29.6418 35.6936 29.2788 35.4611L17.68 28.0178H9.19089V35.6106H11.8967C12.0337 35.6106 12.1664 35.6634 12.267 35.7586L21.4209 44.345H42.9419C43.7918 44.345 44.4843 43.6277 44.4843 42.7473C44.4843 41.8669 43.7933 41.1496 42.9419 41.1496H32.0341C31.7294 41.1496 31.4831 40.8944 31.4831 40.5788C31.4831 40.2632 31.7309 40.008 32.0341 40.008H42.9419C44.4012 40.008 45.5879 41.2372 45.5879 42.7473C45.5879 44.2574 44.4012 45.4836 42.9433 45.4836Z" fill="#37A492"/>
<path d="M35.7401 38.7841C35.4934 38.7841 35.2939 38.5349 35.2939 38.2268C35.2939 36.76 35.4486 36.017 35.5973 35.2961C35.7389 34.6135 35.8723 33.9693 35.8723 32.6455C35.8723 31.3201 35.7389 30.6759 35.5973 29.9934C35.4486 29.2739 35.2939 28.528 35.2939 27.0611C35.2939 25.5943 35.4486 24.8498 35.5973 24.1289C35.7389 23.4464 35.8723 22.8007 35.8723 21.4753C35.8723 21.1672 36.0729 20.9181 36.3184 20.9181C36.565 20.9181 36.7645 21.1672 36.7645 21.4753C36.7645 22.9422 36.6099 23.6881 36.4612 24.4076C36.3196 25.0901 36.1862 25.7343 36.1862 27.0597C36.1862 28.385 36.3196 29.0292 36.4612 29.7118C36.6099 30.4312 36.7645 31.1771 36.7645 32.644C36.7645 34.1108 36.6099 34.8538 36.4612 35.5733C36.3196 36.2558 36.1862 36.9 36.1862 38.2239C36.1862 38.5335 35.9856 38.7841 35.7401 38.7841Z" fill="#37A492"/>
<path d="M41.0211 34.3179C38.524 34.3179 36.3815 33.0082 36.2914 32.9524C36.0442 32.7995 35.957 32.4747 36.0942 32.213C36.1685 32.0719 37.9409 28.7338 41.0782 27.8489C41.6185 27.6961 42.1988 27.6182 42.8006 27.6182C45.2976 27.6182 47.4415 28.9278 47.5316 28.9837C47.7789 29.1366 47.8661 29.4614 47.7288 29.723C47.6545 29.8642 45.8807 33.2023 42.7434 34.0871C42.2017 34.2415 41.6228 34.3179 41.0211 34.3179ZM37.332 32.2601C38.0509 32.6143 39.4802 33.2067 41.0211 33.2067C41.5256 33.2067 42.0087 33.142 42.4575 33.0156C44.4886 32.4423 45.9093 30.5668 46.4882 29.676C45.7692 29.3218 44.3399 28.7309 42.7991 28.7309C42.2931 28.7309 41.8115 28.7941 41.3627 28.922C39.3245 29.4967 37.908 31.3693 37.332 32.2601Z" fill="#37A492"/>
<path d="M31.7713 28.3622C31.1694 28.3622 30.5905 28.2843 30.0487 28.1315C26.9123 27.2451 25.1368 23.9085 25.0639 23.7674C24.928 23.5057 25.0152 23.1809 25.2611 23.028C25.3512 22.9721 27.4955 21.6625 29.9915 21.6625C30.5933 21.6625 31.1723 21.7404 31.7141 21.8918C34.8519 22.7781 36.626 26.1148 36.7003 26.2559C36.8361 26.5175 36.7489 26.8424 36.5031 26.9952C36.4144 27.0526 34.2701 28.3622 31.7713 28.3622ZM26.3047 23.7188C26.8822 24.6096 28.3032 26.4867 30.336 27.0599C30.7835 27.1863 31.2666 27.251 31.7713 27.251C33.3195 27.251 34.7447 26.6601 35.4609 26.3059C34.8834 25.4151 33.4624 23.5381 31.4296 22.9648C30.9807 22.8384 30.4975 22.7737 29.9929 22.7737C28.4462 22.7737 27.0209 23.3631 26.3047 23.7188Z" fill="#37A492"/>
<path d="M36.0291 21.6623C30.7597 21.6623 26.4705 17.3209 26.4705 11.9857C26.4705 6.64892 30.7597 2.3075 36.0291 2.3075C41.2984 2.3075 45.5877 6.64892 45.5877 11.9857C45.5877 17.3224 41.2984 21.6623 36.0291 21.6623ZM36.0291 3.42042C31.3637 3.42042 27.5696 7.26345 27.5696 11.9871C27.5696 16.7108 31.3637 20.5524 36.0291 20.5524C40.6944 20.5524 44.4885 16.7093 44.4885 11.9871C44.4885 7.26345 40.6944 3.42042 36.0291 3.42042Z" fill="#37A492"/>
<path d="M36.0293 4.54089C31.9684 4.54089 28.6765 7.87373 28.6765 11.9851C28.6765 16.0964 31.9684 19.4292 36.0293 19.4292C40.0901 19.4292 43.3821 16.0964 43.3821 11.9851C43.3806 7.87373 40.0887 4.54089 36.0293 4.54089ZM36.5777 16.9674V17.6872C36.5777 17.9942 36.3311 18.2424 36.0293 18.2424C35.7261 18.2424 35.4809 17.9942 35.4809 17.6872V16.9366C34.4044 16.7471 33.5063 16.0553 33.1755 15.0462C33.0798 14.7539 33.235 14.441 33.5237 14.344C33.8095 14.2471 34.1215 14.4043 34.2172 14.6966C34.4508 15.4104 35.1965 15.9099 36.0307 15.9099C37.0724 15.9099 37.9197 15.1549 37.9197 14.2265C37.9197 13.3188 37.1116 12.6108 35.9974 12.5418C34.2825 12.4008 33.0449 11.2271 33.0449 9.74799C33.0449 8.38196 34.0982 7.248 35.4823 7.00417V6.28443C35.4823 5.97744 35.729 5.7292 36.0307 5.7292C36.334 5.7292 36.5791 5.97744 36.5791 6.28443V7.03354C37.6455 7.22156 38.5407 7.90605 38.8787 8.9034C38.9759 9.19423 38.8221 9.51004 38.5363 9.60845C38.2577 9.70687 37.9386 9.55264 37.8399 9.26327C37.602 8.55675 36.8577 8.06174 36.0307 8.06174C34.989 8.06174 34.1432 8.81821 34.1432 9.74652C34.1432 10.6455 34.9368 11.3388 36.0757 11.4313C37.7746 11.5371 39.018 12.7121 39.018 14.2236C39.0151 15.5896 37.9618 16.7251 36.5777 16.9674Z" fill="#37A492"/>
<path d="M0.000732422 25.3846V39.5286H8.08878V25.3846H0.000732422ZM3.83414 37.6553C2.87579 37.6553 2.09466 36.8142 2.09466 35.779C2.09466 34.7453 2.87442 33.9028 3.83414 33.9028C4.79249 33.9028 5.57499 34.7438 5.57499 35.779C5.57362 36.8142 4.79249 37.6553 3.83414 37.6553Z" fill="#37A492"/>
<path d="M4.04505 36.5508C4.65418 36.5508 5.14797 36.0508 5.14797 35.4341C5.14797 34.8174 4.65418 34.3175 4.04505 34.3175C3.43593 34.3175 2.94214 34.8174 2.94214 35.4341C2.94214 36.0508 3.43593 36.5508 4.04505 36.5508Z" fill="#37A492"/>
<path d="M44.853 23.8956L47.4273 19.4291L50 23.8956H44.853Z" fill="#37A492"/>
<path d="M21.6907 14.9631C22.2998 14.9631 22.7936 14.4632 22.7936 13.8465C22.7936 13.2298 22.2998 12.7299 21.6907 12.7299C21.0816 12.7299 20.5878 13.2298 20.5878 13.8465C20.5878 14.4632 21.0816 14.9631 21.6907 14.9631Z" fill="#37A492"/>
<path d="M39.8805 48.4615H34.3832C34.0735 48.4615 33.8231 48.1287 33.8231 47.7171C33.8231 47.3055 34.075 46.9727 34.3832 46.9727H39.8805C40.1902 46.9727 40.4406 47.3055 40.4406 47.7171C40.4421 48.1287 40.1902 48.4615 39.8805 48.4615Z" fill="#37A492"/>
<path d="M9.44442 45.9462C9.13707 45.9462 8.88855 45.6894 8.88855 45.3717V41.794C8.88855 41.4763 9.13854 41.2195 9.44442 41.2195C9.75177 41.2195 10.0003 41.4763 10.0003 41.794V45.3717C10.0003 45.6894 9.75029 45.9462 9.44442 45.9462Z" fill="#37A492"/>
<path d="M11.1753 44.1572H7.71505C7.4077 44.1572 7.15918 43.9003 7.15918 43.5827C7.15918 43.265 7.40917 43.0082 7.71505 43.0082H11.1753C11.4826 43.0082 11.7311 43.265 11.7311 43.5827C11.7311 43.9003 11.4811 44.1572 11.1753 44.1572Z" fill="#37A492"/>
</svg>
