<svg width="538" height="544" viewBox="0 0 538 544" fill="none" xmlns="http://www.w3.org/2000/svg">
<g clip-path="url(#clip0_1_514)">
<path d="M395.279 381.944L394.158 380.907C418.018 354.157 432.663 320.446 435.935 284.741L437.481 284.886C434.165 320.926 419.372 354.948 395.279 381.944Z" fill="#D9D9D9"/>
<path d="M436.224 256.326C434.226 229.767 425.996 204.053 412.203 181.273C398.41 158.492 379.443 139.288 356.84 125.218L357.69 123.901C380.529 138.068 399.694 157.441 413.618 180.438C427.541 203.434 435.829 229.401 437.804 256.216L436.224 256.326Z" fill="#D9D9D9"/>
<path d="M110.738 207.003L109.294 206.433C125.571 165.1 157.315 131.746 197.78 113.461C238.245 95.1748 284.242 93.398 325.996 108.508L325.469 109.97C307.008 103.274 287.519 99.8627 267.883 99.8889C197.996 99.8889 136.307 141.946 110.738 207.003Z" fill="#D9D9D9"/>
<path d="M112.063 337.779C102.432 316.058 97.4795 292.55 97.5286 268.787C97.5192 257.31 98.6575 245.86 100.926 234.61L102.456 234.924C100.195 246.07 99.0562 257.414 99.0576 268.787C99.0227 292.334 103.943 315.624 113.499 337.142L112.063 337.779Z" fill="#D9D9D9"/>
<path d="M178.008 413.606C155.005 399.253 135.723 379.657 121.739 356.42L123.072 355.612C136.929 378.641 156.037 398.063 178.832 412.288L178.008 413.606Z" fill="#D9D9D9"/>
<path d="M267.883 439.232C243.385 439.293 219.167 434.02 196.909 423.78L197.563 422.369C226.712 435.697 259.048 440.456 290.798 436.092C322.547 431.727 352.402 418.419 376.879 397.72L377.882 398.91C347.129 424.934 308.159 439.22 267.883 439.232Z" fill="#D9D9D9"/>
<path d="M117.317 337.902C117.559 335.393 115.723 333.162 113.215 332.92C110.707 332.677 108.478 334.515 108.236 337.024C107.993 339.533 109.83 341.763 112.337 342.006C114.845 342.248 117.074 340.411 117.317 337.902Z" fill="#53A490"/>
<path d="M106.295 234.771C106.293 235.673 106.024 236.555 105.522 237.305C105.02 238.054 104.307 238.638 103.473 238.982C102.64 239.326 101.723 239.415 100.838 239.238C99.954 239.061 99.142 238.626 98.5048 237.987C97.8677 237.348 97.4341 236.535 97.2588 235.65C97.0835 234.765 97.1743 233.847 97.5198 233.014C97.8653 232.18 98.45 231.468 99.2 230.967C99.95 230.466 100.832 230.198 101.733 230.198C102.333 230.198 102.927 230.317 103.481 230.547C104.035 230.776 104.538 231.113 104.962 231.538C105.386 231.963 105.722 232.467 105.95 233.022C106.179 233.577 106.296 234.171 106.295 234.771Z" fill="#53A490"/>
<path d="M114.578 206.714C114.578 207.616 114.31 208.499 113.809 209.249C113.307 210 112.595 210.585 111.761 210.93C110.928 211.276 110.011 211.366 109.126 211.19C108.241 211.014 107.428 210.579 106.79 209.941C106.152 209.303 105.718 208.489 105.542 207.604C105.366 206.719 105.456 205.801 105.801 204.967C106.147 204.133 106.731 203.42 107.481 202.918C108.232 202.417 109.114 202.149 110.016 202.149C111.226 202.149 112.386 202.63 113.241 203.486C114.097 204.342 114.578 205.503 114.578 206.714Z" fill="#53A490"/>
<path d="M330.294 109.961C330.294 110.864 330.026 111.746 329.525 112.497C329.024 113.248 328.312 113.833 327.478 114.178C326.644 114.523 325.727 114.614 324.842 114.438C323.958 114.262 323.145 113.827 322.507 113.189C321.869 112.55 321.434 111.737 321.258 110.852C321.082 109.966 321.173 109.048 321.518 108.214C321.863 107.38 322.448 106.667 323.198 106.166C323.948 105.664 324.83 105.397 325.732 105.397C326.942 105.397 328.102 105.878 328.958 106.734C329.813 107.59 330.294 108.751 330.294 109.961Z" fill="#53A490"/>
<path d="M361.818 124.555C361.82 125.46 361.553 126.346 361.051 127.099C360.55 127.852 359.836 128.44 359.001 128.787C358.165 129.134 357.246 129.225 356.358 129.049C355.471 128.873 354.656 128.437 354.016 127.797C353.377 127.157 352.941 126.341 352.765 125.454C352.589 124.566 352.68 123.646 353.027 122.81C353.374 121.974 353.961 121.26 354.714 120.758C355.467 120.256 356.352 119.989 357.256 119.991C358.466 119.993 359.625 120.475 360.48 121.33C361.335 122.186 361.816 123.345 361.818 124.555Z" fill="#53A490"/>
<path d="M441.27 255.944C441.268 256.846 440.999 257.728 440.497 258.477C439.995 259.227 439.282 259.811 438.448 260.155C437.614 260.499 436.697 260.588 435.813 260.411C434.929 260.234 434.117 259.799 433.48 259.16C432.842 258.521 432.409 257.708 432.234 256.823C432.058 255.938 432.149 255.02 432.495 254.187C432.84 253.353 433.425 252.641 434.175 252.14C434.925 251.639 435.806 251.371 436.708 251.371C437.308 251.371 437.902 251.489 438.456 251.719C439.01 251.949 439.513 252.286 439.937 252.711C440.36 253.136 440.696 253.64 440.925 254.195C441.154 254.749 441.271 255.344 441.27 255.944Z" fill="#53A490"/>
<path d="M441.27 284.809C441.268 285.712 440.999 286.593 440.497 287.343C439.995 288.092 439.282 288.676 438.448 289.02C437.614 289.364 436.697 289.453 435.813 289.276C434.929 289.099 434.117 288.664 433.48 288.025C432.842 287.386 432.409 286.573 432.234 285.688C432.058 284.803 432.149 283.886 432.495 283.052C432.84 282.218 433.425 281.506 434.175 281.005C434.925 280.504 435.806 280.236 436.708 280.236C437.308 280.236 437.902 280.355 438.456 280.585C439.01 280.814 439.513 281.151 439.937 281.576C440.36 282.001 440.696 282.505 440.925 283.06C441.154 283.615 441.271 284.209 441.27 284.809Z" fill="#53A490"/>
<path d="M182.978 412.943C182.978 413.845 182.71 414.728 182.209 415.478C181.707 416.229 180.995 416.814 180.162 417.159C179.328 417.505 178.411 417.595 177.526 417.419C176.641 417.243 175.828 416.808 175.19 416.17C174.552 415.532 174.118 414.718 173.942 413.833C173.766 412.948 173.856 412.03 174.201 411.196C174.547 410.362 175.131 409.649 175.881 409.147C176.632 408.646 177.514 408.378 178.416 408.378C179.626 408.378 180.786 408.859 181.641 409.715C182.497 410.571 182.978 411.732 182.978 412.943Z" fill="#53A490"/>
<path d="M126.971 356.02C126.97 356.922 126.701 357.804 126.199 358.553C125.696 359.303 124.983 359.887 124.15 360.231C123.316 360.575 122.399 360.664 121.515 360.487C120.63 360.31 119.818 359.875 119.181 359.236C118.544 358.597 118.11 357.784 117.935 356.899C117.76 356.014 117.851 355.096 118.196 354.263C118.542 353.429 119.126 352.717 119.876 352.216C120.626 351.714 121.508 351.447 122.41 351.447C123.62 351.449 124.781 351.932 125.636 352.789C126.491 353.647 126.971 354.809 126.971 356.02Z" fill="#53A490"/>
<path d="M201.802 422.964C201.804 423.869 201.537 424.754 201.035 425.508C200.534 426.261 199.82 426.848 198.985 427.195C198.149 427.543 197.23 427.634 196.342 427.458C195.455 427.282 194.64 426.846 194 426.206C193.361 425.566 192.925 424.75 192.749 423.862C192.573 422.974 192.664 422.054 193.011 421.218C193.358 420.382 193.945 419.668 194.698 419.167C195.451 418.665 196.336 418.398 197.24 418.399C198.45 418.399 199.61 418.88 200.466 419.736C201.321 420.592 201.802 421.753 201.802 422.964Z" fill="#53A490"/>
<path d="M399.255 381.562C399.255 382.464 398.987 383.347 398.486 384.097C397.985 384.848 397.272 385.433 396.439 385.779C395.605 386.124 394.688 386.214 393.803 386.038C392.918 385.862 392.105 385.427 391.467 384.789C390.829 384.151 390.395 383.338 390.219 382.452C390.043 381.567 390.133 380.649 390.479 379.815C390.824 378.981 391.409 378.268 392.159 377.767C392.909 377.265 393.791 376.997 394.693 376.997C395.292 376.996 395.886 377.113 396.44 377.342C396.994 377.571 397.497 377.908 397.921 378.332C398.345 378.756 398.681 379.259 398.91 379.814C399.139 380.368 399.256 380.962 399.255 381.562Z" fill="#53A490"/>
<path d="M381.942 398.349C381.941 399.251 381.672 400.133 381.169 400.882C380.667 401.632 379.954 402.215 379.12 402.56C378.287 402.904 377.37 402.993 376.485 402.816C375.601 402.639 374.789 402.203 374.152 401.565C373.515 400.926 373.081 400.113 372.906 399.228C372.731 398.342 372.821 397.425 373.167 396.592C373.512 395.758 374.097 395.046 374.847 394.545C375.597 394.043 376.479 393.776 377.381 393.776C377.98 393.776 378.574 393.894 379.128 394.124C379.682 394.354 380.185 394.691 380.609 395.116C381.033 395.541 381.369 396.045 381.597 396.599C381.826 397.154 381.943 397.749 381.942 398.349Z" fill="#53A490"/>
<path d="M280.922 484.765L280.812 482.785C326.49 480.201 370.132 463.009 405.312 433.741L406.577 435.271C371.073 464.813 327.025 482.163 280.922 484.765Z" fill="#D9D9D9"/>
<path d="M431.195 408.361C453.348 382.583 469.114 351.942 477.214 318.925C485.314 285.908 485.52 251.445 477.814 218.333L479.743 217.882C487.583 251.299 487.407 286.099 479.231 319.435C471.054 352.771 455.109 383.698 432.699 409.687L431.195 408.361Z" fill="#D9D9D9"/>
<path d="M181.907 69.8849L181.117 68.066C233.095 45.4594 291.835 44.0242 344.854 64.0654C397.872 84.1067 440.991 124.045 465.047 175.392L463.246 176.242C452.627 153.525 438.114 132.844 420.364 115.138C357.29 52.01 263.686 34.254 181.907 69.8849Z" fill="#D9D9D9"/>
<path d="M65.1379 189.119C76.0377 160.816 92.7732 135.128 114.255 113.726C124.605 103.367 135.965 94.0699 148.166 85.9749L149.262 87.6323C137.172 95.6544 125.914 104.866 115.656 115.129C94.3714 136.335 77.7893 161.789 66.9898 189.833L65.1379 189.119Z" fill="#D9D9D9"/>
<path d="M56.2524 317.117C48.4405 283.388 48.7141 248.289 57.0509 214.686L58.9792 215.171C50.7147 248.469 50.4411 283.251 58.1807 316.675L56.2524 317.117Z" fill="#D9D9D9"/>
<path d="M114.255 421.417C92.0943 399.349 74.9931 372.726 64.1355 343.389L65.9959 342.701C80.2778 381.055 105.165 414.556 137.754 439.294C170.343 464.033 209.29 478.989 250.052 482.42L249.891 484.392C198.662 480.098 150.608 457.787 114.255 421.417Z" fill="#D9D9D9"/>
<path d="M66.0639 195.307C69.2823 195.307 71.8913 192.696 71.8913 189.476C71.8913 186.256 69.2823 183.645 66.0639 183.645C62.8455 183.645 60.2365 186.256 60.2365 189.476C60.2365 192.696 62.8455 195.307 66.0639 195.307Z" fill="#53A490"/>
<path d="M152.855 90.9473C152.04 91.763 151.002 92.3185 149.871 92.5436C148.741 92.7687 147.569 92.6534 146.504 92.2121C145.439 91.7708 144.529 91.0235 143.889 90.0646C143.248 89.1057 142.906 87.9783 142.906 86.825C142.906 85.6717 143.248 84.5443 143.889 83.5853C144.529 82.6264 145.439 81.8791 146.504 81.4378C147.569 80.9965 148.741 80.8812 149.871 81.1063C151.002 81.3314 152.04 81.887 152.855 82.7026C153.947 83.796 154.561 85.2788 154.561 86.825C154.561 88.3711 153.947 89.8539 152.855 90.9473Z" fill="#53A490"/>
<path d="M185.628 73.0977C184.813 73.9134 183.775 74.4689 182.644 74.694C181.514 74.9191 180.342 74.8038 179.277 74.3625C178.212 73.9212 177.302 73.1739 176.661 72.215C176.021 71.2561 175.679 70.1287 175.679 68.9754C175.679 67.8221 176.021 66.6947 176.661 65.7357C177.302 64.7768 178.212 64.0295 179.277 63.5882C180.342 63.1469 181.514 63.0316 182.644 63.2567C183.775 63.4818 184.813 64.0373 185.628 64.853C186.171 65.3933 186.602 66.0356 186.896 66.7431C187.19 67.4505 187.341 68.2092 187.341 68.9754C187.341 69.7415 187.19 70.5002 186.896 71.2076C186.602 71.9151 186.171 72.5574 185.628 73.0977Z" fill="#53A490"/>
<path d="M467.612 180.594C466.797 181.409 465.759 181.965 464.629 182.19C463.498 182.415 462.326 182.3 461.261 181.859C460.196 181.417 459.286 180.67 458.646 179.711C458.005 178.752 457.664 177.625 457.664 176.471C457.664 175.318 458.005 174.191 458.646 173.232C459.286 172.273 460.196 171.526 461.261 171.084C462.326 170.643 463.498 170.528 464.629 170.753C465.759 170.978 466.797 171.533 467.612 172.349C468.703 173.444 469.315 174.926 469.315 176.471C469.315 178.017 468.703 179.499 467.612 180.594Z" fill="#53A490"/>
<path d="M482.894 222.226C482.08 223.04 481.044 223.594 479.915 223.818C478.786 224.043 477.616 223.927 476.553 223.486C475.49 223.046 474.582 222.299 473.942 221.342C473.303 220.384 472.962 219.259 472.962 218.107C472.962 216.956 473.303 215.831 473.942 214.873C474.582 213.916 475.49 213.169 476.553 212.729C477.616 212.288 478.786 212.172 479.915 212.397C481.044 212.621 482.08 213.175 482.894 213.989C483.436 214.529 483.866 215.171 484.159 215.878C484.452 216.585 484.603 217.342 484.603 218.107C484.603 218.873 484.452 219.63 484.159 220.337C483.866 221.044 483.436 221.685 482.894 222.226Z" fill="#53A490"/>
<path d="M436.097 412.577C435.282 413.393 434.243 413.948 433.113 414.174C431.982 414.399 430.811 414.283 429.746 413.842C428.681 413.401 427.771 412.653 427.13 411.694C426.49 410.736 426.148 409.608 426.148 408.455C426.148 407.302 426.49 406.174 427.13 405.215C427.771 404.256 428.681 403.509 429.746 403.068C430.811 402.626 431.982 402.511 433.113 402.736C434.243 402.961 435.282 403.517 436.097 404.332C437.189 405.426 437.803 406.909 437.803 408.455C437.803 410.001 437.189 411.484 436.097 412.577Z" fill="#53A490"/>
<path d="M410.06 438.629C409.245 439.445 408.207 440 407.076 440.225C405.946 440.45 404.774 440.335 403.709 439.894C402.644 439.452 401.734 438.705 401.094 437.746C400.453 436.787 400.111 435.66 400.111 434.507C400.111 433.353 400.453 432.226 401.094 431.267C401.734 430.308 402.644 429.561 403.709 429.119C404.774 428.678 405.946 428.563 407.076 428.788C408.207 429.013 409.245 429.569 410.06 430.384C410.603 430.925 411.034 431.567 411.328 432.274C411.622 432.982 411.773 433.74 411.773 434.507C411.773 435.273 411.622 436.031 411.328 436.739C411.034 437.446 410.603 438.089 410.06 438.629Z" fill="#53A490"/>
<path d="M61.3322 321.018C60.5173 321.834 59.479 322.389 58.3485 322.614C57.218 322.84 56.0463 322.724 54.9813 322.283C53.9164 321.842 53.0062 321.094 52.3658 320.135C51.7254 319.176 51.3835 318.049 51.3835 316.896C51.3835 315.742 51.7254 314.615 52.3658 313.656C53.0062 312.697 53.9164 311.95 54.9813 311.509C56.0463 311.067 57.218 310.952 58.3485 311.177C59.479 311.402 60.5173 311.958 61.3322 312.773C61.8752 313.314 62.3061 313.956 62.6001 314.663C62.8941 315.371 63.0455 316.13 63.0455 316.896C63.0455 317.662 62.8941 318.421 62.6001 319.128C62.3061 319.836 61.8752 320.478 61.3322 321.018Z" fill="#53A490"/>
<path d="M62.1393 219.047C61.3249 219.863 60.2866 220.42 59.1558 220.646C58.025 220.872 56.8526 220.758 55.787 220.317C54.7213 219.876 53.8104 219.129 53.1695 218.169C52.5285 217.21 52.1864 216.082 52.1864 214.928C52.1864 213.775 52.5285 212.647 53.1695 211.688C53.8104 210.728 54.7213 209.981 55.787 209.54C56.8526 209.099 58.025 208.985 59.1558 209.211C60.2866 209.437 61.3249 209.994 62.1393 210.81C63.2292 211.903 63.8412 213.384 63.8412 214.928C63.8412 216.473 63.2292 217.954 62.1393 219.047Z" fill="#53A490"/>
<path d="M69.2834 347.053C68.4689 347.87 67.4306 348.426 66.2998 348.652C65.169 348.878 63.9966 348.764 62.931 348.323C61.8654 347.882 60.9544 347.135 60.3135 346.175C59.6726 345.216 59.3304 344.088 59.3304 342.935C59.3304 341.781 59.6726 340.653 60.3135 339.694C60.9544 338.735 61.8654 337.987 62.931 337.546C63.9966 337.105 65.169 336.991 66.2998 337.217C67.4306 337.443 68.4689 338 69.2834 338.816C70.3732 339.91 70.9853 341.391 70.9853 342.935C70.9853 344.479 70.3732 345.96 69.2834 347.053Z" fill="#53A490"/>
<path d="M284.864 488.021C284.049 488.836 283.011 489.392 281.88 489.617C280.75 489.842 279.578 489.727 278.513 489.286C277.448 488.844 276.538 488.097 275.897 487.138C275.257 486.179 274.915 485.052 274.915 483.898C274.915 482.745 275.257 481.618 275.897 480.659C276.538 479.7 277.448 478.953 278.513 478.511C279.578 478.07 280.75 477.955 281.88 478.18C283.011 478.405 284.049 478.96 284.864 479.776C285.956 480.87 286.57 482.352 286.57 483.898C286.57 485.445 285.956 486.927 284.864 488.021Z" fill="#53A490"/>
<path d="M254.087 487.528C253.272 488.344 252.234 488.899 251.104 489.124C249.973 489.349 248.801 489.234 247.736 488.793C246.672 488.351 245.761 487.604 245.121 486.645C244.48 485.686 244.139 484.559 244.139 483.406C244.139 482.252 244.48 481.125 245.121 480.166C245.761 479.207 246.672 478.46 247.736 478.018C248.801 477.577 249.973 477.462 251.104 477.687C252.234 477.912 253.272 478.468 254.087 479.283C254.63 479.823 255.061 480.466 255.355 481.173C255.649 481.881 255.801 482.639 255.801 483.406C255.801 484.172 255.649 484.93 255.355 485.638C255.061 486.345 254.63 486.988 254.087 487.528Z" fill="#53A490"/>
<path d="M6.67684 323.84C-4.38575 270.827 0.796781 215.708 21.5468 165.69C42.2967 115.672 77.6483 73.0837 122.979 43.4932L123.939 44.9636C86.6859 69.1681 56.0806 102.318 34.9131 141.39C13.7456 180.463 2.68936 224.216 2.75226 268.66C2.75008 287.088 4.64018 305.467 8.39279 323.508L6.67684 323.84Z" fill="#D9D9D9"/>
<path d="M77.5149 456.478C53.619 432.09 34.6084 403.351 21.5088 371.812L23.1313 371.141C36.141 402.486 55.0279 431.049 78.7721 455.288L77.5149 456.478Z" fill="#D9D9D9"/>
<path d="M253.416 536.843C196.648 533.595 142.411 512.244 98.6499 475.917L99.7712 474.566C143.248 510.652 197.13 531.86 253.527 535.084L253.416 536.843Z" fill="#D9D9D9"/>
<path d="M302.677 535.288L302.465 533.537C435.782 517.107 536.241 403.228 536.241 268.66C536.259 243.424 532.707 218.314 525.691 194.075L527.39 193.59C534.457 217.986 538.035 243.26 538.017 268.66C538 404.12 436.836 518.739 302.677 535.288Z" fill="#D9D9D9"/>
<path d="M504.046 141.436C473.145 84.517 422.634 40.7657 361.908 18.319C301.183 -4.12769 234.376 -3.74178 173.914 19.405L173.293 17.7645C234.153 -5.53599 301.4 -5.92464 362.525 16.6708C423.649 39.2663 474.491 83.3076 505.592 140.603L504.046 141.436Z" fill="#D9D9D9"/>
<path d="M30.2822 372.569C30.8815 368.169 27.8024 364.116 23.4048 363.516C19.0073 362.917 14.9565 365.998 14.3573 370.398C13.758 374.798 16.8371 378.851 21.2347 379.45C25.6322 380.05 29.683 376.969 30.2822 372.569Z" fill="#53A490"/>
<path d="M16.0636 323.687C16.0653 325.278 15.5952 326.834 14.7128 328.157C13.8304 329.481 12.5755 330.513 11.1067 331.123C9.63797 331.732 8.02148 331.892 6.46185 331.582C4.90221 331.272 3.46954 330.506 2.34517 329.381C1.22079 328.256 0.455258 326.823 0.145456 325.262C-0.164347 323.702 -0.00449009 322.084 0.604793 320.615C1.21408 319.145 2.2454 317.889 3.56822 317.006C4.89105 316.123 6.44591 315.653 8.03601 315.655C10.1651 315.655 12.2069 316.501 13.7124 318.007C15.2178 319.514 16.0636 321.557 16.0636 323.687Z" fill="#53A490"/>
<path d="M131.491 44.1988C131.492 45.7894 131.023 47.3449 130.141 48.6683C129.259 49.9917 128.004 51.0236 126.536 51.6335C125.068 52.2434 123.452 52.4038 121.892 52.0945C120.333 51.7852 118.9 51.0201 117.775 49.8959C116.651 48.7718 115.884 47.339 115.574 45.7791C115.263 44.2191 115.421 42.6019 116.029 41.1322C116.637 39.6624 117.667 38.4061 118.989 37.5222C120.311 36.6383 121.865 36.1665 123.455 36.1665C124.51 36.1654 125.554 36.3723 126.529 36.7755C127.504 37.1786 128.39 37.7701 129.136 38.5161C129.883 39.2621 130.475 40.1479 130.879 41.123C131.283 42.0981 131.491 43.1432 131.491 44.1988Z" fill="#53A490"/>
<path d="M181.635 19.4389C181.635 21.0293 181.164 22.5838 180.281 23.9061C179.398 25.2284 178.143 26.259 176.675 26.8676C175.206 27.4762 173.59 27.6354 172.032 27.3252C170.473 27.0149 169.041 26.2491 167.917 25.1246C166.793 24.0001 166.028 22.5674 165.718 21.0076C165.408 19.4479 165.567 17.8311 166.175 16.3619C166.783 14.8926 167.813 13.6368 169.135 12.7533C170.456 11.8698 172.01 11.3982 173.599 11.3982C175.73 11.4004 177.773 12.2483 179.279 13.7558C180.786 15.2632 181.633 17.3071 181.635 19.4389Z" fill="#53A490"/>
<path d="M512.855 141.019C512.855 142.61 512.384 144.164 511.501 145.486C510.618 146.809 509.363 147.839 507.895 148.448C506.426 149.057 504.81 149.216 503.252 148.906C501.693 148.595 500.261 147.829 499.137 146.705C498.013 145.58 497.248 144.148 496.938 142.588C496.628 141.028 496.787 139.411 497.395 137.942C498.003 136.473 499.033 135.217 500.355 134.334C501.676 133.45 503.23 132.979 504.819 132.979C506.95 132.981 508.993 133.829 510.499 135.336C512.006 136.844 512.853 138.887 512.855 141.019Z" fill="#53A490"/>
<path d="M526.642 201.877C531.081 201.877 534.678 198.277 534.678 193.836C534.678 189.396 531.081 185.796 526.642 185.796C522.204 185.796 518.606 189.396 518.606 193.836C518.606 198.277 522.204 201.877 526.642 201.877Z" fill="#53A490"/>
<path d="M86.1795 455.858C86.1812 457.449 85.7111 459.005 84.8288 460.328C83.9464 461.652 82.6914 462.684 81.2227 463.294C79.7539 463.903 78.1374 464.063 76.5778 463.753C75.0182 463.443 73.5855 462.677 72.4611 461.552C71.3368 460.427 70.5712 458.994 70.2614 457.433C69.9516 455.872 70.1115 454.255 70.7208 452.785C71.33 451.316 72.3614 450.06 73.6842 449.177C75.007 448.294 76.5619 447.824 78.152 447.826C80.2803 447.828 82.3209 448.675 83.8258 450.181C85.3308 451.687 86.1773 453.728 86.1795 455.858Z" fill="#53A490"/>
<path d="M107.247 475.246C107.247 476.836 106.775 478.391 105.892 479.713C105.009 481.035 103.754 482.066 102.286 482.675C100.817 483.283 99.2016 483.442 97.6427 483.132C96.0839 482.822 94.652 482.056 93.5281 480.931C92.4043 479.807 91.6389 478.374 91.3289 476.814C91.0188 475.255 91.1779 473.638 91.7862 472.169C92.3944 470.7 93.4244 469.444 94.7459 468.56C96.0674 467.677 97.6211 467.205 99.2105 467.205C100.266 467.205 101.311 467.413 102.286 467.817C103.261 468.221 104.147 468.814 104.893 469.56C105.639 470.307 106.231 471.193 106.635 472.169C107.039 473.144 107.247 474.19 107.247 475.246Z" fill="#53A490"/>
<path d="M253.467 544C257.905 544 261.503 540.4 261.503 535.959C261.503 531.518 257.905 527.918 253.467 527.918C249.029 527.918 245.431 531.518 245.431 535.959C245.431 540.4 249.029 544 253.467 544Z" fill="#53A490"/>
<path d="M310.603 534.412C310.603 536.003 310.132 537.557 309.249 538.879C308.366 540.202 307.111 541.232 305.642 541.841C304.174 542.45 302.558 542.609 300.999 542.299C299.44 541.988 298.009 541.223 296.885 540.098C295.761 538.973 294.995 537.541 294.685 535.981C294.375 534.421 294.534 532.804 295.143 531.335C295.751 529.866 296.781 528.61 298.102 527.727C299.424 526.843 300.978 526.372 302.567 526.372C304.698 526.372 306.742 527.219 308.249 528.727C309.756 530.235 310.603 532.28 310.603 534.412Z" fill="#53A490"/>
</g>
<defs>
<clipPath id="clip0_1_514">
<rect width="538" height="544" fill="white"/>
</clipPath>
</defs>
</svg>
