<svg xmlns="http://www.w3.org/2000/svg" width="154" height="35" viewBox="0 0 154 35" fill="none">
  <path d="M122.854 24.8355L123.229 22.6583C123.317 22.8306 123.455 22.9725 123.623 23.0658C123.792 23.1591 123.985 23.1996 124.177 23.182C124.511 23.1871 124.84 23.0945 125.124 22.9154C125.402 22.7362 125.625 22.4837 125.771 22.1855C125.924 21.8649 126.002 21.513 125.998 21.1572C126.017 20.8004 125.904 20.4491 125.682 20.1702C125.57 20.0439 125.431 19.9447 125.275 19.8799C125.119 19.8151 124.951 19.7863 124.783 19.7957C124.559 19.7894 124.337 19.8338 124.132 19.9256C123.928 20.0173 123.747 20.154 123.602 20.3257L123.532 19.8877H122.901L122.036 24.8355H122.854ZM124.117 22.4267C124.023 22.4308 123.929 22.4149 123.842 22.3799C123.755 22.3448 123.676 22.2916 123.611 22.2235C123.486 22.0695 123.423 21.8734 123.435 21.6745C123.435 21.6332 123.435 21.5729 123.435 21.4936L123.454 21.3825C123.498 21.1487 123.621 20.9372 123.801 20.7827C123.976 20.6305 124.201 20.5481 124.432 20.551C124.526 20.547 124.62 20.5634 124.707 20.599C124.794 20.6346 124.873 20.6886 124.937 20.7573C125.069 20.9113 125.137 21.11 125.127 21.3127C125.138 21.5138 125.099 21.7146 125.013 21.8967C124.928 22.0602 124.8 22.1973 124.644 22.2934C124.482 22.3883 124.297 22.4346 124.11 22.4267H124.117ZM127.677 23.182C127.904 23.1902 128.13 23.1445 128.335 23.0485C128.541 22.9525 128.721 22.8091 128.861 22.6298C128.866 22.7043 128.886 22.777 128.92 22.8435C128.953 22.9101 129 22.9691 129.057 23.017C129.183 23.1046 129.334 23.1481 129.486 23.1407C129.702 23.1313 129.915 23.0884 130.118 23.0138V22.3791C130.017 22.3791 129.954 22.4044 129.928 22.4044C129.87 22.4097 129.811 22.3927 129.764 22.3568C129.746 22.3364 129.731 22.3123 129.723 22.2861C129.714 22.2598 129.711 22.232 129.714 22.2045C129.71 22.1644 129.71 22.124 129.714 22.0839L130.093 19.8941H129.262L129.177 20.3955C129.093 20.2016 128.951 20.0392 128.77 19.9315C128.589 19.8238 128.379 19.7763 128.17 19.7957C127.859 19.7931 127.554 19.8849 127.296 20.0591C127.024 20.2419 126.807 20.4938 126.664 20.7891C126.507 21.1141 126.428 21.4718 126.434 21.8332C126.414 22.1882 126.526 22.538 126.749 22.8138C126.866 22.9402 127.01 23.0387 127.169 23.1024C127.328 23.1661 127.5 23.1933 127.671 23.182H127.677ZM127.993 22.4267C127.899 22.4315 127.806 22.4158 127.718 22.3807C127.631 22.3457 127.553 22.2921 127.488 22.2235C127.359 22.0686 127.293 21.87 127.305 21.6682C127.301 21.4714 127.345 21.2766 127.431 21.1001C127.51 20.9349 127.634 20.7953 127.788 20.697C127.945 20.5979 128.127 20.5471 128.312 20.551C128.407 20.5451 128.501 20.5599 128.59 20.5944C128.678 20.6289 128.758 20.6824 128.823 20.751C128.95 20.9058 129.014 21.1029 129.003 21.3032C129.006 21.3338 129.006 21.3646 129.003 21.3952L128.956 21.6935C128.896 21.902 128.77 22.0849 128.596 22.214C128.427 22.3523 128.215 22.4274 127.996 22.4267H127.993ZM131.529 23.09L131.778 21.6935V21.6682L131.813 21.4714C131.866 21.2618 131.96 21.0653 132.091 20.8938C132.14 20.8193 132.206 20.7576 132.283 20.714C132.361 20.6704 132.447 20.6461 132.536 20.6431C132.667 20.6463 132.794 20.687 132.902 20.7605L133.426 19.9925C133.337 19.9427 133.244 19.8992 133.148 19.8623C133.047 19.8258 132.94 19.8075 132.833 19.8084C132.656 19.8094 132.483 19.856 132.33 19.9439C132.177 20.0317 132.049 20.1577 131.958 20.3098L131.882 19.8782H131.251L130.695 23.09H131.529ZM134.859 23.182C135.082 23.1775 135.302 23.1389 135.513 23.0677L135.649 22.3854C135.489 22.4386 135.324 22.4696 135.156 22.4774C134.869 22.4774 134.727 22.3251 134.727 22.0173C134.726 21.9353 134.734 21.8535 134.749 21.7729L134.957 20.5701H135.721L135.908 19.8877H135.074L135.248 18.8849H134.414L134.241 19.8877H133.758L133.638 20.5701H134.118L133.922 21.6967C133.894 21.8411 133.881 21.9877 133.881 22.1347C133.87 22.2776 133.888 22.4212 133.933 22.557C133.979 22.6928 134.051 22.818 134.146 22.9249C134.243 23.0133 134.356 23.0815 134.479 23.1256C134.602 23.1697 134.732 23.1889 134.863 23.182H134.859ZM136.968 23.09L137.315 21.1223C137.452 20.9736 137.607 20.8434 137.776 20.7351C137.899 20.652 138.042 20.6048 138.19 20.5986C138.247 20.5917 138.305 20.5975 138.359 20.6156C138.414 20.6337 138.464 20.6637 138.506 20.7034C138.574 20.794 138.607 20.9072 138.597 21.0207C138.598 21.1048 138.59 21.1888 138.575 21.2714L138.259 23.0995H139.134L139.481 21.1318C139.503 21.0049 139.514 20.8765 139.516 20.7478C139.528 20.6162 139.51 20.4837 139.465 20.3596C139.419 20.2356 139.347 20.1232 139.254 20.0305C139.054 19.8757 138.805 19.797 138.553 19.8084C138.123 19.8292 137.718 20.0196 137.426 20.3384L137.325 19.8877H136.646L136.091 23.09H136.968ZM141.464 23.182C141.966 23.1855 142.458 23.0398 142.878 22.7631L142.6 22.1918C142.447 22.2897 142.284 22.3716 142.114 22.4362C141.941 22.5083 141.755 22.5481 141.568 22.5536C141.409 22.5763 141.247 22.537 141.115 22.4438C140.984 22.3506 140.893 22.2106 140.861 22.0522C141.427 22.0435 141.986 21.9228 142.505 21.6967C142.716 21.6122 142.895 21.4637 143.017 21.2719C143.139 21.0801 143.199 20.8547 143.187 20.6272C143.196 20.5027 143.171 20.3781 143.116 20.2665C143.06 20.1549 142.976 20.0602 142.872 19.9925C142.626 19.8413 142.342 19.7662 142.054 19.7767C141.694 19.7731 141.341 19.8686 141.031 20.0528C140.723 20.2321 140.468 20.4892 140.289 20.7986C140.108 21.1035 140.013 21.4525 140.015 21.8078C140.004 21.9914 140.032 22.1751 140.098 22.3469C140.163 22.5187 140.264 22.6746 140.393 22.8043C140.689 23.0652 141.074 23.2006 141.467 23.182H141.464ZM140.867 21.4492C140.923 21.1636 141.072 20.9047 141.29 20.7129C141.488 20.5276 141.749 20.4245 142.019 20.4241C142.131 20.4197 142.242 20.4507 142.335 20.5129C142.373 20.5413 142.404 20.5787 142.425 20.6218C142.446 20.6649 142.456 20.7125 142.455 20.7605C142.455 20.9858 142.291 21.1508 141.969 21.2588C141.612 21.3705 141.243 21.4345 140.87 21.4492H140.867ZM144.308 23.09L144.557 21.6935V21.6682L144.592 21.4714C144.646 21.2623 144.74 21.0659 144.87 20.8938C144.919 20.8198 144.985 20.7586 145.063 20.715C145.14 20.6715 145.226 20.6468 145.315 20.6431C145.446 20.6459 145.573 20.6867 145.681 20.7605L146.205 19.9925C146.116 19.9421 146.023 19.8986 145.927 19.8623C145.826 19.8252 145.719 19.8069 145.612 19.8084C145.438 19.8115 145.268 19.8592 145.118 19.9469C144.967 20.0347 144.842 20.1596 144.753 20.3098L144.677 19.8782H144.046L143.49 23.0804L144.308 23.09Z" fill="#421B9B"/>
  <path d="M122.629 12.766V11.633C122.629 11.4349 122.708 11.2449 122.847 11.1045C122.986 10.9642 123.174 10.8849 123.371 10.884H124.495V12.401H125.212V10.1541H123.371C123.18 10.1541 122.99 10.1921 122.812 10.266C122.635 10.3399 122.474 10.4482 122.339 10.5847C122.203 10.7212 122.096 10.8832 122.023 11.0614C121.95 11.2397 121.912 11.4307 121.913 11.6235V13.4864H127.081V14.6194C127.079 14.8176 127 15.0071 126.861 15.1472C126.721 15.2873 126.533 15.3668 126.336 15.3684H125.212V13.8482H124.495V16.0698H126.336C126.722 16.0698 127.093 15.9153 127.367 15.6403C127.64 15.3654 127.794 14.9924 127.794 14.6036V12.766H122.629Z" fill="#5955D9"/>
  <path d="M130.102 10.6333C129.824 11.0313 129.69 11.5129 129.723 11.998V12.3153H129.259V13.3277H129.723V16.073H130.881V13.3277H131.828V12.3122H130.881V11.8964C130.881 11.395 131.058 11.1379 131.415 11.1379C131.592 11.1498 131.765 11.1894 131.93 11.2553V10.3033C131.672 10.2069 131.399 10.1554 131.125 10.1509C130.928 10.146 130.734 10.187 130.556 10.2707C130.379 10.3544 130.223 10.4786 130.102 10.6333Z" fill="#421B9B"/>
  <path d="M133.571 12.3122H132.394V16.0888H133.571V12.3122Z" fill="#421B9B"/>
  <path d="M132.98 10.1763C132.898 10.1728 132.816 10.1868 132.739 10.2175C132.662 10.2481 132.593 10.2946 132.535 10.354C132.428 10.4891 132.369 10.657 132.369 10.8301C132.369 11.0031 132.428 11.171 132.535 11.3061C132.592 11.3683 132.661 11.4179 132.737 11.4519C132.814 11.4859 132.897 11.5034 132.98 11.5034C133.064 11.5034 133.147 11.4859 133.224 11.4519C133.3 11.4179 133.369 11.3683 133.426 11.3061C133.537 11.1744 133.598 11.0064 133.596 10.8332C133.602 10.6569 133.54 10.485 133.422 10.354C133.365 10.2955 133.296 10.2495 133.22 10.2189C133.144 10.1884 133.062 10.1738 132.98 10.1763Z" fill="#421B9B"/>
  <path d="M136.693 12.2106C136.467 12.2152 136.243 12.2689 136.039 12.368C135.835 12.4672 135.654 12.6094 135.51 12.785L135.32 12.3121H134.373V16.0856H135.592V13.7593C135.719 13.6317 135.864 13.5246 136.024 13.442C136.141 13.3724 136.273 13.3332 136.409 13.3277C136.476 13.3199 136.543 13.3313 136.604 13.3605C136.664 13.3897 136.715 13.4356 136.75 13.4927C136.824 13.6412 136.858 13.8064 136.848 13.972L136.832 16.092H138.067V13.7403C138.086 13.5294 138.063 13.3168 137.997 13.1155C137.932 12.9141 137.827 12.7282 137.688 12.5692C137.554 12.4461 137.397 12.351 137.226 12.2894C137.056 12.2278 136.874 12.2011 136.693 12.2106Z" fill="#421B9B"/>
  <path d="M140.283 15.0923C140.237 15.0953 140.192 15.089 140.149 15.0737C140.106 15.0584 140.067 15.0345 140.033 15.0034C139.97 14.9189 139.94 14.8139 139.948 14.7083V10.3413H138.764V14.8448C138.732 15.201 138.828 15.5571 139.036 15.8476C139.13 15.9543 139.247 16.0382 139.379 16.0931C139.51 16.1481 139.652 16.1726 139.793 16.165C140.078 16.1596 140.36 16.1015 140.624 15.9936L140.45 15.0733C140.395 15.0869 140.339 15.0943 140.283 15.0955V15.0923Z" fill="#421B9B"/>
  <path d="M143.954 12.4486C143.632 12.2815 143.275 12.1965 142.912 12.2011C142.549 12.1974 142.189 12.2812 141.864 12.4455C141.56 12.604 141.308 12.8476 141.138 13.1469C140.958 13.4701 140.867 13.8363 140.876 14.2069C140.866 14.5741 140.956 14.9373 141.135 15.2573C141.305 15.5548 141.557 15.7963 141.861 15.9524C142.186 16.1199 142.547 16.2039 142.912 16.1967C143.312 16.2106 143.707 16.1105 144.052 15.9079C144.344 15.7309 144.58 15.4731 144.731 15.1653C144.873 14.8683 144.946 14.5428 144.945 14.2132C144.955 13.8442 144.863 13.4797 144.68 13.1595C144.509 12.8607 144.257 12.6166 143.954 12.455V12.4486ZM143.525 14.8733C143.449 14.963 143.355 15.035 143.248 15.0844C143.142 15.1338 143.026 15.1594 142.909 15.1594C142.792 15.1594 142.677 15.1338 142.57 15.0844C142.464 15.035 142.37 14.963 142.294 14.8733C142.157 14.6773 142.087 14.4428 142.092 14.2037C142.086 13.9615 142.157 13.7238 142.294 13.5245C142.369 13.4339 142.463 13.361 142.569 13.3109C142.676 13.2609 142.792 13.235 142.909 13.235C143.027 13.235 143.143 13.2609 143.249 13.3109C143.355 13.361 143.45 13.4339 143.525 13.5245C143.663 13.7234 143.735 13.9612 143.73 14.2037C143.734 14.4431 143.662 14.6776 143.525 14.8733Z" fill="#421B9B"/>
  <path d="M148.374 12.4486C148.052 12.2815 147.694 12.1965 147.332 12.2011C146.967 12.197 146.607 12.2808 146.281 12.4455C145.977 12.6032 145.726 12.847 145.558 13.1469C145.378 13.4704 145.286 13.8362 145.293 14.2069C145.286 14.5745 145.378 14.9372 145.558 15.2573C145.728 15.554 145.978 15.7953 146.281 15.9524C146.606 16.1184 146.967 16.2023 147.332 16.1967C147.732 16.2102 148.129 16.1101 148.475 15.9079C148.767 15.7316 149.002 15.4735 149.151 15.1653C149.294 14.8685 149.368 14.543 149.368 14.2132C149.375 13.8441 149.282 13.48 149.1 13.1595C148.93 12.8584 148.678 12.6119 148.374 12.4486ZM147.945 14.8733C147.869 14.963 147.774 15.035 147.668 15.0844C147.562 15.1338 147.446 15.1594 147.329 15.1594C147.212 15.1594 147.096 15.1338 146.99 15.0844C146.884 15.035 146.789 14.963 146.713 14.8733C146.578 14.677 146.508 14.4425 146.515 14.2037C146.508 13.9619 146.577 13.7241 146.713 13.5245C146.789 13.4339 146.883 13.361 146.989 13.3109C147.096 13.2609 147.212 13.235 147.329 13.235C147.446 13.235 147.562 13.2609 147.669 13.3109C147.775 13.361 147.869 13.4339 147.945 13.5245C148.084 13.7227 148.156 13.9609 148.15 14.2037C148.155 14.4433 148.083 14.6783 147.945 14.8733Z" fill="#421B9B"/>
  <path d="M153.788 13.1691C153.654 12.8809 153.445 12.635 153.182 12.4582C152.912 12.2858 152.598 12.1965 152.279 12.2011C152.029 12.192 151.782 12.248 151.561 12.3637C151.339 12.4794 151.152 12.6508 151.016 12.8612L150.801 12.3122H149.952V18.1454H151.108V15.7017C151.247 15.8636 151.421 15.9913 151.617 16.0749C151.813 16.1585 152.025 16.1959 152.238 16.1841C152.56 16.1978 152.88 16.1146 153.156 15.945C153.431 15.7754 153.65 15.5272 153.785 15.232C153.932 14.911 154.006 14.5605 153.999 14.2069C154.007 13.8494 153.935 13.4947 153.788 13.1691ZM152.576 14.8797C152.495 14.9612 152.399 15.0258 152.294 15.0699C152.189 15.1141 152.076 15.1368 151.962 15.1368C151.847 15.1368 151.734 15.1141 151.629 15.0699C151.524 15.0258 151.428 14.9612 151.347 14.8797C151.18 14.6934 151.093 14.4481 151.104 14.1974C151.097 13.9507 151.183 13.7105 151.344 13.5245C151.421 13.4388 151.516 13.3711 151.622 13.3261C151.728 13.2812 151.842 13.2601 151.957 13.2643C152.074 13.2596 152.192 13.2804 152.301 13.3253C152.41 13.3702 152.508 13.4382 152.588 13.5245C152.743 13.7159 152.828 13.9552 152.828 14.2021C152.828 14.449 152.743 14.6883 152.588 14.8797H152.576Z" fill="#421B9B"/>
  <path d="M20.3556 2.93723C20.3532 3.1107 20.2836 3.27637 20.1615 3.39904C20.0395 3.52172 19.8747 3.59172 19.7022 3.59418C18.7551 3.59418 18.2595 3.77825 17.9974 4.12101C17.6818 4.46376 17.4481 5.12388 17.4481 6.36161V7.81197H19.3612C19.5382 7.80856 19.7093 7.87578 19.8371 7.9989C19.9649 8.12202 20.039 8.29102 20.0431 8.46892C20.0439 8.55918 20.0269 8.6487 19.9929 8.73225C19.9589 8.8158 19.9088 8.89171 19.8453 8.95553C19.7818 9.01936 19.7063 9.06982 19.6232 9.10397C19.54 9.13812 19.451 9.15527 19.3612 9.15443H17.4481V20.9446C17.4481 21.1243 17.3771 21.2966 17.2507 21.4237C17.1243 21.5507 16.9529 21.6221 16.7741 21.6221C16.5954 21.6221 16.424 21.5507 16.2976 21.4237C16.1712 21.2966 16.1001 21.1243 16.1001 20.9446V9.17982H14.3291C14.16 9.16812 14.0016 9.09231 13.8859 8.96772C13.7702 8.84313 13.7058 8.67903 13.7058 8.50859C13.7058 8.33814 13.7702 8.17405 13.8859 8.04945C14.0016 7.92486 14.16 7.84906 14.3291 7.83736H16.1001V6.387C16.1254 4.99059 16.3338 3.99089 16.9904 3.21334C17.6439 2.50244 18.6414 2.23903 19.7148 2.23903C19.8906 2.24965 20.0556 2.32828 20.175 2.45843C20.2945 2.58859 20.3592 2.76017 20.3556 2.93723Z" fill="#3C3C3B"/>
  <path d="M22.3225 4.30506C22.3225 4.12661 22.393 3.95548 22.5185 3.8293C22.6441 3.70313 22.8143 3.63224 22.9918 3.63224C23.1693 3.63224 23.3395 3.70313 23.465 3.8293C23.5905 3.95548 23.661 4.12661 23.661 4.30506V4.93979C23.661 5.11823 23.5905 5.28936 23.465 5.41554C23.3395 5.54172 23.1693 5.6126 22.9918 5.6126C22.8143 5.6126 22.6441 5.54172 22.5185 5.41554C22.393 5.28936 22.3225 5.11823 22.3225 4.93979V4.30506ZM22.3225 8.74817C22.3221 8.66152 22.3388 8.57564 22.3717 8.49553C22.4046 8.41543 22.453 8.3427 22.5141 8.28157C22.5752 8.22044 22.6478 8.17213 22.7276 8.13945C22.8074 8.10678 22.893 8.09038 22.9792 8.09123C23.0672 8.08565 23.1555 8.09797 23.2387 8.12745C23.3219 8.15692 23.3983 8.20295 23.4634 8.26279C23.5286 8.32263 23.581 8.39504 23.6177 8.47571C23.6543 8.55638 23.6745 8.64365 23.6768 8.73231V20.9858C23.6719 21.1634 23.5975 21.3319 23.4699 21.4549C23.3423 21.5778 23.1717 21.6453 22.9949 21.6427C22.8218 21.6411 22.6562 21.5715 22.5335 21.4487C22.4108 21.3259 22.3408 21.1598 22.3383 20.9858L22.3225 8.74817Z" fill="#3C3C3B"/>
  <path d="M37.6301 13.607C37.6305 13.0568 37.523 12.5118 37.3138 12.0034C37.1045 11.4949 36.7976 11.0329 36.4105 10.6439C36.0235 10.2548 35.564 9.9462 35.0582 9.73582C34.5524 9.52544 34.0104 9.41737 33.463 9.41779C32.3582 9.42759 31.301 9.87121 30.5171 10.6539C29.7332 11.4366 29.2848 12.4964 29.2675 13.607V21.0905C29.2483 21.2046 29.2041 21.313 29.1381 21.4079C29.0793 21.484 29.0035 21.5452 28.9169 21.5866C28.8303 21.6279 28.7352 21.6482 28.6393 21.6459H28.4815C28.3837 21.6188 28.2931 21.5703 28.2162 21.5039C28.1392 21.4376 28.0778 21.3549 28.0363 21.2619C28.0266 21.2513 28.0193 21.2387 28.0149 21.225C28.0106 21.2113 28.0093 21.1968 28.0111 21.1825C28.0075 21.162 27.9976 21.1431 27.9827 21.1286V8.75132C27.9827 8.58003 28.0504 8.41576 28.1708 8.29464C28.2913 8.17352 28.4547 8.10548 28.6251 8.10548C28.7955 8.10548 28.9589 8.17352 29.0794 8.29464C29.1998 8.41576 29.2675 8.58003 29.2675 8.75132V10.043C29.9892 9.17573 30.9591 8.55299 32.0453 8.25948C33.1314 7.96597 34.2812 8.01595 35.3381 8.40261C36.3951 8.78928 37.3079 9.49385 37.9524 10.4205C38.5969 11.3472 38.9418 12.4509 38.9402 13.5816V20.9445C38.9465 21.0348 38.9342 21.1255 38.9041 21.2108C38.874 21.2962 38.8267 21.3744 38.7653 21.4406C38.7039 21.5068 38.6295 21.5596 38.5469 21.5956C38.4643 21.6317 38.3752 21.6504 38.2852 21.6504C38.1951 21.6504 38.106 21.6317 38.0234 21.5956C37.9408 21.5596 37.8665 21.5068 37.8051 21.4406C37.7436 21.3744 37.6964 21.2962 37.6663 21.2108C37.6362 21.1255 37.6239 21.0348 37.6301 20.9445V13.607Z" fill="#3C3C3B"/>
  <path d="M53.0675 19.0086C52.4687 19.8262 51.6868 20.4907 50.7852 20.9483C49.8836 21.4059 48.8876 21.6438 47.8776 21.6427C44.2346 21.6427 41.3555 18.5865 41.3555 14.8733C41.3555 11.103 44.2377 8.04676 47.8808 8.04676C48.8924 8.05327 49.8885 8.29742 50.7896 8.75973C51.6907 9.22205 52.4719 9.88972 53.0707 10.7095V2.90862C53.0823 2.73857 53.1577 2.5793 53.2817 2.46299C53.4056 2.34667 53.5688 2.28198 53.7384 2.28198C53.9079 2.28198 54.0711 2.34667 54.1951 2.46299C54.319 2.5793 54.3944 2.73857 54.4061 2.90862V20.9985C54.3944 21.1685 54.319 21.3278 54.1951 21.4441C54.0711 21.5604 53.9079 21.6251 53.7384 21.6251C53.5688 21.6251 53.4056 21.5604 53.2817 21.4441C53.1577 21.3278 53.0823 21.1685 53.0707 20.9985L53.0675 19.0086ZM53.0675 15.1081V14.6607C52.9602 11.7631 50.6809 9.41778 47.8776 9.41778C45.0743 9.41778 42.6877 11.8678 42.6877 14.8733C42.676 15.5702 42.8009 16.2625 43.0554 16.9108C43.3099 17.5591 43.689 18.1507 44.1709 18.6517C44.6529 19.1527 45.2283 19.5534 45.8643 19.8308C46.5003 20.1082 47.1844 20.2569 47.8776 20.2685C50.6557 20.3098 52.9602 17.9803 53.0675 15.1081Z" fill="#3C3C3B"/>
  <path d="M56.9976 14.9146C56.9976 11.1475 59.9051 8.09123 63.5481 8.09123C67.0207 8.09123 69.7861 10.8555 70.0481 14.4132V14.5179C70.0408 14.6851 69.9679 14.8427 69.8455 14.9562C69.7231 15.0698 69.5611 15.1301 69.3947 15.1241H58.3077C58.3402 16.5063 58.9043 17.8221 59.8815 18.795C60.8587 19.7679 62.1729 20.3222 63.5481 20.3415C64.4242 20.3397 65.2849 20.1109 66.0475 19.6773C66.81 19.2438 67.4485 18.6199 67.9015 17.8661C67.9445 17.7917 68.0021 17.7269 68.0709 17.6757C68.1396 17.6244 68.2179 17.5877 68.3012 17.5678C68.3845 17.5479 68.4709 17.5453 68.5552 17.56C68.6395 17.5747 68.72 17.6065 68.7917 17.6535C68.8683 17.7016 68.9346 17.7646 68.9866 17.8388C69.0387 17.9129 69.0755 17.9968 69.0949 18.0855C69.1143 18.1742 69.1159 18.2658 69.0996 18.3551C69.0833 18.4444 69.0495 18.5296 69.0001 18.6056C68.4254 19.5417 67.6238 20.3159 66.6702 20.8554C65.7166 21.395 64.6423 21.6823 63.5481 21.6903C59.9335 21.6427 56.9976 18.5865 56.9976 14.9146ZM58.4024 13.8165H68.6244C68.4297 12.604 67.817 11.499 66.8936 10.6948C65.9702 9.89066 64.7949 9.43862 63.5734 9.41782C61.0321 9.39243 58.9106 11.2363 58.4024 13.8165Z" fill="#3C3C3B"/>
  <path d="M82.3162 13.607C82.317 13.0566 82.2098 12.5115 82.0007 12.0029C81.7915 11.4942 81.4846 11.0321 81.0975 10.6429C80.7104 10.2537 80.2507 9.9452 79.7447 9.73497C79.2388 9.52474 78.6965 9.41695 78.1491 9.41779C77.0443 9.42759 75.9871 9.87121 75.2032 10.6539C74.4193 11.4366 73.9708 12.4964 73.9536 13.607V21.0905C73.9344 21.2046 73.8902 21.313 73.8241 21.4079C73.7655 21.4842 73.6898 21.5456 73.6031 21.5869C73.5164 21.6283 73.4213 21.6485 73.3254 21.6459H73.1675C73.0698 21.6188 72.9792 21.5703 72.9022 21.5039C72.8253 21.4376 72.7639 21.3549 72.7224 21.2619C72.7127 21.2513 72.7054 21.2387 72.701 21.225C72.6966 21.2113 72.6953 21.1968 72.6971 21.1825C72.6943 21.1624 72.6855 21.1436 72.6719 21.1286V8.75132C72.6719 8.58045 72.7394 8.41658 72.8596 8.29576C72.9798 8.17494 73.1428 8.10707 73.3127 8.10707C73.4827 8.10707 73.6457 8.17494 73.7659 8.29576C73.8861 8.41658 73.9536 8.58045 73.9536 8.75132V10.043C74.6752 9.17573 75.6451 8.55299 76.7313 8.25948C77.8175 7.96597 78.9672 8.01595 80.0242 8.40261C81.0811 8.78928 81.9939 9.49385 82.6384 10.4205C83.2829 11.3472 83.6278 12.4509 83.6263 13.5816V20.9445C83.6325 21.0348 83.6202 21.1255 83.5901 21.2108C83.56 21.2962 83.5128 21.3744 83.4514 21.4406C83.3899 21.5068 83.3156 21.5596 83.233 21.5956C83.1504 21.6317 83.0613 21.6504 82.9712 21.6504C82.8812 21.6504 82.7921 21.6317 82.7095 21.5956C82.6269 21.5596 82.5525 21.5068 82.4911 21.4406C82.4297 21.3744 82.3824 21.2962 82.3523 21.2108C82.3222 21.1255 82.3099 21.0348 82.3162 20.9445V13.607Z" fill="#3C3C3B"/>
  <path d="M86.9977 17.7106L89.2265 19.3196C89.2481 19.3344 89.2663 19.3536 89.28 19.3761C89.2936 19.3985 89.3022 19.4236 89.3054 19.4497V19.5037C89.3003 19.5639 89.2719 19.6197 89.2265 19.6592L86.9977 21.2619H91.1396C91.1881 21.2619 91.2347 21.2813 91.269 21.3158C91.3034 21.3503 91.3226 21.3971 91.3226 21.4459C91.3226 21.4948 91.3034 21.5416 91.269 21.5761C91.2347 21.6106 91.1881 21.63 91.1396 21.63H86.4989C86.4721 21.6304 86.4457 21.6232 86.4228 21.6092C86.3999 21.5951 86.3814 21.5748 86.3695 21.5507L86.3442 21.5253C86.3319 21.5064 86.3234 21.4852 86.3193 21.4629C86.3152 21.4407 86.3155 21.4178 86.3202 21.3957C86.3249 21.3736 86.3339 21.3526 86.3467 21.334C86.3595 21.3154 86.3758 21.2995 86.3947 21.2873L88.8603 19.4973L86.3947 17.7042C86.3758 17.692 86.3595 17.6761 86.3467 17.6575C86.3339 17.6389 86.3249 17.6179 86.3202 17.5958C86.3155 17.5736 86.3152 17.5508 86.3193 17.5286C86.3234 17.5063 86.3319 17.4851 86.3442 17.4662L86.3947 17.4154C86.42 17.3868 86.4484 17.3868 86.4989 17.3868H91.1396C91.1844 17.3927 91.2255 17.4148 91.2553 17.449C91.2852 17.4832 91.3016 17.5271 91.3016 17.5725C91.3016 17.6179 91.2852 17.6618 91.2553 17.696C91.2255 17.7302 91.1844 17.7523 91.1396 17.7582H86.9977V17.7106Z" fill="#37A45F"/>
  <path d="M86.4483 15.8921C86.4241 15.8925 86.4001 15.888 86.3777 15.8789C86.3553 15.8698 86.3349 15.8563 86.3178 15.8391C86.3007 15.8219 86.2873 15.8015 86.2782 15.7789C86.2692 15.7564 86.2647 15.7323 86.2652 15.708V13.0992C86.2652 13.0504 86.2845 13.0036 86.3188 12.9691C86.3531 12.9346 86.3997 12.9152 86.4483 12.9152C86.4968 12.9152 86.5434 12.9346 86.5777 12.9691C86.6121 13.0036 86.6314 13.0504 86.6314 13.0992V15.5239H88.6234V13.4166C88.6234 13.3678 88.6426 13.321 88.677 13.2865C88.7113 13.2519 88.7579 13.2325 88.8065 13.2325C88.855 13.2325 88.9016 13.2519 88.9359 13.2865C88.9703 13.321 88.9896 13.3678 88.9896 13.4166V15.5239H90.9816V13.0992C90.9816 13.0504 91.0008 13.0036 91.0352 12.9691C91.0695 12.9346 91.1161 12.9152 91.1647 12.9152C91.2132 12.9152 91.2598 12.9346 91.2941 12.9691C91.3285 13.0036 91.3478 13.0504 91.3478 13.0992V15.7334C91.343 15.7783 91.3214 15.8196 91.2874 15.8491C91.2534 15.8786 91.2095 15.8939 91.1647 15.8921H86.4483Z" fill="#37A45F"/>
  <path d="M91.0352 11.7568L88.8065 10.1224L86.5777 11.7568C86.5432 11.7843 86.4994 11.797 86.4557 11.7923C86.412 11.7875 86.3719 11.7657 86.3441 11.7314C86.3296 11.7144 86.3188 11.6945 86.3122 11.6731C86.3057 11.6517 86.3035 11.6292 86.3059 11.607C86.3082 11.5847 86.3151 11.5631 86.326 11.5436C86.3369 11.5241 86.3516 11.507 86.3693 11.4934L88.5192 9.93831L86.3693 8.38322C86.3346 8.35544 86.3122 8.31492 86.3072 8.27058C86.3022 8.22624 86.3149 8.18171 86.3425 8.14678C86.3701 8.11185 86.4104 8.08938 86.4545 8.08432C86.4986 8.07926 86.5429 8.09203 86.5777 8.1198L88.8065 9.75423L91.0352 8.1198C91.0697 8.09232 91.1135 8.07958 91.1572 8.08433C91.2009 8.08909 91.241 8.11095 91.2688 8.14519C91.2972 8.17375 91.2972 8.19914 91.2972 8.2531C91.2973 8.27999 91.2899 8.30637 91.276 8.32933C91.2621 8.35229 91.2421 8.37094 91.2183 8.38322L89.0937 9.93831L91.2183 11.4934C91.2421 11.5057 91.2621 11.5243 91.276 11.5473C91.2899 11.5702 91.2973 11.5966 91.2972 11.6235C91.2972 11.6521 91.2688 11.7029 91.2688 11.7314C91.2574 11.7514 91.2415 11.7684 91.2223 11.781C91.2031 11.7936 91.1812 11.8015 91.1585 11.804C91.1357 11.8064 91.1126 11.8034 91.0912 11.7953C91.0698 11.7871 91.0506 11.7739 91.0352 11.7568Z" fill="#37A45F"/>
  <path d="M13.8049 27.4029H16.1V27.752H14.1743V29.0627H15.9769V29.3801H14.1743V31.1002H13.8049V27.4029Z" fill="#3E3E3D"/>
  <path d="M17.1924 27.4029H17.5586V31.1002H17.1924V27.4029Z" fill="#3E3E3D"/>
  <path d="M19.4148 27.9551V31.1002H19.0581V27.4029H19.4938L21.511 30.5766V27.4029H21.8709V31.1002H21.4226L19.4148 27.9551Z" fill="#3E3E3D"/>
  <path d="M23.0454 31.1002L24.4502 27.4029H24.8512L26.2654 31.1002H25.855L25.4731 30.0751H23.8409L23.4684 31.1002H23.0454ZM25.3436 29.7197L24.6491 27.8155L23.9609 29.7197H25.3436Z" fill="#3E3E3D"/>
  <path d="M27.8058 27.9551V31.1002H27.4648V27.4029H27.9005L29.9209 30.5766V27.4029H30.2776V31.1002H29.8136L27.8058 27.9551Z" fill="#3E3E3D"/>
  <path d="M32.355 30.8971C32.1024 30.7348 31.8984 30.5067 31.7646 30.237C31.6197 29.941 31.5462 29.6148 31.55 29.2849C31.5434 28.9425 31.6169 28.6033 31.7646 28.2947C31.8966 28.0151 32.1031 27.7778 32.3613 27.6092C32.6232 27.4477 32.9253 27.364 33.2326 27.368C33.4819 27.3641 33.7285 27.4195 33.9524 27.5299C34.1597 27.6325 34.3402 27.7825 34.4796 27.9678C34.6174 28.1539 34.7055 28.3725 34.7353 28.6026H34.347C34.3124 28.4426 34.2398 28.2935 34.1355 28.1678C34.0325 28.0316 33.8982 27.9227 33.744 27.8504C33.5846 27.7731 33.4095 27.734 33.2326 27.7362C32.9969 27.7326 32.7656 27.8012 32.5696 27.9329C32.3725 28.0715 32.2165 28.2613 32.1182 28.482C32.0046 28.734 31.9485 29.0083 31.954 29.2849C31.9485 29.551 32.0036 29.8147 32.115 30.0561C32.2131 30.2674 32.3671 30.4475 32.5602 30.5766C32.7537 30.7025 32.98 30.7677 33.2105 30.7638C33.3929 30.766 33.5733 30.7259 33.7377 30.6464C33.8933 30.5722 34.0303 30.4637 34.1386 30.329C34.2436 30.2054 34.3153 30.0568 34.347 29.8974H34.7258C34.6912 30.1279 34.6001 30.346 34.4606 30.5322C34.3208 30.7211 34.1378 30.8735 33.9271 30.9765C33.699 31.084 33.4497 31.1382 33.1979 31.1352C32.9002 31.1373 32.608 31.0548 32.355 30.8971Z" fill="#3E3E3D"/>
  <path d="M36.0234 27.4029H36.3928V31.1002H36.0234V27.4029Z" fill="#3E3E3D"/>
  <path d="M37.8828 27.4029H40.181V27.7584H38.2522V29.0596H40.0926V29.4023H38.2743V30.7511H40.2031V31.1002H37.8828V27.4029Z" fill="#3E3E3D"/>
  <path d="M41.4185 27.4029H42.8706C43.0706 27.3975 43.2692 27.4377 43.4515 27.5203C43.6064 27.5942 43.7353 27.7137 43.8209 27.8631C43.909 28.0242 43.9527 28.2061 43.9471 28.3899C43.9481 28.5784 43.8908 28.7625 43.783 28.9168C43.6819 29.0664 43.5342 29.1781 43.3631 29.2341C43.4772 29.2628 43.5804 29.3246 43.6599 29.4118C43.7295 29.4937 43.7773 29.592 43.7988 29.6975C43.8287 29.8462 43.8488 29.9967 43.8587 30.1481C43.8587 30.3195 43.8808 30.4655 43.8935 30.5956C43.8999 30.6928 43.9136 30.7893 43.9345 30.8844C43.9529 30.961 43.9816 31.0346 44.0197 31.1034H43.6093C43.5859 31.0441 43.5689 30.9824 43.5588 30.9193C43.5438 30.8333 43.5343 30.7464 43.5304 30.6591C43.5304 30.548 43.5115 30.4211 43.502 30.2814C43.4919 30.1111 43.4719 29.9416 43.442 29.7736C43.4174 29.6669 43.3545 29.5731 43.2652 29.5102C43.1266 29.4235 42.964 29.3834 42.8012 29.396H41.7815V31.1002H41.4185V27.4029ZM42.8327 29.0691C42.967 29.0712 43.1 29.0419 43.221 28.9834C43.3334 28.9336 43.4288 28.852 43.4957 28.7485C43.5624 28.6458 43.5965 28.5252 43.5936 28.4026C43.5991 28.3095 43.5842 28.2163 43.5498 28.1296C43.5154 28.0429 43.4624 27.9649 43.3947 27.9012C43.2352 27.7752 43.0351 27.713 42.8327 27.7266H41.7878V29.0691H42.8327Z" fill="#3E3E3D"/>
  <path d="M44.9414 31.1002L46.3462 27.4029H46.744L48.1551 31.1002H47.7447L47.3533 30.0783H45.7243L45.355 31.1002H44.9414ZM47.2396 29.7197L46.5451 27.8155L45.8569 29.7197H47.2396Z" fill="#3E3E3D"/>
  <path d="M51.3344 27.4029H52.6761C52.9865 27.3957 53.2927 27.476 53.56 27.6346C53.8101 27.7859 54.0117 28.0062 54.1409 28.2694C54.2827 28.5661 54.353 28.8923 54.3461 29.2214C54.3531 29.5591 54.2852 29.8941 54.1472 30.2021C54.0261 30.4782 53.8254 30.7114 53.571 30.8715C53.3166 31.0316 53.0203 31.1113 52.7203 31.1003H51.3281L51.3344 27.4029ZM52.6477 30.7448C52.8949 30.7508 53.1388 30.687 53.3517 30.5607C53.5555 30.435 53.718 30.2518 53.8189 30.0339C53.9326 29.7887 53.9887 29.5205 53.9831 29.25C53.9892 28.9788 53.9342 28.7097 53.8221 28.4629C53.7218 28.2448 53.5593 28.0614 53.3554 27.936C53.1514 27.8106 52.915 27.7488 52.6761 27.7584H51.6975V30.7448H52.6477Z" fill="#3E3E3D"/>
  <path d="M55.634 27.4029H57.9322V27.7584H56.0034V29.0596H57.8218V29.4023H56.0034V30.7511H57.9322V31.1002H55.634V27.4029Z" fill="#3E3E3D"/>
  <path d="M61.4143 27.9551V31.1002H61.0576V27.4029H61.4933L63.5105 30.5766V27.4029H63.8704V31.1002H63.4221L61.4143 27.9551Z" fill="#3E3E3D"/>
  <path d="M65.3477 27.4029H67.6459V27.7584H65.7139V29.0596H67.5354V29.4023H65.7139V30.7511H67.6459V31.1002H65.3477V27.4029Z" fill="#3E3E3D"/>
  <path d="M69.3538 30.8971C69.0959 30.7365 68.8863 30.5083 68.7477 30.237C68.5979 29.9425 68.522 29.6156 68.5267 29.2849C68.5208 28.9425 68.5977 28.6038 68.7508 28.2979C68.8882 28.0151 69.1014 27.7766 69.3664 27.6092C69.6294 27.4474 69.9326 27.3637 70.2409 27.368C70.4896 27.3662 70.7355 27.4205 70.9606 27.5267C71.1754 27.6259 71.3628 27.7762 71.5068 27.9646C71.6482 28.1497 71.7395 28.3683 71.772 28.5994H71.3837C71.3539 28.438 71.2833 28.2872 71.1785 28.1614C71.0661 28.0271 70.9261 27.9188 70.7681 27.844C70.5781 27.7544 70.3686 27.715 70.1592 27.7294C69.9499 27.7438 69.7476 27.8117 69.5716 27.9265C69.3636 28.0661 69.1976 28.2604 69.0918 28.4883C68.9715 28.7385 68.911 29.0134 68.915 29.2912C68.9111 29.5585 68.9706 29.8229 69.0886 30.0624C69.1965 30.2767 69.3587 30.4584 69.559 30.5892C69.758 30.7163 69.9894 30.7825 70.2251 30.7797C70.4067 30.7774 70.5855 30.7351 70.7491 30.6559C70.946 30.563 71.1138 30.4179 71.2345 30.2361C71.3553 30.0543 71.4243 29.8428 71.4342 29.6245H70.3103V29.25H71.7909V31.1002H71.45V30.4401C71.3255 30.6607 71.1402 30.8403 70.9164 30.9574C70.7003 31.0751 70.4582 31.1362 70.2125 31.1351C69.9094 31.1403 69.6113 31.0577 69.3538 30.8971Z" fill="#3E3E3D"/>
  <path d="M73.8869 30.9034C73.625 30.7332 73.4135 30.4953 73.2744 30.2147C73.1301 29.9138 73.0552 29.584 73.0552 29.2499C73.0552 28.9159 73.1301 28.5861 73.2744 28.2852C73.4065 28.0081 73.6132 27.7739 73.8711 27.6092C74.1335 27.4427 74.4385 27.3567 74.7487 27.3616C75.0609 27.3573 75.3677 27.4432 75.6326 27.6092C75.8923 27.7773 76.1018 28.0131 76.2388 28.2915C76.3873 28.5943 76.4619 28.9283 76.4566 29.2658C76.4595 29.5967 76.3826 29.9234 76.2325 30.2179C76.0921 30.4977 75.8795 30.7345 75.6169 30.9034C75.3579 31.0702 75.0562 31.1574 74.7487 31.1541C74.4434 31.1561 74.144 31.069 73.8869 30.9034ZM75.4464 30.5861C75.6515 30.4509 75.8163 30.2622 75.9231 30.0402C76.0408 29.8028 76.1003 29.5406 76.0967 29.2753C76.1018 28.9995 76.0446 28.726 75.9294 28.4756C75.8248 28.2503 75.6583 28.0598 75.4495 27.9265C75.2431 27.7884 74.9998 27.7164 74.7519 27.7202C74.507 27.7173 74.267 27.7893 74.0637 27.9265C73.8575 28.0638 73.6935 28.2561 73.5901 28.4819C73.4778 28.7309 73.4217 29.0019 73.426 29.2753C73.4227 29.5408 73.4799 29.8035 73.5933 30.0434C73.6976 30.2659 73.8602 30.4557 74.0637 30.5924C74.2657 30.7267 74.5034 30.7964 74.7456 30.7923C74.9944 30.7979 75.2393 30.7295 75.4495 30.5956L75.4464 30.5861Z" fill="#3E3E3D"/>
  <path d="M78.3759 30.8971C78.1234 30.7348 77.9194 30.5067 77.7856 30.237C77.6393 29.9415 77.5657 29.615 77.5709 29.2849C77.5628 28.9424 77.6364 28.6028 77.7856 28.2947C77.9176 28.0151 78.1241 27.7778 78.3822 27.6092C78.6438 27.4469 78.9462 27.3632 79.2535 27.368C79.5028 27.3641 79.7495 27.4195 79.9733 27.5299C80.1818 27.6322 80.3626 27.7835 80.5005 27.971C80.6407 28.1561 80.7299 28.375 80.7594 28.6058H80.3711C80.3365 28.4458 80.2639 28.2966 80.1596 28.171C80.0559 28.0355 79.9218 27.9267 79.7681 27.8536C79.6087 27.7763 79.4337 27.7372 79.2567 27.7393C79.0262 27.7355 78.7999 27.8007 78.6064 27.9266C78.4093 28.0652 78.2532 28.2549 78.1549 28.4756C78.0413 28.7276 77.9852 29.002 77.9908 29.2786C77.9853 29.5446 78.0403 29.8084 78.1518 30.0498C78.2489 30.2607 78.4018 30.4407 78.5938 30.5703C78.7885 30.696 79.0158 30.7612 79.2472 30.7575C79.4296 30.7594 79.6099 30.7192 79.7744 30.6401C79.93 30.5658 80.0671 30.4574 80.1754 30.3227C80.2803 30.1991 80.352 30.0505 80.3837 29.8911H80.772C80.7374 30.1215 80.6463 30.3397 80.5068 30.5258C80.367 30.7148 80.184 30.8671 79.9733 30.9701C79.7443 31.078 79.4938 31.1323 79.2409 31.1288C78.9364 31.1371 78.636 31.0567 78.3759 30.8971Z" fill="#3E3E3D"/>
  <path d="M82.0444 27.4029H82.4138V31.1002H82.0444V27.4029Z" fill="#3E3E3D"/>
  <path d="M84.5602 30.9034C84.2984 30.7332 84.0868 30.4953 83.9478 30.2147C83.8035 29.9138 83.7285 29.584 83.7285 29.2499C83.7285 28.9159 83.8035 28.5861 83.9478 28.2852C84.0822 28.0078 84.2911 27.7736 84.5507 27.6092C84.8163 27.4472 85.1209 27.3616 85.4315 27.3616C85.7421 27.3616 86.0467 27.4472 86.3123 27.6092C86.5737 27.7763 86.7844 28.0123 86.9216 28.2915C87.0701 28.5943 87.1448 28.9283 87.1394 29.2658C87.1423 29.5967 87.0654 29.9234 86.9153 30.2179C86.7749 30.4977 86.5623 30.7345 86.2997 30.9034C86.0408 31.0702 85.739 31.1574 85.4315 31.1541C85.123 31.158 84.82 31.0708 84.5602 30.9034ZM86.1197 30.5861C86.3249 30.4509 86.4896 30.2622 86.5964 30.0402C86.7141 29.8028 86.7737 29.5406 86.77 29.2753C86.7736 28.9996 86.7165 28.7265 86.6027 28.4756C86.5003 28.2483 86.3361 28.0547 86.1292 27.917C85.923 27.7805 85.6816 27.7078 85.4347 27.7078C85.1878 27.7078 84.9463 27.7805 84.7402 27.917C84.5349 28.0544 84.372 28.2468 84.2698 28.4724C84.1574 28.7214 84.1014 28.9924 84.1056 29.2658C84.1024 29.5313 84.1596 29.794 84.2729 30.0338C84.3771 30.2556 84.5384 30.4452 84.7402 30.5829C84.9436 30.7167 85.1821 30.7864 85.4252 30.7828C85.6699 30.7894 85.9112 30.7243 86.1197 30.5956V30.5861Z" fill="#3E3E3D"/>
  <path d="M88.9834 31.0082C88.7731 30.9271 88.5886 30.79 88.4499 30.6115C88.3127 30.427 88.2316 30.2066 88.2163 29.9767H88.633C88.6452 30.0961 88.6814 30.2116 88.7395 30.3164C88.7975 30.4212 88.8763 30.5129 88.9708 30.5861C89.1913 30.741 89.4566 30.818 89.7253 30.8051C89.8897 30.8099 90.0533 30.7796 90.2051 30.7162C90.3331 30.6665 90.4431 30.5791 90.5208 30.4655C90.5892 30.3528 90.6242 30.2229 90.6219 30.091C90.6267 30.0069 90.6108 29.9229 90.5755 29.8465C90.5403 29.7701 90.4868 29.7036 90.4198 29.653C90.2062 29.5234 89.967 29.4421 89.719 29.415C89.3398 29.3749 88.9747 29.2478 88.652 29.0437C88.5506 28.9664 88.4691 28.8659 88.4141 28.7505C88.3592 28.6351 88.3325 28.5082 88.3363 28.3804C88.3353 28.1993 88.3917 28.0226 88.4973 27.8758C88.6107 27.7206 88.7618 27.5971 88.9361 27.5172C89.1287 27.4269 89.3391 27.3813 89.5517 27.3839C89.9173 27.3649 90.2776 27.4774 90.5682 27.7012C90.687 27.809 90.7802 27.9423 90.8409 28.0911C90.9015 28.24 90.9281 28.4007 90.9186 28.5613H90.5335C90.5307 28.4456 90.5037 28.3318 90.4542 28.2274C90.4047 28.1229 90.3338 28.0301 90.2462 27.9551C90.0426 27.8029 89.7923 27.7277 89.539 27.7425C89.3915 27.7399 89.2451 27.7691 89.1097 27.8282C88.9928 27.8773 88.8905 27.956 88.813 28.0567C88.7433 28.1477 88.7056 28.2593 88.7056 28.3741C88.7035 28.4629 88.7259 28.5507 88.7705 28.6275C88.8151 28.7043 88.8801 28.7671 88.9582 28.8088C89.1776 28.9295 89.4174 29.008 89.6653 29.0405C89.9385 29.0785 90.2058 29.1511 90.4609 29.2563C90.6287 29.325 90.7726 29.442 90.8744 29.5927C90.9623 29.7481 91.005 29.9251 90.9975 30.1037C90.9993 30.2997 90.9409 30.4914 90.8302 30.6527C90.7132 30.8171 90.5523 30.9447 90.3662 31.0209C90.1465 31.1136 89.9099 31.159 89.6716 31.1542C89.435 31.1509 89.2012 31.1013 88.9834 31.0082Z" fill="#3E3E3D"/>
  <g opacity="0.3">
    <path d="M106.122 -2.28292e-05L106.081 34.999L106.391 35L106.431 0.000964233L106.122 -2.28292e-05Z" fill="#3E3E3D"/>
  </g>
  <path d="M3.50415 6.64725H0V10.17H3.50415V6.64725Z" fill="url(#paint0_linear_2_2025)"/>
  <path d="M7.0083 10.17H3.50415V13.6928H7.0083V10.17Z" fill="url(#paint1_linear_2_2025)"/>
  <path d="M3.50415 13.6896H0V17.2123H3.50415V13.6896Z" fill="url(#paint2_linear_2_2025)"/>
  <defs>
    <linearGradient id="paint0_linear_2_2025" x1="0" y1="8.40863" x2="3.50415" y2="8.40863" gradientUnits="userSpaceOnUse">
      <stop stop-color="#53A490"/>
      <stop offset="0.38" stop-color="#5CB189"/>
      <stop offset="0.78" stop-color="#74D675"/>
      <stop offset="1" stop-color="#7EE46D"/>
    </linearGradient>
    <linearGradient id="paint1_linear_2_2025" x1="3.50415" y1="11.9282" x2="7.0083" y2="11.9282" gradientUnits="userSpaceOnUse">
      <stop stop-color="#53A490"/>
      <stop offset="0.38" stop-color="#5CB189"/>
      <stop offset="0.78" stop-color="#74D675"/>
      <stop offset="1" stop-color="#7EE46D"/>
    </linearGradient>
    <linearGradient id="paint2_linear_2_2025" x1="0" y1="15.4509" x2="3.50415" y2="15.4509" gradientUnits="userSpaceOnUse">
      <stop stop-color="#53A490"/>
      <stop offset="0.38" stop-color="#5CB189"/>
      <stop offset="0.78" stop-color="#74D675"/>
      <stop offset="1" stop-color="#7EE46D"/>
    </linearGradient>
  </defs>
</svg>