<svg width="440" height="100" viewBox="0 0 440 100" fill="none" xmlns="http://www.w3.org/2000/svg">
<g clip-path="url(#clip0_1_40)">
<path d="M351.011 70.5885L352.085 64.401C352.336 64.8905 352.728 65.2938 353.21 65.559C353.692 65.8241 354.243 65.9392 354.791 65.8892C355.747 65.9038 356.687 65.6406 357.497 65.1316C358.291 64.6222 358.931 63.9046 359.346 63.057C359.785 62.146 360.007 61.1458 359.995 60.1346C360.049 59.1206 359.728 58.1223 359.093 57.3295C358.772 56.9707 358.374 56.6887 357.929 56.5045C357.484 56.3202 357.003 56.2384 356.522 56.2652C355.883 56.2474 355.248 56.3735 354.664 56.6342C354.08 56.895 353.563 57.2836 353.149 57.7715L352.951 56.5267H351.147L348.675 70.5885H351.011ZM354.619 63.7425C354.352 63.7544 354.084 63.7091 353.835 63.6095C353.587 63.51 353.362 63.3585 353.176 63.1653C352.817 62.7274 352.637 62.1701 352.671 61.6049C352.671 61.4876 352.671 61.3162 352.671 61.0907L352.725 60.775C352.852 60.1105 353.202 59.5093 353.717 59.0703C354.218 58.6377 354.86 58.4034 355.521 58.4119C355.79 58.4005 356.058 58.447 356.307 58.5482C356.556 58.6493 356.78 58.8028 356.964 58.9982C357.34 59.4357 357.534 60.0006 357.506 60.5766C357.537 61.1482 357.426 61.7187 357.181 62.2362C356.938 62.7009 356.573 63.0907 356.126 63.3637C355.664 63.6335 355.135 63.765 354.601 63.7425H354.619ZM364.794 65.8892C365.441 65.9126 366.085 65.7826 366.673 65.5098C367.261 65.2371 367.776 64.8293 368.176 64.3198C368.19 64.5315 368.247 64.7381 368.343 64.9273C368.439 65.1164 368.572 65.2841 368.735 65.4202C369.094 65.6693 369.525 65.793 369.962 65.772C370.578 65.745 371.187 65.6233 371.766 65.4112V63.6072C371.477 63.6072 371.297 63.6794 371.225 63.6794C371.057 63.6942 370.89 63.646 370.756 63.5441C370.702 63.4861 370.662 63.4176 370.637 63.343C370.612 63.2684 370.604 63.1894 370.611 63.1111C370.6 62.9972 370.6 62.8823 370.611 62.7684L371.694 56.5448H369.321L369.078 57.9699C368.839 57.4188 368.432 56.9573 367.916 56.6512C367.399 56.345 366.799 56.2099 366.201 56.2652C365.311 56.2577 364.441 56.5186 363.702 57.0138C362.928 57.5334 362.305 58.2493 361.898 59.0883C361.449 60.0122 361.223 61.0287 361.24 62.0558C361.182 63.0649 361.504 64.059 362.142 64.8429C362.476 65.2019 362.885 65.4821 363.341 65.6631C363.796 65.844 364.286 65.9213 364.775 65.8892H364.794ZM365.696 63.7425C365.428 63.7562 365.16 63.7117 364.911 63.612C364.662 63.5124 364.437 63.36 364.252 63.1653C363.883 62.725 363.696 62.1604 363.729 61.5868C363.719 61.0276 363.843 60.474 364.09 59.9723C364.316 59.5029 364.669 59.1062 365.109 58.8268C365.557 58.5451 366.078 58.4008 366.607 58.4119C366.877 58.395 367.147 58.4371 367.4 58.5352C367.652 58.6333 367.88 58.7851 368.068 58.9801C368.43 59.4203 368.613 59.9804 368.582 60.5495C368.589 60.6366 368.589 60.7241 368.582 60.8111L368.447 61.659C368.275 62.2514 367.914 62.7711 367.418 63.1382C366.934 63.5312 366.328 63.7447 365.705 63.7425H365.696ZM375.798 65.6276L376.51 61.659V61.5868L376.609 61.0276C376.759 60.4321 377.03 59.8734 377.403 59.386C377.543 59.1743 377.731 58.9991 377.952 58.8751C378.174 58.7511 378.421 58.682 378.675 58.6734C379.048 58.6826 379.411 58.7984 379.721 59.0072L381.218 56.8244C380.963 56.6829 380.698 56.5593 380.425 56.4546C380.135 56.3507 379.83 56.2988 379.523 56.3013C379.019 56.3041 378.524 56.4367 378.087 56.6863C377.649 56.9359 377.283 57.2941 377.024 57.7264L376.808 56.4997H375.004L373.416 65.6276H375.798ZM385.313 65.8892C385.949 65.8764 386.578 65.7669 387.18 65.5645L387.568 63.6253C387.113 63.7765 386.64 63.8645 386.161 63.8868C385.34 63.8868 384.935 63.4539 384.935 62.579C384.934 62.346 384.955 62.1134 384.998 61.8845L385.593 58.466H387.776L388.308 56.5267H385.927L386.423 53.6765H384.042L383.546 56.5267H382.166L381.823 58.466H383.194L382.635 61.668C382.556 62.0782 382.517 62.495 382.517 62.9127C382.486 63.3188 382.536 63.7271 382.667 64.1131C382.797 64.499 383.004 64.8547 383.275 65.1586C383.551 65.4097 383.874 65.6035 384.226 65.7289C384.577 65.8543 384.95 65.9088 385.322 65.8892H385.313ZM391.339 65.6276L392.331 60.0354C392.72 59.6128 393.163 59.2429 393.648 58.935C393.998 58.6988 394.407 58.5646 394.829 58.5472C394.992 58.5276 395.157 58.544 395.313 58.5955C395.469 58.6469 395.612 58.732 395.731 58.8448C395.928 59.1023 396.021 59.424 395.993 59.7468C395.994 59.9858 395.973 60.2244 395.93 60.4593L395.028 65.6547H397.526L398.518 60.0625C398.579 59.7018 398.613 59.3369 398.617 58.9711C398.651 58.5971 398.601 58.2204 398.472 57.868C398.342 57.5155 398.136 57.1961 397.869 56.9326C397.297 56.4924 396.588 56.2688 395.866 56.3013C394.637 56.3604 393.48 56.9016 392.646 57.8075L392.358 56.5267H390.419L388.831 65.6276H391.339ZM404.183 65.8892C405.617 65.8993 407.023 65.4851 408.223 64.6986L407.43 63.0751C406.992 63.3534 406.526 63.5861 406.041 63.7696C405.545 63.9746 405.016 64.0877 404.48 64.1033C404.025 64.1677 403.563 64.0562 403.188 63.7913C402.812 63.5265 402.552 63.1284 402.46 62.6782C404.077 62.6537 405.674 62.3104 407.159 61.668C407.76 61.4279 408.272 61.0058 408.621 60.4607C408.97 59.9156 409.14 59.2749 409.107 58.6283C409.132 58.2745 409.061 57.9205 408.903 57.6032C408.744 57.286 408.503 57.017 408.205 56.8244C407.504 56.3948 406.691 56.1815 405.869 56.2111C404.842 56.201 403.831 56.4723 402.947 56.9958C402.068 57.5054 401.337 58.2361 400.827 59.1154C400.309 59.9819 400.037 60.9739 400.043 61.9837C400.013 62.5054 400.094 63.0276 400.28 63.5158C400.467 64.004 400.755 64.4471 401.125 64.8159C401.97 65.5574 403.069 65.9422 404.192 65.8892H404.183ZM402.478 60.9644C402.639 60.1527 403.064 59.417 403.687 58.8719C404.253 58.3454 404.997 58.0523 405.77 58.0511C406.09 58.0385 406.405 58.1269 406.672 58.3036C406.782 58.3842 406.871 58.4904 406.931 58.613C406.99 58.7356 407.019 58.8709 407.015 59.0072C407.015 59.6476 406.546 60.1166 405.626 60.4233C404.608 60.7408 403.552 60.9228 402.487 60.9644H402.478ZM412.309 65.6276L413.022 61.659V61.5868L413.121 61.0276C413.274 60.4332 413.544 59.8753 413.915 59.386C414.056 59.1758 414.245 59.0018 414.466 58.878C414.687 58.7542 414.934 58.6842 415.187 58.6734C415.56 58.6815 415.924 58.7974 416.233 59.0072L417.73 56.8244C417.475 56.6813 417.21 56.5577 416.937 56.4546C416.648 56.349 416.342 56.297 416.035 56.3013C415.538 56.31 415.052 56.4456 414.623 56.695C414.193 56.9444 413.835 57.2994 413.581 57.7264L413.365 56.4997H411.561L409.973 65.6006L412.309 65.6276Z" fill="#421B9B"/>
<path d="M350.371 36.2865V33.0665C350.371 32.5035 350.594 31.9634 350.991 31.5645C351.389 31.1655 351.928 30.9402 352.491 30.9378H355.702V35.2492H357.749V28.8633H352.491C351.943 28.8633 351.4 28.9714 350.894 29.1813C350.388 29.3913 349.928 29.6991 349.541 30.087C349.154 30.4749 348.847 30.9353 348.638 31.442C348.429 31.9486 348.322 32.4914 348.323 33.0394V38.334H363.089V41.554C363.084 42.1171 362.858 42.6558 362.46 43.054C362.062 43.4522 361.523 43.678 360.96 43.6827H357.749V39.3622H355.702V45.676H360.96C362.065 45.676 363.125 45.237 363.907 44.4555C364.688 43.674 365.127 42.6141 365.127 41.5089V36.2865H350.371Z" fill="#5955D9"/>
<path d="M371.721 30.2252C370.927 31.3562 370.545 32.7251 370.638 34.1036V35.0056H369.312V37.8829H370.638V45.685H373.949V37.8829H376.655V34.9966H373.949V33.815C373.949 32.3899 374.454 31.6593 375.473 31.6593C375.977 31.6931 376.474 31.8057 376.943 31.993V29.2871C376.207 29.0134 375.429 28.867 374.643 28.8542C374.083 28.8401 373.527 28.9566 373.02 29.1946C372.513 29.4326 372.068 29.7854 371.721 30.2252Z" fill="#421B9B"/>
<path d="M381.633 34.9966H378.269V45.7301H381.633V34.9966Z" fill="#421B9B"/>
<path d="M379.947 28.9263C379.711 28.9164 379.476 28.9562 379.257 29.0433C379.038 29.1303 378.839 29.2626 378.675 29.4314C378.367 29.8153 378.2 30.2925 378.2 30.7843C378.2 31.2762 378.367 31.7534 378.675 32.1373C378.836 32.314 379.033 32.4551 379.252 32.5516C379.471 32.6481 379.707 32.698 379.947 32.698C380.186 32.698 380.423 32.6481 380.642 32.5516C380.861 32.4551 381.057 32.314 381.218 32.1373C381.538 31.7628 381.711 31.2855 381.705 30.7934C381.723 30.2922 381.545 29.8037 381.209 29.4314C381.045 29.265 380.848 29.1344 380.631 29.0475C380.413 28.9606 380.18 28.9193 379.947 28.9263Z" fill="#421B9B"/>
<path d="M390.554 34.708C389.906 34.7211 389.268 34.8737 388.685 35.1554C388.101 35.4371 387.585 35.8414 387.171 36.3406L386.63 34.9966H383.924V45.7211H387.406V39.1096C387.769 38.7469 388.186 38.4426 388.642 38.2076C388.976 38.01 389.354 37.8984 389.742 37.8829C389.932 37.8608 390.125 37.8931 390.297 37.9762C390.47 38.0592 390.615 38.1895 390.716 38.352C390.926 38.7738 391.023 39.2433 390.996 39.7139L390.951 45.7391H394.477V39.0555C394.533 38.4563 394.466 37.852 394.28 37.2796C394.094 36.7073 393.793 36.1791 393.395 35.7272C393.013 35.3773 392.565 35.107 392.077 34.932C391.589 34.757 391.071 34.6809 390.554 34.708Z" fill="#421B9B"/>
<path d="M400.809 42.8978C400.68 42.9063 400.55 42.8884 400.427 42.8449C400.305 42.8015 400.192 42.7336 400.097 42.6452C399.915 42.405 399.829 42.1064 399.853 41.8064V29.3953H396.471V42.1942C396.378 43.2067 396.653 44.2188 397.247 45.0445C397.517 45.3476 397.851 45.586 398.226 45.7422C398.601 45.8983 399.006 45.9681 399.411 45.9464C400.225 45.9311 401.029 45.766 401.784 45.4594L401.287 42.8437C401.131 42.8824 400.971 42.9036 400.809 42.9068V42.8978Z" fill="#421B9B"/>
<path d="M411.299 35.3845C410.38 34.9095 409.358 34.6679 408.323 34.6809C407.283 34.6705 406.257 34.9086 405.328 35.3754C404.459 35.826 403.739 36.5182 403.254 37.3688C402.738 38.2875 402.479 39.3282 402.505 40.3814C402.476 41.4252 402.732 42.4573 403.245 43.3669C403.73 44.2124 404.451 44.8986 405.319 45.3422C406.248 45.8184 407.28 46.057 408.323 46.0367C409.464 46.0762 410.593 45.7917 411.579 45.2159C412.414 44.7128 413.087 43.9802 413.518 43.1053C413.924 42.2613 414.134 41.3362 414.131 40.3994C414.158 39.3506 413.896 38.3147 413.374 37.4049C412.884 36.5557 412.165 35.8617 411.299 35.4025V35.3845ZM410.073 42.2755C409.856 42.5304 409.586 42.7351 409.283 42.8754C408.979 43.0158 408.648 43.0885 408.314 43.0885C407.979 43.0885 407.649 43.0158 407.345 42.8754C407.041 42.7351 406.772 42.5304 406.555 42.2755C406.165 41.7185 405.963 41.0519 405.978 40.3724C405.962 39.6842 406.164 39.0086 406.555 38.4421C406.77 38.1845 407.039 37.9773 407.343 37.8351C407.647 37.6929 407.978 37.6192 408.314 37.6192C408.649 37.6192 408.981 37.6929 409.285 37.8351C409.589 37.9773 409.858 38.1845 410.073 38.4421C410.467 39.0073 410.673 39.6831 410.659 40.3724C410.67 41.0528 410.465 41.7193 410.073 42.2755Z" fill="#421B9B"/>
<path d="M423.927 35.3845C423.007 34.9095 421.985 34.6679 420.95 34.6809C419.908 34.6694 418.878 34.9075 417.947 35.3754C417.078 35.8236 416.36 36.5166 415.881 37.3688C415.367 38.2884 415.105 39.3279 415.124 40.3814C415.106 41.4263 415.367 42.457 415.881 43.3669C416.366 44.2101 417.083 44.8959 417.947 45.3422C418.877 45.8142 419.908 46.0525 420.95 46.0367C422.094 46.075 423.226 45.7906 424.215 45.2159C425.05 44.7147 425.721 43.9813 426.146 43.1053C426.555 42.2619 426.768 41.3368 426.768 40.3994C426.787 39.3504 426.522 38.3157 426.001 37.4049C425.514 36.549 424.795 35.8485 423.927 35.3845ZM422.7 42.2755C422.483 42.5304 422.214 42.7351 421.91 42.8754C421.606 43.0158 421.276 43.0885 420.941 43.0885C420.607 43.0885 420.276 43.0158 419.972 42.8754C419.669 42.7351 419.399 42.5304 419.182 42.2755C418.796 41.7177 418.596 41.051 418.614 40.3724C418.595 39.6851 418.794 39.0094 419.182 38.4421C419.397 38.1845 419.666 37.9773 419.97 37.8351C420.274 37.6929 420.606 37.6192 420.941 37.6192C421.277 37.6192 421.608 37.6929 421.912 37.8351C422.216 37.9773 422.485 38.1845 422.7 38.4421C423.099 39.0053 423.305 39.6825 423.286 40.3724C423.302 41.0535 423.096 41.7213 422.7 42.2755Z" fill="#421B9B"/>
<path d="M439.396 37.432C439.014 36.6128 438.415 35.914 437.664 35.4115C436.894 34.9217 435.997 34.6678 435.084 34.6809C434.372 34.6551 433.665 34.8143 433.033 35.1431C432.401 35.4719 431.864 35.9591 431.476 36.557L430.863 34.9966H428.437V51.5749H431.738V44.6297C432.136 45.0899 432.633 45.4527 433.193 45.6904C433.753 45.9281 434.36 46.0342 434.967 46.0007C435.889 46.0398 436.802 45.8033 437.589 45.3213C438.376 44.8394 439.002 44.1339 439.387 43.2948C439.809 42.3826 440.019 41.3864 440 40.3814C440.022 39.3654 439.816 38.3574 439.396 37.432ZM435.932 42.2936C435.702 42.5251 435.429 42.7089 435.128 42.8343C434.827 42.9597 434.504 43.0243 434.178 43.0243C433.852 43.0243 433.529 42.9597 433.228 42.8343C432.927 42.7089 432.653 42.5251 432.423 42.2936C431.945 41.764 431.696 41.067 431.729 40.3543C431.709 39.6534 431.954 38.9706 432.414 38.4422C432.634 38.1985 432.905 38.006 433.207 37.8782C433.51 37.7505 433.836 37.6905 434.164 37.7025C434.5 37.6892 434.835 37.7484 435.147 37.876C435.458 38.0036 435.738 38.1967 435.968 38.4422C436.411 38.9861 436.653 39.6663 436.653 40.3679C436.653 41.0695 436.411 41.7497 435.968 42.2936H435.932Z" fill="#421B9B"/>
<path d="M58.1591 8.35226C58.1521 8.84526 57.9532 9.31611 57.6045 9.66475C57.2559 10.0134 56.785 10.2123 56.292 10.2193C53.5861 10.2193 52.17 10.7425 51.4214 11.7166C50.5194 12.6907 49.852 14.5668 49.852 18.0845V22.2065H55.3179C55.8235 22.1969 56.3124 22.3879 56.6776 22.7378C57.0427 23.0877 57.2543 23.568 57.2662 24.0736C57.2686 24.3302 57.2198 24.5846 57.1228 24.822C57.0257 25.0595 56.8823 25.2752 56.7009 25.4566C56.5195 25.638 56.3038 25.7814 56.0663 25.8785C55.8289 25.9756 55.5744 26.0243 55.3179 26.0219H49.852V59.5301C49.852 60.0409 49.6491 60.5307 49.2879 60.8918C48.9268 61.253 48.437 61.4559 47.9262 61.4559C47.4155 61.4559 46.9257 61.253 46.5646 60.8918C46.2034 60.5307 46.0005 60.0409 46.0005 59.5301V26.094H40.9405C40.4572 26.0608 40.0045 25.8454 39.674 25.4913C39.3434 25.1372 39.1595 24.6708 39.1595 24.1864C39.1595 23.702 39.3434 23.2356 39.674 22.8815C40.0045 22.5274 40.4572 22.312 40.9405 22.2787H46.0005V18.1567C46.0727 14.188 46.668 11.3468 48.5441 9.13697C50.4112 7.11656 53.2614 6.36792 56.3281 6.36792C56.8305 6.39811 57.3018 6.62157 57.6431 6.99148C57.9844 7.36139 58.1694 7.84904 58.1591 8.35226Z" fill="#3C3C3B"/>
<path d="M63.7785 12.2398C63.7785 11.7327 63.9799 11.2463 64.3385 10.8877C64.6971 10.5291 65.1835 10.3276 65.6906 10.3276C66.1978 10.3276 66.6842 10.5291 67.0428 10.8877C67.4014 11.2463 67.6028 11.7327 67.6028 12.2398V14.0438C67.6028 14.5509 67.4014 15.0373 67.0428 15.3959C66.6842 15.7545 66.1978 15.9559 65.6906 15.9559C65.1835 15.9559 64.6971 15.7545 64.3385 15.3959C63.9799 15.0373 63.7785 14.5509 63.7785 14.0438V12.2398ZM63.7785 24.8674C63.7773 24.6211 63.825 24.3771 63.919 24.1494C64.013 23.9217 64.1513 23.715 64.3258 23.5413C64.5004 23.3676 64.7078 23.2303 64.9359 23.1374C65.164 23.0445 65.4083 22.9979 65.6546 23.0003C65.9061 22.9845 66.1583 23.0195 66.396 23.1033C66.6338 23.1871 66.8522 23.3179 67.0382 23.4879C67.2243 23.658 67.3742 23.8638 67.4789 24.0931C67.5837 24.3223 67.6412 24.5704 67.6479 24.8223V59.6475C67.6338 60.1523 67.4214 60.6312 67.0568 60.9806C66.6922 61.33 66.2046 61.5219 65.6997 61.5145C65.2051 61.5099 64.732 61.312 64.3814 60.9631C64.0308 60.6142 63.8306 60.142 63.8236 59.6475L63.7785 24.8674Z" fill="#3C3C3B"/>
<path d="M107.515 38.6767C107.516 37.1129 107.209 35.5641 106.611 34.1191C106.013 32.6741 105.136 31.3611 104.031 30.2553C102.925 29.1494 101.612 28.2725 100.167 27.6746C98.7216 27.0767 97.1729 26.7695 95.609 26.7707C92.4525 26.7986 89.4318 28.0594 87.1921 30.2839C84.9524 32.5084 83.6711 35.5204 83.6218 38.6767V59.9452C83.5669 60.2696 83.4406 60.5777 83.252 60.8472C83.084 61.0637 82.8676 61.2377 82.62 61.3552C82.3725 61.4727 82.1008 61.5304 81.8269 61.5237H81.3759C81.0966 61.4467 80.8378 61.3089 80.6179 61.1203C80.3981 60.9316 80.2226 60.6967 80.1041 60.4323C80.0763 60.4023 80.0555 60.3665 80.043 60.3276C80.0306 60.2886 80.0268 60.2474 80.032 60.2068C80.0219 60.1484 79.9934 60.0947 79.9508 60.0535V24.8766C79.9508 24.3898 80.1442 23.9229 80.4884 23.5787C80.8326 23.2344 81.2995 23.0411 81.7863 23.0411C82.2731 23.0411 82.74 23.2344 83.0842 23.5787C83.4284 23.9229 83.6218 24.3898 83.6218 24.8766V28.5476C85.6837 26.0828 88.4549 24.3129 91.5583 23.4787C94.6616 22.6446 97.9467 22.7866 100.966 23.8855C103.986 24.9845 106.594 26.9869 108.436 29.6205C110.277 32.2541 111.263 35.391 111.258 38.6046V59.5303C111.276 59.787 111.241 60.0447 111.155 60.2872C111.069 60.5297 110.934 60.752 110.758 60.9402C110.583 61.1283 110.371 61.2783 110.135 61.3809C109.899 61.4835 109.644 61.5364 109.387 61.5364C109.129 61.5364 108.875 61.4835 108.639 61.3809C108.403 61.2783 108.19 61.1283 108.015 60.9402C107.839 60.752 107.704 60.5297 107.618 60.2872C107.532 60.0447 107.497 59.787 107.515 59.5303V38.6767Z" fill="#3C3C3B"/>
<path d="M151.621 54.0282C149.91 56.3519 147.677 58.2404 145.101 59.5409C142.525 60.8414 139.679 61.5175 136.793 61.5146C126.384 61.5146 118.158 52.8286 118.158 42.2755C118.158 31.5601 126.393 22.8741 136.802 22.8741C139.693 22.8926 142.539 23.5865 145.113 24.9004C147.688 26.2143 149.92 28.1119 151.631 30.4416V8.27116C151.664 7.78788 151.879 7.33524 152.233 7.00466C152.587 6.67409 153.054 6.49023 153.538 6.49023C154.023 6.49023 154.489 6.67409 154.843 7.00466C155.197 7.33524 155.413 7.78788 155.446 8.27116V59.6836C155.413 60.1668 155.197 60.6195 154.843 60.9501C154.489 61.2806 154.023 61.4645 153.538 61.4645C153.054 61.4645 152.587 61.2806 152.233 60.9501C151.879 60.6195 151.664 60.1668 151.631 59.6836L151.621 54.0282ZM151.621 42.943V41.6712C151.315 33.4362 144.803 26.7706 136.793 26.7706C128.784 26.7706 121.965 33.7338 121.965 42.2755C121.931 44.256 122.288 46.2238 123.015 48.0663C123.743 49.9088 124.826 51.59 126.203 53.0139C127.58 54.4379 129.224 55.5765 131.041 56.365C132.858 57.1534 134.813 57.5761 136.793 57.609C144.73 57.7263 151.315 51.1058 151.621 42.943Z" fill="#3C3C3B"/>
<path d="M162.851 42.3929C162.851 31.6865 171.158 23.0005 181.567 23.0005C191.489 23.0005 199.39 30.8567 200.139 40.9678V41.2654C200.117 41.7408 199.909 42.1885 199.56 42.5112C199.21 42.8339 198.747 43.0053 198.272 42.9882H166.594C166.687 46.9166 168.299 50.6561 171.091 53.4212C173.883 56.1862 177.638 57.7617 181.567 57.8166C184.07 57.8113 186.529 57.1612 188.708 55.9289C190.887 54.6966 192.711 52.9237 194.005 50.7812C194.128 50.5699 194.293 50.3858 194.489 50.24C194.686 50.0943 194.909 49.99 195.147 49.9335C195.385 49.877 195.632 49.8694 195.873 49.9112C196.114 49.9531 196.344 50.0435 196.549 50.1769C196.768 50.3136 196.957 50.4927 197.106 50.7035C197.254 50.9144 197.36 51.1528 197.415 51.4048C197.47 51.6568 197.475 51.9173 197.429 52.1711C197.382 52.4249 197.285 52.6669 197.144 52.8828C195.502 55.5435 193.212 57.7437 190.487 59.2771C187.763 60.8105 184.693 61.627 181.567 61.65C171.239 61.5147 162.851 52.8287 162.851 42.3929ZM166.865 39.2721H196.071C195.514 35.8261 193.764 32.6855 191.126 30.4C188.487 28.1146 185.129 26.8299 181.639 26.7707C174.378 26.6986 168.317 31.939 166.865 39.2721Z" fill="#3C3C3B"/>
<path d="M235.189 38.6767C235.192 37.1125 234.885 35.5633 234.288 34.1177C233.69 32.6721 232.813 31.3587 231.707 30.2526C230.601 29.1466 229.288 28.2697 227.842 27.6722C226.397 27.0747 224.847 26.7683 223.283 26.7707C220.127 26.7986 217.106 28.0594 214.866 30.2839C212.627 32.5084 211.345 35.5204 211.296 38.6767V59.9452C211.241 60.2696 211.115 60.5777 210.926 60.8472C210.759 61.0642 210.542 61.2386 210.295 61.3561C210.047 61.4737 209.775 61.5311 209.501 61.5237H209.05C208.771 61.4467 208.512 61.3089 208.292 61.1203C208.072 60.9316 207.897 60.6967 207.778 60.4323C207.75 60.4023 207.73 60.3665 207.717 60.3276C207.705 60.2886 207.701 60.2474 207.706 60.2068C207.698 60.1496 207.673 60.0962 207.634 60.0535V24.8766C207.634 24.391 207.827 23.9252 208.17 23.5819C208.514 23.2385 208.979 23.0456 209.465 23.0456C209.951 23.0456 210.416 23.2385 210.76 23.5819C211.103 23.9252 211.296 24.391 211.296 24.8766V28.5476C213.358 26.0828 216.129 24.3129 219.232 23.4787C222.336 22.6446 225.621 22.7866 228.641 23.8855C231.66 24.9845 234.268 26.9869 236.11 29.6205C237.951 32.2541 238.937 35.391 238.932 38.6046V59.5303C238.95 59.787 238.915 60.0447 238.829 60.2872C238.743 60.5297 238.608 60.752 238.433 60.9402C238.257 61.1283 238.045 61.2783 237.809 61.3809C237.573 61.4835 237.318 61.5364 237.061 61.5364C236.803 61.5364 236.549 61.4835 236.313 61.3809C236.077 61.2783 235.864 61.1283 235.689 60.9402C235.513 60.752 235.378 60.5297 235.292 60.2872C235.206 60.0447 235.171 59.787 235.189 59.5303V38.6767Z" fill="#3C3C3B"/>
<path d="M248.565 50.3392L254.933 54.9122C254.995 54.9542 255.047 55.0089 255.086 55.0727C255.125 55.1365 255.15 55.2078 255.159 55.282V55.4353C255.144 55.6064 255.063 55.765 254.933 55.8773L248.565 60.4323H260.399C260.538 60.4323 260.671 60.4874 260.769 60.5855C260.867 60.6836 260.922 60.8167 260.922 60.9554C260.922 61.0942 260.867 61.2272 260.769 61.3253C260.671 61.4234 260.538 61.4786 260.399 61.4786H247.14C247.064 61.4797 246.988 61.4592 246.923 61.4193C246.857 61.3794 246.805 61.3217 246.771 61.2531L246.698 61.1809C246.663 61.1271 246.639 61.0668 246.627 61.0036C246.615 60.9404 246.616 60.8755 246.63 60.8126C246.643 60.7497 246.669 60.6901 246.705 60.6372C246.742 60.5843 246.789 60.5392 246.843 60.5044L253.887 55.4173L246.843 50.3212C246.789 50.2864 246.742 50.2413 246.705 50.1884C246.669 50.1355 246.643 50.0759 246.63 50.013C246.616 49.9501 246.615 49.8852 246.627 49.822C246.639 49.7587 246.663 49.6985 246.698 49.6447L246.843 49.5004C246.915 49.4192 246.996 49.4192 247.14 49.4192H260.399C260.527 49.436 260.645 49.4988 260.73 49.5958C260.815 49.6929 260.862 49.8177 260.862 49.9468C260.862 50.076 260.815 50.2008 260.73 50.2978C260.645 50.3949 260.527 50.4577 260.399 50.4745H248.565V50.3392Z" fill="#37A45F"/>
<path d="M246.996 45.1709C246.927 45.1722 246.858 45.1595 246.794 45.1336C246.73 45.1078 246.672 45.0693 246.623 45.0204C246.575 44.9716 246.536 44.9135 246.51 44.8494C246.484 44.7854 246.472 44.7168 246.473 44.6478V37.2336C246.473 37.0948 246.528 36.9618 246.626 36.8637C246.724 36.7656 246.857 36.7104 246.996 36.7104C247.135 36.7104 247.268 36.7656 247.366 36.8637C247.464 36.9618 247.519 37.0948 247.519 37.2336V44.1247H253.211V38.1356C253.211 37.9968 253.266 37.8638 253.364 37.7656C253.462 37.6675 253.595 37.6124 253.734 37.6124C253.872 37.6124 254.006 37.6675 254.104 37.7656C254.202 37.8638 254.257 37.9968 254.257 38.1356V44.1247H259.948V37.2336C259.948 37.0948 260.003 36.9618 260.102 36.8637C260.2 36.7656 260.333 36.7104 260.471 36.7104C260.61 36.7104 260.743 36.7656 260.841 36.8637C260.939 36.9618 260.995 37.0948 260.995 37.2336V44.72C260.981 44.8475 260.919 44.9651 260.822 45.0488C260.725 45.1326 260.6 45.1763 260.471 45.1709H246.996Z" fill="#37A45F"/>
<path d="M260.102 33.4181L253.734 28.7729L247.366 33.4181C247.267 33.4962 247.142 33.5324 247.017 33.5189C246.892 33.5054 246.778 33.4432 246.698 33.3459C246.657 33.2974 246.626 33.2411 246.607 33.1803C246.589 33.1195 246.582 33.0555 246.589 32.9922C246.596 32.9289 246.616 32.8676 246.647 32.8121C246.678 32.7567 246.72 32.7081 246.771 32.6694L252.913 28.2498L246.771 23.8301C246.671 23.7512 246.607 23.636 246.593 23.51C246.579 23.384 246.615 23.2574 246.694 23.1581C246.773 23.0589 246.888 22.995 247.014 22.9806C247.14 22.9662 247.267 23.0025 247.366 23.0815L253.734 27.7266L260.102 23.0815C260.2 23.0034 260.325 22.9672 260.45 22.9807C260.575 22.9942 260.69 23.0563 260.769 23.1536C260.85 23.2348 260.85 23.307 260.85 23.4603C260.85 23.5367 260.829 23.6117 260.79 23.677C260.75 23.7422 260.693 23.7952 260.625 23.8301L254.555 28.2498L260.625 32.6694C260.693 32.7043 260.75 32.7573 260.79 32.8226C260.829 32.8878 260.85 32.9628 260.85 33.0392C260.85 33.1204 260.769 33.2647 260.769 33.3459C260.737 33.4027 260.691 33.451 260.636 33.4868C260.581 33.5226 260.519 33.545 260.454 33.552C260.389 33.5591 260.323 33.5506 260.262 33.5273C260.2 33.504 260.146 33.4666 260.102 33.4181Z" fill="#37A45F"/>
<path d="M39.4432 77.8855H46.0006V78.8777H40.4985V82.6028H45.6488V83.5048H40.4985V88.3935H39.4432V77.8855Z" fill="#3E3E3D"/>
<path d="M49.1213 77.8855H50.1676V88.3935H49.1213V77.8855Z" fill="#3E3E3D"/>
<path d="M55.4713 79.4549V88.3935H54.452V77.8855H55.6967L61.4603 86.9052V77.8855H62.4886V88.3935H61.2078L55.4713 79.4549Z" fill="#3E3E3D"/>
<path d="M65.844 88.3935L69.8578 77.8855H71.0033L75.0441 88.3935H73.8715L72.7802 85.4801H68.117L67.0526 88.3935H65.844ZM72.4103 84.4699L70.426 79.0581L68.4597 84.4699H72.4103Z" fill="#3E3E3D"/>
<path d="M79.4457 79.4549V88.3935H78.4716V77.8855H79.7163L85.4889 86.9052V77.8855H86.5081V88.3935H85.1822L79.4457 79.4549Z" fill="#3E3E3D"/>
<path d="M92.4431 87.8161C91.7216 87.3548 91.1387 86.7064 90.7565 85.94C90.3424 85.0987 90.1323 84.1717 90.1431 83.2341C90.1244 82.261 90.3345 81.297 90.7565 80.42C91.1335 79.6253 91.7236 78.9509 92.4612 78.4717C93.2095 78.0125 94.0727 77.7748 94.9506 77.7862C95.6628 77.775 96.3676 77.9326 97.0071 78.2462C97.5995 78.5379 98.1153 78.9642 98.5134 79.4909C98.9074 80.0198 99.1589 80.6409 99.244 81.2949H98.1346C98.0357 80.8403 97.8284 80.4164 97.5303 80.0592C97.2362 79.6722 96.8523 79.3626 96.4118 79.1572C95.9564 78.9376 95.4562 78.8265 94.9506 78.8325C94.2771 78.8224 93.6165 79.0174 93.0565 79.3917C92.4933 79.7855 92.0475 80.3249 91.7667 80.9521C91.442 81.6683 91.2817 82.448 91.2976 83.2341C91.2819 83.9902 91.4393 84.7399 91.7577 85.4259C92.0377 86.0264 92.4777 86.5382 93.0294 86.9051C93.5823 87.2629 94.2291 87.4482 94.8875 87.4373C95.4086 87.4436 95.9241 87.3294 96.3938 87.1036C96.8384 86.8926 97.2299 86.5843 97.5393 86.2016C97.8392 85.8502 98.0441 85.4279 98.1346 84.9749H99.217C99.1182 85.6298 98.8578 86.2498 98.4593 86.7789C98.0597 87.3159 97.5369 87.7489 96.935 88.0416C96.2834 88.3472 95.5711 88.5013 94.8514 88.4926C94.0009 88.4987 93.1661 88.2642 92.4431 87.8161Z" fill="#3E3E3D"/>
<path d="M102.924 77.8855H103.979V88.3935H102.924V77.8855Z" fill="#3E3E3D"/>
<path d="M108.237 77.8855H114.803V78.8957H109.292V82.5938H114.55V83.5679H109.355V87.4013H114.866V88.3935H108.237V77.8855Z" fill="#3E3E3D"/>
<path d="M118.339 77.8854H122.488C123.059 77.87 123.626 77.9841 124.147 78.2191C124.59 78.429 124.958 78.7688 125.203 79.1933C125.455 79.6511 125.579 80.1682 125.564 80.6905C125.566 81.2262 125.403 81.7495 125.095 82.1878C124.806 82.6132 124.384 82.9305 123.895 83.0898C124.221 83.1714 124.516 83.347 124.743 83.5949C124.942 83.8274 125.078 84.1068 125.14 84.4067C125.225 84.8293 125.283 85.2572 125.311 85.6875C125.311 86.1745 125.374 86.5894 125.41 86.9592C125.429 87.2354 125.468 87.5098 125.527 87.78C125.58 87.9976 125.662 88.207 125.771 88.4024H124.598C124.531 88.2338 124.483 88.0584 124.454 87.8793C124.411 87.6347 124.384 87.3877 124.373 87.1396C124.373 86.8239 124.319 86.4632 124.292 86.0663C124.263 85.5823 124.206 85.1004 124.12 84.6231C124.05 84.3199 123.87 84.0532 123.615 83.8745C123.219 83.6279 122.755 83.5141 122.289 83.5498H119.376V88.3934H118.339V77.8854ZM122.38 82.6208C122.763 82.6268 123.143 82.5434 123.489 82.3772C123.81 82.2357 124.083 82.0038 124.274 81.7098C124.464 81.4179 124.562 81.0751 124.553 80.7266C124.569 80.4619 124.526 80.197 124.428 79.9506C124.33 79.7043 124.179 79.4827 123.985 79.3015C123.53 78.9435 122.958 78.7668 122.38 78.8054H119.394V82.6208H122.38Z" fill="#3E3E3D"/>
<path d="M128.405 88.3935L132.419 77.8855H133.555L137.587 88.3935H136.414L135.296 85.4891H130.642L129.586 88.3935H128.405ZM134.971 84.4699L132.987 79.0581L131.02 84.4699H134.971Z" fill="#3E3E3D"/>
<path d="M146.67 77.8853H150.503C151.39 77.8648 152.265 78.0929 153.029 78.5437C153.743 78.9738 154.319 79.5999 154.688 80.3477C155.093 81.1912 155.294 82.1181 155.274 83.0536C155.295 84.0133 155.1 84.9654 154.706 85.8407C154.36 86.6253 153.787 87.288 153.06 87.7431C152.333 88.1982 151.486 88.4247 150.629 88.3933H146.652L146.67 77.8853ZM150.422 87.3831C151.128 87.4001 151.825 87.2189 152.433 86.8599C153.015 86.5026 153.48 85.9819 153.768 85.3626C154.093 84.6657 154.253 83.9035 154.237 83.1348C154.255 82.364 154.097 81.5992 153.777 80.8979C153.491 80.2778 153.027 79.7566 152.444 79.4002C151.861 79.0438 151.186 78.8681 150.503 78.8955H147.707V87.3831H150.422Z" fill="#3E3E3D"/>
<path d="M158.955 77.8855H165.521V78.8957H160.01V82.5938H165.205V83.5679H160.01V87.4013H165.521V88.3935H158.955V77.8855Z" fill="#3E3E3D"/>
<path d="M175.47 79.4549V88.3935H174.45V77.8855H175.695L181.459 86.9052V77.8855H182.487V88.3935H181.206L175.47 79.4549Z" fill="#3E3E3D"/>
<path d="M186.708 77.8855H193.275V78.8957H187.755V82.5938H192.959V83.5679H187.755V87.4013H193.275V88.3935H186.708V77.8855Z" fill="#3E3E3D"/>
<path d="M198.154 87.816C197.417 87.3596 196.819 86.711 196.422 85.9399C195.994 85.1029 195.778 84.174 195.791 83.234C195.774 82.2609 195.994 81.2982 196.431 80.4289C196.824 79.6253 197.433 78.9474 198.19 78.4716C198.942 78.0117 199.808 77.774 200.689 77.7861C201.399 77.7811 202.102 77.9352 202.745 78.2371C203.359 78.5191 203.894 78.9463 204.306 79.4818C204.71 80.0077 204.971 80.6291 205.063 81.2857H203.954C203.869 80.8272 203.667 80.3985 203.368 80.041C203.046 79.6592 202.646 79.3515 202.195 79.139C201.652 78.8843 201.054 78.7722 200.455 78.8132C199.857 78.8543 199.279 79.0471 198.777 79.3736C198.182 79.7703 197.708 80.3225 197.406 80.97C197.062 81.6811 196.889 82.4624 196.9 83.252C196.889 84.0117 197.059 84.763 197.397 85.4438C197.705 86.0527 198.168 86.5692 198.741 86.9411C199.309 87.3022 199.97 87.4903 200.644 87.4823C201.162 87.4757 201.674 87.3557 202.141 87.1305C202.703 86.8666 203.183 86.454 203.528 85.9374C203.873 85.4207 204.07 84.8197 204.098 84.1991H200.887V83.1348H205.117V88.3933H204.143V86.5172C203.788 87.1441 203.258 87.6547 202.619 87.9874C202.002 88.3218 201.31 88.4955 200.608 88.4925C199.742 88.5072 198.89 88.2724 198.154 87.816Z" fill="#3E3E3D"/>
<path d="M211.107 87.8342C210.358 87.3504 209.754 86.6744 209.357 85.8769C208.944 85.0216 208.73 84.0844 208.73 83.1349C208.73 82.1854 208.944 81.2481 209.357 80.3929C209.734 79.6055 210.325 78.9399 211.061 78.4717C211.811 77.9986 212.683 77.7542 213.569 77.7681C214.461 77.7558 215.337 78 216.094 78.4717C216.836 78.9496 217.435 79.6198 217.826 80.4109C218.251 81.2715 218.464 82.2206 218.449 83.18C218.457 84.1205 218.237 85.0489 217.808 85.8859C217.407 86.6812 216.8 87.3541 216.049 87.8342C215.31 88.3082 214.447 88.5559 213.569 88.5467C212.696 88.5524 211.841 88.3049 211.107 87.8342ZM215.562 86.9322C216.148 86.5479 216.619 86.0117 216.924 85.3808C217.261 84.7061 217.431 83.9608 217.42 83.207C217.435 82.423 217.271 81.6458 216.942 80.9341C216.643 80.2939 216.168 79.7525 215.571 79.3737C214.982 78.9809 214.286 78.7765 213.578 78.7874C212.878 78.7791 212.193 78.9836 211.612 79.3737C211.023 79.7637 210.554 80.3103 210.259 80.9521C209.938 81.6599 209.777 82.43 209.79 83.207C209.78 83.9616 209.944 84.7082 210.268 85.3898C210.566 86.0223 211.03 86.5617 211.612 86.9502C212.189 87.332 212.868 87.5301 213.56 87.5185C214.271 87.5343 214.971 87.3398 215.571 86.9592L215.562 86.9322Z" fill="#3E3E3D"/>
<path d="M223.933 87.8161C223.211 87.3548 222.628 86.7064 222.246 85.94C221.828 85.1001 221.618 84.1722 221.633 83.2341C221.609 82.2606 221.82 81.2956 222.246 80.42C222.623 79.6254 223.213 78.9509 223.951 78.4717C224.698 78.0102 225.562 77.7724 226.44 77.7862C227.152 77.775 227.857 77.9326 228.497 78.2462C229.092 78.537 229.609 78.967 230.003 79.5C230.403 80.026 230.658 80.6481 230.743 81.3039H229.633C229.534 80.8493 229.327 80.4254 229.029 80.0682C228.733 79.6832 228.349 79.3741 227.91 79.1662C227.455 78.9466 226.955 78.8355 226.449 78.8415C225.791 78.8307 225.144 79.0159 224.591 79.3737C224.028 79.7675 223.582 80.3068 223.301 80.9341C222.977 81.6502 222.816 82.43 222.832 83.2161C222.816 83.9722 222.974 84.7219 223.292 85.4079C223.57 86.0073 224.007 86.5189 224.555 86.8871C225.111 87.2446 225.761 87.4298 226.422 87.4193C226.943 87.4246 227.458 87.3104 227.928 87.0856C228.373 86.8746 228.764 86.5663 229.074 86.1836C229.374 85.8322 229.579 85.4099 229.669 84.9569H230.779C230.68 85.6118 230.419 86.2318 230.021 86.7608C229.621 87.2978 229.099 87.7309 228.497 88.0236C227.842 88.3302 227.127 88.4844 226.404 88.4746C225.534 88.4982 224.676 88.2695 223.933 87.8161Z" fill="#3E3E3D"/>
<path d="M234.414 77.8855H235.469V88.3935H234.414V77.8855Z" fill="#3E3E3D"/>
<path d="M241.602 87.834C240.854 87.3503 240.25 86.6742 239.852 85.8768C239.44 85.0215 239.226 84.0842 239.226 83.1348C239.226 82.1853 239.44 81.248 239.852 80.3928C240.237 79.6044 240.833 78.939 241.575 78.4716C242.334 78.0114 243.204 77.7681 244.092 77.7681C244.979 77.7681 245.849 78.0114 246.608 78.4716C247.355 78.9465 247.957 79.6173 248.349 80.4108C248.773 81.2713 248.987 82.2205 248.971 83.1799C248.98 84.1203 248.76 85.0488 248.331 85.8858C247.93 86.6811 247.322 87.354 246.572 87.834C245.832 88.3081 244.97 88.5558 244.092 88.5466C243.21 88.5575 242.345 88.3098 241.602 87.834ZM246.058 86.9321C246.644 86.5478 247.115 86.0116 247.42 85.3807C247.756 84.706 247.926 83.9607 247.916 83.2069C247.926 82.4233 247.763 81.6471 247.438 80.934C247.145 80.2881 246.676 79.7379 246.085 79.3465C245.496 78.9585 244.806 78.7518 244.101 78.7518C243.395 78.7518 242.705 78.9585 242.116 79.3465C241.53 79.7371 241.065 80.2838 240.772 80.9249C240.451 81.6327 240.291 82.4028 240.303 83.1799C240.294 83.9344 240.458 84.6811 240.781 85.3626C241.079 85.9928 241.54 86.5316 242.116 86.9231C242.698 87.3035 243.379 87.5014 244.074 87.4913C244.773 87.51 245.462 87.3251 246.058 86.9591V86.9321Z" fill="#3E3E3D"/>
<path d="M254.239 88.1318C253.638 87.9014 253.111 87.5116 252.715 87.0044C252.323 86.4801 252.091 85.8535 252.047 85.2004H253.238C253.272 85.5395 253.376 85.868 253.542 86.1657C253.708 86.4635 253.933 86.7243 254.203 86.9322C254.833 87.3725 255.591 87.5914 256.359 87.5546C256.828 87.5684 257.296 87.4823 257.73 87.302C258.095 87.1606 258.409 86.9123 258.632 86.5895C258.827 86.2693 258.927 85.9001 258.92 85.5251C258.934 85.2861 258.889 85.0474 258.788 84.8303C258.687 84.6131 258.534 84.4242 258.343 84.2804C257.733 83.9119 257.049 83.681 256.341 83.6039C255.257 83.4899 254.214 83.1288 253.292 82.5486C253.002 82.3289 252.769 82.0433 252.612 81.7154C252.455 81.3875 252.379 81.0268 252.39 80.6635C252.387 80.1488 252.548 79.6465 252.85 79.2294C253.174 78.7883 253.606 78.4375 254.104 78.2101C254.654 77.9536 255.255 77.8241 255.862 77.8313C256.907 77.7773 257.937 78.0971 258.767 78.7333C259.106 79.0396 259.373 79.4183 259.546 79.8414C259.719 80.2645 259.795 80.7212 259.768 81.1776H258.668C258.66 80.8489 258.583 80.5255 258.441 80.2286C258.3 79.9317 258.097 79.6681 257.847 79.4549C257.265 79.0223 256.55 78.8084 255.826 78.8505C255.405 78.8431 254.986 78.9261 254.6 79.0941C254.266 79.2336 253.974 79.4573 253.752 79.7435C253.553 80.0021 253.445 80.3192 253.445 80.6455C253.439 80.8981 253.503 81.1475 253.631 81.3657C253.758 81.5839 253.944 81.7624 254.167 81.8812C254.794 82.224 255.479 82.4472 256.187 82.5396C256.968 82.6477 257.731 82.8538 258.46 83.1529C258.94 83.3481 259.351 83.6808 259.642 84.109C259.893 84.5505 260.015 85.0537 259.993 85.5612C259.999 86.1181 259.832 86.6631 259.515 87.1216C259.181 87.5886 258.721 87.9514 258.19 88.1679C257.562 88.4315 256.886 88.5605 256.205 88.5467C255.529 88.5375 254.861 88.3966 254.239 88.1318Z" fill="#3E3E3D"/>
<g opacity="0.3">
<path d="M303.206 0.00458182L303.091 99.4739L303.975 99.4767L304.091 0.00738711L303.206 0.00458182Z" fill="#3E3E3D"/>
</g>
<path d="M10.0119 18.8965H0V28.9084H10.0119V18.8965Z" fill="url(#paint0_linear_1_40)"/>
<path d="M20.0237 28.9082H10.0118V38.9201H20.0237V28.9082Z" fill="url(#paint1_linear_1_40)"/>
<path d="M10.0119 38.9111H0V48.923H10.0119V38.9111Z" fill="url(#paint2_linear_1_40)"/>
</g>
<defs>
<linearGradient id="paint0_linear_1_40" x1="0" y1="23.9024" x2="10.0119" y2="23.9024" gradientUnits="userSpaceOnUse">
<stop stop-color="#53A490"/>
<stop offset="0.38" stop-color="#5CB189"/>
<stop offset="0.78" stop-color="#74D675"/>
<stop offset="1" stop-color="#7EE46D"/>
</linearGradient>
<linearGradient id="paint1_linear_1_40" x1="10.0118" y1="33.9051" x2="20.0237" y2="33.9051" gradientUnits="userSpaceOnUse">
<stop stop-color="#53A490"/>
<stop offset="0.38" stop-color="#5CB189"/>
<stop offset="0.78" stop-color="#74D675"/>
<stop offset="1" stop-color="#7EE46D"/>
</linearGradient>
<linearGradient id="paint2_linear_1_40" x1="0" y1="43.9171" x2="10.0119" y2="43.9171" gradientUnits="userSpaceOnUse">
<stop stop-color="#53A490"/>
<stop offset="0.38" stop-color="#5CB189"/>
<stop offset="0.78" stop-color="#74D675"/>
<stop offset="1" stop-color="#7EE46D"/>
</linearGradient>
<clipPath id="clip0_1_40">
<rect width="440" height="99.4785" fill="white"/>
</clipPath>
</defs>
</svg>
