<svg xmlns="http://www.w3.org/2000/svg" width="195" height="44" viewBox="0 0 195 44" fill="none">
  <g clip-path="url(#clip0_2_2079)">
    <path d="M155.563 31.2235L156.039 28.4858C156.152 28.698 156.325 28.8724 156.536 28.9873C156.747 29.1023 156.988 29.1527 157.227 29.1323C157.652 29.1425 158.07 29.0303 158.432 28.8091C158.784 28.584 159.066 28.2663 159.248 27.8911C159.446 27.4889 159.545 27.046 159.54 26.5982C159.561 26.1485 159.416 25.7066 159.132 25.3571C158.989 25.1989 158.812 25.0747 158.615 24.9936C158.418 24.9125 158.205 24.8766 157.992 24.8884C157.708 24.881 157.427 24.937 157.168 25.0522C156.909 25.1674 156.679 25.3389 156.496 25.5542L156.405 25.0047H155.605L154.514 31.2235H155.563ZM157.153 28.1949C157.033 28.2016 156.912 28.1819 156.8 28.1373C156.689 28.0926 156.588 28.024 156.505 27.9364C156.343 27.7449 156.259 27.4986 156.272 27.2479C156.272 27.1962 156.272 27.1186 156.272 27.0216L156.295 26.8827C156.353 26.5887 156.508 26.3225 156.735 26.1263C156.959 25.9334 157.246 25.8298 157.542 25.8354C157.662 25.8289 157.783 25.849 157.895 25.8943C158.007 25.9395 158.107 26.0088 158.189 26.0972C158.358 26.2893 158.444 26.5402 158.429 26.7954C158.434 27.0459 158.376 27.2936 158.26 27.5162C158.154 27.7218 157.993 27.894 157.794 28.0139C157.601 28.1312 157.379 28.1938 157.153 28.1949ZM161.667 29.1452C161.954 29.1542 162.24 29.0953 162.5 28.9735C162.76 28.8516 162.987 28.6701 163.163 28.4438C163.169 28.5374 163.195 28.6287 163.237 28.7122C163.28 28.7956 163.34 28.8693 163.413 28.9286C163.57 29.0412 163.761 29.097 163.954 29.087C164.232 29.0754 164.508 29.0209 164.77 28.9254L164.753 28.1206C164.673 28.1349 164.592 28.1446 164.511 28.1497C164.438 28.1537 164.366 28.1332 164.307 28.0915C164.283 28.0663 164.264 28.0362 164.253 28.0033C164.242 27.9704 164.238 27.9354 164.242 27.9008C164.236 27.8503 164.236 27.7994 164.242 27.7489L164.718 24.9951H163.669L163.559 25.6415C163.454 25.4014 163.277 25.1998 163.053 25.0648C162.828 24.9298 162.567 24.8681 162.305 24.8884C161.912 24.8827 161.526 24.9953 161.198 25.2116C160.853 25.4397 160.576 25.757 160.398 26.1296C160.197 26.5375 160.096 26.9873 160.103 27.4418C160.082 27.8896 160.23 28.3291 160.518 28.6733C160.663 28.8317 160.841 28.9561 161.04 29.0377C161.238 29.1193 161.453 29.156 161.667 29.1452ZM162.075 28.1949C161.955 28.2018 161.835 28.1822 161.723 28.1376C161.611 28.0929 161.51 28.0242 161.428 27.9364C161.266 27.7418 161.184 27.4937 161.198 27.2414C161.194 26.9928 161.249 26.7468 161.36 26.5239C161.46 26.3173 161.616 26.1427 161.81 26.0197C162.009 25.8954 162.239 25.8314 162.474 25.8354C162.594 25.8274 162.714 25.8462 162.826 25.8904C162.938 25.9345 163.039 26.003 163.121 26.0908C163.283 26.2839 163.365 26.5311 163.351 26.7825C163.356 26.8211 163.356 26.8602 163.351 26.8988L163.293 27.2705C163.219 27.5381 163.062 27.7749 162.843 27.9461C162.622 28.113 162.352 28.2007 162.075 28.1949ZM166.551 29.0288L166.875 27.2705V27.2414L166.917 26.9926C166.986 26.7305 167.106 26.4845 167.27 26.2685C167.33 26.1732 167.413 26.0939 167.512 26.0376C167.61 25.9813 167.72 25.9497 167.833 25.9453C167.998 25.9477 168.159 25.9983 168.296 26.0908L168.944 25.1211C168.831 25.0564 168.713 25.0013 168.591 24.9563C168.457 24.9065 168.316 24.8824 168.173 24.8852C167.954 24.894 167.741 24.9583 167.553 25.0719C167.366 25.1855 167.21 25.3448 167.101 25.5348L167.007 24.9918H166.201L165.495 29.0191L166.551 29.0288ZM170.761 29.1452C171.043 29.1395 171.323 29.0905 171.59 28.9998L171.758 28.1432C171.556 28.2111 171.346 28.2503 171.133 28.2596C170.77 28.2596 170.592 28.0656 170.592 27.681C170.591 27.5726 170.601 27.4643 170.621 27.3578L170.884 25.8419H171.855L172.092 24.9854H171.033L171.253 23.728H170.197L169.977 24.9854H169.368L169.222 25.858H169.831L169.582 27.277C169.547 27.4581 169.53 27.6421 169.53 27.8265C169.514 28.0051 169.534 28.1852 169.59 28.3558C169.646 28.5263 169.735 28.6838 169.854 28.8188C169.977 28.9319 170.121 29.0191 170.279 29.0752C170.436 29.1313 170.604 29.1551 170.77 29.1452H170.761ZM173.429 29.0288L173.87 26.553C174.042 26.3665 174.238 26.2035 174.452 26.0681C174.608 25.9631 174.79 25.9037 174.977 25.8968C175.046 25.8902 175.116 25.8983 175.182 25.9206C175.248 25.9429 175.308 25.9789 175.359 26.0261C175.444 26.1368 175.486 26.2748 175.476 26.414C175.476 26.5224 175.467 26.6306 175.447 26.7372L175.035 29.0353H176.169L176.609 26.5594C176.637 26.4004 176.653 26.2393 176.655 26.0778C176.67 25.913 176.65 25.7467 176.594 25.5908C176.538 25.4349 176.448 25.2933 176.331 25.1761C176.078 24.9817 175.765 24.8832 175.447 24.8981C174.901 24.9242 174.387 25.1633 174.015 25.5639L173.902 25.0015H173.044L172.338 29.0288H173.429ZM179.122 29.1452C179.758 29.15 180.381 28.9667 180.913 28.6184L180.56 27.9008C180.367 28.0245 180.161 28.1264 179.945 28.2046C179.726 28.2958 179.492 28.3462 179.255 28.3533C178.747 28.3533 178.449 28.1432 178.358 27.7263C179.076 27.7141 179.785 27.5603 180.444 27.2738C180.707 27.1671 180.931 26.9815 181.085 26.7424C181.239 26.5033 181.314 26.2226 181.302 25.9389C181.307 25.7842 181.271 25.6309 181.199 25.4942C181.126 25.3575 181.018 25.2423 180.887 25.1599C180.576 24.9666 180.214 24.8709 179.848 24.8852C179.392 24.8815 178.944 25.0022 178.552 25.2342C178.164 25.4603 177.841 25.7819 177.613 26.1683C177.385 26.553 177.266 26.9918 177.267 27.4386C177.253 27.6701 177.289 27.9018 177.371 28.1185C177.454 28.3352 177.582 28.532 177.746 28.6959C178.132 29.0195 178.629 29.1806 179.132 29.1452H179.122ZM178.368 26.9635C178.439 26.6049 178.627 26.2798 178.902 26.0391C179.153 25.8068 179.483 25.6775 179.825 25.677C179.972 25.6666 180.118 25.7065 180.239 25.7902C180.29 25.8265 180.331 25.8754 180.358 25.9319C180.385 25.9885 180.396 26.051 180.392 26.1134C180.392 26.3946 180.188 26.6047 179.78 26.7404C179.324 26.8771 178.853 26.9521 178.377 26.9635H178.368ZM182.723 29.0288L183.047 27.2705V27.2414L183.089 26.9926C183.158 26.7305 183.278 26.4845 183.442 26.2685C183.503 26.1732 183.586 26.0939 183.684 26.0376C183.782 25.9813 183.893 25.9497 184.006 25.9453C184.171 25.9477 184.332 25.9983 184.469 26.0908L185.117 25.1211C185.004 25.0564 184.886 25.0013 184.764 24.9563C184.635 24.9096 184.499 24.8866 184.362 24.8884C184.144 24.8974 183.931 24.9615 183.744 25.0745C183.558 25.1875 183.402 25.3459 183.293 25.5348L183.199 24.9918H182.393L181.674 29.0288H182.723Z" fill="white"/>
    <path d="M155.281 16.0478V14.6257C155.281 14.5023 155.305 14.3801 155.352 14.266C155.399 14.1519 155.468 14.0482 155.555 13.9608C155.642 13.8734 155.746 13.8041 155.86 13.7568C155.974 13.7095 156.097 13.6851 156.22 13.6851H157.645V15.5921H158.552V12.7769H156.22C155.977 12.7773 155.737 12.8254 155.513 12.9186C155.289 13.0117 155.085 13.148 154.914 13.3197C154.742 13.4914 154.606 13.6951 154.514 13.9192C154.421 14.1432 154.374 14.3833 154.374 14.6257V16.9561H160.916V18.3783C160.915 18.6269 160.816 18.8652 160.64 19.0413C160.464 19.2174 160.226 19.3171 159.977 19.3188H158.552V17.4118H157.645V20.2239H159.977C160.467 20.223 160.936 20.0282 161.282 19.6822C161.628 19.3361 161.823 18.8672 161.823 18.3783V16.0478H155.281Z" fill="#5955D9"/>
    <path d="M164.74 13.3686C164.39 13.8686 164.221 14.4729 164.261 15.0817V15.4792H163.675V16.7721H164.261V20.2241H165.728V16.7754H166.91V15.4825H165.728V14.9589C165.728 14.3124 165.955 13.9892 166.402 13.9892C166.624 14.0028 166.843 14.0519 167.049 14.1346V12.9549C166.724 12.8325 166.38 12.7669 166.033 12.761C165.785 12.7569 165.54 12.8096 165.316 12.9149C165.092 13.0202 164.895 13.1755 164.74 13.3686Z" fill="white"/>
    <path d="M169.138 15.479H167.645V20.2271H169.138V15.479Z" fill="white"/>
    <path d="M168.396 12.7962C168.292 12.7913 168.188 12.8086 168.091 12.8471C167.993 12.8855 167.906 12.9442 167.833 13.0193C167.696 13.191 167.621 13.4041 167.621 13.6237C167.621 13.8433 167.696 14.0564 167.833 14.2281C167.904 14.306 167.991 14.3682 168.088 14.4108C168.184 14.4534 168.289 14.4754 168.395 14.4754C168.501 14.4754 168.605 14.4534 168.702 14.4108C168.799 14.3682 168.885 14.306 168.957 14.2281C169.099 14.0628 169.176 13.8514 169.174 13.6334C169.181 13.4121 169.102 13.1966 168.953 13.0322C168.882 12.956 168.796 12.8956 168.7 12.8549C168.604 12.8143 168.501 12.7943 168.396 12.7962Z" fill="white"/>
    <path d="M173.105 15.3501C172.818 15.3567 172.535 15.4247 172.277 15.5496C172.018 15.6745 171.789 15.8534 171.606 16.0741L171.363 15.4794H170.174V20.2243H171.719V17.3153C171.879 17.1527 172.062 17.0153 172.263 16.908C172.405 16.8261 172.565 16.7795 172.729 16.7723C172.813 16.7629 172.898 16.7774 172.975 16.814C173.051 16.8505 173.115 16.9078 173.16 16.9792C173.251 17.167 173.293 17.3752 173.28 17.5836L173.254 20.2307H174.815V17.2765C174.815 16.5978 174.656 16.1065 174.339 15.8026C174.002 15.4971 173.56 15.3347 173.105 15.3501Z" fill="white"/>
    <path d="M177.632 18.9734C177.573 18.9792 177.514 18.9723 177.458 18.9534C177.403 18.9344 177.351 18.9038 177.308 18.8635C177.227 18.7575 177.189 18.6247 177.201 18.4918V12.9971H175.702V18.6631C175.657 19.1084 175.771 19.5552 176.026 19.9237C176.148 20.0574 176.299 20.1623 176.467 20.2311C176.635 20.2998 176.816 20.3306 176.997 20.3212C177.358 20.3108 177.714 20.2375 178.05 20.1047L177.826 18.9476C177.758 18.9643 177.687 18.973 177.616 18.9734H177.632Z" fill="white"/>
    <path d="M182.263 15.6506C181.859 15.4359 181.407 15.3249 180.949 15.3274C180.487 15.3213 180.03 15.4266 179.618 15.6345C179.233 15.8323 178.915 16.1378 178.701 16.5136C178.475 16.9213 178.363 17.3825 178.377 17.8485C178.362 18.3104 178.474 18.7677 178.701 19.1705C178.917 19.5424 179.235 19.8451 179.618 20.0432C180.029 20.2592 180.487 20.3703 180.952 20.3664C181.457 20.3838 181.956 20.2583 182.393 20.0044C182.764 19.782 183.063 19.4562 183.251 19.0671C183.433 18.6924 183.526 18.281 183.523 17.8647C183.538 17.4017 183.426 16.9434 183.199 16.5395C182.983 16.1631 182.664 15.8559 182.28 15.6539L182.263 15.6506ZM181.719 18.6986C181.623 18.8111 181.504 18.9014 181.369 18.9634C181.235 19.0253 181.089 19.0574 180.941 19.0574C180.792 19.0574 180.646 19.0253 180.512 18.9634C180.377 18.9014 180.258 18.8111 180.162 18.6986C179.989 18.4514 179.9 18.1561 179.906 17.855C179.9 17.5504 179.99 17.2516 180.165 17.0017C180.26 16.8881 180.379 16.7968 180.513 16.7343C180.647 16.6717 180.794 16.6394 180.942 16.6397C181.091 16.6396 181.238 16.672 181.372 16.7345C181.507 16.797 181.627 16.8882 181.723 17.0017C181.889 17.2534 181.978 17.5484 181.978 17.8501C181.978 18.1518 181.889 18.4469 181.723 18.6986H181.719Z" fill="white"/>
    <path d="M187.885 15.6506C187.478 15.4359 187.024 15.3248 186.564 15.3274C186.103 15.3217 185.648 15.427 185.236 15.6344C184.852 15.8323 184.533 16.1378 184.32 16.5136C184.093 16.9213 183.981 17.3825 183.996 17.8485C183.983 18.3102 184.094 18.767 184.32 19.1705C184.535 19.543 184.853 19.846 185.236 20.0432C185.646 20.2577 186.102 20.3686 186.564 20.3664C187.071 20.3841 187.573 20.2587 188.012 20.0044C188.383 19.782 188.681 19.4562 188.87 19.067C189.052 18.6924 189.145 18.281 189.142 17.8647C189.155 17.4019 189.043 16.9443 188.818 16.5394C188.598 16.1608 188.274 15.8525 187.885 15.6506ZM187.341 18.6986C187.245 18.8111 187.126 18.9014 186.991 18.9634C186.857 19.0253 186.71 19.0574 186.562 19.0574C186.414 19.0574 186.268 19.0253 186.133 18.9634C185.999 18.9014 185.88 18.8111 185.783 18.6986C185.612 18.4511 185.524 18.1557 185.531 17.855C185.524 17.5512 185.612 17.253 185.783 17.0017C185.879 16.8882 185.999 16.797 186.134 16.7345C186.268 16.6719 186.415 16.6396 186.564 16.6396C186.712 16.6394 186.859 16.6717 186.993 16.7343C187.127 16.7968 187.246 16.8881 187.341 17.0017C187.517 17.251 187.608 17.5502 187.6 17.855C187.607 18.1567 187.516 18.4526 187.341 18.6986Z" fill="white"/>
    <path d="M194.731 16.5586C194.569 16.1959 194.309 15.8858 193.98 15.6633C193.639 15.4462 193.241 15.3338 192.837 15.3401C192.519 15.3246 192.204 15.3922 191.921 15.5362C191.638 15.6802 191.398 15.8957 191.224 16.161L190.952 15.4726H189.861V22.8129H191.328V19.7423C191.503 19.9501 191.725 20.1143 191.975 20.222C192.225 20.3297 192.497 20.3779 192.769 20.3629C193.176 20.3756 193.579 20.2672 193.925 20.0514C194.271 19.8357 194.545 19.5222 194.712 19.1508C194.89 18.743 194.982 18.3029 194.982 17.858C194.982 17.413 194.89 16.9729 194.712 16.5651L194.731 16.5586ZM193.196 18.7048C193.095 18.808 192.974 18.89 192.84 18.946C192.707 19.0019 192.564 19.0308 192.419 19.0308C192.274 19.0308 192.131 19.0019 191.997 18.946C191.864 18.89 191.743 18.808 191.642 18.7048C191.431 18.4707 191.321 18.1627 191.337 17.8483C191.325 17.5379 191.433 17.2348 191.638 17.0014C191.737 16.8948 191.857 16.8106 191.992 16.7549C192.126 16.6991 192.27 16.6729 192.416 16.6782C192.561 16.6733 192.706 16.6996 192.841 16.7554C192.976 16.8111 193.097 16.895 193.196 17.0014C193.393 17.2417 193.501 17.5426 193.501 17.8531C193.501 18.1636 193.393 18.4645 193.196 18.7048Z" fill="white"/>
    <path d="M25.7874 3.69454C25.7841 3.91381 25.6953 4.12316 25.5399 4.27823C25.3846 4.43329 25.1748 4.52188 24.9551 4.52522C23.7634 4.52522 23.1319 4.7547 22.7984 5.17166C22.4 5.60154 22.1021 6.42899 22.1021 7.98691V9.80664H24.5244C24.64 9.7995 24.7559 9.81606 24.8648 9.85531C24.9738 9.89456 25.0735 9.95566 25.1579 10.0348C25.2423 10.114 25.3096 10.2096 25.3556 10.3157C25.4016 10.4219 25.4253 10.5362 25.4253 10.6519C25.4253 10.7675 25.4016 10.8819 25.3556 10.988C25.3096 11.0941 25.2423 11.1897 25.1579 11.2689C25.0735 11.3481 24.9738 11.4092 24.8648 11.4484C24.7559 11.4877 24.64 11.5042 24.5244 11.4971H22.1021V26.3491C22.1021 26.5728 22.0131 26.7874 21.8545 26.9456C21.696 27.1038 21.481 27.1927 21.2569 27.1927C21.0327 27.1927 20.8177 27.1038 20.6592 26.9456C20.5007 26.7874 20.4117 26.5728 20.4117 26.3491V11.5423H18.1448C17.9206 11.5423 17.7056 11.4535 17.5471 11.2952C17.3886 11.137 17.2996 10.9225 17.2996 10.6987C17.2996 10.475 17.3886 10.2604 17.5471 10.1022C17.7056 9.944 17.9206 9.85512 18.1448 9.85512H20.4117V8.03216C20.444 6.27707 20.7096 5.01651 21.5386 4.05655C22.3676 3.16446 23.6403 2.83154 24.9907 2.83154C25.2075 2.85011 25.4095 2.94897 25.5569 3.10868C25.7044 3.26839 25.7866 3.47738 25.7874 3.69454Z" fill="white"/>
    <path d="M28.2743 5.41417C28.2877 5.19904 28.3827 4.99708 28.54 4.84945C28.6974 4.70182 28.9052 4.61963 29.1212 4.61963C29.3371 4.61963 29.5449 4.70182 29.7023 4.84945C29.8596 4.99708 29.9547 5.19904 29.968 5.41417V6.2093C29.9752 6.32469 29.9586 6.44032 29.9192 6.54907C29.8799 6.65781 29.8187 6.75737 29.7394 6.84161C29.66 6.92585 29.5642 6.99298 29.4579 7.03887C29.3516 7.08475 29.237 7.10843 29.1212 7.10843C29.0053 7.10843 28.8907 7.08475 28.7844 7.03887C28.6781 6.99298 28.5823 6.92585 28.503 6.84161C28.4236 6.75737 28.3624 6.65781 28.3231 6.54907C28.2838 6.44032 28.2672 6.32469 28.2743 6.2093V5.41417ZM28.2743 10.98C28.273 10.871 28.2936 10.7628 28.3348 10.6618C28.376 10.5609 28.437 10.4691 28.5142 10.392C28.5915 10.3149 28.6834 10.254 28.7846 10.2129C28.8857 10.1718 28.9941 10.1513 29.1034 10.1526C29.2159 10.1482 29.3281 10.1667 29.4333 10.2069C29.5385 10.247 29.6344 10.3081 29.7153 10.3864C29.7961 10.4647 29.8602 10.5585 29.9036 10.6622C29.9471 10.7659 29.969 10.8773 29.968 10.9897V26.3815C29.9547 26.5966 29.8596 26.7986 29.7023 26.9462C29.5449 27.0938 29.3371 27.176 29.1212 27.176C28.9052 27.176 28.6974 27.0938 28.54 26.9462C28.3827 26.7986 28.2877 26.5966 28.2743 26.3815V10.98Z" fill="white"/>
    <path d="M47.6561 17.108C47.657 16.4159 47.521 15.7304 47.2561 15.0908C46.9911 14.4512 46.6023 13.8701 46.112 13.3807C45.6217 12.8913 45.0394 12.5033 44.3986 12.2388C43.7578 11.9743 43.071 11.8386 42.3776 11.8395C40.9793 11.8536 39.6419 12.4124 38.6504 13.3965C37.6589 14.3807 37.0917 15.7125 37.0698 17.108V26.504C37.0418 26.6467 36.9845 26.7821 36.9014 26.9016C36.8277 26.9972 36.7324 27.074 36.6232 27.1257C36.5139 27.1774 36.394 27.2025 36.2732 27.1989H36.0724C35.9509 27.1663 35.8379 27.1082 35.7407 27.0285C35.6435 26.9488 35.5645 26.8493 35.5089 26.7367C35.4966 26.7233 35.4873 26.7075 35.4818 26.6902C35.4762 26.6729 35.4744 26.6546 35.4765 26.6365C35.4731 26.612 35.4617 26.5893 35.4442 26.5719V11.012C35.4341 10.8999 35.4475 10.7868 35.4837 10.6801C35.5198 10.5734 35.5778 10.4753 35.6539 10.3922C35.7301 10.3091 35.8227 10.2427 35.926 10.1973C36.0293 10.1519 36.1409 10.1284 36.2538 10.1284C36.3666 10.1284 36.4782 10.1519 36.5815 10.1973C36.6848 10.2427 36.7774 10.3091 36.8536 10.3922C36.9298 10.4753 36.9877 10.5734 37.0239 10.6801C37.06 10.7868 37.0734 10.8999 37.0634 11.012V12.6282C37.9759 11.5372 39.2031 10.7534 40.5779 10.3835C41.9527 10.0136 43.4084 10.0756 44.7467 10.561C46.0849 11.0464 47.2408 11.9316 48.057 13.0962C48.8731 14.2607 49.3098 15.648 49.3077 17.0692V26.3489C49.3077 26.5683 49.2204 26.7788 49.0649 26.934C48.9094 27.0891 48.6986 27.1763 48.4787 27.1763C48.2588 27.1763 48.048 27.0891 47.8925 26.934C47.737 26.7788 47.6497 26.5683 47.6497 26.3489V17.108H47.6561Z" fill="white"/>
    <path d="M67.2 23.8956C66.4431 24.9247 65.4535 25.7611 64.3118 26.3368C63.1701 26.9124 61.9084 27.2111 60.6293 27.2086C56.0178 27.2086 52.3682 23.3688 52.3682 18.6982C52.3682 13.9598 56.0178 10.12 60.6293 10.12C61.9101 10.1271 63.1715 10.4334 64.3125 11.0143C65.4535 11.5952 66.4424 12.4346 67.2 13.4653V3.6588C67.2134 3.44367 67.3084 3.24171 67.4657 3.09408C67.6231 2.94645 67.8309 2.86426 68.0469 2.86426C68.2628 2.86426 68.4707 2.94645 68.628 3.09408C68.7854 3.24171 68.8804 3.44367 68.8937 3.6588V26.3812C68.8804 26.5963 68.7854 26.7983 68.628 26.9459C68.4707 27.0936 68.2628 27.1757 68.0469 27.1757C67.8309 27.1757 67.6231 27.0936 67.4657 26.9459C67.3084 26.7983 67.2134 26.5963 67.2 26.3812V23.8956ZM67.2 18.9956V18.4235C67.0673 14.7776 64.1818 11.8298 60.6293 11.8298C57.0768 11.8298 54.0586 14.9101 54.0586 18.6886C54.0586 22.467 57.012 25.4762 60.6293 25.4762C64.1495 25.5344 67.0673 22.606 67.2 18.9956Z" fill="white"/>
    <path d="M72.1775 18.7467C72.1775 14.0115 75.8628 10.1685 80.4743 10.1685C84.8558 10.1685 88.3727 13.6463 88.7063 18.1165V18.249C88.7034 18.3541 88.6794 18.4576 88.6357 18.5533C88.592 18.6491 88.5295 18.735 88.4519 18.8062C88.3742 18.8773 88.2831 18.9322 88.1838 18.9675C88.0846 19.0028 87.9792 19.0179 87.874 19.0118H73.8355C74.0007 22.7547 76.9541 25.5699 80.471 25.5699C81.5794 25.5674 82.6683 25.2796 83.6327 24.7344C84.5971 24.1891 85.4043 23.4048 85.9763 22.4573C86.0296 22.3622 86.1022 22.2792 86.1895 22.2137C86.2767 22.1481 86.3766 22.1013 86.4829 22.0764C86.5892 22.0515 86.6996 22.0489 86.8069 22.0689C86.9143 22.0888 87.0163 22.1308 87.1065 22.1923C87.2031 22.2525 87.2868 22.3313 87.3526 22.4242C87.4184 22.517 87.4651 22.622 87.4898 22.733C87.5145 22.8441 87.5168 22.9589 87.4966 23.0708C87.4764 23.1827 87.434 23.2895 87.372 23.3849C86.6441 24.5618 85.6289 25.535 84.4213 26.2134C83.2138 26.8918 81.8534 27.2531 80.4678 27.2636C75.8952 27.2086 72.1775 23.3688 72.1775 18.7467ZM73.9716 17.3892H86.9251C86.6795 15.863 85.9032 14.4719 84.7325 13.4601C83.5617 12.4482 82.0713 11.8802 80.5228 11.8557C77.2909 11.8072 74.603 14.1247 73.9716 17.373V17.3892Z" fill="white"/>
    <path d="M104.234 17.1081C104.236 16.4161 104.1 15.7307 103.835 15.0912C103.571 14.4516 103.182 13.8704 102.692 13.381C102.202 12.8916 101.62 12.5035 100.98 12.239C100.339 11.9745 99.6523 11.8387 98.959 11.8396C97.5607 11.8537 96.2233 12.4125 95.2318 13.3966C94.2403 14.3808 93.6731 15.7126 93.6513 17.1081V26.5041C93.6232 26.6468 93.5659 26.7822 93.4829 26.9017C93.4086 26.9967 93.3132 27.0731 93.2041 27.1247C93.095 27.1763 92.9753 27.2018 92.8546 27.199H92.6538C92.5322 27.1668 92.4189 27.1089 92.3217 27.0291C92.2245 26.9494 92.1456 26.8497 92.0903 26.7368C92.078 26.7234 92.0688 26.7075 92.0632 26.6902C92.0576 26.673 92.0558 26.6547 92.058 26.6366C92.0539 26.6116 92.0413 26.5888 92.0223 26.572V11.0121C92.0078 10.8975 92.0178 10.781 92.0519 10.6705C92.0859 10.56 92.1431 10.4579 92.2197 10.3712C92.2963 10.2845 92.3905 10.215 92.496 10.1674C92.6016 10.1198 92.7161 10.0952 92.8319 10.0952C92.9478 10.0952 93.0623 10.1198 93.1679 10.1674C93.2734 10.215 93.3676 10.2845 93.4442 10.3712C93.5208 10.4579 93.578 10.56 93.612 10.6705C93.646 10.781 93.6561 10.8975 93.6415 11.0121V12.6282C94.5535 11.5331 95.782 10.7457 97.1592 10.3737C98.5364 10.0017 99.9951 10.0632 101.336 10.5499C102.677 11.0365 103.834 11.9246 104.651 13.0926C105.467 14.2607 105.902 15.6517 105.896 17.0758V26.3489C105.882 26.5599 105.789 26.7579 105.635 26.9026C105.481 27.0473 105.277 27.1278 105.065 27.1278C104.853 27.1278 104.649 27.0473 104.495 26.9026C104.341 26.7579 104.248 26.5599 104.234 26.3489V17.1081Z" fill="white"/>
    <path d="M110.164 22.267L112.984 24.2871C113.013 24.3051 113.036 24.3294 113.054 24.3579C113.071 24.3865 113.082 24.4186 113.085 24.4519V24.5198C113.083 24.5578 113.072 24.5949 113.055 24.6288C113.038 24.6627 113.014 24.6927 112.984 24.717L110.164 26.7371H115.407C115.469 26.7371 115.528 26.7616 115.572 26.8053C115.615 26.8489 115.64 26.9081 115.64 26.9698C115.64 27.0315 115.615 27.0907 115.572 27.1344C115.528 27.178 115.469 27.2025 115.407 27.2025H109.536C109.501 27.2026 109.467 27.1933 109.438 27.1756C109.408 27.158 109.384 27.1327 109.367 27.1023L109.335 27.07C109.304 27.021 109.294 26.9621 109.307 26.9058C109.32 26.8496 109.354 26.8006 109.403 26.7694L112.521 24.5069L109.403 22.2443C109.354 22.2137 109.32 22.1653 109.307 22.1096C109.295 22.0539 109.305 21.9955 109.335 21.947L109.403 21.8791C109.435 21.8468 109.468 21.8468 109.536 21.8468H115.407C115.438 21.8459 115.468 21.8513 115.497 21.8627C115.526 21.874 115.552 21.8912 115.574 21.9129C115.595 21.9347 115.613 21.9608 115.624 21.9894C115.635 22.018 115.641 22.0487 115.64 22.0795C115.64 22.11 115.635 22.1403 115.623 22.1686C115.611 22.1969 115.594 22.2225 115.572 22.2439C115.551 22.2654 115.525 22.2822 115.496 22.2934C115.468 22.3045 115.437 22.3099 115.407 22.309H110.164V22.267Z" fill="#37A45F"/>
    <path d="M109.458 19.9814C109.427 19.9823 109.396 19.9769 109.367 19.9655C109.339 19.9542 109.313 19.937 109.291 19.9153C109.269 19.8935 109.252 19.8675 109.24 19.8388C109.229 19.8102 109.224 19.7795 109.224 19.7487V16.4842C109.224 16.4225 109.249 16.3633 109.293 16.3196C109.336 16.276 109.396 16.2515 109.458 16.2515C109.519 16.2515 109.579 16.276 109.623 16.3196C109.666 16.3633 109.691 16.4225 109.691 16.4842V19.5322H112.214V16.8817C112.213 16.8514 112.218 16.8211 112.229 16.7929C112.24 16.7646 112.257 16.739 112.279 16.7175C112.3 16.696 112.326 16.6791 112.354 16.6679C112.383 16.6567 112.413 16.6514 112.443 16.6523C112.474 16.6514 112.504 16.6567 112.533 16.6679C112.561 16.6791 112.587 16.6959 112.609 16.7173C112.631 16.7388 112.648 16.7644 112.66 16.7926C112.671 16.8209 112.677 16.8512 112.677 16.8817V19.5322H115.199V16.4842C115.199 16.4536 115.205 16.4233 115.216 16.3951C115.228 16.3668 115.245 16.3412 115.267 16.3198C115.289 16.2983 115.314 16.2815 115.343 16.2703C115.371 16.2591 115.402 16.2538 115.432 16.2547C115.463 16.2538 115.493 16.2591 115.522 16.2703C115.55 16.2816 115.576 16.2984 115.597 16.3199C115.619 16.3414 115.635 16.3671 115.647 16.3953C115.658 16.4236 115.663 16.4538 115.662 16.4842V19.781C115.657 19.8376 115.631 19.8901 115.588 19.9274C115.545 19.9648 115.489 19.9841 115.432 19.9814H109.458Z" fill="#37A45F"/>
    <path d="M115.287 14.7808L112.466 12.7284L109.646 14.7808C109.602 14.8155 109.546 14.8315 109.49 14.8255C109.434 14.8195 109.383 14.7918 109.348 14.7485C109.313 14.7041 109.296 14.6478 109.303 14.5916C109.309 14.5355 109.336 14.4839 109.38 14.4479L112.103 12.5086L109.38 10.5693C109.343 10.5323 109.322 10.4832 109.319 10.4312C109.317 10.3793 109.334 10.3282 109.367 10.288C109.4 10.2478 109.446 10.2213 109.498 10.2135C109.549 10.2057 109.602 10.2173 109.646 10.246L112.466 12.2985L115.287 10.2105C115.308 10.1924 115.334 10.1789 115.361 10.1707C115.388 10.1625 115.416 10.1598 115.444 10.1628C115.472 10.1658 115.5 10.1745 115.524 10.1882C115.549 10.202 115.571 10.2205 115.588 10.2428C115.62 10.2751 115.62 10.3074 115.62 10.3753C115.621 10.4095 115.612 10.443 115.594 10.4722C115.576 10.5014 115.551 10.5249 115.52 10.5402L112.832 12.4795L115.52 14.4188C115.551 14.4346 115.577 14.4587 115.594 14.4884C115.612 14.5182 115.621 14.5523 115.62 14.5869C115.62 14.6192 115.588 14.6839 115.588 14.7194C115.575 14.7465 115.557 14.7702 115.533 14.7887C115.51 14.8072 115.482 14.82 115.453 14.826C115.424 14.8319 115.393 14.831 115.364 14.8231C115.336 14.8153 115.309 14.8008 115.287 14.7808Z" fill="#37A45F"/>
    <path d="M17.4873 34.4521H20.376V34.9079H17.9569V36.524H20.2238V36.9442H17.9569V39.1098H17.4873V34.4521Z" fill="white"/>
    <path d="M21.7783 34.4521H22.2414V39.1098H21.7783V34.4521Z" fill="white"/>
    <path d="M24.5923 35.1438V39.1098H24.1389V34.4521H24.6927L27.2478 38.4439V34.4586H27.7012V39.1098H27.1344L24.5923 35.1438Z" fill="white"/>
    <path d="M29.2007 39.11L30.9786 34.4653H31.4838L33.2681 39.11H32.7467L32.261 37.8171H30.1981L29.7253 39.11H29.2007ZM32.1152 37.3743L31.2376 34.9954L30.3633 37.3743H32.1152Z" fill="white"/>
    <path d="M35.2175 35.1438V39.1098H34.7642V34.4521H35.3179L37.8892 38.4439V34.4586H38.3426V39.1098H37.7597L35.2175 35.1438Z" fill="white"/>
    <path d="M40.9787 38.8446C40.6585 38.6406 40.3999 38.3534 40.2306 38.014C40.0448 37.6384 39.9515 37.2239 39.9586 36.8051C39.9498 36.3737 40.043 35.9463 40.2306 35.5575C40.3969 35.208 40.6608 34.9138 40.9905 34.7103C41.3203 34.5067 41.7018 34.4025 42.0894 34.4101C42.4046 34.4051 42.7165 34.4749 42.9994 34.6137C43.2615 34.7426 43.4899 34.9308 43.6665 35.1632C43.8389 35.3924 43.9504 35.6615 43.9904 35.9453H43.4981C43.4543 35.7448 43.3633 35.5576 43.2326 35.3991C43.1023 35.233 42.9363 35.0983 42.7468 35.0048C42.5444 34.9095 42.323 34.8609 42.0992 34.8626C41.8006 34.8576 41.5078 34.9445 41.2604 35.1114C41.0093 35.285 40.8109 35.5244 40.6872 35.8031C40.5438 36.1197 40.473 36.4642 40.48 36.8116C40.4734 37.1461 40.5431 37.4777 40.684 37.7812C40.8068 38.0445 41.0009 38.2684 41.2442 38.4277C41.4896 38.5872 41.7773 38.6694 42.07 38.6636C42.3005 38.6658 42.5285 38.616 42.7371 38.5182C42.9329 38.4261 43.1064 38.2926 43.2455 38.1271C43.378 37.9702 43.4683 37.7822 43.5079 37.5808H44.0001C43.9582 37.8691 43.8471 38.143 43.6762 38.3792C43.498 38.6146 43.2659 38.8041 42.9994 38.9319C42.7108 39.0708 42.3936 39.1405 42.0732 39.1355C41.6879 39.1462 41.3077 39.0451 40.9787 38.8446Z" fill="white"/>
    <path d="M45.6226 34.4521H46.0889V39.1098H45.6226V34.4521Z" fill="white"/>
    <path d="M47.9866 34.4521H50.9011V34.9079H48.4594V36.524H50.7619V36.9571H48.4594V38.6508H50.9011V39.1098H47.9866V34.4521Z" fill="white"/>
    <path d="M52.4619 34.4522H54.3013C54.5545 34.4457 54.8058 34.4965 55.0364 34.6009C55.2332 34.693 55.3971 34.843 55.506 35.0308C55.6145 35.2288 55.6692 35.4516 55.6647 35.6772C55.6613 35.909 55.588 36.1343 55.4542 36.3237C55.3308 36.5149 55.1439 36.6568 54.9263 36.7245C55.0714 36.7607 55.2022 36.8395 55.302 36.9507C55.3899 37.0535 55.4501 37.177 55.4769 37.3095C55.5163 37.4958 55.5412 37.6849 55.5513 37.8751C55.5513 38.0917 55.5805 38.2792 55.5934 38.4343C55.6046 38.557 55.6229 38.679 55.6485 38.7995C55.6712 38.8971 55.7083 38.9908 55.7586 39.0775H55.2405C55.2081 39.0031 55.1853 38.9249 55.1725 38.8448C55.1725 38.764 55.1465 38.6541 55.1368 38.5216C55.1271 38.3891 55.1109 38.2242 55.098 38.0464C55.0863 37.8298 55.0625 37.614 55.0267 37.4C54.9912 37.2692 54.911 37.1549 54.8 37.0768C54.6247 36.9685 54.4194 36.9187 54.2139 36.9346H52.9185V39.1098H52.4619V34.4522ZM54.2527 36.5435C54.4228 36.546 54.5913 36.5095 54.745 36.4368C54.8861 36.3735 55.0063 36.2715 55.0915 36.1427C55.1766 36.0132 55.2206 35.8611 55.2178 35.7063C55.2279 35.5865 55.2103 35.4659 55.1665 35.3539C55.1228 35.2418 55.0539 35.1413 54.9652 35.0599C54.7625 34.9023 54.5091 34.8241 54.2527 34.8401H52.9282V36.5273L54.2527 36.5435Z" fill="white"/>
    <path d="M56.9148 39.11L58.6894 34.4653H59.1979L60.9822 39.11H60.4608L59.9751 37.8171H57.9122L57.4394 39.11H56.9148ZM59.8294 37.3743L58.9388 34.9825L58.0644 37.3614L59.8294 37.3743Z" fill="white"/>
    <path d="M65.0076 34.4522H66.7045C67.0973 34.4437 67.4849 34.5433 67.825 34.7398C68.1453 34.9323 68.402 35.2144 68.5633 35.5511C68.7432 35.9271 68.832 36.3401 68.8224 36.7567C68.831 37.1809 68.7448 37.6016 68.5698 37.9882C68.4163 38.3331 68.1634 38.6245 67.8433 38.8254C67.5232 39.0263 67.1504 39.1276 66.7725 39.1162H65.0076V34.4522ZM66.6721 38.654C66.9849 38.6605 67.2932 38.5799 67.5627 38.4213C67.8174 38.266 68.0229 38.0419 68.1553 37.7749C68.2967 37.4714 68.3676 37.1399 68.3625 36.8052C68.3701 36.4644 68.3003 36.1263 68.1585 35.8161C68.0293 35.55 67.8272 35.3259 67.5756 35.1697C67.3181 35.0023 67.0182 34.9115 66.711 34.9079L65.4739 34.9241V38.6767L66.6721 38.654Z" fill="white"/>
    <path d="M70.4545 34.4521H73.369V34.9079H70.9208V36.524H73.2233V36.9571H70.9208V38.6508H73.3626V39.1098H70.448L70.4545 34.4521Z" fill="white"/>
    <path d="M77.77 35.1438V39.1098H77.3167V34.4521H77.8704L80.4255 38.4439V34.4586H80.8789V39.1098H80.3122L77.77 35.1438Z" fill="white"/>
    <path d="M82.7441 34.4521H85.6587V34.9079H83.2267V36.524H85.5292V36.9571H83.2267V38.6508H85.6684V39.1098H82.7539L82.7441 34.4521Z" fill="white"/>
    <path d="M87.822 38.8449C87.4963 38.6426 87.2321 38.3554 87.0578 38.0143C86.8668 37.6403 86.7712 37.2251 86.7793 36.8054C86.7712 36.374 86.8679 35.947 87.061 35.561C87.2368 35.2117 87.5057 34.9175 87.8382 34.7109C88.1407 34.5298 88.4831 34.4254 88.8353 34.4068C89.1876 34.3882 89.5391 34.456 89.859 34.6043C90.1305 34.7299 90.3672 34.9196 90.5488 35.157C90.7226 35.3879 90.8341 35.6594 90.8726 35.9456H90.3804C90.3421 35.7435 90.253 35.5544 90.1213 35.3962C89.9795 35.2247 89.8015 35.0868 89.5999 34.9921C89.3975 34.8961 89.1764 34.8453 88.9522 34.8435C88.6483 34.8395 88.3503 34.9273 88.0973 35.0956C87.8347 35.2707 87.6252 35.5144 87.4917 35.8002C87.3399 36.1156 87.2634 36.4619 87.2683 36.8119C87.2618 37.1478 87.3362 37.4803 87.4853 37.7815C87.6243 38.045 87.8297 38.2677 88.0811 38.428C88.3324 38.5879 88.6251 38.6711 88.9231 38.6672C89.1477 38.6625 89.3686 38.6095 89.5708 38.512C89.8188 38.3947 90.0304 38.2125 90.1832 37.9849C90.336 37.7573 90.4243 37.4927 90.4387 37.2191H89.0138V36.7602H90.8921V39.11H90.4581V38.2664C90.303 38.5428 90.0699 38.7676 89.7878 38.9128C89.5126 39.0591 89.2057 39.1356 88.894 39.1358C88.5166 39.1394 88.1457 39.0387 87.822 38.8449Z" fill="white"/>
    <path d="M93.5636 38.8512C93.2318 38.6362 92.9644 38.3358 92.7896 37.9817C92.5993 37.6086 92.5026 37.1948 92.5079 36.7761C92.5017 36.3535 92.5972 35.9357 92.7863 35.5576C92.9594 35.2095 93.2249 34.9154 93.5539 34.7075C93.8901 34.5034 94.276 34.3955 94.6695 34.3955C95.063 34.3955 95.4489 34.5034 95.7851 34.7075C96.1144 34.9178 96.3798 35.214 96.5526 35.564C96.741 35.9436 96.8364 36.3623 96.8311 36.7858C96.8349 37.2037 96.7371 37.6163 96.5461 37.9882C96.3699 38.3406 96.1013 38.6388 95.7689 38.8512C95.4401 39.0638 95.0564 39.1761 94.6646 39.1744C94.2737 39.1772 93.8907 39.0648 93.5636 38.8512ZM95.5325 38.4633C95.7928 38.2952 96.0022 38.0594 96.1381 37.7813C96.2876 37.4801 96.3631 37.1478 96.3583 36.8117C96.3634 36.4638 96.2903 36.1192 96.1446 35.8032C96.0128 35.5184 95.8056 35.2748 95.5455 35.0986C95.2814 34.9279 94.9727 34.8391 94.6581 34.8433C94.3488 34.8403 94.0456 34.9292 93.787 35.0986C93.5272 35.2728 93.3209 35.5156 93.1911 35.8C93.0479 36.1133 92.976 36.4544 92.9807 36.7987C92.9761 37.1341 93.0492 37.466 93.1944 37.7684C93.3272 38.0455 93.5318 38.282 93.787 38.4536C94.0422 38.6253 94.344 38.7144 94.6517 38.709C94.9631 38.7157 95.2697 38.6303 95.5325 38.4633Z" fill="white"/>
    <path d="M99.2505 38.845C98.9301 38.6401 98.6707 38.3532 98.4992 38.0143C98.3134 37.6387 98.2201 37.2243 98.2271 36.8054C98.2184 36.374 98.3116 35.9466 98.4992 35.5578C98.6679 35.2115 98.9304 34.9193 99.2569 34.7142C99.5874 34.5102 99.9694 34.4048 100.358 34.4104C100.674 34.4058 100.987 34.4755 101.271 34.614C101.526 34.7452 101.748 34.9332 101.919 35.1635C102.091 35.3928 102.203 35.6619 102.243 35.9457H101.751C101.705 35.7458 101.614 35.5589 101.485 35.3994C101.351 35.2329 101.182 35.0982 100.989 35.0051C100.787 34.9099 100.566 34.8613 100.342 34.8629C100.043 34.8583 99.7506 34.9452 99.5031 35.1118C99.2536 35.2871 99.0557 35.526 98.9299 35.8035C98.7891 36.1208 98.7194 36.4649 98.7258 36.8119C98.7182 37.1461 98.7869 37.4777 98.9266 37.7816C99.0517 38.0444 99.2466 38.268 99.4901 38.428C99.7354 38.5875 100.023 38.6697 100.316 38.664C100.539 38.6659 100.76 38.6188 100.963 38.5261C101.167 38.4334 101.347 38.2973 101.491 38.1274C101.623 37.9697 101.713 37.782 101.754 37.5812H102.246C102.204 37.8694 102.093 38.1432 101.922 38.3795C101.745 38.6148 101.514 38.8043 101.249 38.9322C100.96 39.0707 100.643 39.1405 100.322 39.1359C99.9447 39.1421 99.573 39.0413 99.2505 38.845Z" fill="white"/>
    <path d="M103.894 34.4521H104.357V39.1098H103.894V34.4521Z" fill="white"/>
    <path d="M107.078 38.8512C106.746 38.6362 106.478 38.3358 106.304 37.9817C106.114 37.6083 106.019 37.1946 106.025 36.7761C106.018 36.3538 106.112 35.9359 106.3 35.5576C106.473 35.2095 106.739 34.9154 107.068 34.7075C107.404 34.5034 107.79 34.3955 108.183 34.3955C108.577 34.3955 108.963 34.5034 109.299 34.7075C109.628 34.9178 109.894 35.214 110.067 35.564C110.255 35.9436 110.35 36.3623 110.345 36.7858C110.349 37.2037 110.251 37.6163 110.06 37.9882C109.884 38.3406 109.615 38.6388 109.283 38.8512C108.955 39.0634 108.572 39.1757 108.182 39.1744C107.79 39.1777 107.406 39.0652 107.078 38.8512ZM109.053 38.4601C109.313 38.292 109.523 38.0562 109.659 37.7781C109.808 37.4769 109.883 37.1445 109.879 36.8084C109.884 36.4606 109.811 36.116 109.665 35.8C109.533 35.5151 109.326 35.2715 109.066 35.0954C108.803 34.9251 108.495 34.8363 108.182 34.84C107.871 34.8371 107.567 34.9259 107.307 35.0954C107.048 35.2696 106.841 35.5124 106.712 35.7968C106.568 36.1101 106.496 36.4512 106.501 36.7955C106.496 37.1309 106.57 37.4627 106.715 37.7652C106.848 38.0422 107.052 38.2788 107.307 38.4504C107.563 38.6221 107.864 38.7112 108.172 38.7058C108.483 38.7135 108.79 38.6291 109.053 38.4633V38.4601Z" fill="white"/>
    <path d="M112.677 38.9838C112.412 38.8788 112.18 38.706 112.003 38.4828C111.825 38.2473 111.722 37.9633 111.708 37.6683H112.236C112.251 37.8185 112.296 37.964 112.37 38.0958C112.444 38.2277 112.544 38.3429 112.664 38.4343C112.947 38.6338 113.289 38.7317 113.635 38.7123C113.843 38.7172 114.049 38.6787 114.241 38.5992C114.393 38.5336 114.521 38.4239 114.61 38.2844C114.698 38.1448 114.742 37.982 114.736 37.817C114.743 37.711 114.722 37.6051 114.678 37.5087C114.633 37.4123 114.565 37.3283 114.481 37.2643C114.21 37.1016 113.907 37.0001 113.593 36.9669C113.113 36.9175 112.65 36.757 112.243 36.4982C112.112 36.4024 112.007 36.2765 111.936 36.1313C111.865 35.9861 111.83 35.8259 111.835 35.6643C111.83 35.4324 111.902 35.2054 112.039 35.0179C112.181 34.8216 112.372 34.6656 112.593 34.5654C112.837 34.4525 113.104 34.3951 113.373 34.3973C113.839 34.3704 114.298 34.5115 114.668 34.7949C114.826 34.9265 114.951 35.0921 115.034 35.2792C115.118 35.4662 115.158 35.6697 115.151 35.8744H114.665C114.661 35.7283 114.626 35.5847 114.563 35.4527C114.5 35.3208 114.41 35.2035 114.299 35.1084C114.041 34.9201 113.725 34.8265 113.405 34.8433C113.219 34.8399 113.033 34.8763 112.861 34.95C112.713 35.0109 112.583 35.1102 112.486 35.2377C112.395 35.3527 112.346 35.4952 112.346 35.6417C112.345 35.7537 112.374 35.864 112.431 35.9604C112.488 36.0568 112.571 36.1355 112.67 36.1879C112.947 36.3406 113.25 36.4393 113.564 36.4788C113.91 36.5275 114.248 36.6187 114.571 36.7503C114.784 36.8354 114.966 36.9831 115.093 37.1738C115.205 37.3702 115.26 37.5942 115.251 37.8202C115.255 38.067 115.182 38.3089 115.041 38.5119C114.892 38.7193 114.688 38.8807 114.451 38.9773C114.173 39.092 113.875 39.1481 113.574 39.1422C113.267 39.1482 112.963 39.0944 112.677 38.9838Z" fill="white"/>
    <path fill-rule="evenodd" clip-rule="evenodd" d="M135.068 0.000764705L134.982 44.0008L134.334 43.9995L134.42 -0.000488281L135.068 0.000764705Z" fill="white" fill-opacity="0.3"/>
    <path d="M8.93476 12.7964H4.45605V17.2795H8.93476V12.7964Z" fill="url(#paint0_linear_2_2079)"/>
    <path d="M4.45603 17.2793H0V21.7268H4.45603V17.2793Z" fill="url(#paint1_linear_2_2079)"/>
    <path d="M4.47556 8.34912H0.0195312V12.7966H4.47556V8.34912Z" fill="url(#paint2_linear_2_2079)"/>
  </g>
  <defs>
    <linearGradient id="paint0_linear_2_2079" x1="4.45605" y1="15.0395" x2="8.93476" y2="15.0395" gradientUnits="userSpaceOnUse">
      <stop stop-color="#53A490"/>
      <stop offset="0.38" stop-color="#5CB189"/>
      <stop offset="0.78" stop-color="#74D675"/>
      <stop offset="1" stop-color="#7EE46D"/>
    </linearGradient>
    <linearGradient id="paint1_linear_2_2079" x1="0" y1="19.5031" x2="4.45603" y2="19.5031" gradientUnits="userSpaceOnUse">
      <stop stop-color="#53A490"/>
      <stop offset="0.38" stop-color="#5CB189"/>
      <stop offset="0.78" stop-color="#74D675"/>
      <stop offset="1" stop-color="#7EE46D"/>
    </linearGradient>
    <linearGradient id="paint2_linear_2_2079" x1="0.0195312" y1="10.5696" x2="4.47556" y2="10.5696" gradientUnits="userSpaceOnUse">
      <stop stop-color="#53A490"/>
      <stop offset="0.38" stop-color="#5CB189"/>
      <stop offset="0.78" stop-color="#74D675"/>
      <stop offset="1" stop-color="#7EE46D"/>
    </linearGradient>
    <clipPath id="clip0_2_2079">
      <rect width="195" height="44" fill="white"/>
    </clipPath>
  </defs>
</svg>