<svg width="250" height="56" viewBox="0 0 250 56" fill="none" xmlns="http://www.w3.org/2000/svg">
<g clip-path="url(#clip0_1_590)">
<path d="M199.439 39.7384L200.05 36.2541C200.194 36.5242 200.416 36.7461 200.687 36.8924C200.958 37.0387 201.266 37.1028 201.573 37.0769C202.117 37.0899 202.654 36.947 203.118 36.6655C203.569 36.379 203.931 35.9747 204.164 35.4972C204.417 34.9853 204.545 34.4216 204.538 33.8517C204.566 33.2793 204.379 32.7169 204.015 32.272C203.832 32.0708 203.605 31.9127 203.352 31.8095C203.099 31.7063 202.826 31.6605 202.553 31.6756C202.19 31.6662 201.829 31.7374 201.497 31.884C201.165 32.0307 200.871 32.249 200.635 32.523L200.519 31.8236H199.493L198.094 39.7384H199.439ZM201.478 35.8839C201.324 35.8924 201.169 35.8673 201.026 35.8105C200.883 35.7536 200.753 35.6664 200.648 35.5548C200.439 35.3111 200.332 34.9977 200.349 34.6786C200.349 34.6127 200.349 34.514 200.349 34.3906L200.378 34.2137C200.453 33.8396 200.651 33.5008 200.942 33.2511C201.229 33.0056 201.597 32.8737 201.976 32.8809C202.131 32.8726 202.285 32.8982 202.429 32.9558C202.572 33.0134 202.701 33.1015 202.807 33.2141C203.023 33.4586 203.134 33.7779 203.114 34.1026C203.12 34.4214 203.046 34.7367 202.898 35.02C202.761 35.2817 202.554 35.5009 202.3 35.6535C202.052 35.8028 201.768 35.8824 201.478 35.8839ZM207.266 37.0933C207.634 37.1048 207.999 37.0299 208.333 36.8747C208.666 36.7196 208.958 36.4886 209.184 36.2006C209.191 36.3197 209.224 36.436 209.279 36.5422C209.334 36.6484 209.41 36.7421 209.503 36.8177C209.705 36.9609 209.949 37.032 210.197 37.0193C210.554 37.0045 210.907 36.9351 211.243 36.8136L211.222 35.7893C211.119 35.8074 211.015 35.8198 210.911 35.8263C210.818 35.8314 210.726 35.8053 210.649 35.7522C210.618 35.7202 210.595 35.6819 210.581 35.64C210.566 35.5981 210.561 35.5535 210.566 35.5095C210.559 35.4453 210.559 35.3804 210.566 35.3162L211.177 31.8113H209.831L209.69 32.634C209.556 32.3285 209.33 32.0719 209.042 31.9C208.754 31.7282 208.419 31.6497 208.083 31.6756C207.579 31.6683 207.084 31.8117 206.664 32.0869C206.221 32.3772 205.867 32.781 205.638 33.2552C205.38 33.7744 205.251 34.3469 205.26 34.9254C205.233 35.4953 205.423 36.0546 205.792 36.4927C205.977 36.6943 206.206 36.8527 206.461 36.9565C206.716 37.0604 206.99 37.1071 207.266 37.0933ZM207.789 35.8839C207.634 35.8927 207.48 35.8677 207.337 35.8109C207.193 35.754 207.064 35.6666 206.958 35.5548C206.751 35.3071 206.646 34.9914 206.664 34.6703C206.658 34.3539 206.729 34.0408 206.871 33.7571C207 33.4942 207.199 33.272 207.448 33.1154C207.703 32.9572 207.999 32.8757 208.299 32.8809C208.453 32.8707 208.608 32.8946 208.751 32.9508C208.895 33.007 209.024 33.0941 209.13 33.2059C209.337 33.4516 209.442 33.7663 209.424 34.0862C209.43 34.1354 209.43 34.1851 209.424 34.2343L209.35 34.7074C209.255 35.0479 209.053 35.3493 208.773 35.5671C208.49 35.7796 208.143 35.8912 207.789 35.8839ZM213.526 36.9452L213.942 34.7074V34.6703L213.996 34.3536C214.084 34.0201 214.238 33.707 214.448 33.4321C214.526 33.3107 214.632 33.2099 214.758 33.1382C214.884 33.0666 215.026 33.0263 215.171 33.0207C215.382 33.0238 215.589 33.0882 215.764 33.2059L216.595 31.9717C216.45 31.8894 216.299 31.8193 216.142 31.7619C215.971 31.6986 215.789 31.6679 215.606 31.6714C215.326 31.6827 215.052 31.7645 214.812 31.9091C214.571 32.0537 214.372 32.2565 214.232 32.4983L214.112 31.8072H213.078L212.173 36.9329L213.526 36.9452ZM218.924 37.0933C219.286 37.0861 219.644 37.0237 219.987 36.9082L220.203 35.8181C219.944 35.9045 219.674 35.9543 219.401 35.9662C218.936 35.9662 218.708 35.7193 218.708 35.2298C218.707 35.0918 218.719 34.954 218.745 34.8184L219.082 32.8891H220.327L220.63 31.799H219.273L219.555 30.1987H218.201L217.919 31.799H217.138L216.952 32.9097H217.732L217.413 34.7156C217.368 34.9461 217.346 35.1802 217.346 35.4149C217.325 35.6423 217.352 35.8715 217.423 36.0886C217.494 36.3057 217.609 36.5061 217.761 36.6778C217.919 36.8218 218.104 36.9328 218.306 37.0042C218.508 37.0756 218.722 37.1059 218.936 37.0933H218.924ZM222.345 36.9452L222.909 33.7941C223.13 33.5568 223.381 33.3493 223.657 33.1771C223.856 33.0433 224.089 32.9678 224.329 32.959C224.418 32.9506 224.508 32.9609 224.592 32.9893C224.677 33.0176 224.754 33.0634 224.819 33.1236C224.929 33.2644 224.982 33.4401 224.969 33.6172C224.97 33.7552 224.957 33.893 224.931 34.0286L224.404 36.9535H225.857L226.422 33.8023C226.458 33.5999 226.478 33.3949 226.48 33.1894C226.5 32.9796 226.474 32.768 226.402 32.5696C226.33 32.3712 226.215 32.1909 226.065 32.0417C225.741 31.7943 225.34 31.6689 224.931 31.6879C224.231 31.7211 223.572 32.0254 223.096 32.5353L222.951 31.8195H221.851L220.946 36.9452H222.345ZM229.644 37.0933C230.459 37.0994 231.258 36.8661 231.94 36.4228L231.487 35.5095C231.239 35.667 230.975 35.7967 230.698 35.8962C230.418 36.0123 230.118 36.0764 229.814 36.0855C229.162 36.0855 228.78 35.8181 228.664 35.2874C229.585 35.2719 230.493 35.0762 231.338 34.7115C231.676 34.5757 231.963 34.3395 232.16 34.0352C232.357 33.731 232.454 33.3737 232.438 33.0125C232.444 32.8157 232.399 32.6205 232.306 32.4466C232.212 32.2726 232.075 32.1259 231.906 32.0211C231.507 31.7751 231.043 31.6533 230.574 31.6714C229.99 31.6668 229.415 31.8205 228.913 32.1157C228.416 32.4035 228.001 32.8128 227.709 33.3046C227.417 33.7941 227.263 34.3526 227.265 34.9213C227.247 35.2159 227.293 35.5108 227.399 35.7866C227.505 36.0624 227.669 36.3129 227.879 36.5215C228.374 36.9333 229.011 37.1384 229.656 37.0933H229.644ZM228.676 34.3166C228.767 33.8602 229.008 33.4465 229.361 33.14C229.683 32.8444 230.106 32.6799 230.545 32.6793C230.733 32.666 230.921 32.7168 231.076 32.8233C231.141 32.8696 231.194 32.9317 231.228 33.0037C231.262 33.0758 231.277 33.1553 231.271 33.2347C231.271 33.5925 231.01 33.8599 230.487 34.0327C229.903 34.2067 229.298 34.3021 228.689 34.3166H228.676ZM234.26 36.9452L234.676 34.7074V34.6703L234.73 34.3536C234.818 34.0201 234.972 33.707 235.182 33.4321C235.26 33.3107 235.366 33.2099 235.492 33.1382C235.618 33.0666 235.76 33.0263 235.905 33.0207C236.116 33.0238 236.323 33.0882 236.498 33.2059L237.329 31.9717C237.184 31.8894 237.033 31.8193 236.876 31.7619C236.711 31.7025 236.537 31.6732 236.361 31.6756C236.081 31.6871 235.809 31.7686 235.569 31.9124C235.33 32.0563 235.131 32.2578 234.991 32.4983L234.871 31.8072H233.837L232.915 36.9452H234.26Z" fill="white"/>
<path d="M199.078 20.4246V18.6145C199.078 18.4575 199.108 18.3019 199.169 18.1567C199.229 18.0115 199.318 17.8795 199.429 17.7683C199.541 17.6571 199.674 17.5688 199.821 17.5086C199.967 17.4484 200.124 17.4174 200.282 17.4174H202.109V19.8445H203.272V16.2615H200.282C199.971 16.262 199.663 16.3233 199.375 16.4418C199.088 16.5604 198.827 16.7339 198.607 16.9524C198.387 17.1709 198.213 17.4301 198.095 17.7153C197.976 18.0005 197.915 18.3061 197.916 18.6145V21.5805H206.302V23.3905C206.301 23.707 206.174 24.0102 205.949 24.2344C205.723 24.4585 205.418 24.5855 205.098 24.5876H203.272V22.1605H202.109V25.7395H205.098C205.726 25.7384 206.328 25.4904 206.772 25.05C207.216 24.6096 207.465 24.0128 207.465 23.3905V20.4246H199.078Z" fill="#5955D9"/>
<path d="M211.206 17.0141C210.757 17.6505 210.54 18.4196 210.591 19.1944V19.7004H209.84V21.3459H210.591V25.7393H212.472V21.35H213.987V19.7045H212.472V19.0381C212.472 18.2153 212.763 17.804 213.336 17.804C213.621 17.8213 213.901 17.8838 214.166 17.9891V16.4876C213.749 16.3318 213.308 16.2484 212.862 16.2408C212.545 16.2356 212.231 16.3026 211.943 16.4367C211.656 16.5708 211.404 16.7683 211.206 17.0141Z" fill="white"/>
<path d="M216.844 19.7004H214.93V25.7435H216.844V19.7004Z" fill="white"/>
<path d="M215.893 16.2862C215.759 16.2799 215.625 16.302 215.501 16.3509C215.376 16.3999 215.264 16.4746 215.171 16.5701C214.995 16.7886 214.899 17.0598 214.899 17.3393C214.899 17.6188 214.995 17.89 215.171 18.1086C215.262 18.2077 215.373 18.2869 215.497 18.3411C215.621 18.3953 215.755 18.4233 215.891 18.4233C216.026 18.4233 216.161 18.3953 216.285 18.3411C216.409 18.2869 216.52 18.2077 216.611 18.1086C216.794 17.8982 216.893 17.6291 216.889 17.3517C216.899 17.07 216.797 16.7958 216.607 16.5865C216.516 16.4895 216.405 16.4127 216.282 16.3609C216.159 16.3092 216.027 16.2837 215.893 16.2862Z" fill="white"/>
<path d="M221.93 19.5359C221.561 19.5443 221.199 19.6309 220.867 19.7899C220.536 19.9488 220.243 20.1765 220.007 20.4574L219.696 19.7005H218.172V25.7394H220.153V22.0371C220.357 21.8301 220.592 21.6553 220.85 21.5188C221.033 21.4145 221.238 21.3552 221.448 21.346C221.556 21.3341 221.665 21.3524 221.762 21.399C221.86 21.4456 221.942 21.5184 222 21.6093C222.117 21.8483 222.17 22.1133 222.154 22.3785L222.121 25.7476H224.122V21.9877C224.122 21.1238 223.918 20.4986 223.511 20.1119C223.08 19.723 222.512 19.5163 221.93 19.5359Z" fill="white"/>
<path d="M227.734 24.1475C227.659 24.1548 227.583 24.1461 227.511 24.122C227.439 24.0979 227.374 24.0589 227.319 24.0077C227.214 23.8727 227.165 23.7037 227.182 23.5346V16.5413H225.259V23.7526C225.201 24.3193 225.348 24.888 225.674 25.357C225.832 25.5271 226.025 25.6607 226.24 25.7482C226.455 25.8357 226.688 25.8748 226.92 25.8629C227.383 25.8496 227.839 25.7563 228.269 25.5873L227.983 24.1146C227.895 24.1359 227.804 24.147 227.713 24.1475H227.734Z" fill="white"/>
<path d="M233.671 19.9185C233.152 19.6453 232.573 19.5039 231.985 19.5072C231.393 19.4994 230.808 19.6335 230.279 19.898C229.786 20.1498 229.377 20.5386 229.104 21.0169C228.813 21.5358 228.67 22.1228 228.689 22.7159C228.669 23.3037 228.813 23.8857 229.104 24.3984C229.381 24.8717 229.789 25.257 230.279 25.5091C230.806 25.784 231.394 25.9253 231.989 25.9204C232.637 25.9426 233.277 25.7829 233.837 25.4597C234.313 25.1766 234.695 24.762 234.937 24.2667C235.17 23.7899 235.29 23.2663 235.286 22.7364C235.306 22.1472 235.162 21.5639 234.871 21.0498C234.594 20.5708 234.185 20.1799 233.692 19.9226L233.671 19.9185ZM232.973 23.7978C232.85 23.9409 232.697 24.0559 232.525 24.1348C232.352 24.2136 232.165 24.2545 231.975 24.2545C231.785 24.2545 231.597 24.2136 231.425 24.1348C231.253 24.0559 231.1 23.9409 230.976 23.7978C230.755 23.4832 230.64 23.1073 230.648 22.7241C230.64 22.3364 230.757 21.9562 230.981 21.6381C231.102 21.4935 231.255 21.3774 231.427 21.2977C231.599 21.2181 231.787 21.177 231.977 21.1773C232.168 21.1772 232.356 21.2184 232.529 21.298C232.702 21.3776 232.855 21.4937 232.978 21.6381C233.191 21.9584 233.305 22.3339 233.305 22.7179C233.305 23.1019 233.191 23.4774 232.978 23.7978H232.973Z" fill="white"/>
<path d="M240.879 19.9185C240.357 19.6452 239.775 19.5039 239.185 19.5071C238.594 19.4999 238.01 19.6339 237.482 19.8979C236.989 20.1497 236.581 20.5386 236.307 21.0168C236.017 21.5357 235.874 22.1228 235.892 22.7158C235.875 23.3035 236.019 23.8848 236.307 24.3983C236.584 24.8725 236.991 25.2581 237.482 25.509C238.007 25.782 238.592 25.9233 239.185 25.9204C239.835 25.943 240.478 25.7833 241.04 25.4597C241.517 25.1766 241.899 24.762 242.141 24.2667C242.374 23.7898 242.493 23.2662 242.489 22.7364C242.506 22.1475 242.363 21.565 242.074 21.0498C241.792 20.5678 241.377 20.1754 240.879 19.9185ZM240.181 23.7977C240.058 23.9409 239.905 24.0559 239.732 24.1347C239.56 24.2136 239.372 24.2544 239.183 24.2544C238.993 24.2544 238.805 24.2136 238.633 24.1347C238.46 24.0559 238.307 23.9409 238.184 23.7977C237.964 23.4828 237.851 23.1069 237.86 22.724C237.852 22.3375 237.965 21.9579 238.184 21.638C238.307 21.4936 238.46 21.3776 238.633 21.298C238.806 21.2184 238.994 21.1772 239.185 21.1773C239.375 21.177 239.562 21.2181 239.735 21.2977C239.907 21.3773 240.059 21.4935 240.181 21.638C240.406 21.9554 240.523 22.3361 240.513 22.724C240.522 23.1081 240.406 23.4847 240.181 23.7977Z" fill="white"/>
<path d="M249.655 21.0744C249.448 20.6128 249.114 20.2181 248.692 19.9349C248.255 19.6585 247.745 19.5155 247.226 19.5235C246.82 19.5038 246.415 19.5899 246.052 19.7732C245.689 19.9565 245.381 20.2306 245.159 20.5684L244.81 19.6922H243.411V29.0344H245.292V25.1264C245.517 25.3908 245.801 25.5998 246.122 25.7369C246.442 25.8739 246.791 25.9353 247.139 25.9162C247.662 25.9324 248.178 25.7945 248.621 25.5198C249.065 25.2452 249.416 24.8462 249.63 24.3736C249.859 23.8546 249.977 23.2944 249.977 22.7281C249.977 22.1618 249.859 21.6016 249.63 21.0826L249.655 21.0744ZM247.687 23.8059C247.557 23.9372 247.402 24.0416 247.231 24.1128C247.06 24.1841 246.876 24.2208 246.691 24.2208C246.505 24.2208 246.321 24.1841 246.15 24.1128C245.979 24.0416 245.824 23.9372 245.694 23.8059C245.424 23.508 245.283 23.116 245.304 22.7158C245.289 22.3207 245.427 21.9349 245.69 21.638C245.817 21.5022 245.971 21.3952 246.143 21.3242C246.315 21.2531 246.5 21.2199 246.687 21.2266C246.873 21.2204 247.059 21.2538 247.232 21.3248C247.405 21.3958 247.56 21.5025 247.687 21.638C247.94 21.9438 248.078 22.3268 248.078 22.7219C248.078 23.1171 247.94 23.5001 247.687 23.8059Z" fill="white"/>
<path d="M33.0607 4.70188C33.0564 4.98095 32.9426 5.2474 32.7434 5.44475C32.5442 5.64211 32.2753 5.75486 31.9937 5.7591C30.4658 5.7591 29.6562 6.05118 29.2286 6.58184C28.7179 7.12897 28.3359 8.18208 28.3359 10.1649V12.4809H31.4415C31.5897 12.4718 31.7382 12.4929 31.8779 12.5429C32.0176 12.5928 32.1455 12.6706 32.2537 12.7714C32.3619 12.8721 32.4481 12.9938 32.5071 13.1289C32.566 13.2639 32.5964 13.4095 32.5964 13.5566C32.5964 13.7038 32.566 13.8494 32.5071 13.9844C32.4481 14.1195 32.3619 14.2412 32.2537 14.3419C32.1455 14.4427 32.0176 14.5205 31.8779 14.5704C31.7382 14.6204 31.5897 14.6415 31.4415 14.6324H28.3359V33.5349C28.3359 33.8197 28.2218 34.0927 28.0186 34.2941C27.8153 34.4955 27.5397 34.6086 27.2523 34.6086C26.9649 34.6086 26.6893 34.4955 26.4861 34.2941C26.2829 34.0927 26.1687 33.8197 26.1687 33.5349V14.69H23.2624C22.9751 14.69 22.6994 14.5769 22.4962 14.3755C22.293 14.1741 22.1788 13.9011 22.1788 13.6163C22.1788 13.3315 22.293 13.0584 22.4962 12.8571C22.6994 12.6557 22.9751 12.5426 23.2624 12.5426H26.1687V10.2225C26.2102 7.98873 26.5507 6.38439 27.6135 5.16261C28.6764 4.02723 30.308 3.60352 32.0393 3.60352C32.3173 3.62715 32.5762 3.75297 32.7652 3.95624C32.9542 4.1595 33.0596 4.42549 33.0607 4.70188Z" fill="white"/>
<path d="M36.2493 6.89039C36.2664 6.61659 36.3882 6.35954 36.5899 6.17165C36.7916 5.98376 37.0581 5.87915 37.335 5.87915C37.6118 5.87915 37.8783 5.98376 38.08 6.17165C38.2817 6.35954 38.4036 6.61659 38.4207 6.89039V7.90236C38.4298 8.04923 38.4085 8.19639 38.3581 8.3348C38.3077 8.4732 38.2292 8.59992 38.1275 8.70713C38.0258 8.81434 37.903 8.89978 37.7667 8.95818C37.6304 9.01658 37.4835 9.04671 37.335 9.04671C37.1865 9.04671 37.0395 9.01658 36.9032 8.95818C36.7669 8.89978 36.6441 8.81434 36.5424 8.70713C36.4407 8.59992 36.3622 8.4732 36.3118 8.3348C36.2614 8.19639 36.2401 8.04923 36.2493 7.90236V6.89039ZM36.2493 13.9742C36.2476 13.8355 36.274 13.6978 36.3268 13.5692C36.3796 13.4407 36.4578 13.324 36.5569 13.2259C36.6559 13.1277 36.7737 13.0502 36.9034 12.9979C37.0331 12.9456 37.1721 12.9194 37.3121 12.9211C37.4564 12.9155 37.6003 12.939 37.7352 12.9902C37.87 13.0413 37.993 13.1191 38.0966 13.2187C38.2003 13.3183 38.2824 13.4377 38.3381 13.5697C38.3938 13.7017 38.4219 13.8435 38.4207 13.9865V33.5761C38.4036 33.8499 38.2817 34.1069 38.08 34.2948C37.8783 34.4827 37.6118 34.5873 37.335 34.5873C37.0581 34.5873 36.7916 34.4827 36.5899 34.2948C36.3882 34.1069 36.2664 33.8499 36.2493 33.5761V13.9742Z" fill="white"/>
<path d="M61.0977 21.7737C61.0988 20.8928 60.9245 20.0204 60.5848 19.2064C60.2451 18.3924 59.7466 17.6528 59.118 17.0299C58.4894 16.407 57.7429 15.9132 56.9213 15.5766C56.0998 15.24 55.2193 15.0673 54.3303 15.0684C52.5376 15.0864 50.8229 15.7975 49.5518 17.05C48.2806 18.3026 47.5535 19.9976 47.5255 21.7737V33.7323C47.4895 33.9139 47.416 34.0862 47.3096 34.2383C47.2151 34.36 47.0928 34.4577 46.9528 34.5235C46.8128 34.5893 46.659 34.6213 46.5041 34.6167H46.2467C46.091 34.5752 45.946 34.5013 45.8215 34.3999C45.6969 34.2984 45.5956 34.1718 45.5243 34.0285C45.5085 34.0114 45.4966 33.9912 45.4895 33.9692C45.4823 33.9472 45.48 33.9239 45.4828 33.9009C45.4784 33.8698 45.4638 33.8409 45.4413 33.8187V14.0152C45.4284 13.8725 45.4456 13.7286 45.4919 13.5928C45.5382 13.4569 45.6126 13.3322 45.7102 13.2264C45.8078 13.1206 45.9266 13.0361 46.059 12.9783C46.1915 12.9205 46.3345 12.8906 46.4792 12.8906C46.6239 12.8906 46.767 12.9205 46.8994 12.9783C47.0318 13.0361 47.1506 13.1206 47.2483 13.2264C47.3459 13.3322 47.4202 13.4569 47.4665 13.5928C47.5128 13.7286 47.5301 13.8725 47.5172 14.0152V16.0721C48.6871 14.6836 50.2604 13.6861 52.023 13.2153C53.7856 12.7445 55.6518 12.8234 57.3676 13.4412C59.0833 14.0589 60.5652 15.1856 61.6115 16.6678C62.6579 18.1499 63.2178 19.9156 63.2151 21.7243V33.5348C63.2151 33.8141 63.1031 34.082 62.9038 34.2795C62.7045 34.477 62.4341 34.5879 62.1522 34.5879C61.8703 34.5879 61.6 34.477 61.4007 34.2795C61.2014 34.082 61.0894 33.8141 61.0894 33.5348V21.7737H61.0977Z" fill="white"/>
<path d="M86.1538 30.4127C85.1833 31.7225 83.9146 32.787 82.4509 33.5196C80.9872 34.2523 79.3697 34.6324 77.7298 34.6293C71.8176 34.6293 67.1385 29.7422 67.1385 23.7979C67.1385 17.7672 71.8176 12.8801 77.7298 12.8801C79.3719 12.8891 80.989 13.2789 82.4518 14.0182C83.9146 14.7576 85.1824 15.8259 86.1538 17.1378V4.65675C86.1708 4.38294 86.2927 4.1259 86.4944 3.93801C86.6961 3.75011 86.9626 3.64551 87.2394 3.64551C87.5163 3.64551 87.7828 3.75011 87.9845 3.93801C88.1862 4.1259 88.308 4.38294 88.3251 4.65675V33.5762C88.308 33.85 88.1862 34.107 87.9845 34.2949C87.7828 34.4828 87.5163 34.5874 87.2394 34.5874C86.9626 34.5874 86.6961 34.4828 86.4944 34.2949C86.2927 34.107 86.1708 33.85 86.1538 33.5762V30.4127ZM86.1538 24.1763V23.4482C85.9835 18.8079 82.2843 15.0562 77.7298 15.0562C73.1753 15.0562 69.3058 18.9766 69.3058 23.7855C69.3058 28.5945 73.0922 32.4243 77.7298 32.4243C82.2428 32.4984 85.9835 28.7713 86.1538 24.1763Z" fill="white"/>
<path d="M92.535 23.8595C92.535 17.8329 97.2598 12.9417 103.172 12.9417C108.789 12.9417 113.298 17.368 113.726 23.0573V23.2259C113.722 23.3598 113.691 23.4915 113.635 23.6133C113.579 23.7351 113.499 23.8446 113.4 23.9351C113.3 24.0257 113.183 24.0955 113.056 24.1404C112.929 24.1854 112.794 24.2045 112.659 24.1968H94.6607C94.8725 28.9605 98.6589 32.5435 103.168 32.5435C104.589 32.5403 105.985 32.174 107.221 31.4801C108.458 30.7861 109.492 29.788 110.226 28.582C110.294 28.461 110.387 28.3554 110.499 28.2719C110.611 28.1885 110.739 28.129 110.875 28.0972C111.012 28.0655 111.153 28.0622 111.291 28.0876C111.428 28.113 111.559 28.1665 111.675 28.2447C111.799 28.3213 111.906 28.4217 111.99 28.5398C112.075 28.658 112.134 28.7916 112.166 28.9329C112.198 29.0742 112.201 29.2204 112.175 29.3628C112.149 29.5053 112.095 29.6412 112.015 29.7626C111.082 31.2605 109.78 32.4991 108.232 33.3625C106.684 34.2259 104.94 34.6858 103.164 34.6991C97.3013 34.6292 92.535 29.7421 92.535 23.8595ZM94.8351 22.1317H111.442C111.127 20.1893 110.132 18.4188 108.631 17.131C107.13 15.8431 105.219 15.1202 103.234 15.089C99.0907 15.0273 95.6447 17.9768 94.8351 22.1111V22.1317Z" fill="white"/>
<path d="M133.634 21.7739C133.635 20.8932 133.462 20.0209 133.122 19.2069C132.783 18.3929 132.285 17.6532 131.657 17.0303C131.028 16.4074 130.282 15.9134 129.461 15.5768C128.64 15.2401 127.759 15.0674 126.87 15.0685C125.078 15.0865 123.363 15.7976 122.092 17.0502C120.821 18.3028 120.094 19.9978 120.066 21.7739V33.7324C120.03 33.914 119.956 34.0863 119.85 34.2384C119.755 34.3594 119.632 34.4566 119.492 34.5223C119.352 34.588 119.199 34.6204 119.044 34.6169H118.787C118.631 34.5759 118.486 34.5021 118.361 34.4006C118.236 34.2991 118.135 34.1722 118.064 34.0286C118.049 34.0116 118.037 33.9914 118.03 33.9693C118.022 33.9473 118.02 33.924 118.023 33.9011C118.018 33.8693 118.002 33.8402 117.977 33.8188V14.0154C117.959 13.8694 117.972 13.7212 118.015 13.5805C118.059 13.4399 118.132 13.31 118.23 13.1997C118.328 13.0893 118.449 13.0008 118.585 12.9403C118.72 12.8797 118.867 12.8484 119.015 12.8484C119.164 12.8484 119.311 12.8797 119.446 12.9403C119.581 13.0008 119.702 13.0893 119.8 13.1997C119.898 13.31 119.972 13.4399 120.015 13.5805C120.059 13.7212 120.072 13.8694 120.053 14.0154V16.0722C121.222 14.6784 122.797 13.6763 124.563 13.2028C126.329 12.7294 128.199 12.8077 129.918 13.4271C131.637 14.0464 133.121 15.1766 134.167 16.6633C135.214 18.1499 135.771 19.9203 135.764 21.7327V33.535C135.747 33.8034 135.627 34.0554 135.429 34.2396C135.231 34.4237 134.97 34.5263 134.699 34.5263C134.427 34.5263 134.166 34.4237 133.968 34.2396C133.77 34.0554 133.651 33.8034 133.634 33.535V21.7739Z" fill="white"/>
<path d="M141.236 28.3393L144.852 30.9104C144.888 30.9334 144.918 30.9642 144.941 31.0006C144.963 31.0369 144.977 31.0779 144.98 31.1202V31.2066C144.978 31.2549 144.965 31.3021 144.942 31.3453C144.92 31.3885 144.889 31.4267 144.852 31.4575L141.236 34.0286H147.957C148.037 34.0286 148.113 34.0598 148.169 34.1154C148.225 34.1709 148.256 34.2463 148.256 34.3248C148.256 34.4034 148.225 34.4787 148.169 34.5342C148.113 34.5898 148.037 34.621 147.957 34.621H140.43C140.386 34.621 140.342 34.6092 140.304 34.5868C140.266 34.5643 140.235 34.5321 140.214 34.4935L140.173 34.4523C140.134 34.39 140.121 34.3149 140.137 34.2434C140.154 34.1718 140.198 34.1095 140.26 34.0698L144.258 31.1902L140.26 28.3106C140.198 28.2716 140.154 28.21 140.138 28.1391C140.121 28.0682 140.134 27.9938 140.173 27.9321L140.26 27.8457C140.301 27.8046 140.343 27.8046 140.43 27.8046H147.957C147.997 27.8034 148.036 27.8103 148.073 27.8248C148.11 27.8393 148.143 27.8611 148.171 27.8888C148.199 27.9165 148.221 27.9496 148.236 27.9861C148.25 28.0225 148.257 28.0615 148.256 28.1008C148.257 28.1396 148.249 28.1782 148.235 28.2142C148.22 28.2501 148.198 28.2827 148.17 28.31C148.142 28.3373 148.109 28.3587 148.072 28.3729C148.036 28.3872 147.997 28.3939 147.957 28.3928H141.236V28.3393Z" fill="#37A45F"/>
<path d="M140.33 25.4308C140.291 25.432 140.251 25.4251 140.215 25.4106C140.178 25.3961 140.144 25.3743 140.116 25.3466C140.089 25.3189 140.067 25.2858 140.052 25.2493C140.037 25.2129 140.03 25.1738 140.031 25.1346V20.9798C140.031 20.9012 140.063 20.8259 140.119 20.7703C140.175 20.7148 140.251 20.6836 140.33 20.6836C140.41 20.6836 140.486 20.7148 140.542 20.7703C140.598 20.8259 140.629 20.9012 140.629 20.9798V24.859H143.864V21.4858C143.862 21.4471 143.869 21.4086 143.884 21.3727C143.898 21.3367 143.92 21.3041 143.947 21.2767C143.975 21.2494 144.008 21.2279 144.044 21.2136C144.081 21.1993 144.119 21.1926 144.158 21.1937C144.198 21.1926 144.237 21.1993 144.273 21.2136C144.31 21.2278 144.343 21.2492 144.371 21.2765C144.399 21.3038 144.421 21.3364 144.436 21.3724C144.451 21.4083 144.458 21.4469 144.457 21.4858V24.859H147.692V20.9798C147.691 20.9409 147.698 20.9023 147.713 20.8664C147.728 20.8304 147.75 20.7978 147.778 20.7705C147.806 20.7432 147.839 20.7218 147.876 20.7076C147.912 20.6934 147.951 20.6866 147.99 20.6877C148.03 20.6866 148.068 20.6933 148.105 20.7076C148.141 20.7219 148.174 20.7434 148.201 20.7707C148.229 20.7981 148.251 20.8307 148.265 20.8667C148.28 20.9026 148.286 20.9411 148.285 20.9798V25.1758C148.279 25.2478 148.245 25.3146 148.19 25.3621C148.135 25.4097 148.063 25.4343 147.99 25.4308H140.33Z" fill="#37A45F"/>
<path d="M147.804 18.8118L144.188 16.1996L140.571 18.8118C140.515 18.856 140.443 18.8764 140.372 18.8687C140.3 18.861 140.235 18.8258 140.189 18.7707C140.145 18.7142 140.124 18.6425 140.132 18.571C140.139 18.4996 140.175 18.4339 140.231 18.3881L143.723 15.9199L140.231 13.4517C140.184 13.4047 140.156 13.3421 140.153 13.276C140.15 13.2099 140.171 13.1449 140.214 13.0937C140.256 13.0426 140.316 13.0088 140.382 12.9989C140.448 12.989 140.516 13.0038 140.571 13.0403L144.188 15.6525L147.804 12.995C147.832 12.972 147.864 12.9548 147.898 12.9444C147.933 12.9339 147.97 12.9306 148.006 12.9344C148.042 12.9382 148.077 12.9492 148.108 12.9667C148.14 12.9842 148.168 13.0078 148.19 13.0362C148.231 13.0773 148.231 13.1185 148.231 13.2048C148.232 13.2483 148.22 13.291 148.198 13.3282C148.175 13.3653 148.142 13.3953 148.103 13.4146L144.657 15.8829L148.103 18.3511C148.142 18.3712 148.175 18.4019 148.198 18.4397C148.221 18.4776 148.232 18.521 148.231 18.565C148.231 18.6062 148.19 18.6884 148.19 18.7337C148.174 18.7681 148.15 18.7983 148.12 18.8219C148.09 18.8455 148.054 18.8617 148.017 18.8693C147.979 18.8769 147.94 18.8757 147.903 18.8657C147.866 18.8557 147.832 18.8373 147.804 18.8118Z" fill="#37A45F"/>
<path d="M22.4197 43.8479H26.1231V44.4279H23.0217V46.4848H25.9279V47.0196H23.0217V49.7758H22.4197V43.8479Z" fill="white"/>
<path d="M27.9208 43.8479H28.5145V49.7758H27.9208V43.8479Z" fill="white"/>
<path d="M31.5288 44.7282V49.7758H30.9475V43.8479H31.6575L34.9332 48.9283V43.8561H35.5145V49.7758H34.7879L31.5288 44.7282Z" fill="white"/>
<path d="M37.4366 49.7759L39.716 43.8645H40.3637L42.6513 49.7759H41.9829L41.3601 48.1304H38.7154L38.1092 49.7759H37.4366ZM41.1733 47.5668L40.0481 44.5392L38.9271 47.5668H41.1733Z" fill="white"/>
<path d="M45.1507 44.7282V49.7758H44.5695V43.8479H45.2794L48.5759 48.9283V43.8561H49.1572V49.7758H48.4099L45.1507 44.7282Z" fill="white"/>
<path d="M52.5368 49.4384C52.1263 49.1787 51.7948 48.8133 51.5777 48.3812C51.3395 47.9032 51.22 47.3757 51.229 46.8427C51.2178 46.2936 51.3373 45.7496 51.5777 45.2548C51.791 44.81 52.1293 44.4356 52.552 44.1765C52.9747 43.9175 53.4639 43.7848 53.9609 43.7944C54.365 43.7881 54.7648 43.8769 55.1275 44.0536C55.4636 44.2177 55.7564 44.4572 55.9828 44.7529C56.2038 45.0447 56.3467 45.3872 56.398 45.7484H55.7669C55.7107 45.4932 55.594 45.2549 55.4265 45.0532C55.2594 44.8419 55.0466 44.6704 54.8037 44.5514C54.5441 44.4301 54.2603 44.3682 53.9733 44.3704C53.5906 44.364 53.2151 44.4746 52.898 44.6871C52.576 44.908 52.3218 45.2126 52.1631 45.5674C51.9793 45.9703 51.8885 46.4088 51.8974 46.8509C51.889 47.2766 51.9784 47.6987 52.159 48.085C52.3165 48.4201 52.5653 48.7051 52.8773 48.9078C53.1918 49.1108 53.5607 49.2154 53.936 49.2081C54.2315 49.2108 54.5238 49.1475 54.7912 49.023C55.0423 48.9057 55.2647 48.7359 55.4431 48.5252C55.6129 48.3255 55.7286 48.0862 55.7794 47.83H56.4104C56.3567 48.1969 56.2143 48.5455 55.9952 48.8461C55.7667 49.1457 55.4692 49.3869 55.1275 49.5495C54.7575 49.7262 54.3509 49.815 53.9401 49.8087C53.4461 49.8222 52.9586 49.6936 52.5368 49.4384Z" fill="white"/>
<path d="M58.4905 43.8479H59.0883V49.7758H58.4905V43.8479Z" fill="white"/>
<path d="M61.5212 43.8479H65.2578V44.4279H62.1274V46.4848H65.0793V47.036H62.1274V49.1916H65.2578V49.7758H61.5212V43.8479Z" fill="white"/>
<path d="M67.259 43.8481H69.6172C69.9418 43.8398 70.264 43.9045 70.5597 44.0374C70.812 44.1546 71.0221 44.3455 71.1617 44.5845C71.3008 44.8364 71.371 45.1201 71.3652 45.4072C71.3609 45.7021 71.2668 45.9889 71.0953 46.23C70.9371 46.4734 70.6975 46.654 70.4185 46.7401C70.6045 46.7862 70.7723 46.8865 70.9002 47.028C71.0128 47.1589 71.09 47.316 71.1243 47.4847C71.175 47.7218 71.2069 47.9625 71.2198 48.2046C71.2198 48.4802 71.2572 48.7188 71.2738 48.9162C71.2881 49.0724 71.3116 49.2276 71.3444 49.3811C71.3735 49.5053 71.4211 49.6245 71.4856 49.7349H70.8213C70.7798 49.6401 70.7505 49.5406 70.7341 49.4387C70.7341 49.3358 70.7009 49.196 70.6884 49.0273C70.676 48.8586 70.6552 48.6488 70.6386 48.4226C70.6236 48.1469 70.5932 47.8722 70.5472 47.5998C70.5017 47.4334 70.3989 47.2879 70.2566 47.1885C70.0319 47.0507 69.7687 46.9873 69.5052 47.0075H67.8444V49.776H67.259V43.8481ZM69.555 46.5097C69.773 46.5129 69.989 46.4665 70.186 46.374C70.3669 46.2934 70.521 46.1636 70.6303 45.9996C70.7394 45.8349 70.7959 45.6413 70.7922 45.4443C70.8051 45.2917 70.7826 45.1383 70.7265 44.9957C70.6704 44.8531 70.5821 44.7251 70.4684 44.6215C70.2086 44.4209 69.8837 44.3214 69.555 44.3418H67.8569V46.4891L69.555 46.5097Z" fill="white"/>
<path d="M72.9678 49.7759L75.243 43.8645H75.8948L78.1824 49.7759H77.514L76.8912 48.1304H74.2465L73.6404 49.7759H72.9678ZM76.7044 47.5668L75.5626 44.5227L74.4417 47.5504L76.7044 47.5668Z" fill="white"/>
<path d="M83.343 43.848H85.5186C86.0222 43.8373 86.5191 43.964 86.9551 44.2142C87.3658 44.4591 87.6949 44.8182 87.9017 45.2467C88.1323 45.7253 88.2461 46.2509 88.2338 46.7811C88.2449 47.3209 88.1343 47.8564 87.91 48.3484C87.7132 48.7874 87.3889 49.1583 86.9785 49.414C86.5682 49.6697 86.0903 49.7985 85.6057 49.7841H83.343V43.848ZM85.477 49.1959C85.878 49.2041 86.2733 49.1016 86.6188 48.8997C86.9454 48.702 87.2088 48.4168 87.3786 48.0769C87.5599 47.6907 87.6507 47.2688 87.6443 46.8428C87.6539 46.4091 87.5645 45.9787 87.3827 45.584C87.2171 45.2453 86.958 44.96 86.6354 44.7613C86.3053 44.5482 85.9208 44.4327 85.5269 44.4281L83.9409 44.4486V49.2247L85.477 49.1959Z" fill="white"/>
<path d="M90.3264 43.8479H94.063V44.4279H90.9243V46.4848H93.8762V47.036H90.9243V49.1916H94.0547V49.7758H90.3181L90.3264 43.8479Z" fill="white"/>
<path d="M99.7053 44.7282V49.7758H99.124V43.8479H99.834L103.11 48.9283V43.8561H103.691V49.7758H102.964L99.7053 44.7282Z" fill="white"/>
<path d="M106.082 43.8479H109.819V44.4279H106.701V46.4848H109.653V47.036H106.701V49.1916H109.831V49.7758H106.095L106.082 43.8479Z" fill="white"/>
<path d="M112.592 49.4385C112.175 49.181 111.836 48.8154 111.613 48.3813C111.368 47.9053 111.245 47.3769 111.255 46.8427C111.245 46.2936 111.369 45.7502 111.617 45.2589C111.842 44.8143 112.187 44.4399 112.613 44.177C113.001 43.9465 113.44 43.8136 113.891 43.79C114.343 43.7663 114.794 43.8526 115.204 44.0413C115.552 44.2011 115.855 44.4426 116.088 44.7447C116.311 45.0386 116.454 45.3842 116.503 45.7485H115.872C115.823 45.4912 115.709 45.2506 115.54 45.0491C115.358 44.831 115.13 44.6554 114.872 44.5349C114.612 44.4127 114.329 44.3481 114.041 44.3457C113.652 44.3406 113.27 44.4525 112.945 44.6666C112.609 44.8895 112.34 45.1997 112.169 45.5634C111.974 45.9648 111.876 46.4056 111.882 46.851C111.874 47.2785 111.969 47.7017 112.161 48.0851C112.339 48.4203 112.602 48.7039 112.925 48.9078C113.247 49.1114 113.622 49.2172 114.004 49.2122C114.292 49.2062 114.575 49.1389 114.834 49.0148C115.152 48.8654 115.424 48.6336 115.619 48.3439C115.815 48.0542 115.929 47.7175 115.947 47.3693H114.12V46.7851H116.528V49.7758H115.972V48.7021C115.773 49.0539 115.474 49.34 115.113 49.5249C114.76 49.711 114.366 49.8085 113.967 49.8087C113.483 49.8132 113.007 49.6851 112.592 49.4385Z" fill="white"/>
<path d="M119.953 49.4468C119.528 49.1732 119.185 48.7909 118.961 48.3402C118.717 47.8652 118.593 47.3387 118.6 46.8058C118.592 46.2679 118.714 45.7361 118.957 45.2549C119.179 44.8118 119.519 44.4376 119.941 44.173C120.372 43.9132 120.867 43.7759 121.371 43.7759C121.876 43.7759 122.371 43.9132 122.802 44.173C123.224 44.4407 123.564 44.8176 123.786 45.2631C124.027 45.7461 124.149 46.2791 124.143 46.8181C124.147 47.35 124.022 47.875 123.777 48.3484C123.551 48.7969 123.207 49.1765 122.781 49.4468C122.359 49.7174 121.867 49.8603 121.365 49.8581C120.864 49.8617 120.373 49.7186 119.953 49.4468ZM122.478 48.9531C122.811 48.7392 123.08 48.4391 123.254 48.0851C123.446 47.7018 123.543 47.2787 123.536 46.851C123.543 46.4083 123.449 45.9697 123.262 45.5675C123.093 45.205 122.828 44.8949 122.494 44.6707C122.156 44.4535 121.76 44.3404 121.357 44.3458C120.96 44.342 120.571 44.4552 120.24 44.6707C119.907 44.8925 119.642 45.2015 119.476 45.5634C119.292 45.9622 119.2 46.3963 119.206 46.8345C119.2 47.2613 119.294 47.6837 119.48 48.0687C119.65 48.4213 119.913 48.7224 120.24 48.9408C120.567 49.1592 120.954 49.2727 121.348 49.2658C121.748 49.2743 122.141 49.1656 122.478 48.9531Z" fill="white"/>
<path d="M127.244 49.4385C126.833 49.1777 126.501 48.8127 126.281 48.3813C126.043 47.9032 125.923 47.3758 125.932 46.8427C125.921 46.2936 126.04 45.7496 126.281 45.2548C126.497 44.8141 126.834 44.4421 127.252 44.1812C127.676 43.9215 128.166 43.7873 128.664 43.7945C129.069 43.7886 129.47 43.8774 129.835 44.0536C130.162 44.2206 130.446 44.4598 130.665 44.753C130.886 45.0448 131.029 45.3873 131.08 45.7485H130.449C130.391 45.4941 130.274 45.2562 130.109 45.0533C129.937 44.8413 129.72 44.6699 129.474 44.5514C129.214 44.4303 128.93 44.3684 128.643 44.3704C128.261 44.3646 127.885 44.4751 127.568 44.6871C127.248 44.9104 126.994 45.2143 126.833 45.5675C126.653 45.9713 126.563 46.4094 126.571 46.851C126.562 47.2763 126.65 47.6984 126.829 48.0851C126.989 48.4196 127.239 48.7042 127.551 48.9078C127.866 49.1108 128.235 49.2154 128.61 49.2081C128.896 49.2106 129.18 49.1507 129.44 49.0327C129.701 48.9147 129.932 48.7415 130.117 48.5252C130.285 48.3245 130.401 48.0857 130.453 47.83H131.084C131.03 48.1968 130.888 48.5454 130.669 48.8461C130.442 49.1456 130.146 49.3868 129.806 49.5495C129.436 49.7259 129.029 49.8146 128.618 49.8087C128.134 49.8167 127.658 49.6883 127.244 49.4385Z" fill="white"/>
<path d="M133.198 43.8479H133.791V49.7758H133.198V43.8479Z" fill="white"/>
<path d="M137.279 49.4468C136.854 49.1732 136.511 48.7909 136.287 48.3402C136.044 47.8649 135.922 47.3383 135.93 46.8058C135.92 46.2683 136.041 45.7364 136.282 45.2549C136.504 44.8118 136.845 44.4376 137.266 44.173C137.697 43.9132 138.192 43.7759 138.697 43.7759C139.201 43.7759 139.696 43.9132 140.127 44.173C140.549 44.4407 140.889 44.8176 141.111 45.2631C141.353 45.7461 141.475 46.2791 141.468 46.8181C141.473 47.35 141.347 47.875 141.103 48.3484C140.877 48.7969 140.532 49.1765 140.106 49.4468C139.686 49.7168 139.196 49.8598 138.695 49.8581C138.192 49.8623 137.7 49.7192 137.279 49.4468ZM139.811 48.949C140.145 48.7351 140.414 48.4349 140.588 48.081C140.78 47.6977 140.876 47.2746 140.87 46.8469C140.877 46.4042 140.783 45.9656 140.596 45.5634C140.427 45.2009 140.162 44.8908 139.828 44.6666C139.491 44.45 139.097 44.3369 138.695 44.3416C138.297 44.3379 137.907 44.4509 137.574 44.6666C137.241 44.8884 136.976 45.1974 136.81 45.5593C136.626 45.958 136.534 46.3922 136.54 46.8304C136.534 47.2572 136.628 47.6796 136.814 48.0645C136.984 48.4172 137.246 48.7183 137.574 48.9367C137.901 49.1551 138.288 49.2686 138.682 49.2616C139.081 49.2715 139.474 49.1641 139.811 48.9531V48.949Z" fill="white"/>
<path d="M144.457 49.6154C144.118 49.4819 143.82 49.2619 143.594 48.9778C143.365 48.678 143.233 48.3166 143.216 47.9411H143.893C143.911 48.1323 143.97 48.3175 144.064 48.4853C144.158 48.6531 144.287 48.7997 144.441 48.9161C144.804 49.1699 145.243 49.2946 145.686 49.2699C145.952 49.2761 146.217 49.2271 146.463 49.1259C146.657 49.0425 146.822 48.9029 146.935 48.7253C147.049 48.5477 147.105 48.3404 147.098 48.1304C147.106 47.9954 147.08 47.8607 147.023 47.738C146.966 47.6153 146.879 47.5085 146.77 47.4269C146.423 47.2199 146.035 47.0907 145.632 47.0485C145.016 46.9856 144.424 46.7814 143.901 46.452C143.734 46.33 143.599 46.1697 143.508 45.9849C143.417 45.8001 143.372 45.5962 143.378 45.3906C143.372 45.0955 143.464 44.8065 143.64 44.5679C143.822 44.318 144.066 44.1196 144.349 43.992C144.663 43.8483 145.005 43.7752 145.35 43.7781C145.947 43.7438 146.536 43.9234 147.011 44.2841C147.212 44.4516 147.373 44.6624 147.48 44.9004C147.587 45.1385 147.638 45.3975 147.629 45.658H147.007C147.001 45.4721 146.957 45.2893 146.876 45.1214C146.795 44.9534 146.68 44.8042 146.537 44.6831C146.206 44.4435 145.801 44.3244 145.392 44.3458C145.152 44.3414 144.914 44.3876 144.694 44.4815C144.504 44.559 144.337 44.6853 144.212 44.8476C144.096 44.994 144.033 45.1753 144.034 45.3618C144.032 45.5044 144.069 45.6447 144.143 45.7674C144.216 45.8901 144.322 45.9904 144.449 46.0571C144.804 46.2513 145.193 46.377 145.595 46.4273C146.038 46.4893 146.472 46.6053 146.886 46.7728C147.159 46.8812 147.392 47.0691 147.555 47.3117C147.699 47.5618 147.769 47.8468 147.758 48.1345C147.763 48.4486 147.669 48.7565 147.488 49.0148C147.298 49.2788 147.036 49.4842 146.733 49.6072C146.376 49.7531 145.993 49.8245 145.607 49.817C145.215 49.8246 144.824 49.7562 144.457 49.6154Z" fill="white"/>
<path fill-rule="evenodd" clip-rule="evenodd" d="M173.164 0.000618147L173.054 56.0006L172.224 55.999L172.333 -0.000976562L173.164 0.000618147Z" fill="white" fill-opacity="0.3"/>
<path d="M11.4548 16.2861H5.71289V21.9919H11.4548V16.2861Z" fill="url(#paint0_linear_1_590)"/>
<path d="M5.71286 21.9919H0V27.6524H5.71286V21.9919Z" fill="url(#paint1_linear_1_590)"/>
<path d="M5.73788 10.6257H0.0250244V16.2862H5.73788V10.6257Z" fill="url(#paint2_linear_1_590)"/>
</g>
<defs>
<linearGradient id="paint0_linear_1_590" x1="5.71289" y1="19.1411" x2="11.4548" y2="19.1411" gradientUnits="userSpaceOnUse">
<stop stop-color="#53A490"/>
<stop offset="0.38" stop-color="#5CB189"/>
<stop offset="0.78" stop-color="#74D675"/>
<stop offset="1" stop-color="#7EE46D"/>
</linearGradient>
<linearGradient id="paint1_linear_1_590" x1="0" y1="24.8222" x2="5.71286" y2="24.8222" gradientUnits="userSpaceOnUse">
<stop stop-color="#53A490"/>
<stop offset="0.38" stop-color="#5CB189"/>
<stop offset="0.78" stop-color="#74D675"/>
<stop offset="1" stop-color="#7EE46D"/>
</linearGradient>
<linearGradient id="paint2_linear_1_590" x1="0.0250244" y1="13.4519" x2="5.73788" y2="13.4519" gradientUnits="userSpaceOnUse">
<stop stop-color="#53A490"/>
<stop offset="0.38" stop-color="#5CB189"/>
<stop offset="0.78" stop-color="#74D675"/>
<stop offset="1" stop-color="#7EE46D"/>
</linearGradient>
<clipPath id="clip0_1_590">
<rect width="250" height="56" fill="white"/>
</clipPath>
</defs>
</svg>
