<svg xmlns="http://www.w3.org/2000/svg" width="195" height="44" viewBox="0 0 195 44" fill="none">
  <g clip-path="url(#clip0_1_1260)">
    <path d="M155.563 31.223L156.039 28.4853C156.152 28.6975 156.324 28.8719 156.536 28.9869C156.747 29.1018 156.988 29.1522 157.227 29.1318C157.652 29.142 158.07 29.0298 158.432 28.8086C158.784 28.5835 159.066 28.2658 159.248 27.8906C159.445 27.4884 159.545 27.0455 159.54 26.5977C159.561 26.148 159.416 25.7061 159.132 25.3566C158.989 25.1984 158.812 25.0742 158.615 24.9931C158.418 24.912 158.205 24.8761 157.992 24.8879C157.708 24.8805 157.427 24.9365 157.168 25.0517C156.909 25.1669 156.679 25.3384 156.495 25.5537L156.405 25.0043H155.605L154.514 31.223H155.563ZM157.153 28.1944C157.033 28.2011 156.912 28.1814 156.8 28.1368C156.688 28.0921 156.588 28.0235 156.505 27.9359C156.342 27.7444 156.259 27.4982 156.272 27.2474C156.272 27.1957 156.272 27.1181 156.272 27.0212L156.295 26.8822C156.353 26.5882 156.508 26.3221 156.735 26.1258C156.959 25.9329 157.246 25.8293 157.541 25.8349C157.662 25.8284 157.783 25.8485 157.895 25.8938C158.006 25.939 158.107 26.0083 158.189 26.0967C158.358 26.2888 158.444 26.5398 158.429 26.7949C158.433 27.0454 158.376 27.2931 158.26 27.5157C158.154 27.7213 157.992 27.8935 157.794 28.0134C157.601 28.1307 157.379 28.1933 157.153 28.1944ZM161.667 29.1447C161.954 29.1537 162.239 29.0949 162.499 28.973C162.759 28.8511 162.987 28.6696 163.163 28.4433C163.169 28.5369 163.194 28.6283 163.237 28.7117C163.28 28.7951 163.34 28.8688 163.413 28.9282C163.57 29.0407 163.76 29.0965 163.953 29.0865C164.232 29.075 164.507 29.0204 164.77 28.9249L164.753 28.1201C164.673 28.1344 164.592 28.1441 164.51 28.1492C164.438 28.1532 164.366 28.1327 164.306 28.091C164.282 28.0658 164.264 28.0357 164.253 28.0028C164.242 27.9699 164.238 27.9349 164.242 27.9003C164.236 27.8498 164.236 27.7989 164.242 27.7484L164.718 24.9946H163.668L163.558 25.641C163.454 25.4009 163.277 25.1993 163.053 25.0643C162.828 24.9293 162.567 24.8676 162.305 24.8879C161.912 24.8822 161.526 24.9949 161.198 25.2111C160.853 25.4392 160.576 25.7565 160.398 26.1291C160.197 26.537 160.096 26.9868 160.103 27.4413C160.082 27.8891 160.23 28.3286 160.518 28.6728C160.662 28.8312 160.841 28.9557 161.039 29.0372C161.238 29.1188 161.453 29.1555 161.667 29.1447ZM162.075 28.1944C161.955 28.2013 161.834 28.1818 161.723 28.1371C161.611 28.0924 161.51 28.0237 161.428 27.9359C161.266 27.7413 161.184 27.4932 161.198 27.2409C161.194 26.9923 161.249 26.7463 161.36 26.5234C161.46 26.3168 161.616 26.1422 161.81 26.0192C162.008 25.8949 162.239 25.8309 162.474 25.8349C162.594 25.8269 162.714 25.8457 162.826 25.8899C162.938 25.934 163.039 26.0025 163.121 26.0903C163.283 26.2834 163.365 26.5306 163.351 26.782C163.356 26.8206 163.356 26.8597 163.351 26.8983L163.293 27.27C163.219 27.5376 163.061 27.7744 162.843 27.9456C162.622 28.1125 162.352 28.2002 162.075 28.1944ZM166.551 29.0284L166.875 27.27V27.2409L166.917 26.9921C166.986 26.73 167.106 26.484 167.27 26.2681C167.33 26.1727 167.413 26.0935 167.511 26.0372C167.61 25.9809 167.72 25.9492 167.833 25.9448C167.998 25.9473 168.159 25.9978 168.296 26.0903L168.944 25.1206C168.831 25.0559 168.713 25.0008 168.591 24.9558C168.457 24.906 168.316 24.8819 168.173 24.8847C167.954 24.8935 167.741 24.9578 167.553 25.0714C167.366 25.185 167.21 25.3443 167.101 25.5343L167.007 24.9913H166.201L165.495 29.0187L166.551 29.0284ZM170.761 29.1447C171.043 29.139 171.322 29.09 171.59 28.9993L171.758 28.1427C171.556 28.2106 171.346 28.2498 171.133 28.2591C170.77 28.2591 170.592 28.0652 170.592 27.6805C170.591 27.5721 170.601 27.4638 170.621 27.3573L170.884 25.8414H171.855L172.092 24.9849H171.033L171.253 23.7275H170.197L169.977 24.9849H169.368L169.222 25.8576H169.831L169.582 27.2765C169.547 27.4576 169.53 27.6416 169.53 27.826C169.514 28.0046 169.534 28.1847 169.59 28.3553C169.646 28.5258 169.735 28.6834 169.854 28.8183C169.977 28.9314 170.121 29.0186 170.279 29.0747C170.436 29.1308 170.603 29.1546 170.77 29.1447H170.761ZM173.429 29.0284L173.869 26.5525C174.042 26.366 174.238 26.203 174.452 26.0677C174.608 25.9626 174.789 25.9032 174.977 25.8963C175.046 25.8897 175.116 25.8978 175.182 25.9201C175.248 25.9424 175.308 25.9784 175.359 26.0256C175.444 26.1363 175.486 26.2743 175.476 26.4135C175.476 26.5219 175.467 26.6302 175.447 26.7367L175.035 29.0348H176.169L176.609 26.5589C176.637 26.3999 176.652 26.2388 176.654 26.0774C176.67 25.9125 176.65 25.7462 176.594 25.5903C176.538 25.4344 176.448 25.2928 176.331 25.1756C176.078 24.9812 175.765 24.8827 175.447 24.8976C174.9 24.9237 174.386 25.1628 174.015 25.5634L173.902 25.001H173.044L172.338 29.0284H173.429ZM179.122 29.1447C179.758 29.1495 180.381 28.9662 180.913 28.6179L180.56 27.9003C180.367 28.024 180.16 28.1259 179.945 28.2041C179.726 28.2953 179.492 28.3457 179.255 28.3528C178.746 28.3528 178.449 28.1427 178.358 27.7258C179.076 27.7136 179.785 27.5598 180.443 27.2733C180.707 27.1666 180.931 26.981 181.085 26.7419C181.239 26.5029 181.314 26.2221 181.302 25.9384C181.307 25.7837 181.271 25.6304 181.198 25.4937C181.126 25.357 181.018 25.2418 180.887 25.1594C180.576 24.9662 180.214 24.8705 179.848 24.8847C179.392 24.881 178.944 25.0018 178.552 25.2337C178.164 25.4598 177.841 25.7814 177.613 26.1679C177.385 26.5525 177.266 26.9913 177.267 27.4381C177.253 27.6696 177.289 27.9013 177.371 28.118C177.454 28.3347 177.582 28.5315 177.746 28.6954C178.132 29.019 178.629 29.1801 179.132 29.1447H179.122ZM178.368 26.963C178.439 26.6044 178.626 26.2794 178.902 26.0386C179.153 25.8063 179.483 25.677 179.825 25.6766C179.972 25.6661 180.118 25.706 180.239 25.7897C180.29 25.826 180.331 25.8749 180.358 25.9315C180.384 25.9881 180.396 26.0505 180.392 26.1129C180.392 26.3941 180.188 26.6042 179.78 26.74C179.324 26.8766 178.853 26.9517 178.377 26.963H178.368ZM182.723 29.0284L183.047 27.27V27.2409L183.089 26.9921C183.158 26.73 183.278 26.484 183.442 26.2681C183.503 26.1727 183.586 26.0935 183.684 26.0372C183.782 25.9809 183.893 25.9492 184.006 25.9448C184.171 25.9473 184.332 25.9978 184.469 26.0903L185.116 25.1206C185.004 25.0559 184.885 25.0008 184.763 24.9558C184.635 24.9091 184.499 24.8861 184.362 24.8879C184.144 24.897 183.931 24.961 183.744 25.074C183.557 25.187 183.402 25.3454 183.293 25.5343L183.199 24.9913H182.393L181.674 29.0284H182.723Z" fill="white"/>
    <path d="M155.281 16.0474V14.6252C155.281 14.5018 155.305 14.3796 155.352 14.2655C155.399 14.1514 155.468 14.0477 155.555 13.9603C155.642 13.8729 155.746 13.8036 155.86 13.7563C155.974 13.709 156.097 13.6846 156.22 13.6846H157.645V15.5916H158.552V12.7764H156.22C155.977 12.7768 155.737 12.8249 155.513 12.9181C155.289 13.0112 155.085 13.1475 154.914 13.3192C154.742 13.4909 154.606 13.6946 154.514 13.9187C154.421 14.1427 154.374 14.3828 154.374 14.6252V16.9556H160.916V18.3778C160.915 18.6264 160.816 18.8647 160.64 19.0408C160.464 19.2169 160.226 19.3166 159.977 19.3184H158.552V17.4113H157.645V20.2234H159.977C160.467 20.2225 160.936 20.0277 161.282 19.6817C161.628 19.3356 161.823 18.8667 161.823 18.3778V16.0474H155.281Z" fill="#5955D9"/>
    <path d="M164.74 13.3676C164.39 13.8677 164.221 14.4719 164.261 15.0807V15.4783H163.675V16.7712H164.261V20.2231H165.728V16.7744H166.91V15.4815H165.728V14.9579C165.728 14.3114 165.955 13.9882 166.402 13.9882C166.624 14.0018 166.843 14.0509 167.049 14.1337V12.9539C166.724 12.8316 166.38 12.766 166.033 12.76C165.785 12.7559 165.54 12.8086 165.316 12.9139C165.092 13.0193 164.895 13.1745 164.74 13.3676Z" fill="white"/>
    <path d="M169.138 15.4785H167.645V20.2266H169.138V15.4785Z" fill="white"/>
    <path d="M168.397 12.7957C168.292 12.7908 168.188 12.8081 168.091 12.8466C167.994 12.885 167.906 12.9437 167.833 13.0188C167.696 13.1905 167.621 13.4036 167.621 13.6232C167.621 13.8428 167.696 14.0559 167.833 14.2276C167.904 14.3055 167.991 14.3677 168.088 14.4103C168.185 14.4529 168.289 14.4749 168.395 14.4749C168.501 14.4749 168.605 14.4529 168.702 14.4103C168.799 14.3677 168.885 14.3055 168.957 14.2276C169.099 14.0624 169.176 13.8509 169.174 13.6329C169.181 13.4116 169.102 13.1962 168.954 13.0317C168.883 12.9555 168.796 12.8951 168.7 12.8544C168.604 12.8138 168.501 12.7938 168.397 12.7957Z" fill="white"/>
    <path d="M173.105 15.3496C172.818 15.3562 172.535 15.4242 172.277 15.5491C172.018 15.674 171.789 15.8529 171.606 16.0736L171.363 15.4789H170.174V20.2238H171.719V17.3148C171.879 17.1522 172.062 17.0149 172.263 16.9076C172.405 16.8256 172.565 16.779 172.73 16.7718C172.814 16.7624 172.898 16.7769 172.975 16.8135C173.051 16.85 173.115 16.9073 173.16 16.9787C173.252 17.1665 173.293 17.3747 173.28 17.5831L173.254 20.2303H174.815V17.276C174.815 16.5973 174.656 16.106 174.339 15.8021C174.003 15.4966 173.56 15.3342 173.105 15.3496Z" fill="white"/>
    <path d="M177.632 18.9724C177.574 18.9782 177.514 18.9713 177.459 18.9524C177.403 18.9334 177.352 18.9028 177.308 18.8625C177.227 18.7565 177.189 18.6238 177.202 18.4908V12.9961H175.702V18.6621C175.657 19.1074 175.772 19.5542 176.026 19.9227C176.149 20.0564 176.299 20.1614 176.467 20.2301C176.635 20.2988 176.816 20.3296 176.998 20.3203C177.358 20.3098 177.715 20.2365 178.05 20.1037L177.827 18.9466C177.758 18.9633 177.687 18.972 177.616 18.9724H177.632Z" fill="white"/>
    <path d="M182.263 15.6496C181.859 15.435 181.407 15.3239 180.949 15.3264C180.487 15.3203 180.03 15.4257 179.618 15.6335C179.233 15.8313 178.915 16.1369 178.701 16.5126C178.475 16.9203 178.363 17.3816 178.377 17.8475C178.362 18.3095 178.474 18.7667 178.701 19.1695C178.917 19.5414 179.235 19.8441 179.618 20.0422C180.029 20.2582 180.487 20.3693 180.952 20.3654C181.457 20.3828 181.956 20.2573 182.393 20.0034C182.764 19.781 183.063 19.4552 183.251 19.0661C183.433 18.6914 183.526 18.28 183.523 17.8637C183.538 17.4007 183.426 16.9424 183.199 16.5385C182.983 16.1621 182.664 15.855 182.28 15.6529L182.263 15.6496ZM181.719 18.6976C181.623 18.8101 181.504 18.9005 181.369 18.9624C181.235 19.0244 181.089 19.0565 180.941 19.0565C180.792 19.0565 180.646 19.0244 180.512 18.9624C180.377 18.9005 180.258 18.8101 180.162 18.6976C179.989 18.4504 179.9 18.1551 179.906 17.854C179.9 17.5494 179.99 17.2507 180.165 17.0007C180.26 16.8872 180.379 16.7959 180.513 16.7333C180.647 16.6707 180.794 16.6384 180.942 16.6387C181.091 16.6386 181.238 16.671 181.372 16.7335C181.507 16.7961 181.627 16.8872 181.723 17.0007C181.889 17.2524 181.978 17.5474 181.978 17.8492C181.978 18.1509 181.889 18.4459 181.723 18.6976H181.719Z" fill="white"/>
    <path d="M187.885 15.6496C187.478 15.4349 187.024 15.3239 186.564 15.3264C186.103 15.3207 185.648 15.426 185.236 15.6335C184.852 15.8313 184.533 16.1368 184.32 16.5126C184.093 16.9203 183.981 17.3815 183.996 17.8475C183.983 18.3092 184.094 18.766 184.32 19.1695C184.535 19.5421 184.853 19.845 185.236 20.0422C185.646 20.2567 186.102 20.3677 186.564 20.3654C187.071 20.3832 187.573 20.2577 188.012 20.0034C188.383 19.781 188.681 19.4552 188.87 19.0661C189.052 18.6914 189.145 18.28 189.142 17.8637C189.155 17.401 189.043 16.9433 188.818 16.5385C188.598 16.1598 188.274 15.8515 187.885 15.6496ZM187.341 18.6976C187.245 18.8101 187.126 18.9004 186.991 18.9624C186.857 19.0243 186.71 19.0564 186.562 19.0564C186.414 19.0564 186.268 19.0243 186.133 18.9624C185.999 18.9004 185.88 18.8101 185.783 18.6976C185.612 18.4501 185.524 18.1548 185.531 17.854C185.524 17.5502 185.612 17.252 185.783 17.0007C185.879 16.8872 185.999 16.796 186.134 16.7335C186.268 16.671 186.415 16.6386 186.564 16.6387C186.712 16.6384 186.859 16.6707 186.993 16.7333C187.127 16.7958 187.246 16.8871 187.341 17.0007C187.517 17.25 187.608 17.5492 187.6 17.854C187.607 18.1557 187.516 18.4516 187.341 18.6976Z" fill="white"/>
    <path d="M194.731 16.5586C194.569 16.1959 194.309 15.8858 193.98 15.6633C193.639 15.4462 193.241 15.3338 192.837 15.3401C192.519 15.3246 192.204 15.3922 191.921 15.5362C191.638 15.6802 191.398 15.8957 191.224 16.161L190.952 15.4726H189.861V22.8129H191.328V19.7423C191.503 19.9501 191.725 20.1143 191.975 20.222C192.225 20.3297 192.497 20.3779 192.769 20.3629C193.176 20.3756 193.579 20.2672 193.925 20.0514C194.271 19.8357 194.545 19.5222 194.712 19.1508C194.89 18.743 194.982 18.3029 194.982 17.858C194.982 17.413 194.89 16.9729 194.712 16.5651L194.731 16.5586ZM193.196 18.7048C193.095 18.808 192.974 18.89 192.84 18.946C192.707 19.0019 192.564 19.0308 192.419 19.0308C192.274 19.0308 192.131 19.0019 191.997 18.946C191.864 18.89 191.743 18.808 191.642 18.7048C191.431 18.4707 191.321 18.1627 191.337 17.8483C191.325 17.5379 191.433 17.2348 191.638 17.0014C191.737 16.8948 191.857 16.8106 191.992 16.7549C192.126 16.6991 192.27 16.6729 192.416 16.6782C192.561 16.6733 192.706 16.6996 192.841 16.7554C192.976 16.8111 193.097 16.895 193.196 17.0014C193.393 17.2417 193.501 17.5426 193.501 17.8531C193.501 18.1636 193.393 18.4645 193.196 18.7048Z" fill="white"/>
    <path d="M25.7874 3.69405C25.7841 3.91332 25.6953 4.12268 25.5399 4.27774C25.3846 4.43281 25.1748 4.52139 24.9551 4.52473C23.7634 4.52473 23.1319 4.75422 22.7984 5.17117C22.4 5.60105 22.1021 6.4285 22.1021 7.98642V9.80615H24.5244C24.64 9.79901 24.7559 9.81558 24.8648 9.85482C24.9738 9.89407 25.0735 9.95517 25.1579 10.0344C25.2423 10.1135 25.3096 10.2091 25.3556 10.3153C25.4016 10.4214 25.4253 10.5358 25.4253 10.6514C25.4253 10.767 25.4016 10.8814 25.3556 10.9875C25.3096 11.0936 25.2423 11.1892 25.1579 11.2684C25.0735 11.3476 24.9738 11.4087 24.8648 11.4479C24.7559 11.4872 24.64 11.5037 24.5244 11.4966H22.1021V26.3486C22.1021 26.5723 22.0131 26.7869 21.8545 26.9451C21.696 27.1033 21.481 27.1922 21.2569 27.1922C21.0327 27.1922 20.8177 27.1033 20.6592 26.9451C20.5007 26.7869 20.4117 26.5723 20.4117 26.3486V11.5418H18.1448C17.9206 11.5418 17.7056 11.453 17.5471 11.2948C17.3886 11.1366 17.2996 10.922 17.2996 10.6982C17.2996 10.4745 17.3886 10.2599 17.5471 10.1017C17.7056 9.94351 17.9206 9.85463 18.1448 9.85463H20.4117V8.03167C20.444 6.27658 20.7096 5.01602 21.5386 4.05606C22.3676 3.16397 23.6403 2.83105 24.9907 2.83105C25.2075 2.84962 25.4095 2.94848 25.5569 3.10819C25.7044 3.2679 25.7866 3.47689 25.7874 3.69405Z" fill="white"/>
    <path d="M28.2744 5.41369C28.2878 5.19855 28.3828 4.99659 28.5402 4.84896C28.6975 4.70133 28.9053 4.61914 29.1213 4.61914C29.3372 4.61914 29.5451 4.70133 29.7024 4.84896C29.8598 4.99659 29.9548 5.19855 29.9681 5.41369V6.20881C29.9753 6.3242 29.9587 6.43983 29.9194 6.54858C29.88 6.65733 29.8188 6.75688 29.7395 6.84112C29.6601 6.92536 29.5644 6.99249 29.4581 7.03838C29.3517 7.08426 29.2371 7.10794 29.1213 7.10794C29.0055 7.10794 28.8908 7.08426 28.7845 7.03838C28.6782 6.99249 28.5824 6.92536 28.5031 6.84112C28.4238 6.75688 28.3625 6.65733 28.3232 6.54858C28.2839 6.43983 28.2673 6.3242 28.2744 6.20881V5.41369ZM28.2744 10.9795C28.2731 10.8705 28.2937 10.7623 28.3349 10.6614C28.3761 10.5604 28.4371 10.4686 28.5144 10.3916C28.5916 10.3145 28.6835 10.2536 28.7847 10.2124C28.8859 10.1713 28.9942 10.1508 29.1035 10.1521C29.216 10.1477 29.3283 10.1662 29.4334 10.2064C29.5386 10.2466 29.6345 10.3076 29.7154 10.3859C29.7962 10.4642 29.8603 10.558 29.9037 10.6617C29.9472 10.7654 29.9691 10.8768 29.9681 10.9892V26.381C29.9548 26.5961 29.8598 26.7981 29.7024 26.9457C29.5451 27.0933 29.3372 27.1755 29.1213 27.1755C28.9053 27.1755 28.6975 27.0933 28.5402 26.9457C28.3828 26.7981 28.2878 26.5961 28.2744 26.381V10.9795Z" fill="white"/>
    <path d="M47.6561 17.1075C47.657 16.4154 47.521 15.7299 47.2561 15.0903C46.9911 14.4507 46.6023 13.8696 46.112 13.3802C45.6217 12.8908 45.0394 12.5028 44.3986 12.2383C43.7578 11.9738 43.071 11.8382 42.3776 11.839C40.9793 11.8532 39.6419 12.4119 38.6504 13.396C37.6589 14.3802 37.0917 15.712 37.0698 17.1075V26.5035C37.0418 26.6462 36.9845 26.7816 36.9014 26.9011C36.8277 26.9967 36.7324 27.0735 36.6232 27.1252C36.5139 27.1769 36.394 27.202 36.2732 27.1984H36.0724C35.9509 27.1658 35.8379 27.1077 35.7407 27.028C35.6435 26.9483 35.5645 26.8489 35.5089 26.7362C35.4966 26.7229 35.4873 26.707 35.4818 26.6897C35.4762 26.6724 35.4744 26.6541 35.4765 26.636C35.4731 26.6115 35.4617 26.5888 35.4442 26.5714V11.0116C35.4341 10.8994 35.4475 10.7863 35.4837 10.6796C35.5198 10.5729 35.5778 10.4748 35.6539 10.3917C35.7301 10.3086 35.8227 10.2422 35.926 10.1968C36.0293 10.1514 36.1409 10.1279 36.2538 10.1279C36.3666 10.1279 36.4782 10.1514 36.5815 10.1968C36.6848 10.2422 36.7774 10.3086 36.8536 10.3917C36.9298 10.4748 36.9877 10.5729 37.0239 10.6796C37.06 10.7863 37.0734 10.8994 37.0634 11.0116V12.6277C37.9759 11.5367 39.2031 10.7529 40.5779 10.383C41.9527 10.0131 43.4084 10.0751 44.7467 10.5605C46.0849 11.0459 47.2408 11.9311 48.057 13.0957C48.8731 14.2602 49.3098 15.6475 49.3077 17.0687V26.3484C49.3077 26.5678 49.2204 26.7783 49.0649 26.9335C48.9094 27.0886 48.6986 27.1758 48.4787 27.1758C48.2588 27.1758 48.048 27.0886 47.8925 26.9335C47.737 26.7783 47.6497 26.5678 47.6497 26.3484V17.1075H47.6561Z" fill="white"/>
    <path d="M67.1999 23.8956C66.4429 24.9247 65.4534 25.7611 64.3117 26.3368C63.17 26.9124 61.9083 27.2111 60.6292 27.2086C56.0177 27.2086 52.368 23.3688 52.368 18.6982C52.368 13.9598 56.0177 10.12 60.6292 10.12C61.91 10.1271 63.1714 10.4334 64.3124 11.0143C65.4533 11.5952 66.4422 12.4346 67.1999 13.4653V3.6588C67.2132 3.44367 67.3083 3.24171 67.4656 3.09408C67.623 2.94645 67.8308 2.86426 68.0467 2.86426C68.2627 2.86426 68.4705 2.94645 68.6279 3.09408C68.7852 3.24171 68.8803 3.44367 68.8936 3.6588V26.3812C68.8803 26.5963 68.7852 26.7983 68.6279 26.9459C68.4705 27.0936 68.2627 27.1757 68.0467 27.1757C67.8308 27.1757 67.623 27.0936 67.4656 26.9459C67.3083 26.7983 67.2132 26.5963 67.1999 26.3812V23.8956ZM67.1999 18.9956V18.4235C67.0671 14.7776 64.1817 11.8298 60.6292 11.8298C57.0767 11.8298 54.0585 14.9101 54.0585 18.6886C54.0585 22.467 57.0119 25.4762 60.6292 25.4762C64.1493 25.5344 67.0671 22.606 67.1999 18.9956Z" fill="white"/>
    <path d="M72.1774 18.7462C72.1774 14.0111 75.8627 10.168 80.4741 10.168C84.8557 10.168 88.3726 13.6458 88.7061 18.116V18.2485C88.7033 18.3536 88.6793 18.4571 88.6356 18.5528C88.5919 18.6486 88.5294 18.7345 88.4517 18.8057C88.3741 18.8768 88.283 18.9317 88.1837 18.967C88.0844 19.0023 87.9791 19.0174 87.8739 19.0113H73.8354C74.0006 22.7542 76.954 25.5694 80.4709 25.5694C81.5793 25.5669 82.6682 25.2791 83.6326 24.7339C84.597 24.1886 85.4042 23.4044 85.9762 22.4568C86.0295 22.3617 86.1021 22.2787 86.1893 22.2132C86.2766 22.1476 86.3765 22.1009 86.4828 22.0759C86.5891 22.051 86.6994 22.0484 86.8068 22.0684C86.9141 22.0883 87.0162 22.1303 87.1064 22.1918C87.203 22.252 87.2867 22.3308 87.3525 22.4237C87.4183 22.5165 87.4649 22.6215 87.4897 22.7325C87.5144 22.8436 87.5167 22.9584 87.4965 23.0703C87.4763 23.1823 87.4339 23.289 87.3719 23.3845C86.644 24.5613 85.6287 25.5345 84.4212 26.2129C83.2136 26.8913 81.8533 27.2526 80.4677 27.2631C75.895 27.2082 72.1774 23.3683 72.1774 18.7462ZM73.9714 17.3887H86.925C86.6794 15.8625 85.9031 14.4715 84.7324 13.4596C83.5616 12.4477 82.0712 11.8797 80.5227 11.8552C77.2908 11.8067 74.6029 14.1242 73.9714 17.3726V17.3887Z" fill="white"/>
    <path d="M104.234 17.1076C104.235 16.4156 104.1 15.7302 103.835 15.0907C103.571 14.4511 103.182 13.8699 102.692 13.3805C102.202 12.8911 101.62 12.503 100.979 12.2385C100.339 11.974 99.6521 11.8382 98.9589 11.8391C97.5606 11.8533 96.2232 12.412 95.2317 13.3961C94.2402 14.3803 93.673 15.7121 93.6511 17.1076V26.5036C93.6231 26.6463 93.5658 26.7817 93.4827 26.9012C93.4085 26.9962 93.313 27.0726 93.2039 27.1242C93.0949 27.1759 92.9752 27.2013 92.8545 27.1985H92.6537C92.5321 27.1663 92.4188 27.1084 92.3216 27.0286C92.2244 26.9489 92.1455 26.8492 92.0902 26.7363C92.0779 26.7229 92.0686 26.7071 92.063 26.6898C92.0575 26.6725 92.0557 26.6542 92.0578 26.6361C92.0538 26.6111 92.0412 26.5883 92.0222 26.5715V11.0117C92.0077 10.897 92.0177 10.7805 92.0518 10.67C92.0858 10.5595 92.143 10.4575 92.2196 10.3707C92.2961 10.284 92.3904 10.2145 92.4959 10.1669C92.6015 10.1193 92.716 10.0947 92.8318 10.0947C92.9477 10.0947 93.0622 10.1193 93.1677 10.1669C93.2733 10.2145 93.3675 10.284 93.4441 10.3707C93.5207 10.4575 93.5779 10.5595 93.6119 10.67C93.6459 10.7805 93.656 10.897 93.6414 11.0117V12.6278C94.5534 11.5326 95.7819 10.7452 97.1591 10.3732C98.5363 10.0012 99.995 10.0627 101.336 10.5494C102.677 11.036 103.834 11.9241 104.65 13.0921C105.467 14.2602 105.901 15.6513 105.896 17.0753V26.3485C105.882 26.5594 105.789 26.7574 105.635 26.9021C105.48 27.0468 105.277 27.1273 105.065 27.1273C104.853 27.1273 104.649 27.0468 104.495 26.9021C104.341 26.7574 104.247 26.5594 104.234 26.3485V17.1076Z" fill="white"/>
    <path d="M110.164 22.266L112.984 24.2861C113.013 24.3042 113.036 24.3284 113.054 24.357C113.071 24.3855 113.082 24.4177 113.085 24.451V24.5188C113.082 24.5568 113.072 24.5939 113.055 24.6278C113.038 24.6617 113.014 24.6917 112.984 24.716L110.164 26.7361H115.407C115.468 26.7361 115.528 26.7606 115.572 26.8043C115.615 26.8479 115.64 26.9071 115.64 26.9688C115.64 27.0306 115.615 27.0898 115.572 27.1334C115.528 27.177 115.468 27.2016 115.407 27.2016H109.535C109.501 27.2016 109.467 27.1923 109.437 27.1747C109.408 27.157 109.383 27.1317 109.367 27.1014L109.335 27.069C109.304 27.02 109.294 26.9611 109.307 26.9049C109.32 26.8486 109.354 26.7996 109.403 26.7684L112.521 24.5059L109.403 22.2434C109.354 22.2128 109.32 22.1644 109.307 22.1087C109.295 22.053 109.304 21.9945 109.335 21.946L109.403 21.8781C109.435 21.8458 109.467 21.8458 109.535 21.8458H115.407C115.438 21.8449 115.468 21.8503 115.497 21.8617C115.526 21.8731 115.552 21.8902 115.574 21.912C115.595 21.9338 115.613 21.9598 115.624 21.9884C115.635 22.0171 115.641 22.0477 115.64 22.0785C115.64 22.1091 115.635 22.1394 115.623 22.1676C115.611 22.1959 115.594 22.2215 115.572 22.2429C115.551 22.2644 115.525 22.2812 115.496 22.2924C115.468 22.3036 115.437 22.3089 115.407 22.308H110.164V22.266Z" fill="#37A45F"/>
    <path d="M109.458 19.9809C109.427 19.9818 109.396 19.9764 109.367 19.965C109.339 19.9537 109.313 19.9366 109.291 19.9148C109.269 19.893 109.252 19.867 109.241 19.8383C109.229 19.8097 109.224 19.779 109.225 19.7482V16.4837C109.225 16.422 109.249 16.3628 109.293 16.3191C109.337 16.2755 109.396 16.251 109.458 16.251C109.52 16.251 109.579 16.2755 109.623 16.3191C109.666 16.3628 109.691 16.422 109.691 16.4837V19.5317H112.214V16.8813C112.213 16.8509 112.218 16.8206 112.229 16.7924C112.241 16.7641 112.257 16.7385 112.279 16.717C112.301 16.6955 112.326 16.6786 112.355 16.6674C112.383 16.6562 112.413 16.6509 112.444 16.6518C112.474 16.6509 112.505 16.6562 112.533 16.6674C112.562 16.6786 112.587 16.6954 112.609 16.7168C112.631 16.7383 112.648 16.7639 112.66 16.7922C112.671 16.8204 112.677 16.8507 112.677 16.8813V19.5317H115.199V16.4837C115.199 16.4532 115.205 16.4229 115.216 16.3946C115.228 16.3663 115.245 16.3407 115.267 16.3193C115.289 16.2978 115.315 16.281 115.343 16.2698C115.372 16.2586 115.402 16.2533 115.433 16.2542C115.463 16.2533 115.493 16.2586 115.522 16.2699C115.55 16.2811 115.576 16.2979 115.597 16.3194C115.619 16.3409 115.636 16.3666 115.647 16.3948C115.658 16.4231 115.663 16.4533 115.663 16.4837V19.7805C115.658 19.8371 115.631 19.8896 115.588 19.927C115.545 19.9643 115.489 19.9837 115.433 19.9809H109.458Z" fill="#37A45F"/>
    <path d="M115.287 14.7803L112.466 12.7279L109.646 14.7803C109.602 14.815 109.546 14.8311 109.49 14.825C109.434 14.819 109.383 14.7913 109.348 14.748C109.313 14.7036 109.297 14.6473 109.303 14.5911C109.309 14.535 109.336 14.4834 109.38 14.4474L112.104 12.5081L109.38 10.5688C109.343 10.5319 109.322 10.4827 109.319 10.4307C109.317 10.3788 109.334 10.3278 109.367 10.2875C109.4 10.2473 109.447 10.2208 109.498 10.213C109.55 10.2053 109.602 10.2168 109.646 10.2455L112.466 12.298L115.287 10.21C115.309 10.1919 115.334 10.1784 115.361 10.1702C115.388 10.162 115.416 10.1593 115.444 10.1623C115.472 10.1654 115.5 10.174 115.524 10.1877C115.549 10.2015 115.571 10.22 115.588 10.2423C115.62 10.2746 115.62 10.307 115.62 10.3748C115.621 10.409 115.612 10.4426 115.594 10.4717C115.576 10.5009 115.551 10.5244 115.52 10.5397L112.832 12.479L115.52 14.4183C115.551 14.4341 115.577 14.4582 115.594 14.488C115.612 14.5177 115.621 14.5518 115.62 14.5864C115.62 14.6187 115.588 14.6834 115.588 14.7189C115.575 14.746 115.557 14.7697 115.533 14.7882C115.51 14.8067 115.482 14.8195 115.453 14.8255C115.424 14.8314 115.393 14.8305 115.365 14.8226C115.336 14.8148 115.309 14.8003 115.287 14.7803Z" fill="#37A45F"/>
    <path d="M17.4873 34.4521H20.376V34.9079H17.9569V36.524H20.2238V36.9442H17.9569V39.1098H17.4873V34.4521Z" fill="white"/>
    <path d="M21.7782 34.4521H22.2413V39.1098H21.7782V34.4521Z" fill="white"/>
    <path d="M24.5924 35.1438V39.1098H24.139V34.4521H24.6928L27.2479 38.4439V34.4586H27.7013V39.1098H27.1346L24.5924 35.1438Z" fill="white"/>
    <path d="M29.2006 39.1095L30.9784 34.4648H31.4836L33.268 39.1095H32.7466L32.2608 37.8166H30.198L29.7252 39.1095H29.2006ZM32.1151 37.3738L31.2375 34.9949L30.3631 37.3738H32.1151Z" fill="white"/>
    <path d="M35.2175 35.1438V39.1098H34.7642V34.4521H35.3179L37.8892 38.4439V34.4586H38.3426V39.1098H37.7597L35.2175 35.1438Z" fill="white"/>
    <path d="M40.9787 38.8441C40.6585 38.6401 40.3999 38.3529 40.2306 38.0135C40.0448 37.6379 39.9515 37.2234 39.9586 36.8046C39.9498 36.3732 40.043 35.9458 40.2306 35.557C40.3969 35.2075 40.6608 34.9133 40.9905 34.7098C41.3203 34.5062 41.7018 34.402 42.0894 34.4096C42.4046 34.4046 42.7165 34.4744 42.9994 34.6132C43.2615 34.7422 43.4899 34.9303 43.6665 35.1627C43.8389 35.3919 43.9504 35.661 43.9904 35.9449H43.4981C43.4543 35.7443 43.3633 35.5571 43.2326 35.3986C43.1023 35.2325 42.9363 35.0978 42.7468 35.0043C42.5444 34.909 42.323 34.8604 42.0992 34.8621C41.8006 34.8571 41.5078 34.944 41.2604 35.111C41.0093 35.2845 40.8109 35.5239 40.6872 35.8026C40.5438 36.1192 40.473 36.4637 40.48 36.8111C40.4734 37.1456 40.5431 37.4772 40.684 37.7808C40.8068 38.0441 41.0009 38.2679 41.2442 38.4272C41.4896 38.5867 41.7773 38.6689 42.07 38.6631C42.3005 38.6653 42.5285 38.6156 42.7371 38.5177C42.9329 38.4256 43.1064 38.2921 43.2455 38.1266C43.378 37.9697 43.4683 37.7817 43.5079 37.5804H44.0001C43.9582 37.8686 43.8471 38.1425 43.6762 38.3787C43.498 38.6141 43.2659 38.8036 42.9994 38.9314C42.7108 39.0703 42.3936 39.14 42.0732 39.135C41.6879 39.1457 41.3077 39.0446 40.9787 38.8441Z" fill="white"/>
    <path d="M45.6226 34.4521H46.0889V39.1098H45.6226V34.4521Z" fill="white"/>
    <path d="M47.9866 34.4521H50.9011V34.9079H48.4594V36.524H50.7619V36.9571H48.4594V38.6508H50.9011V39.1098H47.9866V34.4521Z" fill="white"/>
    <path d="M52.462 34.4517H54.3014C54.5546 34.4452 54.8059 34.496 55.0366 34.6004C55.2334 34.6926 55.3972 34.8426 55.5061 35.0303C55.6146 35.2283 55.6693 35.4511 55.6648 35.6767C55.6615 35.9085 55.5881 36.1338 55.4543 36.3232C55.3309 36.5144 55.1441 36.6563 54.9265 36.724C55.0715 36.7602 55.2024 36.839 55.3021 36.9502C55.39 37.053 55.4502 37.1765 55.477 37.309C55.5165 37.4953 55.5414 37.6845 55.5515 37.8746C55.5515 38.0912 55.5806 38.2787 55.5936 38.4338C55.6047 38.5565 55.6231 38.6785 55.6486 38.7991C55.6713 38.8966 55.7084 38.9903 55.7587 39.077H55.2406C55.2082 39.0026 55.1854 38.9244 55.1726 38.8443C55.1726 38.7635 55.1467 38.6536 55.1369 38.5211C55.1272 38.3886 55.111 38.2237 55.0981 38.0459C55.0864 37.8293 55.0627 37.6135 55.0268 37.3995C54.9913 37.2687 54.9111 37.1544 54.8002 37.0763C54.6248 36.968 54.4196 36.9182 54.214 36.9341H52.9187V39.1093H52.462V34.4517ZM54.2529 36.543C54.423 36.5455 54.5914 36.509 54.7451 36.4363C54.8862 36.373 55.0064 36.271 55.0916 36.1422C55.1768 36.0127 55.2208 35.8607 55.2179 35.7058C55.228 35.586 55.2104 35.4654 55.1667 35.3534C55.1229 35.2414 55.054 35.1408 54.9653 35.0594C54.7627 34.9018 54.5093 34.8236 54.2529 34.8396H52.9284V36.5268L54.2529 36.543Z" fill="white"/>
    <path d="M56.9148 39.1095L58.6894 34.4648H59.1979L60.9822 39.1095H60.4608L59.9751 37.8166H57.9122L57.4394 39.1095H56.9148ZM59.8294 37.3738L58.9388 34.982L58.0644 37.3609L59.8294 37.3738Z" fill="white"/>
    <path d="M65.0076 34.4517H66.7045C67.0973 34.4433 67.4849 34.5428 67.825 34.7393C68.1453 34.9318 68.402 35.2139 68.5633 35.5506C68.7432 35.9266 68.832 36.3396 68.8224 36.7562C68.831 37.1804 68.7448 37.6011 68.5698 37.9877C68.4163 38.3326 68.1634 38.624 67.8433 38.8249C67.5232 39.0258 67.1504 39.1271 66.7725 39.1157H65.0076V34.4517ZM66.6721 38.6535C66.9849 38.66 67.2932 38.5794 67.5627 38.4208C67.8174 38.2655 68.0229 38.0414 68.1553 37.7744C68.2967 37.4709 68.3676 37.1394 68.3625 36.8047C68.3701 36.4639 68.3003 36.1258 68.1585 35.8157C68.0293 35.5495 67.8272 35.3254 67.5756 35.1692C67.3181 35.0018 67.0182 34.911 66.711 34.9074L65.4739 34.9236V38.6762L66.6721 38.6535Z" fill="white"/>
    <path d="M70.4546 34.4521H73.3692V34.9079H70.9209V36.524H73.2234V36.9571H70.9209V38.6508H73.3627V39.1098H70.4481L70.4546 34.4521Z" fill="white"/>
    <path d="M77.7701 35.1438V39.1098H77.3168V34.4521H77.8705L80.4256 38.4439V34.4586H80.879V39.1098H80.3123L77.7701 35.1438Z" fill="white"/>
    <path d="M82.7443 34.4521H85.6588V34.9079H83.2268V36.524H85.5293V36.9571H83.2268V38.6508H85.6685V39.1098H82.754L82.7443 34.4521Z" fill="white"/>
    <path d="M87.822 38.8444C87.4963 38.6421 87.2321 38.3549 87.0578 38.0138C86.8668 37.6398 86.7712 37.2246 86.7793 36.8049C86.7712 36.3735 86.8679 35.9466 87.061 35.5605C87.2368 35.2112 87.5057 34.917 87.8382 34.7105C88.1407 34.5293 88.4831 34.4249 88.8353 34.4063C89.1876 34.3877 89.5391 34.4555 89.859 34.6038C90.1305 34.7294 90.3672 34.9191 90.5488 35.1565C90.7226 35.3874 90.8341 35.6589 90.8726 35.9452H90.3804C90.3421 35.743 90.253 35.5539 90.1213 35.3957C89.9795 35.2243 89.8015 35.0863 89.5999 34.9917C89.3975 34.8956 89.1764 34.8448 88.9522 34.843C88.6483 34.839 88.3503 34.9269 88.0973 35.0951C87.8347 35.2702 87.6252 35.514 87.4917 35.7997C87.3399 36.1152 87.2634 36.4615 87.2683 36.8114C87.2618 37.1473 87.3362 37.4798 87.4853 37.7811C87.6243 38.0445 87.8297 38.2673 88.0811 38.4275C88.3324 38.5874 88.6251 38.6706 88.9231 38.6667C89.1477 38.662 89.3686 38.6091 89.5708 38.5115C89.8188 38.3942 90.0304 38.212 90.1832 37.9844C90.336 37.7568 90.4243 37.4922 90.4387 37.2187H89.0138V36.7597H90.8921V39.1095H90.4581V38.2659C90.303 38.5423 90.0699 38.7671 89.7878 38.9123C89.5126 39.0586 89.2057 39.1351 88.894 39.1353C88.5166 39.1389 88.1457 39.0382 87.822 38.8444Z" fill="white"/>
    <path d="M93.5637 38.8512C93.2319 38.6362 92.9645 38.3358 92.7897 37.9817C92.5994 37.6086 92.5027 37.1948 92.508 36.7761C92.5018 36.3535 92.5973 35.9357 92.7865 35.5576C92.9596 35.2095 93.225 34.9154 93.554 34.7075C93.8902 34.5034 94.2761 34.3955 94.6696 34.3955C95.0631 34.3955 95.449 34.5034 95.7852 34.7075C96.1145 34.9178 96.3799 35.214 96.5527 35.564C96.7411 35.9436 96.8366 36.3623 96.8312 36.7858C96.835 37.2037 96.7372 37.6163 96.5463 37.9882C96.37 38.3406 96.1014 38.6388 95.769 38.8512C95.4403 39.0638 95.0565 39.1761 94.6647 39.1744C94.2738 39.1772 93.8908 39.0648 93.5637 38.8512ZM95.5326 38.4633C95.7929 38.2952 96.0023 38.0594 96.1382 37.7813C96.2877 37.4801 96.3632 37.1478 96.3584 36.8117C96.3635 36.4638 96.2905 36.1192 96.1447 35.8032C96.0129 35.5184 95.8057 35.2748 95.5456 35.0986C95.2816 34.9279 94.9728 34.8391 94.6583 34.8433C94.349 34.8403 94.0457 34.9292 93.7871 35.0986C93.5273 35.2728 93.321 35.5156 93.1913 35.8C93.048 36.1133 92.9761 36.4544 92.9808 36.7987C92.9762 37.1341 93.0493 37.466 93.1945 37.7684C93.3273 38.0455 93.5319 38.282 93.7871 38.4536C94.0423 38.6253 94.3441 38.7144 94.6518 38.709C94.9633 38.7157 95.2698 38.6303 95.5326 38.4633Z" fill="white"/>
    <path d="M99.2503 38.844C98.93 38.6391 98.6705 38.3523 98.499 38.0133C98.3132 37.6377 98.22 37.2233 98.227 36.8045C98.2183 36.373 98.3114 35.9456 98.499 35.5568C98.6678 35.2105 98.9303 34.9183 99.2568 34.7132C99.5873 34.5092 99.9693 34.4038 100.358 34.4094C100.674 34.4048 100.987 34.4745 101.271 34.613C101.526 34.7442 101.748 34.9322 101.919 35.1625C102.091 35.3918 102.202 35.6609 102.243 35.9447H101.75C101.705 35.7448 101.614 35.5579 101.485 35.3984C101.351 35.2319 101.182 35.0972 100.989 35.0041C100.787 34.909 100.566 34.8604 100.342 34.8619C100.043 34.8574 99.7505 34.9442 99.5029 35.1108C99.2535 35.2862 99.0555 35.525 98.9297 35.8025C98.7889 36.1198 98.7193 36.464 98.7257 36.8109C98.7181 37.1452 98.7868 37.4767 98.9265 37.7806C99.0515 38.0435 99.2464 38.2671 99.49 38.427C99.7353 38.5865 100.023 38.6687 100.316 38.663C100.539 38.6649 100.76 38.6179 100.963 38.5251C101.166 38.4324 101.347 38.2963 101.491 38.1264C101.622 37.9687 101.713 37.7811 101.754 37.5802H102.246C102.204 37.8684 102.093 38.1422 101.922 38.3785C101.745 38.6138 101.514 38.8033 101.248 38.9312C100.96 39.0698 100.643 39.1395 100.322 39.1349C99.9446 39.1412 99.5728 39.0403 99.2503 38.844Z" fill="white"/>
    <path d="M103.894 34.4521H104.357V39.1098H103.894V34.4521Z" fill="white"/>
    <path d="M107.078 38.8512C106.746 38.6362 106.478 38.3358 106.304 37.9817C106.114 37.6083 106.019 37.1946 106.025 36.7761C106.018 36.3538 106.112 35.9359 106.3 35.5576C106.473 35.2095 106.739 34.9154 107.068 34.7075C107.404 34.5034 107.79 34.3955 108.183 34.3955C108.577 34.3955 108.963 34.5034 109.299 34.7075C109.628 34.9178 109.894 35.214 110.067 35.564C110.255 35.9436 110.35 36.3623 110.345 36.7858C110.349 37.2037 110.251 37.6163 110.06 37.9882C109.884 38.3406 109.615 38.6388 109.283 38.8512C108.955 39.0634 108.572 39.1757 108.182 39.1744C107.79 39.1777 107.406 39.0652 107.078 38.8512ZM109.053 38.4601C109.313 38.292 109.523 38.0562 109.659 37.7781C109.808 37.4769 109.883 37.1445 109.879 36.8084C109.884 36.4606 109.811 36.116 109.665 35.8C109.533 35.5151 109.326 35.2715 109.066 35.0954C108.803 34.9251 108.495 34.8363 108.182 34.84C107.871 34.8371 107.567 34.9259 107.307 35.0954C107.048 35.2696 106.841 35.5124 106.712 35.7968C106.568 36.1101 106.496 36.4512 106.501 36.7955C106.496 37.1309 106.57 37.4627 106.715 37.7652C106.848 38.0422 107.052 38.2788 107.307 38.4504C107.563 38.6221 107.864 38.7112 108.172 38.7058C108.483 38.7135 108.79 38.6291 109.053 38.4633V38.4601Z" fill="white"/>
    <path d="M112.677 38.9833C112.412 38.8784 112.18 38.7055 112.003 38.4823C111.825 38.2468 111.722 37.9628 111.708 37.6678H112.236C112.251 37.818 112.296 37.9635 112.37 38.0954C112.444 38.2272 112.544 38.3424 112.664 38.4338C112.947 38.6333 113.289 38.7313 113.635 38.7118C113.843 38.7167 114.049 38.6782 114.241 38.5987C114.393 38.5331 114.521 38.4234 114.61 38.2839C114.698 38.1444 114.742 37.9815 114.736 37.8165C114.743 37.7105 114.722 37.6046 114.678 37.5082C114.633 37.4118 114.565 37.3278 114.481 37.2638C114.21 37.1011 113.907 36.9996 113.593 36.9664C113.113 36.917 112.65 36.7566 112.243 36.4977C112.112 36.4019 112.007 36.276 111.936 36.1308C111.865 35.9856 111.83 35.8254 111.835 35.6638C111.83 35.4319 111.902 35.2049 112.039 35.0174C112.181 34.8211 112.372 34.6651 112.593 34.5649C112.837 34.452 113.104 34.3946 113.373 34.3968C113.839 34.3699 114.298 34.511 114.668 34.7944C114.826 34.926 114.951 35.0917 115.034 35.2787C115.118 35.4657 115.158 35.6692 115.151 35.8739H114.665C114.661 35.7278 114.626 35.5842 114.563 35.4523C114.5 35.3203 114.41 35.203 114.299 35.1079C114.041 34.9197 113.725 34.8261 113.405 34.8429C113.219 34.8394 113.033 34.8758 112.861 34.9495C112.713 35.0104 112.583 35.1097 112.486 35.2372C112.395 35.3522 112.346 35.4947 112.346 35.6412C112.345 35.7532 112.374 35.8635 112.431 35.9599C112.488 36.0563 112.571 36.135 112.67 36.1874C112.947 36.3401 113.25 36.4388 113.564 36.4783C113.91 36.5271 114.248 36.6182 114.571 36.7499C114.784 36.8349 114.966 36.9826 115.093 37.1733C115.205 37.3698 115.26 37.5937 115.251 37.8197C115.255 38.0665 115.182 38.3084 115.041 38.5114C114.892 38.7188 114.688 38.8802 114.451 38.9768C114.173 39.0915 113.875 39.1476 113.574 39.1417C113.267 39.1477 112.963 39.0939 112.677 38.9833Z" fill="white"/>
    <path fill-rule="evenodd" clip-rule="evenodd" d="M135.068 0.000276424L134.982 44.0003L134.335 43.999L134.42 -0.000976562L135.068 0.000276424Z" fill="white" fill-opacity="0.3"/>
    <path d="M8.93476 12.7959H4.45605V17.279H8.93476V12.7959Z" fill="url(#paint0_linear_1_1260)"/>
    <path d="M4.45603 17.2793H0V21.7268H4.45603V17.2793Z" fill="url(#paint1_linear_1_1260)"/>
    <path d="M4.47556 8.34863H0.0195312V12.7961H4.47556V8.34863Z" fill="url(#paint2_linear_1_1260)"/>
  </g>
  <defs>
    <linearGradient id="paint0_linear_1_1260" x1="4.45605" y1="15.039" x2="8.93476" y2="15.039" gradientUnits="userSpaceOnUse">
      <stop stop-color="#53A490"/>
      <stop offset="0.38" stop-color="#5CB189"/>
      <stop offset="0.78" stop-color="#74D675"/>
      <stop offset="1" stop-color="#7EE46D"/>
    </linearGradient>
    <linearGradient id="paint1_linear_1_1260" x1="0" y1="19.5031" x2="4.45603" y2="19.5031" gradientUnits="userSpaceOnUse">
      <stop stop-color="#53A490"/>
      <stop offset="0.38" stop-color="#5CB189"/>
      <stop offset="0.78" stop-color="#74D675"/>
      <stop offset="1" stop-color="#7EE46D"/>
    </linearGradient>
    <linearGradient id="paint2_linear_1_1260" x1="0.0195312" y1="10.5692" x2="4.47556" y2="10.5692" gradientUnits="userSpaceOnUse">
      <stop stop-color="#53A490"/>
      <stop offset="0.38" stop-color="#5CB189"/>
      <stop offset="0.78" stop-color="#74D675"/>
      <stop offset="1" stop-color="#7EE46D"/>
    </linearGradient>
    <clipPath id="clip0_1_1260">
      <rect width="195" height="44" fill="white"/>
    </clipPath>
  </defs>
</svg>