<svg width="144" height="52" viewBox="0 0 144 52" fill="none" xmlns="http://www.w3.org/2000/svg">
<path d="M144 0H0V52H144V0Z" fill="url(#paint0_linear_1_661)"/>
<path d="M39.0593 42.5385L39.8852 37.598C40.2834 38.3906 40.9695 38.7869 41.9437 38.7869C42.7231 38.7869 43.4177 38.5844 44.0276 38.1793C44.6376 37.7742 45.1098 37.2216 45.4444 36.5214C45.7791 35.8213 45.9464 35.0441 45.9464 34.1899C45.9464 33.2652 45.7113 32.5189 45.2411 31.9508C44.771 31.3828 44.1123 31.0988 43.2652 31.0988C42.2148 31.0988 41.3507 31.4995 40.673 32.3009L40.5205 31.3102H39.1355L37.2422 42.5385H39.0593ZM41.8166 37.0696C41.3507 37.0696 40.9822 36.9155 40.7111 36.6073C40.4401 36.2991 40.3045 35.8852 40.3045 35.3656C40.3045 35.2687 40.313 35.1322 40.3299 34.9561L40.3681 34.7051C40.4867 34.1415 40.7408 33.6857 41.1305 33.3379C41.5201 32.99 41.9861 32.8161 42.5282 32.8161C42.9941 32.8161 43.3648 32.9724 43.6401 33.285C43.9154 33.5977 44.053 34.0182 44.053 34.5466C44.053 35.0309 43.9556 35.4647 43.7608 35.8477C43.5659 36.2308 43.297 36.5302 42.9539 36.746C42.6108 36.9618 42.2317 37.0696 41.8166 37.0696ZM49.6313 38.7869C50.7157 38.7869 51.5797 38.3686 52.2235 37.532C52.2744 37.9283 52.4184 38.2211 52.6556 38.4104C52.8928 38.5998 53.2062 38.6944 53.5959 38.6944C53.9771 38.6944 54.4472 38.5976 55.0063 38.4038L54.9809 36.9508C54.7607 36.986 54.6209 37.0036 54.5616 37.0036C54.4006 37.0036 54.282 36.9684 54.2058 36.8979C54.1296 36.8275 54.0914 36.713 54.0914 36.5545C54.0914 36.44 54.0999 36.3475 54.1168 36.2771L54.9428 31.3102H53.1257L52.9351 32.4462C52.5454 31.5479 51.8127 31.0988 50.7368 31.0988C50.0422 31.0988 49.4026 31.2992 48.8181 31.6999C48.2336 32.1006 47.7719 32.6532 47.4331 33.3577C47.0942 34.0622 46.9248 34.8504 46.9248 35.7222C46.9248 36.6469 47.1641 37.3889 47.6427 37.9481C48.1213 38.5073 48.7842 38.7869 49.6313 38.7869ZM50.3429 37.0696C49.8685 37.0696 49.4979 36.9155 49.2311 36.6073C48.9642 36.2991 48.8308 35.8808 48.8308 35.3524C48.8308 34.8768 48.924 34.4453 49.1104 34.0578C49.2967 33.6703 49.5572 33.3665 49.8918 33.1463C50.2264 32.9262 50.6098 32.8161 51.0418 32.8161C51.5247 32.8161 51.8974 32.968 52.16 33.2718C52.4226 33.5757 52.5539 33.9918 52.5539 34.5201C52.5539 34.617 52.5497 34.6875 52.5412 34.7315L52.4395 35.4052C52.2955 35.916 52.035 36.3211 51.6581 36.6205C51.2811 36.9199 50.8427 37.0696 50.3429 37.0696ZM58.0941 38.5756L58.6405 35.4052V35.3524L58.7167 34.9032C58.8438 34.4101 59.0471 33.9741 59.3266 33.5955C59.6062 33.2168 59.9323 33.0274 60.3051 33.0274C60.5761 33.0274 60.843 33.1155 61.1056 33.2916L62.2492 31.5215C62.0544 31.407 61.8511 31.308 61.6393 31.2243C61.4275 31.1406 61.1861 31.0988 60.915 31.0988C60.2034 31.0988 59.585 31.4951 59.0598 32.2877L58.8946 31.3102H57.4969L56.277 38.5756H58.0941ZM65.4005 38.7869C65.8325 38.7869 66.3112 38.6988 66.8364 38.5227L67.1286 36.9772C66.6881 37.1181 66.3281 37.1885 66.0485 37.1885C65.4217 37.1885 65.1082 36.8407 65.1082 36.145C65.1082 35.96 65.1252 35.7751 65.1591 35.5901L65.6165 32.8557H67.2938L67.7004 31.3102H65.8707L66.2519 29.0381H64.4221L64.0409 31.3102H62.9862L62.7194 32.8557H63.774L63.342 35.4184C63.2827 35.7531 63.253 36.0833 63.253 36.4092C63.253 37.2105 63.4479 37.8072 63.8376 38.1991C64.2272 38.591 64.7482 38.7869 65.4005 38.7869ZM70.0258 38.5756L70.7882 34.1106C71.1355 33.732 71.4722 33.4391 71.7984 33.2322C72.1245 33.0252 72.4274 32.9218 72.7069 32.9218C73.0119 32.9218 73.2321 33.001 73.3677 33.1595C73.5032 33.3181 73.571 33.5514 73.571 33.8597C73.571 34.0534 73.554 34.2427 73.5202 34.4277L72.8086 38.5756H74.7273L75.4897 34.1106C75.5405 33.7936 75.566 33.503 75.566 33.2388C75.566 32.4902 75.3732 31.9486 74.9878 31.614C74.6024 31.2793 74.092 31.112 73.4566 31.112C72.6095 31.112 71.7836 31.5127 70.9788 32.3141L70.8263 31.3102H69.3396L68.1198 38.5756H70.0258ZM79.8863 38.7869C81.0129 38.7869 82.0464 38.4699 82.9867 37.8358L82.3768 36.5412C82.1142 36.7262 81.7584 36.9089 81.3094 37.0895C80.8605 37.27 80.4623 37.3603 80.115 37.3603C79.234 37.3603 78.7172 36.9816 78.5648 36.2242C79.9795 36.1626 81.1824 35.8918 82.1735 35.4118C83.1646 34.9319 83.6602 34.1283 83.6602 33.001C83.6602 32.3934 83.4209 31.9244 82.9423 31.5942C82.4636 31.2639 81.8643 31.0988 81.1442 31.0988C80.331 31.0988 79.5834 31.308 78.9015 31.7263C78.2196 32.1446 77.6774 32.7082 77.275 33.4171C76.8726 34.1261 76.6715 34.89 76.6715 35.709C76.6715 36.6778 76.9489 37.4329 77.5037 37.9745C78.0586 38.5161 78.8528 38.7869 79.8863 38.7869ZM78.5775 34.8504C78.7215 34.1723 79.0307 33.6153 79.5051 33.1794C79.9795 32.7434 80.5131 32.5255 81.1061 32.5255C81.4111 32.5255 81.6504 32.5937 81.8241 32.7302C81.9977 32.8667 82.0846 33.0539 82.0846 33.2916C82.0846 33.8024 81.7309 34.1789 81.0235 34.4211C80.3162 34.6633 79.5008 34.8064 78.5775 34.8504ZM86.1253 38.5756L86.6717 35.4052V35.3524L86.748 34.9032C86.875 34.4101 87.0783 33.9741 87.3579 33.5955C87.6374 33.2168 87.9636 33.0274 88.3363 33.0274C88.6074 33.0274 88.8742 33.1155 89.1368 33.2916L90.2805 31.5215C90.0856 31.407 89.8823 31.308 89.6705 31.2243C89.4587 31.1406 89.2173 31.0988 88.9462 31.0988C88.2347 31.0988 87.6163 31.4951 87.091 32.2877L86.9259 31.3102H85.5281L84.3082 38.5756H86.1253Z" fill="white"/>
<path d="M38.5698 15.1495V12.5815C38.5711 11.6434 39.3006 10.8832 40.2009 10.8818H42.6653V14.3255H44.2351V9.24609H40.2009C38.4336 9.24745 37.0013 10.74 37 12.5815V16.7853H48.3307V19.3533C48.3294 20.2914 47.5998 21.0516 46.6995 21.053H44.2351V17.6093H42.6653V22.6862H46.6995C48.4649 22.6835 49.8955 21.1929 49.8981 19.3533V15.1495H38.5698Z" fill="white"/>
<path d="M54.9591 10.3143C54.4067 11.026 54.1298 12.0566 54.1282 13.4062V14.122H53.1132V16.4588H54.1282V22.6869H56.6705V16.4588H58.7171V14.122H56.6705V13.1824C56.6705 12.041 57.06 11.4605 57.8366 11.4605C58.2266 11.4832 58.6102 11.573 58.9721 11.7262L58.9862 9.59356C58.4219 9.37341 57.8254 9.25609 57.2229 9.24674C56.3485 9.20801 55.5083 9.6042 54.9591 10.3143Z" fill="white"/>
<path d="M62.5742 14.1216H59.9894V22.6889H62.5742V14.1216Z" fill="white"/>
<path d="M61.2759 9.27815C60.9092 9.2614 60.553 9.40809 60.2963 9.68155C60.0427 9.98118 59.9114 10.3722 59.9304 10.7712C59.9178 11.1731 60.0548 11.5644 60.3128 11.8634C60.5666 12.144 60.9212 12.3017 61.2913 12.2985C61.6614 12.2952 62.0134 12.1313 62.2626 11.8461C62.51 11.5481 62.6429 11.1652 62.6356 10.7712C62.6508 10.3728 62.5151 9.98411 62.2579 9.68893C62.0012 9.41317 61.6443 9.26387 61.2759 9.27815Z" fill="white"/>
<path d="M69.4458 13.8884C68.4906 13.8884 67.6251 14.3246 66.8492 15.197L66.4314 14.1221H64.3683V22.687H67.0452V17.4084C67.3221 17.1139 67.6405 16.865 67.9894 16.6704C68.2356 16.5242 68.5113 16.4399 68.7943 16.4245C69.0915 16.3917 69.381 16.5364 69.5426 16.7983C69.7011 17.1368 69.7735 17.512 69.7527 17.888L69.722 22.6993H72.4272V17.3641C72.4272 16.1391 72.151 15.2536 71.5987 14.7075C71.0132 14.1486 70.2391 13.8541 69.4458 13.8884Z" fill="white"/>
<path d="M77.2899 20.4286C77.0891 20.4434 76.8915 20.3703 76.7446 20.2269C76.6029 20.0368 76.5362 19.7974 76.5582 19.5578V9.65234H73.9615V19.8677C73.9615 20.9058 74.148 21.6658 74.5517 22.143C74.9762 22.6299 75.5878 22.8926 76.2182 22.8588C76.8429 22.8424 77.4599 22.7108 78.0406 22.4702L77.6535 20.3818C77.5344 20.4116 77.4124 20.4273 77.2899 20.4286Z" fill="white"/>
<path d="M85.3134 14.4316C84.608 14.0532 83.8241 13.8615 83.0308 13.8733C82.2321 13.8596 81.4421 14.0487 80.7292 14.4242C80.0628 14.7827 79.5102 15.3346 79.1382 16.0132C78.7434 16.7471 78.5445 17.5778 78.5623 18.4189C78.5416 19.2542 78.7391 20.0798 79.1335 20.8073C79.5081 21.4801 80.0604 22.0265 80.7245 22.3816C81.438 22.7608 82.23 22.9516 83.0308 22.9375C83.9065 22.9682 84.7728 22.7415 85.5306 22.2832C86.1721 21.8809 86.6885 21.2941 87.0178 20.5933C87.3316 19.9153 87.4931 19.1717 87.4899 18.4189C87.5068 17.5824 87.3053 16.7569 86.9068 16.0305C86.5319 15.3509 85.9793 14.7964 85.3134 14.4316ZM84.3692 19.9316C84.0328 20.3441 83.5396 20.5818 83.0202 20.5818C82.5007 20.5818 82.0075 20.3441 81.6711 19.9316C81.3722 19.4869 81.2175 18.9543 81.2297 18.4115C81.2179 17.8623 81.3733 17.3233 81.6735 16.8717C82.0085 16.4569 82.5022 16.2175 83.0225 16.2175C83.5428 16.2175 84.0365 16.4569 84.3716 16.8717C84.6752 17.3218 84.8324 17.8615 84.8201 18.4115C84.8312 18.9553 84.6739 19.4883 84.3716 19.9316H84.3692Z" fill="white"/>
<path d="M95.0507 14.4316C94.3439 14.0524 93.5583 13.8607 92.7633 13.8733C91.9646 13.8596 91.1747 14.0487 90.4618 14.4242C89.7953 14.7827 89.2427 15.3346 88.8708 16.0132C88.4771 16.7475 88.2782 17.5779 88.2948 18.4189C88.2768 19.2546 88.4758 20.0798 88.8708 20.8073C89.2454 21.4801 89.7977 22.0265 90.4618 22.3816C91.1741 22.7591 91.9643 22.9491 92.7633 22.935C93.6404 22.9679 94.5086 22.7419 95.2679 22.2832C95.9099 21.8815 96.4265 21.2946 96.755 20.5933C97.0688 19.9153 97.2303 19.1717 97.2272 18.4189C97.2429 17.5825 97.0414 16.7573 96.6441 16.0305C96.2682 15.3517 95.7159 14.7974 95.0507 14.4316ZM94.1065 19.9316C93.7701 20.3441 93.2769 20.5818 92.7574 20.5818C92.238 20.5818 91.7448 20.3441 91.4084 19.9316C91.1112 19.4862 90.9574 18.9539 90.9693 18.4115C90.9579 17.8627 91.1123 17.324 91.4108 16.8717C91.7458 16.4569 92.2395 16.2175 92.7598 16.2175C93.2801 16.2175 93.7738 16.4569 94.1089 16.8717C94.4125 17.3218 94.5697 17.8615 94.5574 18.4115C94.5685 18.9553 94.4112 19.4883 94.1089 19.9316H94.1065Z" fill="white"/>
<path d="M106.91 16.0674C106.62 15.4111 106.158 14.8529 105.579 14.4563C104.989 14.0619 104.299 13.859 103.598 13.8733C102.488 13.8263 101.437 14.3941 100.834 15.3664L100.362 14.1217H98.4735V27.3602H101.013V21.8159C101.602 22.5637 102.434 22.9375 103.509 22.9375C104.237 22.958 104.954 22.7544 105.572 22.3521C106.153 21.9605 106.615 21.4041 106.903 20.7483C107.226 20.0184 107.387 19.2224 107.375 18.419C107.391 17.6087 107.232 16.8051 106.91 16.0674ZM104.25 19.9465C103.895 20.322 103.41 20.5335 102.904 20.5335C102.398 20.5335 101.914 20.322 101.559 19.9465C101.192 19.5233 101.001 18.9662 101.028 18.3968C101.009 17.8373 101.196 17.2916 101.552 16.8718C101.895 16.4799 102.386 16.2642 102.895 16.2814C103.407 16.2652 103.901 16.4804 104.25 16.8718C104.612 17.2948 104.801 17.8479 104.779 18.414C104.8 18.977 104.61 19.5264 104.25 19.9465Z" fill="white"/>
<defs>
<linearGradient id="paint0_linear_1_661" x1="0" y1="0" x2="14400" y2="0" gradientUnits="userSpaceOnUse">
<stop stop-color="#5955D9"/>
<stop offset="1" stop-color="#421B9B"/>
</linearGradient>
</defs>
</svg>
