<svg width="30" height="30" viewBox="0 0 30 30" fill="none" xmlns="http://www.w3.org/2000/svg">
<path d="M15.0928 26.0499C14.9823 26.0357 14.8704 26.032 14.7591 26.039C12.0161 26.039 9.27269 26.039 6.5288 26.039C3.41481 26.0339 1.04515 23.7859 1.08909 20.8823C1.11213 19.6089 1.3556 18.3473 1.81009 17.1463C2.97741 14.014 5.02983 11.4334 7.56222 9.15976C7.66522 9.06748 7.85886 9.02454 8.01061 9.0239C10.1745 9.01536 12.3379 9.01536 14.5009 9.0239C14.6931 9.03133 14.8767 9.10035 15.0207 9.21935C16.6416 10.641 18.0413 12.2674 19.1791 14.0512C19.4009 14.3966 19.6941 14.4908 19.9804 14.3306C20.2668 14.1703 20.3361 13.864 20.0937 13.543C19.2698 12.4446 18.4403 11.3462 17.5765 10.2748C17.1851 9.7884 16.7071 9.3629 16.2443 8.88548C17.0106 8.51509 17.1645 7.89605 17.159 7.16872C17.1535 6.4055 16.8239 5.87426 16.0651 5.56666C16.6487 4.78836 17.0103 3.88414 17.1157 2.93929C17.1954 2.22541 17.1494 1.51987 16.8218 0.857259C16.4943 0.194648 15.9024 -0.103334 15.132 0.0325203C14.8272 0.0901516 14.5311 0.182256 14.2503 0.306792C13.701 0.54646 13.1592 0.581064 12.6105 0.323454C11.6987 -0.104616 10.7943 -0.0975667 9.88313 0.333707C9.38599 0.568889 8.87512 0.565044 8.36768 0.341397C8.2086 0.266573 8.0454 0.199621 7.87877 0.140819C6.67232 -0.252005 5.81056 0.185677 5.50568 1.34557C5.28262 2.181 5.31713 3.05826 5.60525 3.87617C5.81125 4.46189 6.11337 5.01748 6.37431 5.5923C5.00511 6.33565 4.9179 7.95116 6.23011 8.88612C5.54345 9.63396 4.83688 10.3472 4.19485 11.1066C2.41984 13.2053 1.04377 15.5007 0.388702 18.1293C0.0680327 19.4251 -0.144831 20.7407 0.118845 22.0659C0.710745 25.0381 3.31387 27.0355 6.55421 27.0393C9.2981 27.0423 12.0418 27.0423 14.7852 27.0393C14.8853 27.0455 14.9858 27.0423 15.0853 27.0297C15.3716 26.9733 15.5405 26.8035 15.535 26.5267C15.5302 26.2659 15.3634 26.1037 15.0928 26.0499ZM6.50408 1.76595L6.5082 1.73519C6.64004 1.00657 6.98406 0.820732 7.692 1.15845C8.63822 1.60702 9.56315 1.62048 10.5073 1.17447C10.7404 1.06016 11 1.00092 11.2634 1.00193C11.5267 1.00294 11.7858 1.06416 12.018 1.18023C12.9525 1.62048 13.8781 1.62304 14.803 1.16037C14.8319 1.14563 14.8642 1.13538 14.8951 1.1232C15.5529 0.871357 15.8626 1.00913 15.9868 1.66085C16.2567 3.07899 15.7808 4.31193 14.8442 5.41094C14.7804 5.48592 14.6108 5.50899 14.4899 5.51027C13.4084 5.51732 12.3269 5.51412 11.2455 5.51412C10.164 5.51412 9.08317 5.52116 8.00169 5.50643C7.92348 5.50296 7.84678 5.48503 7.77606 5.45368C7.70533 5.42233 7.64198 5.37818 7.58969 5.32379C6.72862 4.27541 6.29534 3.10526 6.50408 1.76595ZM7.17564 6.5138H15.3702C15.9408 6.5138 16.0768 6.64196 16.0775 7.17641C16.0775 7.24946 16.0775 7.32252 16.0775 7.39493C16.0775 7.86978 15.9244 8.01461 15.4252 8.01525C14.0312 8.01525 12.6375 8.01525 11.2441 8.01525C9.86207 8.01525 8.4796 8.01525 7.09667 8.01525C6.59404 8.01525 6.44297 7.87106 6.44022 7.39942V7.21165C6.44091 6.62915 6.56176 6.5138 7.17564 6.5138Z" fill="#53A490"/>
<path d="M29.9925 17.0272C29.9925 16.71 29.7666 16.5357 29.3951 16.5274C26.9698 16.4729 24.87 15.62 22.9824 14.2461C22.5704 13.9468 22.4331 13.9474 22.017 14.2499C20.128 15.6219 18.0282 16.4742 15.6029 16.5274C15.2067 16.5364 15.011 16.7196 15.0082 17.0964C15.0027 17.9199 15.0082 18.744 15.0082 19.5675C15.0082 20.2666 15.0007 20.9651 15.0082 21.6636C15.0136 23.0478 15.4323 24.4033 16.2174 25.5777C17.6333 27.6976 19.7194 29.0382 22.1557 29.9443C22.3814 30.0186 22.6276 30.0186 22.8533 29.9443C24.4243 29.3949 25.8648 28.5637 27.0934 27.4976C28.6872 26.1058 29.7851 24.4371 29.9232 22.3711C30.0433 20.5973 29.9843 18.81 29.9925 17.0272ZM25.9611 27.1067C25.0027 27.8569 23.9259 28.4645 22.7689 28.9081C22.6384 28.9587 22.4516 28.9863 22.3294 28.9388C20.2653 28.1276 18.4717 26.9856 17.2261 25.199C16.485 24.1469 16.0878 22.9163 16.0829 21.6572C16.0691 20.2922 16.0829 18.9273 16.0829 17.5841C16.9597 17.4047 17.8071 17.2714 18.6297 17.0548C19.9604 16.7043 21.1703 16.1096 22.2779 15.3323C22.4276 15.2272 22.5313 15.1855 22.7091 15.3111C24.4306 16.5324 26.4811 17.2846 28.6329 17.4841C28.7215 17.4925 28.808 17.513 28.9275 17.5328V18.059C28.9275 19.0913 28.9014 20.1243 28.9323 21.1561C29.0058 23.6098 27.9318 25.5508 25.9611 27.1067Z" fill="#53A490"/>
<path d="M13.3824 18.7562C13.2149 17.7398 12.4156 17.1003 11.2208 17.0259C10.9465 17.017 10.6862 16.9102 10.4936 16.7276C10.3011 16.545 10.1909 16.3004 10.1858 16.0442C10.1807 15.788 10.2811 15.5398 10.4662 15.3506C10.6513 15.1614 10.9072 15.0457 11.181 15.0272C11.7633 14.9888 12.257 15.3854 12.3263 15.9468C12.3758 16.3448 12.588 16.5524 12.9141 16.5235C13.2533 16.4928 13.4442 16.223 13.3893 15.825C13.3021 15.19 13 14.644 12.3875 14.3512C11.9556 14.1467 11.7118 13.9519 11.7729 13.4604C11.8052 13.2041 11.5594 13.0368 11.2627 13.0247C10.9839 13.0131 10.7601 13.2105 10.7292 13.486C10.7175 13.6003 10.7175 13.7153 10.7292 13.8295C10.745 14.0051 10.6928 14.098 10.493 14.1704C9.54332 14.5171 8.98232 15.4213 9.14094 16.3114C9.31398 17.2983 10.1352 17.9776 11.2146 18.0263C11.869 18.0557 12.3202 18.4524 12.3312 19.0087C12.3354 19.2667 12.2331 19.5163 12.0454 19.7058C11.8577 19.8952 11.5991 20.01 11.3231 20.0263C10.7257 20.057 10.2657 19.6636 10.1929 19.0593C10.151 18.7152 9.93197 18.5114 9.62297 18.5306C9.29887 18.5498 9.09493 18.7914 9.12721 19.1522C9.18969 19.8571 9.52684 20.437 10.2053 20.7395C10.6214 20.9254 10.7841 21.1208 10.7402 21.5437C10.7106 21.8315 10.9839 22.0359 11.2751 22.0295C11.4108 22.0264 11.5401 21.975 11.6364 21.8857C11.7326 21.7964 11.7886 21.6761 11.7928 21.5495C11.8065 21.3637 11.7928 21.1753 11.7928 20.9926C11.8237 20.9708 11.8563 20.9511 11.8903 20.9337C12.9533 20.5447 13.5376 19.6924 13.3824 18.7562Z" fill="#53A490"/>
<path d="M26.4102 19.1764C26.325 19.2437 26.2502 19.3212 26.1719 19.3949C24.6043 20.8611 23.0373 22.328 21.4339 23.8288C20.5591 23.0104 19.7104 22.2158 18.8604 21.4218C18.7627 21.3218 18.6571 21.2289 18.5445 21.1437C18.3048 20.979 18.057 20.9938 17.8496 21.1899C17.6422 21.386 17.6326 21.616 17.8077 21.8409C17.8704 21.9145 17.9392 21.9833 18.0137 22.0466C18.9668 22.9387 19.9203 23.8303 20.8743 24.7214C21.3316 25.1489 21.5369 25.1508 21.986 24.7304C23.6573 23.1685 25.3282 21.6066 26.9986 20.0447C27.0536 19.9934 27.1119 19.9441 27.1621 19.8884C27.3729 19.6538 27.3735 19.3821 27.1662 19.1834C26.9588 18.9848 26.658 18.9816 26.4102 19.1764Z" fill="#53A490"/>
</svg>
