<svg xmlns="http://www.w3.org/2000/svg" width="115" height="35" viewBox="0 0 115 35" fill="none">
  <path d="M1.81546 3.94611V14.6976H7.37843V15.5783H0.799469V3.94611H1.81546Z" fill="white"/>
  <path d="M14.5686 15.5783L14.5019 13.8168C14.2688 14.4151 13.9023 14.8804 13.4027 15.2127C12.9141 15.534 12.2923 15.6946 11.5373 15.6946C10.9377 15.6946 10.4269 15.606 10.0049 15.4287C9.583 15.2404 9.25544 14.9745 9.02226 14.6311C8.80018 14.2877 8.68915 13.8778 8.68915 13.4014C8.68915 12.7035 8.95008 12.1385 9.47196 11.7064C9.99384 11.2633 10.7711 10.9919 11.8037 10.8922L14.5019 10.5931V9.89514C14.5019 9.31907 14.3076 8.8704 13.919 8.54913C13.5415 8.21679 13.014 8.05061 12.3367 8.05061C11.6927 8.05061 11.1542 8.20017 10.7211 8.49928C10.2992 8.79839 10.016 9.22491 9.87169 9.77882L9.0056 9.47971C9.21657 8.73746 9.61076 8.16693 10.1882 7.76812C10.7655 7.35822 11.4873 7.15327 12.3534 7.15327C13.3305 7.15327 14.0911 7.39699 14.6352 7.88444C15.1793 8.37188 15.4513 9.04212 15.4513 9.89514V15.5783H14.5686ZM14.5019 11.4073L11.7871 11.7231C11.0764 11.8006 10.549 11.9779 10.2048 12.2548C9.87169 12.5207 9.70514 12.8863 9.70514 13.3516C9.70514 13.8168 9.86614 14.1824 10.1882 14.4483C10.5213 14.7142 10.9932 14.8471 11.6039 14.8471C12.2479 14.8471 12.7809 14.7197 13.2028 14.4649C13.6359 14.199 13.9579 13.839 14.1688 13.3848C14.3909 12.9195 14.5019 12.3988 14.5019 11.8228V11.4073Z" fill="white"/>
  <path d="M28.1199 5.49153C27.92 5.49153 27.7423 5.42506 27.5869 5.29212C27.4425 5.14811 27.3704 4.97085 27.3704 4.76037C27.3704 4.5388 27.4425 4.35601 27.5869 4.21199C27.7423 4.06797 27.92 3.99597 28.1199 3.99597C28.3308 3.99597 28.5029 4.06797 28.6362 4.21199C28.7805 4.35601 28.8527 4.5388 28.8527 4.76037C28.8527 4.97085 28.7805 5.14811 28.6362 5.29212C28.5029 5.42506 28.3308 5.49153 28.1199 5.49153ZM28.5696 7.25298V15.5783H27.6202V8.15032H21.9073V7.25298H28.5696ZM23.1731 6.23931C23.1731 5.65217 23.2675 5.15364 23.4563 4.74375C23.645 4.32277 23.9504 4.01812 24.3723 3.82979C24.8054 3.63038 25.3772 3.55837 26.0879 3.61377V4.47787C25.3439 4.42248 24.8276 4.54988 24.5389 4.86007C24.2613 5.15918 24.1225 5.61893 24.1225 6.23931V15.5783H23.1731V6.23931Z" fill="white"/>
  <path d="M31.5214 7.26959H32.4041L32.4541 8.78178C32.6873 8.27218 33.0315 7.87336 33.4867 7.58532C33.9531 7.29729 34.5194 7.15327 35.1856 7.15327C35.8074 7.15327 36.357 7.29175 36.8345 7.56871C37.3231 7.83459 37.7006 8.23894 37.9671 8.78178C38.2447 9.31353 38.3835 9.99485 38.3835 10.8257V15.5783H37.4341V10.9254C37.4341 9.98377 37.2231 9.26368 36.8012 8.76516C36.3792 8.26664 35.7908 8.01738 35.0357 8.01738C34.2362 8.01738 33.6089 8.28326 33.1536 8.81501C32.6984 9.34677 32.4707 10.1389 32.4707 11.1913V15.5783H31.5214V7.26959Z" fill="white"/>
  <path d="M46.2695 15.5783L46.2029 13.8168C45.9697 14.4151 45.6033 14.8804 45.1036 15.2127C44.6151 15.534 43.9932 15.6946 43.2382 15.6946C42.6386 15.6946 42.1278 15.606 41.7059 15.4287C41.2839 15.2404 40.9564 14.9745 40.7232 14.6311C40.5011 14.2877 40.3901 13.8778 40.3901 13.4014C40.3901 12.7035 40.651 12.1385 41.1729 11.7064C41.6948 11.2633 42.472 10.9919 43.5047 10.8922L46.2029 10.5931V9.89514C46.2029 9.31907 46.0086 8.8704 45.6199 8.54913C45.2424 8.21679 44.715 8.05061 44.0377 8.05061C43.3936 8.05061 42.8551 8.20017 42.4221 8.49928C42.0001 8.79839 41.717 9.22491 41.5726 9.77882L40.7065 9.47971C40.9175 8.73746 41.3117 8.16693 41.8891 7.76812C42.4665 7.35822 43.1882 7.15327 44.0543 7.15327C45.0314 7.15327 45.792 7.39699 46.3361 7.88444C46.8802 8.37188 47.1523 9.04212 47.1523 9.89514V15.5783H46.2695ZM46.2029 11.4073L43.488 11.7231C42.7774 11.8006 42.25 11.9779 41.9057 12.2548C41.5726 12.5207 41.4061 12.8863 41.4061 13.3516C41.4061 13.8168 41.5671 14.1824 41.8891 14.4483C42.2222 14.7142 42.6941 14.8471 43.3048 14.8471C43.9488 14.8471 44.4818 14.7197 44.9037 14.4649C45.3368 14.199 45.6588 13.839 45.8698 13.3848C46.0919 12.9195 46.2029 12.3988 46.2029 11.8228V11.4073Z" fill="white"/>
  <path d="M49.6896 7.26959H50.5724L50.6223 8.78178C50.8555 8.27218 51.1997 7.87336 51.655 7.58532C52.1213 7.29729 52.6876 7.15327 53.3539 7.15327C53.9757 7.15327 54.5253 7.29175 55.0028 7.56871C55.4913 7.83459 55.8689 8.23894 56.1353 8.78178C56.4129 9.31353 56.5517 9.99485 56.5517 10.8257V15.5783H55.6024V10.9254C55.6024 9.98377 55.3914 9.26368 54.9695 8.76516C54.5475 8.26664 53.959 8.01738 53.204 8.01738C52.4045 8.01738 51.7771 8.28326 51.3219 8.81501C50.8666 9.34677 50.639 10.1389 50.639 11.1913V15.5783H49.6896V7.26959Z" fill="white"/>
  <path d="M62.5723 15.6946C61.7618 15.6946 61.0511 15.5174 60.4404 15.1629C59.8408 14.8084 59.3745 14.3154 59.0414 13.6839C58.7082 13.0414 58.5417 12.2991 58.5417 11.4572C58.5417 10.6042 58.7082 9.85637 59.0414 9.21383C59.3745 8.56021 59.8408 8.05615 60.4404 7.70165C61.0511 7.33606 61.7618 7.15327 62.5723 7.15327C63.4162 7.15327 64.1546 7.35268 64.7875 7.7515C65.4316 8.15032 65.8924 8.69869 66.17 9.39662L65.2872 9.69573C65.1096 9.18613 64.7764 8.78732 64.2879 8.49928C63.8104 8.20017 63.2497 8.05061 62.6057 8.05061C61.9949 8.05061 61.4564 8.18909 60.9901 8.46605C60.5348 8.743 60.1795 9.13628 59.9241 9.64588C59.6798 10.1555 59.5577 10.7537 59.5577 11.4406C59.5577 12.4598 59.8297 13.274 60.3738 13.8833C60.929 14.4926 61.6674 14.7973 62.589 14.7973C63.2108 14.7973 63.7604 14.6588 64.2379 14.3818C64.7154 14.0938 65.0762 13.695 65.3205 13.1854L66.1866 13.4845C65.8868 14.1824 65.4205 14.7253 64.7875 15.113C64.1546 15.5007 63.4162 15.6946 62.5723 15.6946Z" fill="white"/>
  <path d="M68.5465 7.26959H69.4792V15.5783H68.5465V7.26959ZM69.0295 5.40844C68.8185 5.40844 68.6464 5.34198 68.5132 5.20904C68.3799 5.0761 68.3133 4.90992 68.3133 4.71051C68.3133 4.50003 68.3799 4.32831 68.5132 4.19537C68.6464 4.06244 68.8185 3.99597 69.0295 3.99597C69.2183 3.99597 69.3793 4.06244 69.5125 4.19537C69.6569 4.32831 69.729 4.50003 69.729 4.71051C69.729 4.90992 69.6569 5.0761 69.5125 5.20904C69.3793 5.34198 69.2183 5.40844 69.0295 5.40844Z" fill="white"/>
  <path d="M75.794 15.6946C75.0168 15.6946 74.3283 15.5118 73.7287 15.1462C73.1402 14.7696 72.6794 14.2544 72.3463 13.6008C72.0132 12.9472 71.8466 12.1939 71.8466 11.3409C71.8466 10.5321 72.0132 9.81206 72.3463 9.18059C72.6905 8.54913 73.1569 8.05615 73.7454 7.70165C74.3339 7.33606 75.0057 7.15327 75.7607 7.15327C76.5047 7.15327 77.1653 7.31945 77.7427 7.65179C78.3312 7.97306 78.7865 8.42173 79.1085 8.9978C79.4416 9.56279 79.6026 10.2109 79.5915 10.942C79.5915 11.0528 79.586 11.1747 79.5749 11.3076C79.5749 11.4295 79.5693 11.5624 79.5582 11.7064H72.8793C72.8904 12.3157 73.0236 12.853 73.279 13.3183C73.5344 13.7836 73.8731 14.1492 74.295 14.4151C74.7281 14.6699 75.2166 14.7973 75.7607 14.7973C76.4491 14.7973 77.0376 14.6588 77.5262 14.3818C78.0259 14.0938 78.3867 13.6895 78.6088 13.1688L79.4249 13.5011C79.1141 14.2101 78.6421 14.753 78.0092 15.1296C77.3763 15.5063 76.6379 15.6946 75.794 15.6946ZM78.5589 10.8756C78.57 10.3217 78.4589 9.83421 78.2257 9.41324C77.9926 8.99226 77.6595 8.65992 77.2264 8.41619C76.8045 8.17247 76.3048 8.05061 75.7274 8.05061C75.2166 8.05061 74.7558 8.17247 74.345 8.41619C73.9341 8.65992 73.5955 8.9978 73.329 9.42986C73.0736 9.85083 72.9237 10.3327 72.8793 10.8756H78.5589Z" fill="white"/>
  <path d="M81.7159 7.26959H82.5986L82.6486 8.74854C82.8373 8.40512 83.0927 8.106 83.4147 7.8512C83.7368 7.5964 84.1032 7.41361 84.514 7.30283C84.9249 7.19205 85.3745 7.18097 85.8631 7.26959V8.21679C85.3857 8.11708 84.9526 8.12262 84.564 8.2334C84.1754 8.33311 83.8367 8.5159 83.548 8.78178C83.2704 9.04766 83.0539 9.38 82.8984 9.77882C82.743 10.1776 82.6652 10.6318 82.6652 11.1414V15.5783H81.7159V7.26959Z" fill="white"/>
  <path d="M92.9995 15.5783L92.9329 13.8168C92.6997 14.4151 92.3333 14.8804 91.8336 15.2127C91.3451 15.534 90.7233 15.6946 89.9682 15.6946C89.3686 15.6946 88.8578 15.606 88.4359 15.4287C88.0139 15.2404 87.6864 14.9745 87.4532 14.6311C87.2311 14.2877 87.1201 13.8778 87.1201 13.4014C87.1201 12.7035 87.381 12.1385 87.9029 11.7064C88.4248 11.2633 89.202 10.9919 90.2347 10.8922L92.9329 10.5931V9.89514C92.9329 9.31907 92.7386 8.8704 92.3499 8.54913C91.9724 8.21679 91.445 8.05061 90.7677 8.05061C90.1237 8.05061 89.5851 8.20017 89.1521 8.49928C88.7301 8.79839 88.447 9.22491 88.3026 9.77882L87.4365 9.47971C87.6475 8.73746 88.0417 8.16693 88.6191 7.76812C89.1965 7.35822 89.9182 7.15327 90.7843 7.15327C91.7615 7.15327 92.5221 7.39699 93.0661 7.88444C93.6102 8.37188 93.8823 9.04212 93.8823 9.89514V15.5783H92.9995ZM92.9329 11.4073L90.218 11.7231C89.5074 11.8006 88.98 11.9779 88.6357 12.2548C88.3026 12.5207 88.1361 12.8863 88.1361 13.3516C88.1361 13.8168 88.2971 14.1824 88.6191 14.4483C88.9522 14.7142 89.4241 14.8471 90.0348 14.8471C90.6788 14.8471 91.2118 14.7197 91.6338 14.4649C92.0668 14.199 92.3888 13.839 92.5998 13.3848C92.8219 12.9195 92.9329 12.3988 92.9329 11.8228V11.4073Z" fill="white"/>
  <path d="M6.57896 30.4467C6.31247 30.8234 5.93494 31.1446 5.44638 31.4105C4.95782 31.6653 4.38597 31.7927 3.73085 31.7927C2.9869 31.7927 2.33178 31.6155 1.76549 31.261C1.21031 30.9065 0.777261 30.4079 0.466357 29.7654C0.155452 29.1229 0 28.3751 0 27.5221C0 26.6579 0.155452 25.9102 0.466357 25.2787C0.777261 24.6362 1.21031 24.1376 1.76549 23.7831C2.33178 23.4286 2.9869 23.2514 3.73085 23.2514C4.34156 23.2514 4.86899 23.3622 5.31314 23.5837C5.75729 23.8053 6.12371 24.0767 6.41241 24.398L6.54565 23.3677H8.24452V34.9999H6.36244V30.3969L6.57896 30.4467ZM2.01533 27.5221C2.01533 28.2865 2.21519 28.9068 2.61493 29.3832C3.01466 29.8596 3.53654 30.0977 4.18056 30.0977C4.56919 30.0977 4.92451 29.998 5.24651 29.7986C5.57963 29.5992 5.84612 29.3112 6.04598 28.9345C6.25695 28.5468 6.36244 28.076 6.36244 27.5221C6.36244 26.9571 6.25695 26.4862 6.04598 26.1096C5.84612 25.7329 5.57963 25.4449 5.24651 25.2455C4.92451 25.0461 4.56919 24.9464 4.18056 24.9464C3.53654 24.9464 3.01466 25.1845 2.61493 25.6609C2.21519 26.1373 2.01533 26.7577 2.01533 27.5221Z" fill="#53A490"/>
  <path d="M17.5814 31.6764H15.8492L15.7326 30.8455C15.455 31.1446 15.1219 31.3773 14.7333 31.5435C14.3447 31.7096 13.9338 31.7927 13.5008 31.7927C12.8457 31.7927 12.2794 31.6598 11.8019 31.3939C11.3356 31.1169 10.9747 30.7181 10.7193 30.1975C10.4639 29.6657 10.3362 29.0121 10.3362 28.2366V23.3677H12.2183V27.9873C12.2183 28.6742 12.3571 29.2004 12.6347 29.566C12.9123 29.9205 13.3398 30.0977 13.9172 30.0977C14.4724 30.0977 14.9054 29.9205 15.2163 29.566C15.5383 29.2004 15.6993 28.6631 15.6993 27.9541V23.3677H17.5814V31.6764Z" fill="#53A490"/>
  <path d="M23.5037 31.7927C22.6709 31.7927 21.938 31.6099 21.3051 31.2443C20.6833 30.8788 20.1947 30.3692 19.8394 29.7155C19.4952 29.0619 19.3231 28.3086 19.3231 27.4556C19.3231 26.6469 19.4952 25.9268 19.8394 25.2953C20.1836 24.6639 20.6611 24.1653 21.2718 23.7998C21.8825 23.4342 22.5765 23.2514 23.3538 23.2514C24.1421 23.2514 24.8361 23.4231 25.4357 23.7665C26.0353 24.1099 26.5017 24.5918 26.8348 25.2122C27.179 25.8215 27.3511 26.5305 27.3511 27.3393C27.3511 27.4722 27.3455 27.6162 27.3344 27.7713C27.3233 27.9153 27.3067 28.0704 27.2845 28.2366H21.3551C21.4106 28.6243 21.5327 28.9622 21.7215 29.2503C21.9214 29.5272 22.1712 29.7432 22.471 29.8983C22.7708 30.0534 23.115 30.131 23.5037 30.131C23.97 30.131 24.3864 30.0368 24.7528 29.8485C25.1303 29.6602 25.3913 29.4109 25.5356 29.1007L27.1845 29.6491C26.8514 30.3138 26.3573 30.84 25.7022 31.2277C25.0471 31.6044 24.3142 31.7927 23.5037 31.7927ZM25.3025 26.7078C25.2914 26.3644 25.197 26.0542 25.0193 25.7772C24.8417 25.5003 24.6085 25.2842 24.3198 25.1291C24.0311 24.963 23.7091 24.8799 23.3538 24.8799C23.0428 24.8799 22.7486 24.9574 22.471 25.1125C22.1934 25.2676 21.9547 25.4837 21.7548 25.7606C21.566 26.0265 21.4439 26.3422 21.3884 26.7078H25.3025Z" fill="#53A490"/>
  <path d="M34.3264 23.3677V21.0413H36.2418V23.3677H38.1905V25.0128H36.2418V28.7019C36.2418 29.2004 36.3362 29.5494 36.5249 29.7488C36.7137 29.9371 36.958 30.0424 37.2578 30.0645C37.5687 30.0756 37.8796 30.059 38.1905 30.0147V31.6099C37.713 31.7096 37.2411 31.7373 36.7748 31.693C36.3195 31.6598 35.9087 31.5379 35.5423 31.3274C35.1758 31.1059 34.8816 30.7846 34.6595 30.3636C34.4374 29.9427 34.3264 29.3887 34.3264 28.7019V25.0128H33.1605V23.3677H34.3264Z" fill="#53A490"/>
  <path d="M43.5424 31.7927C42.7096 31.7927 41.9768 31.6099 41.3439 31.2443C40.7221 30.8788 40.2335 30.3692 39.8782 29.7155C39.534 29.0619 39.3619 28.3086 39.3619 27.4556C39.3619 26.6469 39.534 25.9268 39.8782 25.2953C40.2224 24.6639 40.6999 24.1653 41.3106 23.7998C41.9213 23.4342 42.6153 23.2514 43.3925 23.2514C44.1809 23.2514 44.8749 23.4231 45.4745 23.7665C46.0741 24.1099 46.5404 24.5918 46.8735 25.2122C47.2177 25.8215 47.3899 26.5305 47.3899 27.3393C47.3899 27.4722 47.3843 27.6162 47.3732 27.7713C47.3621 27.9153 47.3454 28.0704 47.3232 28.2366H41.3938C41.4494 28.6243 41.5715 28.9622 41.7603 29.2503C41.9601 29.5272 42.21 29.7432 42.5098 29.8983C42.8096 30.0534 43.1538 30.131 43.5424 30.131C44.0088 30.131 44.4252 30.0368 44.7916 29.8485C45.1691 29.6602 45.4301 29.4109 45.5744 29.1007L47.2233 29.6491C46.8902 30.3138 46.3961 30.84 45.741 31.2277C45.0858 31.6044 44.353 31.7927 43.5424 31.7927ZM45.3412 26.7078C45.3301 26.3644 45.2357 26.0542 45.0581 25.7772C44.8804 25.5003 44.6472 25.2842 44.3585 25.1291C44.0698 24.963 43.7478 24.8799 43.3925 24.8799C43.0816 24.8799 42.7874 24.9574 42.5098 25.1125C42.2322 25.2676 41.9934 25.4837 41.7936 25.7606C41.6048 26.0265 41.4827 26.3422 41.4272 26.7078H45.3412Z" fill="#53A490"/>
  <path d="M57.563 31.7927C56.7303 31.7927 55.9974 31.6099 55.3645 31.2443C54.7427 30.8788 54.2541 30.3692 53.8988 29.7155C53.5546 29.0619 53.3825 28.3086 53.3825 27.4556C53.3825 26.6469 53.5546 25.9268 53.8988 25.2953C54.243 24.6639 54.7205 24.1653 55.3312 23.7998C55.9419 23.4342 56.6359 23.2514 57.4132 23.2514C58.2015 23.2514 58.8955 23.4231 59.4951 23.7665C60.0947 24.1099 60.5611 24.5918 60.8942 25.2122C61.2384 25.8215 61.4105 26.5305 61.4105 27.3393C61.4105 27.4722 61.4049 27.6162 61.3938 27.7713C61.3827 27.9153 61.3661 28.0704 61.3439 28.2366H55.4145C55.47 28.6243 55.5921 28.9622 55.7809 29.2503C55.9808 29.5272 56.2306 29.7432 56.5304 29.8983C56.8302 30.0534 57.1744 30.131 57.563 30.131C58.0294 30.131 58.4458 30.0368 58.8122 29.8485C59.1897 29.6602 59.4507 29.4109 59.595 29.1007L61.2439 29.6491C60.9108 30.3138 60.4167 30.84 59.7616 31.2277C59.1065 31.6044 58.3736 31.7927 57.563 31.7927ZM59.3618 26.7078C59.3507 26.3644 59.2564 26.0542 59.0787 25.7772C58.901 25.5003 58.6679 25.2842 58.3792 25.1291C58.0905 24.963 57.7685 24.8799 57.4132 24.8799C57.1022 24.8799 56.808 24.9574 56.5304 25.1125C56.2528 25.2676 56.0141 25.4837 55.8142 25.7606C55.6254 26.0265 55.5033 26.3422 55.4478 26.7078H59.3618Z" fill="#53A490"/>
  <path d="M64.3839 29.001C64.4616 29.3112 64.5949 29.5494 64.7836 29.7155C64.9835 29.8817 65.2 29.998 65.4332 30.0645C65.6664 30.1199 65.8885 30.1476 66.0994 30.1476C66.5325 30.1476 66.8711 30.0645 67.1154 29.8983C67.3708 29.7211 67.4985 29.4995 67.4985 29.2336C67.4985 29.0121 67.4152 28.8404 67.2487 28.7185C67.0821 28.5966 66.8656 28.5025 66.5991 28.436C66.3437 28.3585 66.0772 28.2809 65.7996 28.2034C65.4998 28.1258 65.1778 28.0372 64.8336 27.9375C64.5005 27.8378 64.184 27.6993 63.8842 27.5221C63.5844 27.3448 63.3401 27.1177 63.1514 26.8407C62.9626 26.5638 62.8682 26.2204 62.8682 25.8105C62.8682 25.2898 63.0126 24.8411 63.3013 24.4645C63.59 24.0767 63.9842 23.7776 64.4838 23.5671C64.9835 23.3566 65.5442 23.2514 66.166 23.2514C66.91 23.2514 67.554 23.4065 68.0981 23.7167C68.6422 24.0269 69.0364 24.4811 69.2806 25.0793L67.6318 25.611C67.554 25.456 67.4374 25.323 67.282 25.2122C67.1376 25.1014 66.96 25.0239 66.749 24.9796C66.5491 24.9242 66.3437 24.8965 66.1327 24.8965C65.7774 24.8965 65.4776 24.9685 65.2333 25.1125C64.9891 25.2565 64.8669 25.4615 64.8669 25.7274C64.8669 25.8603 64.9058 25.9766 64.9835 26.0763C65.0723 26.176 65.1889 26.2591 65.3333 26.3256C65.4776 26.381 65.6497 26.4364 65.8496 26.4918C66.0495 26.5361 66.2604 26.5915 66.4825 26.6579C66.8378 26.7577 67.1876 26.8684 67.5318 26.9903C67.8871 27.1011 68.2091 27.2451 68.4978 27.4223C68.7976 27.5996 69.0308 27.8322 69.1974 28.1203C69.375 28.4083 69.475 28.7739 69.4972 29.217C69.4972 29.6934 69.3584 30.131 69.0808 30.5298C68.8032 30.9175 68.4035 31.2277 67.8816 31.4604C67.3708 31.6819 66.7601 31.7927 66.0495 31.7927C65.2278 31.7927 64.5227 31.6155 63.9342 31.261C63.3457 30.9065 62.946 30.3359 62.735 29.5494L64.3839 29.001Z" fill="#53A490"/>
  <path d="M74.8661 31.7927C74.0667 31.7927 73.3616 31.6155 72.7509 31.261C72.1402 30.8954 71.6627 30.3969 71.3185 29.7654C70.9854 29.1339 70.8188 28.3972 70.8188 27.5553C70.8188 26.7023 70.9909 25.9545 71.3351 25.3119C71.6794 24.6694 72.1568 24.1653 72.7675 23.7998C73.3893 23.4342 74.1055 23.2514 74.9161 23.2514C75.7711 23.2514 76.5317 23.4563 77.1979 23.8662C77.8641 24.265 78.3416 24.8079 78.6303 25.4947L76.9148 26.0597C76.7704 25.7163 76.5206 25.4449 76.1653 25.2455C75.8211 25.035 75.4269 24.9297 74.9827 24.9297C74.5386 24.9297 74.1555 25.0405 73.8335 25.2621C73.5115 25.4726 73.2616 25.7717 73.084 26.1594C72.9174 26.5472 72.8342 27.0069 72.8342 27.5387C72.8342 28.3363 73.0285 28.9678 73.4171 29.4331C73.8057 29.8873 74.3387 30.1144 75.016 30.1144C75.4491 30.1144 75.8377 30.0202 76.1819 29.8319C76.5261 29.6325 76.7926 29.3555 76.9814 29.001L78.6636 29.5826C78.3416 30.2584 77.8364 30.7957 77.1479 31.1945C76.4706 31.5933 75.71 31.7927 74.8661 31.7927Z" fill="#53A490"/>
  <path d="M87.5544 31.6764H85.8223L85.7057 30.8455C85.4281 31.1446 85.095 31.3773 84.7063 31.5435C84.3177 31.7096 83.9069 31.7927 83.4738 31.7927C82.8187 31.7927 82.2524 31.6598 81.7749 31.3939C81.3086 31.1169 80.9477 30.7181 80.6923 30.1975C80.437 29.6657 80.3092 29.0121 80.3092 28.2366V23.3677H82.1913V27.9873C82.1913 28.6742 82.3301 29.2004 82.6077 29.566C82.8853 29.9205 83.3128 30.0977 83.8902 30.0977C84.4454 30.0977 84.8784 29.9205 85.1893 29.566C85.5114 29.2004 85.6724 28.6631 85.6724 27.9541V23.3677H87.5544V31.6764Z" fill="#53A490"/>
  <path d="M93.3434 31.7927C92.544 31.7927 91.8389 31.6155 91.2282 31.261C90.6175 30.8954 90.14 30.3969 89.7958 29.7654C89.4627 29.1339 89.2961 28.3972 89.2961 27.5553C89.2961 26.7023 89.4682 25.9545 89.8124 25.3119C90.1567 24.6694 90.6341 24.1653 91.2448 23.7998C91.8666 23.4342 92.5828 23.2514 93.3934 23.2514C94.2484 23.2514 95.009 23.4563 95.6752 23.8662C96.3414 24.265 96.8189 24.8079 97.1076 25.4947L95.3921 26.0597C95.2477 25.7163 94.9979 25.4449 94.6426 25.2455C94.2983 25.035 93.9042 24.9297 93.46 24.9297C93.0159 24.9297 92.6328 25.0405 92.3108 25.2621C91.9888 25.4726 91.7389 25.7717 91.5613 26.1594C91.3947 26.5472 91.3115 27.0069 91.3115 27.5387C91.3115 28.3363 91.5058 28.9678 91.8944 29.4331C92.283 29.8873 92.816 30.1144 93.4933 30.1144C93.9264 30.1144 94.315 30.0202 94.6592 29.8319C95.0034 29.6325 95.2699 29.3555 95.4587 29.001L97.1409 29.5826C96.8189 30.2584 96.3137 30.7957 95.6253 31.1945C94.9479 31.5933 94.1873 31.7927 93.3434 31.7927Z" fill="#53A490"/>
  <path d="M98.9032 19.7119H100.785V24.1321C101.052 23.8662 101.379 23.6557 101.768 23.5006C102.157 23.3345 102.59 23.2514 103.067 23.2514C103.689 23.2514 104.233 23.3899 104.699 23.6668C105.177 23.9327 105.543 24.3315 105.799 24.8633C106.065 25.3839 106.198 26.0376 106.198 26.8241V31.6764H104.25V27.0734C104.25 26.3755 104.105 25.8492 103.817 25.4947C103.539 25.1402 103.117 24.963 102.551 24.963C101.973 24.963 101.535 25.1458 101.235 25.5113C100.935 25.8769 100.785 26.4087 100.785 27.1066V31.6764H98.9032V19.7119Z" fill="#53A490"/>
  <path d="M113.268 31.6764L113.101 30.6627C112.835 31.0172 112.518 31.2887 112.152 31.477C111.785 31.6653 111.297 31.7595 110.686 31.7595C110.109 31.7595 109.609 31.6653 109.187 31.477C108.765 31.2776 108.438 31.0062 108.205 30.6627C107.982 30.3082 107.871 29.8983 107.871 29.4331C107.871 28.7351 108.127 28.1535 108.638 27.6882C109.159 27.2119 109.92 26.9183 110.919 26.8075L113.101 26.5749V25.9268C113.101 25.6609 112.985 25.4227 112.752 25.2122C112.518 24.9907 112.146 24.8799 111.636 24.8799C111.191 24.8799 110.803 24.9907 110.47 25.2122C110.148 25.4227 109.931 25.744 109.82 26.176L108.188 25.5778C108.399 24.8466 108.815 24.2761 109.437 23.8662C110.07 23.4563 110.836 23.2514 111.735 23.2514C112.824 23.2514 113.64 23.5228 114.184 24.0656C114.728 24.6085 115 25.3009 115 26.1428V31.6764H113.268ZM113.101 28.0206L111.103 28.2698C110.681 28.3252 110.364 28.4471 110.153 28.6354C109.942 28.8127 109.837 29.0398 109.837 29.3167C109.837 29.5715 109.937 29.7931 110.137 29.9814C110.348 30.1587 110.631 30.2473 110.986 30.2473C111.441 30.2473 111.824 30.1642 112.135 29.998C112.457 29.8319 112.696 29.5937 112.851 29.2835C113.018 28.9733 113.101 28.5911 113.101 28.1369V28.0206Z" fill="#53A490"/>
  <path d="M103.431 0H98.2266V5.19294H103.431V0Z" fill="url(#paint0_linear_1_1320)"/>
  <path d="M108.636 5.19238H103.431V10.3853H108.636V5.19238Z" fill="url(#paint1_linear_1_1320)"/>
  <path d="M103.431 10.3857H98.2262V15.5787H103.431V10.3857Z" fill="url(#paint2_linear_1_1320)"/>
  <defs>
    <linearGradient id="paint0_linear_1_1320" x1="98.2266" y1="2.59269" x2="103.431" y2="2.59269" gradientUnits="userSpaceOnUse">
      <stop stop-color="#53A490"/>
      <stop offset="0.38" stop-color="#5CB189"/>
      <stop offset="0.78" stop-color="#74D675"/>
      <stop offset="1" stop-color="#7EE46D"/>
    </linearGradient>
    <linearGradient id="paint1_linear_1_1320" x1="103.431" y1="7.78508" x2="108.636" y2="7.78508" gradientUnits="userSpaceOnUse">
      <stop stop-color="#53A490"/>
      <stop offset="0.38" stop-color="#5CB189"/>
      <stop offset="0.78" stop-color="#74D675"/>
      <stop offset="1" stop-color="#7EE46D"/>
    </linearGradient>
    <linearGradient id="paint2_linear_1_1320" x1="98.2262" y1="12.9784" x2="103.431" y2="12.9784" gradientUnits="userSpaceOnUse">
      <stop stop-color="#53A490"/>
      <stop offset="0.38" stop-color="#5CB189"/>
      <stop offset="0.78" stop-color="#74D675"/>
      <stop offset="1" stop-color="#7EE46D"/>
    </linearGradient>
  </defs>
</svg>