<?xml version="1.0" encoding="utf-8"?>
<!-- Generator: Adobe Illustrator 26.2.1, SVG Export Plug-In . SVG Version: 6.00 Build 0)  -->
<svg version="1.1" id="Capa_1" xmlns="http://www.w3.org/2000/svg" xmlns:xlink="http://www.w3.org/1999/xlink" x="0px" y="0px"
	 viewBox="0 0 164 50" style="enable-background:new 0 0 164 50;" xml:space="preserve">
<style type="text/css">
	.st0{fill:#28282B;}
	.st1{fill:#53A490;}
	.st2{fill:url(#SVGID_1_);}
	.st3{fill:url(#SVGID_00000151528063894869909680000011898315330812604832_);}
	.st4{fill:url(#SVGID_00000020387868919881684150000010351646357054385555_);}
</style>
<g>
	<polygon class="st0" points="2.6,5.6 1.1,5.6 1.1,22.3 10.5,22.3 10.5,21 2.6,21 	"/>
	<path class="st0" d="M17.6,10.2c-1.2,0-2.3,0.3-3.1,0.9c-0.8,0.6-1.4,1.4-1.7,2.4l1.2,0.4c0.2-0.8,0.6-1.4,1.2-1.8
		c0.6-0.4,1.4-0.6,2.3-0.6c1,0,1.7,0.2,2.3,0.7c0.6,0.5,0.8,1.1,0.8,1.9v1l-3.8,0.4c-1.5,0.1-2.6,0.5-3.3,1.2
		c-0.7,0.6-1.1,1.4-1.1,2.4c0,0.7,0.2,1.3,0.5,1.8c0.3,0.5,0.8,0.9,1.4,1.1c0.6,0.3,1.3,0.4,2.2,0.4c1.1,0,2-0.2,2.7-0.7
		c0.7-0.5,1.2-1.1,1.6-2l0.1,2.5H22v-8.1c0-1.2-0.4-2.2-1.2-2.9C20.1,10.6,19,10.2,17.6,10.2z M20.6,16.9c0,0.8-0.2,1.6-0.5,2.2
		c-0.3,0.6-0.8,1.2-1.4,1.5c-0.6,0.4-1.4,0.5-2.3,0.5c-0.9,0-1.5-0.2-2-0.6c-0.5-0.4-0.7-0.9-0.7-1.6c0-0.7,0.2-1.2,0.7-1.6
		c0.5-0.4,1.2-0.6,2.3-0.8l3.9-0.5V16.9z"/>
	<path class="st0" d="M34.3,8.9c0-0.9,0.2-1.5,0.6-2c0.4-0.4,1.1-0.6,2.2-0.5V5.2c-1-0.1-1.8,0-2.4,0.3c-0.6,0.3-1,0.7-1.3,1.3
		C33.1,7.4,33,8.1,33,8.9v1.4h-1.8v1.3H33v10.6h1.4V11.6h5v10.6h1.4V10.4h-6.3V8.9z"/>
	<path class="st0" d="M40,5.7c-0.3,0-0.5,0.1-0.8,0.3C39.1,6.2,39,6.5,39,6.8c0,0.3,0.1,0.6,0.3,0.8c0.2,0.2,0.5,0.3,0.8,0.3
		c0.3,0,0.5-0.1,0.7-0.3c0.2-0.2,0.3-0.5,0.3-0.8c0-0.3-0.1-0.6-0.3-0.8C40.6,5.8,40.3,5.7,40,5.7z"/>
	<path class="st0" d="M52.4,10.8c-0.7-0.4-1.5-0.6-2.3-0.6c-0.9,0-1.8,0.2-2.4,0.6c-0.6,0.4-1.1,1-1.5,1.7l-0.1-2.2h-1.3v11.9h1.4
		V16c0-1.5,0.3-2.6,1-3.4c0.6-0.8,1.5-1.1,2.7-1.1c1.1,0,1.9,0.4,2.5,1.1c0.6,0.7,0.9,1.7,0.9,3.1v6.6h1.4v-6.8
		c0-1.2-0.2-2.2-0.6-2.9C53.7,11.8,53.1,11.2,52.4,10.8z"/>
	<path class="st0" d="M62.7,10.2c-1.2,0-2.3,0.3-3.1,0.9c-0.8,0.6-1.4,1.4-1.7,2.4l1.2,0.4c0.2-0.8,0.6-1.4,1.2-1.8
		c0.6-0.4,1.4-0.6,2.3-0.6c1,0,1.7,0.2,2.3,0.7c0.6,0.5,0.8,1.1,0.8,1.9v1l-3.8,0.4c-1.5,0.1-2.6,0.5-3.3,1.2
		c-0.7,0.6-1.1,1.4-1.1,2.4c0,0.7,0.2,1.3,0.5,1.8c0.3,0.5,0.8,0.9,1.4,1.1c0.6,0.3,1.3,0.4,2.2,0.4c1.1,0,2-0.2,2.7-0.7
		c0.7-0.5,1.2-1.1,1.6-2l0.1,2.5h1.3v-8.1c0-1.2-0.4-2.2-1.2-2.9C65.2,10.6,64.1,10.2,62.7,10.2z M65.8,16.9c0,0.8-0.2,1.6-0.5,2.2
		c-0.3,0.6-0.8,1.2-1.4,1.5c-0.6,0.4-1.4,0.5-2.3,0.5c-0.9,0-1.5-0.2-2-0.6c-0.5-0.4-0.7-0.9-0.7-1.6c0-0.7,0.2-1.2,0.7-1.6
		c0.5-0.4,1.2-0.6,2.3-0.8l3.9-0.5V16.9z"/>
	<path class="st0" d="M78.3,10.8c-0.7-0.4-1.5-0.6-2.3-0.6c-0.9,0-1.8,0.2-2.4,0.6c-0.6,0.4-1.1,1-1.5,1.7L72,10.4h-1.3v11.9h1.4V16
		c0-1.5,0.3-2.6,1-3.4c0.6-0.8,1.5-1.1,2.7-1.1c1.1,0,1.9,0.4,2.5,1.1c0.6,0.7,0.9,1.7,0.9,3.1v6.6h1.4v-6.8c0-1.2-0.2-2.2-0.6-2.9
		C79.6,11.8,79,11.2,78.3,10.8z"/>
	<path class="st0" d="M91.5,20.5c-0.7,0.4-1.5,0.6-2.3,0.6c-1.3,0-2.4-0.4-3.2-1.3c-0.8-0.9-1.2-2-1.2-3.5c0-1,0.2-1.8,0.5-2.6
		c0.4-0.7,0.9-1.3,1.5-1.7c0.7-0.4,1.4-0.6,2.3-0.6c0.9,0,1.7,0.2,2.4,0.6c0.7,0.4,1.2,1,1.4,1.7l1.3-0.4c-0.4-1-1.1-1.8-2-2.4
		c-0.9-0.6-2-0.9-3.2-0.9c-1.2,0-2.2,0.3-3,0.8c-0.9,0.5-1.5,1.2-2,2.2c-0.5,0.9-0.7,2-0.7,3.2c0,1.2,0.2,2.3,0.7,3.2
		c0.5,0.9,1.1,1.6,2,2.1c0.9,0.5,1.9,0.8,3,0.8c1.2,0,2.3-0.3,3.2-0.8c0.9-0.6,1.6-1.3,2-2.3L93,18.8C92.7,19.6,92.1,20.1,91.5,20.5
		z"/>
	<rect x="97.6" y="10.4" class="st0" width="1.3" height="11.9"/>
	<path class="st0" d="M98.3,5.7c-0.3,0-0.5,0.1-0.7,0.3c-0.2,0.2-0.3,0.4-0.3,0.7c0,0.3,0.1,0.5,0.3,0.7c0.2,0.2,0.4,0.3,0.7,0.3
		c0.3,0,0.5-0.1,0.7-0.3c0.2-0.2,0.3-0.4,0.3-0.7c0-0.3-0.1-0.5-0.3-0.7C98.8,5.8,98.6,5.7,98.3,5.7z"/>
	<path class="st0" d="M110.7,10.9c-0.8-0.5-1.8-0.7-2.8-0.7c-1.1,0-2,0.3-2.9,0.8c-0.8,0.5-1.5,1.2-2,2.1c-0.5,0.9-0.7,1.9-0.7,3.1
		c0,1.2,0.2,2.3,0.7,3.2s1.1,1.7,2,2.2c0.9,0.5,1.8,0.8,2.9,0.8c1.2,0,2.3-0.3,3.2-0.8c0.9-0.5,1.6-1.3,2-2.3l-1.2-0.5
		c-0.3,0.7-0.8,1.3-1.5,1.7c-0.7,0.4-1.5,0.6-2.5,0.6c-0.8,0-1.5-0.2-2.1-0.5c-0.6-0.4-1.1-0.9-1.4-1.6c-0.4-0.7-0.6-1.4-0.6-2.3
		h9.5c0-0.2,0-0.4,0-0.6c0-0.2,0-0.4,0-0.5c0-1-0.2-2-0.7-2.8C112.2,12,111.5,11.4,110.7,10.9z M103.8,15.5c0.1-0.8,0.3-1.5,0.6-2.1
		c0.4-0.6,0.9-1.1,1.4-1.4c0.6-0.3,1.2-0.5,2-0.5c0.8,0,1.5,0.2,2.1,0.5c0.6,0.3,1.1,0.8,1.4,1.4c0.3,0.6,0.5,1.3,0.5,2.1H103.8z"/>
	<path class="st0" d="M120.3,10.4c-0.6,0.2-1.1,0.4-1.6,0.8c-0.5,0.4-0.8,0.8-1.1,1.3l-0.1-2.1h-1.3v11.9h1.4v-6.3
		c0-0.7,0.1-1.4,0.3-1.9c0.2-0.6,0.5-1,0.9-1.4c0.4-0.4,0.9-0.6,1.4-0.8c0.6-0.2,1.2-0.2,1.9,0v-1.4
		C121.6,10.3,120.9,10.3,120.3,10.4z"/>
	<path class="st0" d="M132.5,11.3c-0.8-0.7-1.9-1-3.2-1c-1.2,0-2.3,0.3-3.1,0.9c-0.8,0.6-1.4,1.4-1.7,2.4l1.2,0.4
		c0.2-0.8,0.6-1.4,1.2-1.8c0.6-0.4,1.4-0.6,2.3-0.6c1,0,1.7,0.2,2.3,0.7c0.6,0.5,0.8,1.1,0.8,1.9v1l-3.8,0.4
		c-1.5,0.1-2.6,0.5-3.3,1.2c-0.7,0.6-1.1,1.4-1.1,2.4c0,0.7,0.2,1.3,0.5,1.8c0.3,0.5,0.8,0.9,1.4,1.1c0.6,0.3,1.3,0.4,2.2,0.4
		c1.1,0,2-0.2,2.7-0.7c0.7-0.5,1.2-1.1,1.6-2l0.1,2.5h1.3v-8.1C133.7,12.9,133.3,12,132.5,11.3z M132.3,16.9c0,0.8-0.2,1.6-0.5,2.2
		c-0.3,0.6-0.8,1.2-1.4,1.5c-0.6,0.4-1.4,0.5-2.3,0.5c-0.9,0-1.5-0.2-2-0.6c-0.5-0.4-0.7-0.9-0.7-1.6c0-0.7,0.2-1.2,0.7-1.6
		c0.5-0.4,1.2-0.6,2.3-0.8l3.9-0.5V16.9z"/>
</g>
<g>
	<path class="st1" d="M9.1,34.9c-0.4-0.5-0.9-0.8-1.6-1.2c-0.6-0.3-1.4-0.5-2.3-0.5c-1.1,0-2,0.3-2.8,0.8c-0.8,0.5-1.4,1.2-1.8,2.1
		C0.2,37,0,38.1,0,39.3c0,1.2,0.2,2.3,0.7,3.2s1.1,1.6,1.8,2.1c0.8,0.5,1.7,0.8,2.8,0.8c0.9,0,1.7-0.2,2.4-0.5c0.5-0.3,1-0.6,1.3-1
		V50h2.7V33.4H9.3L9.1,34.9z M8.6,41.3c-0.3,0.5-0.7,0.9-1.1,1.2C7,42.9,6.5,43,6,43c-0.9,0-1.7-0.3-2.2-1c-0.6-0.7-0.9-1.6-0.9-2.7
		c0-1.1,0.3-2,0.9-2.7c0.6-0.7,1.3-1,2.2-1c0.6,0,1.1,0.1,1.5,0.4c0.5,0.3,0.9,0.7,1.1,1.2c0.3,0.5,0.5,1.2,0.5,2
		C9.1,40.1,8.9,40.8,8.6,41.3z"/>
	<path class="st1" d="M22.4,39.9c0,1-0.2,1.8-0.7,2.3c-0.4,0.5-1.1,0.8-1.8,0.8c-0.8,0-1.4-0.3-1.8-0.8c-0.4-0.5-0.6-1.3-0.6-2.3
		v-6.6h-2.7v7c0,1.1,0.2,2,0.5,2.8c0.4,0.7,0.9,1.3,1.5,1.7c0.7,0.4,1.5,0.6,2.4,0.6c0.6,0,1.2-0.1,1.8-0.4c0.6-0.2,1-0.6,1.4-1
		l0.2,1.2H25V33.4h-2.7V39.9z"/>
	<path class="st1" d="M36.2,34c-0.9-0.5-1.8-0.7-3-0.7c-1.1,0-2.1,0.3-3,0.8c-0.9,0.5-1.5,1.2-2,2.1c-0.5,0.9-0.7,1.9-0.7,3.1
		c0,1.2,0.2,2.3,0.7,3.2c0.5,0.9,1.2,1.7,2.1,2.2c0.9,0.5,1.9,0.8,3.1,0.8c1.2,0,2.2-0.3,3.1-0.8c0.9-0.6,1.6-1.3,2.1-2.3l-2.3-0.8
		c-0.2,0.4-0.6,0.8-1.1,1.1c-0.5,0.3-1.1,0.4-1.8,0.4c-0.6,0-1-0.1-1.5-0.3c-0.4-0.2-0.8-0.5-1.1-0.9c-0.3-0.4-0.4-0.9-0.5-1.4h8.4
		c0-0.2,0.1-0.5,0.1-0.7c0-0.2,0-0.4,0-0.6c0-1.2-0.2-2.2-0.7-3C37.7,35.1,37.1,34.4,36.2,34z M30.5,38.2c0.1-0.5,0.3-1,0.5-1.4
		c0.3-0.4,0.6-0.7,1-0.9c0.4-0.2,0.8-0.3,1.3-0.3c0.5,0,1,0.1,1.4,0.4c0.4,0.2,0.7,0.5,1,0.9c0.3,0.4,0.4,0.8,0.4,1.3H30.5z"/>
	<path class="st1" d="M51.6,30.1h-2.7v3.3h-1.7v2.4h1.7V41c0,1,0.2,1.8,0.5,2.4c0.3,0.6,0.7,1.1,1.3,1.4c0.5,0.3,1.1,0.5,1.8,0.5
		c0.7,0.1,1.3,0,2-0.1v-2.3c-0.4,0.1-0.9,0.1-1.3,0.1c-0.4,0-0.8-0.2-1-0.5c-0.3-0.3-0.4-0.8-0.4-1.5v-5.3h2.8v-2.4h-2.8V30.1z"/>
	<path class="st1" d="M64.8,34c-0.9-0.5-1.8-0.7-3-0.7c-1.1,0-2.1,0.3-3,0.8c-0.9,0.5-1.5,1.2-2,2.1C56.3,37,56,38.1,56,39.2
		c0,1.2,0.2,2.3,0.7,3.2c0.5,0.9,1.2,1.7,2.1,2.2c0.9,0.5,1.9,0.8,3.1,0.8c1.2,0,2.2-0.3,3.1-0.8c0.9-0.6,1.6-1.3,2.1-2.3l-2.3-0.8
		c-0.2,0.4-0.6,0.8-1.1,1.1C63.3,42.9,62.7,43,62,43c-0.6,0-1-0.1-1.5-0.3c-0.4-0.2-0.8-0.5-1.1-0.9c-0.3-0.4-0.4-0.9-0.5-1.4h8.4
		c0-0.2,0.1-0.5,0.1-0.7c0-0.2,0-0.4,0-0.6c0-1.2-0.2-2.2-0.7-3C66.3,35.1,65.6,34.4,64.8,34z M59,38.2c0.1-0.5,0.3-1,0.5-1.4
		c0.3-0.4,0.6-0.7,1-0.9c0.4-0.2,0.8-0.3,1.3-0.3c0.5,0,1,0.1,1.4,0.4c0.4,0.2,0.7,0.5,1,0.9c0.3,0.4,0.4,0.8,0.4,1.3H59z"/>
	<path class="st1" d="M84.7,34c-0.9-0.5-1.8-0.7-3-0.7c-1.1,0-2.1,0.3-3,0.8c-0.9,0.5-1.5,1.2-2,2.1C76.3,37,76,38.1,76,39.2
		c0,1.2,0.2,2.3,0.7,3.2c0.5,0.9,1.2,1.7,2.1,2.2c0.9,0.5,1.9,0.8,3.1,0.8c1.2,0,2.2-0.3,3.1-0.8c0.9-0.6,1.6-1.3,2.1-2.3l-2.3-0.8
		c-0.2,0.4-0.6,0.8-1.1,1.1C83.2,42.9,82.6,43,82,43c-0.6,0-1-0.1-1.5-0.3c-0.4-0.2-0.8-0.5-1.1-0.9c-0.3-0.4-0.4-0.9-0.5-1.4h8.4
		c0-0.2,0.1-0.5,0.1-0.7c0-0.2,0-0.4,0-0.6c0-1.2-0.2-2.2-0.7-3C86.2,35.1,85.6,34.4,84.7,34z M79,38.2c0.1-0.5,0.3-1,0.5-1.4
		c0.3-0.4,0.6-0.7,1-0.9c0.4-0.2,0.8-0.3,1.3-0.3c0.5,0,1,0.1,1.4,0.4c0.4,0.2,0.7,0.5,1,0.9c0.3,0.4,0.4,0.8,0.4,1.3H79z"/>
	<path class="st1" d="M97.5,39.2c-0.4-0.3-0.9-0.5-1.4-0.6c-0.5-0.2-1-0.3-1.5-0.5c-0.3-0.1-0.6-0.2-0.9-0.2
		c-0.3-0.1-0.5-0.2-0.7-0.2c-0.2-0.1-0.4-0.2-0.5-0.4c-0.1-0.1-0.2-0.3-0.2-0.5c0-0.4,0.2-0.7,0.5-0.9s0.8-0.3,1.3-0.3
		c0.3,0,0.6,0,0.9,0.1c0.3,0.1,0.6,0.2,0.8,0.3c0.2,0.2,0.4,0.3,0.5,0.6l2.3-0.8c-0.3-0.9-0.9-1.5-1.7-1.9c-0.8-0.4-1.7-0.7-2.8-0.7
		c-0.9,0-1.7,0.2-2.4,0.5c-0.7,0.3-1.3,0.7-1.7,1.3c-0.4,0.5-0.6,1.2-0.6,1.9c0,0.6,0.1,1.1,0.4,1.5c0.3,0.4,0.6,0.7,1,1
		c0.4,0.3,0.9,0.5,1.4,0.6c0.5,0.1,0.9,0.3,1.4,0.4c0.4,0.1,0.8,0.2,1.1,0.3c0.4,0.1,0.7,0.2,0.9,0.4c0.2,0.2,0.4,0.4,0.4,0.7
		c0,0.4-0.2,0.7-0.5,0.9c-0.3,0.2-0.8,0.4-1.4,0.4c-0.3,0-0.6,0-0.9-0.1c-0.3-0.1-0.6-0.3-0.9-0.5c-0.3-0.2-0.5-0.6-0.6-1l-2.3,0.8
		c0.3,1.1,0.9,1.9,1.7,2.4c0.8,0.5,1.8,0.8,3,0.8c1,0,1.9-0.2,2.6-0.5c0.7-0.3,1.3-0.8,1.7-1.3c0.4-0.6,0.6-1.2,0.6-1.9
		c0-0.6-0.2-1.2-0.4-1.6C98.3,39.8,98,39.4,97.5,39.2z"/>
	<path class="st1" d="M108.5,42.6c-0.5,0.3-1,0.4-1.7,0.4c-1,0-1.7-0.3-2.3-1c-0.6-0.7-0.8-1.6-0.8-2.7c0-0.8,0.1-1.4,0.4-2
		c0.3-0.6,0.6-1,1.1-1.3c0.5-0.3,1-0.5,1.6-0.5c0.6,0,1.2,0.2,1.7,0.5c0.5,0.3,0.9,0.7,1.1,1.2l2.4-0.8c-0.4-1-1.1-1.8-2-2.3
		c-0.9-0.6-2-0.9-3.2-0.9c-1.2,0-2.2,0.3-3.1,0.8c-0.9,0.5-1.5,1.2-2,2.2s-0.7,2-0.7,3.2c0,1.2,0.2,2.3,0.7,3.2
		c0.5,0.9,1.2,1.6,2,2.1c0.9,0.5,1.9,0.8,3,0.8c1.2,0,2.3-0.3,3.2-0.9c1-0.6,1.7-1.3,2.2-2.3l-2.4-0.8
		C109.3,41.9,109,42.3,108.5,42.6z"/>
	<path class="st1" d="M122,39.9c0,1-0.2,1.8-0.7,2.3c-0.4,0.5-1.1,0.8-1.8,0.8c-0.8,0-1.4-0.3-1.8-0.8c-0.4-0.5-0.6-1.3-0.6-2.3
		v-6.6h-2.7v7c0,1.1,0.2,2,0.5,2.8c0.4,0.7,0.9,1.3,1.5,1.7c0.7,0.4,1.5,0.6,2.4,0.6c0.6,0,1.2-0.1,1.8-0.4c0.6-0.2,1-0.6,1.4-1
		l0.2,1.2h2.5V33.4H122V39.9z"/>
	<path class="st1" d="M134.8,42.6c-0.5,0.3-1,0.4-1.7,0.4c-1,0-1.7-0.3-2.3-1c-0.6-0.7-0.8-1.6-0.8-2.7c0-0.8,0.1-1.4,0.4-2
		c0.3-0.6,0.6-1,1.1-1.3c0.5-0.3,1-0.5,1.6-0.5c0.6,0,1.2,0.2,1.7,0.5c0.5,0.3,0.9,0.7,1.1,1.2l2.4-0.8c-0.4-1-1.1-1.8-2-2.3
		c-0.9-0.6-2-0.9-3.2-0.9c-1.2,0-2.2,0.3-3.1,0.8c-0.9,0.5-1.5,1.2-2,2.2s-0.7,2-0.7,3.2c0,1.2,0.2,2.3,0.7,3.2
		c0.5,0.9,1.2,1.6,2,2.1c0.9,0.5,1.9,0.8,3,0.8c1.2,0,2.3-0.3,3.2-0.9c1-0.6,1.7-1.3,2.2-2.3l-2.4-0.8
		C135.7,41.9,135.3,42.3,134.8,42.6z"/>
	<path class="st1" d="M149.1,33.8c-0.7-0.4-1.4-0.6-2.3-0.6c-0.7,0-1.3,0.1-1.9,0.4c-0.6,0.2-1,0.5-1.4,0.9v-6.3h-2.7v17.1h2.7v-6.5
		c0-1,0.2-1.8,0.6-2.3c0.4-0.5,1.1-0.8,1.9-0.8c0.8,0,1.4,0.3,1.8,0.8c0.4,0.5,0.6,1.3,0.6,2.3v6.6h2.8v-6.9c0-1.1-0.2-2.1-0.6-2.8
		C150.3,34.8,149.8,34.2,149.1,33.8z"/>
	<path class="st1" d="M162.6,34.4c-0.8-0.8-1.9-1.2-3.5-1.2c-1.3,0-2.4,0.3-3.3,0.9c-0.9,0.6-1.5,1.4-1.8,2.4l2.3,0.9
		c0.2-0.6,0.5-1.1,0.9-1.4c0.5-0.3,1-0.5,1.7-0.5c0.7,0,1.3,0.2,1.6,0.5c0.3,0.3,0.5,0.6,0.5,1V38l-3.1,0.3
		c-1.4,0.2-2.5,0.6-3.2,1.3c-0.7,0.7-1.1,1.5-1.1,2.5c0,0.7,0.2,1.3,0.5,1.8c0.3,0.5,0.8,0.9,1.4,1.2c0.6,0.3,1.3,0.4,2.1,0.4
		c0.9,0,1.6-0.1,2.1-0.4c0.5-0.3,1-0.7,1.4-1.2l0.2,1.4h2.5v-7.9C163.8,36.1,163.4,35.2,162.6,34.4z M161,40.2
		c0,0.6-0.1,1.2-0.4,1.6c-0.2,0.4-0.6,0.8-1,1c-0.4,0.2-1,0.4-1.6,0.4c-0.5,0-0.9-0.1-1.2-0.4c-0.3-0.3-0.4-0.6-0.4-0.9
		c0-0.4,0.2-0.7,0.5-1c0.3-0.3,0.8-0.4,1.4-0.5L161,40V40.2z"/>
</g>
<linearGradient id="SVGID_1_" gradientUnits="userSpaceOnUse" x1="139.866" y1="48.2908" x2="147.277" y2="48.2908" gradientTransform="matrix(1 0 0 -1 0 52)">
	<stop  offset="0" style="stop-color:#53A490"/>
	<stop  offset="0.38" style="stop-color:#5CB189"/>
	<stop  offset="0.78" style="stop-color:#74D675"/>
	<stop  offset="1" style="stop-color:#7EE46D"/>
</linearGradient>
<path class="st2" d="M147.3,0h-7.4v7.4h7.4V0z"/>
<linearGradient id="SVGID_00000116204157063985690610000013335202970100702143_" gradientUnits="userSpaceOnUse" x1="147.277" y1="40.8723" x2="154.689" y2="40.8723" gradientTransform="matrix(1 0 0 -1 0 52)">
	<stop  offset="0" style="stop-color:#53A490"/>
	<stop  offset="0.38" style="stop-color:#5CB189"/>
	<stop  offset="0.78" style="stop-color:#74D675"/>
	<stop  offset="1" style="stop-color:#7EE46D"/>
</linearGradient>
<path style="fill:url(#SVGID_00000116204157063985690610000013335202970100702143_);" d="M154.7,7.4h-7.4v7.4h7.4V7.4z"/>
<linearGradient id="SVGID_00000029021674038257696360000009447328635724397726_" gradientUnits="userSpaceOnUse" x1="139.866" y1="33.4539" x2="147.277" y2="33.4539" gradientTransform="matrix(1 0 0 -1 0 52)">
	<stop  offset="0" style="stop-color:#53A490"/>
	<stop  offset="0.38" style="stop-color:#5CB189"/>
	<stop  offset="0.78" style="stop-color:#74D675"/>
	<stop  offset="1" style="stop-color:#7EE46D"/>
</linearGradient>
<path style="fill:url(#SVGID_00000029021674038257696360000009447328635724397726_);" d="M147.3,14.8h-7.4v7.4h7.4V14.8z"/>
</svg>
