<svg width="50" height="50" viewBox="0 0 50 50" fill="none" xmlns="http://www.w3.org/2000/svg">
<path d="M5.35408 28.8814C5.08108 28.8814 4.86096 28.6575 4.86096 28.3831C4.86096 17.4762 13.6412 8.60168 24.434 8.60168C28.2774 8.60168 31.9994 9.72689 35.1939 11.856C35.4212 12.0076 35.4841 12.3167 35.3354 12.5464C35.1839 12.7775 34.8766 12.8382 34.6522 12.688C31.6178 10.6658 28.0845 9.59689 24.434 9.59689C14.1858 9.59689 5.84719 18.0237 5.84719 28.3802C5.84862 28.659 5.62707 28.8814 5.35408 28.8814Z" fill="#37A492"/>
<path d="M5.7675 33.7758C5.55539 33.7758 5.36142 33.6414 5.30281 33.4357C5.12279 32.8052 4.97627 32.1599 4.86742 31.5186C4.82416 31.2659 5.00278 31.0265 5.26513 30.9862C5.52469 30.9392 5.77448 31.1166 5.81774 31.3694C5.921 31.9784 6.06055 32.5914 6.23219 33.1897C6.30336 33.4371 6.15265 33.6925 5.89588 33.7611C5.85262 33.7718 5.81076 33.7758 5.7675 33.7758Z" fill="#37A492"/>
<path d="M24.1217 48.4615C20.1878 48.4615 16.3943 47.2975 13.1482 45.0961C10.8738 43.5536 8.90468 41.5033 7.45434 39.1666C7.0244 38.4746 6.63459 37.7508 6.29637 37.0142C6.18172 36.7652 6.29064 36.4688 6.53857 36.3537C6.78937 36.2401 7.08173 36.348 7.19638 36.5969C7.5174 37.2962 7.88715 37.9839 8.2956 38.6415C9.67428 40.8602 11.5445 42.8083 13.7043 44.2731C16.7855 46.3637 20.3884 47.4687 24.1232 47.4687C34.4002 47.4687 42.7597 39.0746 42.7597 28.7582C42.7597 25.0805 41.6977 21.5194 39.687 18.4619C39.5366 18.2331 39.5996 17.9252 39.8275 17.7741C40.0568 17.6245 40.3621 17.6849 40.514 17.9151C42.6307 21.1352 43.75 24.8848 43.75 28.7582C43.75 39.6213 34.9448 48.4615 24.1217 48.4615Z" fill="#37A492"/>
<path d="M23.957 44.2657C15.7253 44.2657 9.02814 37.521 9.02814 29.2308C9.02814 20.9405 15.7253 14.1958 23.957 14.1958C26.6407 14.1958 29.2728 14.9216 31.5697 16.2954C31.8047 16.4354 31.882 16.7413 31.7431 16.978C31.6041 17.2175 31.2974 17.2911 31.0653 17.1526C28.9218 15.8712 26.4645 15.1929 23.9584 15.1929C16.2726 15.1929 10.0182 21.4903 10.0182 29.2322C10.0182 36.9726 16.2712 43.2715 23.9584 43.2715C31.6442 43.2715 37.8986 36.9741 37.8986 29.2322C37.8986 26.7329 37.238 24.2768 35.9886 22.1339C35.8496 21.8973 35.9298 21.5913 36.1648 21.4514C36.3998 21.3114 36.7021 21.3893 36.8411 21.6289C38.1808 23.9262 38.8887 26.5539 38.8887 29.2322C38.8872 37.521 32.1901 44.2657 23.957 44.2657Z" fill="#37A492"/>
<path d="M24.3049 29.3858C24.1767 29.3858 24.0456 29.336 23.948 29.2377C23.7528 29.0397 23.7528 28.7185 23.9495 28.5205L30.8255 21.6343C29.0996 20.0591 26.8173 19.0911 24.3049 19.0911C18.9363 19.0911 14.5828 23.4736 14.5828 28.8813C14.5828 34.2875 18.9348 38.6715 24.3049 38.6715C29.6735 38.6715 34.0269 34.289 34.0269 28.8813C34.0269 26.3703 33.0802 24.0866 31.5363 22.353L24.6602 29.2406C24.5627 29.3374 24.4345 29.3858 24.3049 29.3858Z" fill="#37A492"/>
<path d="M47.0756 5.24847C46.8794 5.05825 46.5627 5.05684 46.3665 5.24707L30.5556 20.4986C30.8041 20.717 31.0394 20.9467 31.2632 21.189L47.0741 5.9375C47.2703 5.74728 47.2717 5.44011 47.0756 5.24847Z" fill="#37A492"/>
<path d="M43.7503 9.30062C43.3669 9.30062 43.0558 9.07933 43.0558 8.80806V2.80018C43.0558 2.52749 43.3669 2.30762 43.7503 2.30762C44.1336 2.30762 44.4447 2.52891 44.4447 2.80018V8.80806C44.4447 9.07933 44.1316 9.30062 43.7503 9.30062Z" fill="#37A492"/>
<path d="M49.5098 10.0003H43.5462C43.2755 10.0003 43.0558 9.68611 43.0558 9.30099C43.0558 8.91384 43.2755 8.60168 43.5462 8.60168H49.5098C49.7805 8.60168 50.0002 8.91586 50.0002 9.30099C50.0002 9.68611 49.7805 10.0003 49.5098 10.0003Z" fill="#37A492"/>
<path d="M2.77772 49.9202C4.31182 49.9202 5.55545 48.6679 5.55545 47.123C5.55545 45.5782 4.31182 44.3258 2.77772 44.3258C1.24363 44.3258 0 45.5782 0 47.123C0 48.6679 1.24363 49.9202 2.77772 49.9202Z" fill="#37A492"/>
<path d="M8.13429 13.4966C8.01829 13.4966 7.90086 13.4489 7.80633 13.3552C7.60154 13.148 7.58292 12.7878 7.76337 12.5527C8.8346 11.1648 10.9398 9.47437 11.0286 9.40366C11.2535 9.22278 11.5614 9.28691 11.7175 9.54508C11.8736 9.80161 11.8177 10.1552 11.5943 10.3344C11.5743 10.3508 9.49767 12.0183 8.50521 13.3058C8.40783 13.4325 8.27034 13.4966 8.13429 13.4966Z" fill="#37A492"/>
<path d="M35.4171 8.60088C35.0337 8.60088 34.7227 8.35771 34.7227 8.05963V3.54771C34.7227 3.24807 35.0337 3.00647 35.4171 3.00647C35.8004 3.00647 36.1115 3.24964 36.1115 3.54771V8.05963C36.1115 8.35771 35.8004 8.60088 35.4171 8.60088Z" fill="#37A492"/>
<path d="M37.6559 6.5037H33.1779C32.8805 6.5037 32.6392 6.18953 32.6392 5.8044C32.6392 5.41928 32.8805 5.1051 33.1779 5.1051H37.6559C37.9533 5.1051 38.1946 5.41928 38.1946 5.8044C38.1946 6.18953 37.9533 6.5037 37.6559 6.5037Z" fill="#37A492"/>
<path d="M46.1812 41.4686C46.7565 41.4686 47.2229 40.999 47.2229 40.4197C47.2229 39.8404 46.7565 39.3707 46.1812 39.3707C45.6059 39.3707 45.1396 39.8404 45.1396 40.4197C45.1396 40.999 45.6059 41.4686 46.1812 41.4686Z" fill="#37A492"/>
</svg>
